<svg xmlns="http://www.w3.org/2000/svg" xmlns:xlink="http://www.w3.org/1999/xlink" width="870.375" height="577.238" viewBox="0 0 870.375 577.238">
  <defs>
    <linearGradient id="linear-gradient" x1="0.5" x2="0.5" y2="1" gradientUnits="objectBoundingBox">
      <stop offset="0" stop-color="#039be5"/>
      <stop offset="1" stop-color="#027fbc"/>
    </linearGradient>
    <linearGradient id="linear-gradient-5" x1="0.5" x2="0.5" y2="1" gradientUnits="objectBoundingBox">
      <stop offset="0" stop-color="#f5f5f5"/>
      <stop offset="0.25" stop-color="#f5f5f5"/>
      <stop offset="1" stop-color="#afafaf"/>
    </linearGradient>
  </defs>
  <g id="conceptual1" transform="translate(-333.5 -4171)">
    <path id="Unión_51" data-name="Unión 51" d="M0,0H22.912V10.906H0Z" transform="translate(1043.277 4322.214)" fill="#bec1c7"/>
    <path id="Unión_52" data-name="Unión 52" d="M0,0H150.6V10.906H0Z" transform="translate(1066.188 4252.37) rotate(90)" fill="#bec1c7"/>
    <path id="Unión_49" data-name="Unión 49" d="M0,0H29.571V10.906H0Z" transform="translate(1084.853 4262.821) rotate(180)" fill="#bec1c7"/>
    <path id="Unión_48" data-name="Unión 48" d="M0,0H29.571V10.906H0Z" transform="translate(1084.853 4403.205) rotate(180)" fill="#bec1c7"/>
    <path id="Unión_50" data-name="Unión 50" d="M19.583,13.983,0,27.969V0Z" transform="translate(1079.369 4243.385)" fill="#bec1c7"/>
    <path id="Unión_47" data-name="Unión 47" d="M19.583,13.983,0,27.969V0Z" transform="translate(1079.369 4383.768)" fill="#bec1c7"/>
    <path id="Unión_41" data-name="Unión 41" d="M0,0H22.912V10.906H0Z" transform="translate(847.864 4648.572)" fill="#bec1c7"/>
    <path id="Unión_42" data-name="Unión 42" d="M0,0H186.118V10.906H0Z" transform="translate(870.775 4561.881) rotate(90)" fill="#bec1c7"/>
    <path id="Unión_44" data-name="Unión 44" d="M0,0H29.571V10.906H0Z" transform="translate(889.44 4572.333) rotate(180)" fill="#bec1c7"/>
    <path id="Unión_40" data-name="Unión 40" d="M0,0H29.571V10.906H0Z" transform="translate(889.44 4748.238) rotate(180)" fill="#bec1c7"/>
    <rect id="Rectángulo_37079" data-name="Rectángulo 37079" width="288.628" height="58.399" rx="10" transform="translate(334.623 4171)" fill="url(#linear-gradient)"/>
    <rect id="Rectángulo_37089" data-name="Rectángulo 37089" width="116.799" height="58.399" rx="10" transform="translate(682.773 4297.906)" fill="#12263f"/>
    <rect id="Rectángulo_37092" data-name="Rectángulo 37092" width="116.799" height="58.399" rx="10" transform="translate(682.773 4439.413)" fill="#12263f"/>
    <rect id="Rectángulo_37082" data-name="Rectángulo 37082" width="288.628" height="58.399" rx="10" transform="translate(334.623 4369.782)" fill="url(#linear-gradient)"/>
    <rect id="Rectángulo_37093" data-name="Rectángulo 37093" width="179.69" height="58.399" rx="10" transform="translate(650.204 4623.595)" fill="url(#linear-gradient)"/>
    <rect id="Rectángulo_37104" data-name="Rectángulo 37104" width="179.69" height="58.399" rx="10" transform="translate(865.833 4297.906)" fill="url(#linear-gradient)"/>
    <rect id="Rectángulo_37099" data-name="Rectángulo 37099" width="167.337" height="33.692" rx="6" transform="translate(883.802 4583.165)" fill="url(#linear-gradient-5)"/>
    <rect id="Rectángulo_37110" data-name="Rectángulo 37110" width="97.707" height="33.692" rx="6" transform="translate(1106.168 4240.63)" fill="url(#linear-gradient-5)"/>
    <rect id="Rectángulo_37111" data-name="Rectángulo 37111" width="97.707" height="33.692" rx="6" transform="translate(1106.168 4377.644)" fill="url(#linear-gradient-5)"/>
    <rect id="Rectángulo_37102" data-name="Rectángulo 37102" width="167.337" height="33.692" rx="6" transform="translate(883.802 4657.287)" fill="url(#linear-gradient-5)"/>
    <rect id="Rectángulo_37100" data-name="Rectángulo 37100" width="167.337" height="33.692" rx="6" transform="translate(883.802 4620.226)" fill="url(#linear-gradient-5)"/>
    <rect id="Rectángulo_37101" data-name="Rectángulo 37101" width="167.337" height="33.692" rx="6" transform="translate(883.802 4694.348)" fill="url(#linear-gradient-5)"/>
    <g id="Rectángulo_37080" data-name="Rectángulo 37080" transform="translate(333.5 4171)" fill="#fff" stroke="#1565c0" stroke-width="1">
      <rect width="55.03" height="58.399" rx="10" stroke="none"/>
      <rect x="0.5" y="0.5" width="54.03" height="57.399" rx="9.5" fill="none"/>
    </g>
    <g id="Rectángulo_37083" data-name="Rectángulo 37083" transform="translate(333.5 4369.782)" fill="#fff" stroke="#1565c0" stroke-width="1">
      <rect width="55.03" height="58.399" rx="10" stroke="none"/>
      <rect x="0.5" y="0.5" width="54.03" height="57.399" rx="9.5" fill="none"/>
    </g>
    <g id="Rectángulo_37094" data-name="Rectángulo 37094" transform="translate(649.081 4623.595)" fill="#fff" stroke="#1565c0" stroke-width="1">
      <rect width="55.03" height="58.399" rx="10" stroke="none"/>
      <rect x="0.5" y="0.5" width="54.03" height="57.399" rx="9.5" fill="none"/>
    </g>
    <g id="Rectángulo_37105" data-name="Rectángulo 37105" transform="translate(864.71 4297.906)" fill="#fff" stroke="#1565c0" stroke-width="1">
      <rect width="55.03" height="58.399" rx="10" stroke="none"/>
      <rect x="0.5" y="0.5" width="54.03" height="57.399" rx="9.5" fill="none"/>
    </g>
    <path id="Trazado_183582" data-name="Trazado 183582" d="M5.256-5.7A7.935,7.935,0,0,1,2.1-7.238a2.93,2.93,0,0,1-.989-2.246,3.1,3.1,0,0,1,1.208-2.5,4.8,4.8,0,0,1,3.142-.989,5.243,5.243,0,0,1,2.351.51,3.866,3.866,0,0,1,1.6,1.406A3.6,3.6,0,0,1,9.976-9.1h-1.7a2.34,2.34,0,0,0-.738-1.83,3,3,0,0,0-2.083-.666,3.074,3.074,0,0,0-1.947.55,1.836,1.836,0,0,0-.7,1.528A1.652,1.652,0,0,0,3.476-8.19,6.509,6.509,0,0,0,5.735-7.2a10.481,10.481,0,0,1,2.5.99A3.788,3.788,0,0,1,9.567-4.948,3.219,3.219,0,0,1,10-3.252,2.99,2.99,0,0,1,8.789-.76,5.171,5.171,0,0,1,5.546.176,6.015,6.015,0,0,1,3.085-.33,4.142,4.142,0,0,1,1.323-1.714a3.378,3.378,0,0,1-.62-2H2.4a2.2,2.2,0,0,0,.857,1.833,3.608,3.608,0,0,0,2.29.672,3.317,3.317,0,0,0,2.048-.545,1.77,1.77,0,0,0,.712-1.485,1.738,1.738,0,0,0-.659-1.455A7.6,7.6,0,0,0,5.256-5.7ZM13.676,0H12.05V-9.51h1.626ZM11.918-12.032a.971.971,0,0,1,.242-.668.907.907,0,0,1,.716-.272.922.922,0,0,1,.721.272.96.96,0,0,1,.246.668.929.929,0,0,1-.246.659.938.938,0,0,1-.721.264.924.924,0,0,1-.716-.264A.938.938,0,0,1,11.918-12.032Zm9.9,9.51a1.2,1.2,0,0,0-.5-1.024,4.78,4.78,0,0,0-1.731-.628,8.186,8.186,0,0,1-1.96-.633,2.788,2.788,0,0,1-1.072-.879A2.1,2.1,0,0,1,16.207-6.9,2.467,2.467,0,0,1,17.2-8.877a3.861,3.861,0,0,1,2.527-.809,3.974,3.974,0,0,1,2.624.835,2.652,2.652,0,0,1,1.006,2.136H21.718a1.468,1.468,0,0,0-.567-1.151,2.124,2.124,0,0,0-1.428-.483,2.223,2.223,0,0,0-1.389.387,1.217,1.217,0,0,0-.5,1.011.986.986,0,0,0,.466.888,5.731,5.731,0,0,0,1.683.571,8.77,8.77,0,0,1,1.973.65,2.878,2.878,0,0,1,1.121.91,2.237,2.237,0,0,1,.365,1.3,2.434,2.434,0,0,1-1.02,2.043,4.277,4.277,0,0,1-2.646.769,4.789,4.789,0,0,1-2.021-.4,3.288,3.288,0,0,1-1.375-1.129,2.722,2.722,0,0,1-.5-1.569h1.626a1.683,1.683,0,0,0,.655,1.3,2.54,2.54,0,0,0,1.613.479,2.622,2.622,0,0,0,1.481-.374A1.148,1.148,0,0,0,21.814-2.522Zm5.95-9.29v2.3H29.54v1.257H27.765v5.9A1.32,1.32,0,0,0,28-1.49a1,1,0,0,0,.809.286,3.937,3.937,0,0,0,.773-.105V0a4.742,4.742,0,0,1-1.248.175,2.025,2.025,0,0,1-1.644-.659,2.832,2.832,0,0,1-.554-1.872v-5.9H24.407V-9.51h1.731v-2.3ZM35.385.176a4.155,4.155,0,0,1-3.146-1.27,4.714,4.714,0,0,1-1.213-3.4v-.3a5.707,5.707,0,0,1,.541-2.527,4.217,4.217,0,0,1,1.512-1.74,3.8,3.8,0,0,1,2.1-.628,3.562,3.562,0,0,1,2.883,1.222,5.289,5.289,0,0,1,1.028,3.5v.677H32.651a3.38,3.38,0,0,0,.822,2.272,2.583,2.583,0,0,0,2,.866A2.832,2.832,0,0,0,36.932-1.5a3.666,3.666,0,0,0,1.046-.932l.993.773A3.993,3.993,0,0,1,35.385.176Zm-.2-8.525a2.169,2.169,0,0,0-1.652.716A3.482,3.482,0,0,0,32.7-5.625h4.764v-.123a3.1,3.1,0,0,0-.668-1.92A2.042,2.042,0,0,0,35.183-8.35ZM42.5-9.51l.044,1.055a3.512,3.512,0,0,1,2.821-1.23,2.719,2.719,0,0,1,2.716,1.529A3.6,3.6,0,0,1,49.32-9.264a3.647,3.647,0,0,1,1.8-.422q3.129,0,3.182,3.313V0H52.673V-6.275A2.184,2.184,0,0,0,52.207-7.8a2.051,2.051,0,0,0-1.564-.505,2.156,2.156,0,0,0-1.5.541,2.193,2.193,0,0,0-.694,1.455V0H46.811V-6.231a1.814,1.814,0,0,0-2.03-2.074,2.175,2.175,0,0,0-2.188,1.362V0H40.966V-9.51ZM62.622,0a3.416,3.416,0,0,1-.229-1A3.628,3.628,0,0,1,59.687.176a3.357,3.357,0,0,1-2.307-.8,2.573,2.573,0,0,1-.9-2.017,2.688,2.688,0,0,1,1.129-2.307,5.325,5.325,0,0,1,3.177-.822h1.582v-.747a1.826,1.826,0,0,0-.51-1.358,2.049,2.049,0,0,0-1.5-.505,2.371,2.371,0,0,0-1.459.439,1.3,1.3,0,0,0-.589,1.063H56.672a2.244,2.244,0,0,1,.505-1.375A3.449,3.449,0,0,1,58.548-9.3a4.613,4.613,0,0,1,1.9-.387,3.759,3.759,0,0,1,2.575.822A2.964,2.964,0,0,1,63.993-6.6v4.377a5.351,5.351,0,0,0,.334,2.083V0Zm-2.7-1.239a2.858,2.858,0,0,0,1.45-.4,2.392,2.392,0,0,0,.993-1.028V-4.614H61.093q-2.988,0-2.988,1.749a1.48,1.48,0,0,0,.51,1.2A1.959,1.959,0,0,0,59.924-1.239ZM72.079-2.522a1.2,1.2,0,0,0-.5-1.024,4.78,4.78,0,0,0-1.731-.628,8.186,8.186,0,0,1-1.96-.633,2.788,2.788,0,0,1-1.072-.879A2.1,2.1,0,0,1,66.472-6.9a2.467,2.467,0,0,1,.989-1.978,3.861,3.861,0,0,1,2.527-.809,3.974,3.974,0,0,1,2.624.835,2.652,2.652,0,0,1,1.006,2.136H71.982a1.468,1.468,0,0,0-.567-1.151,2.124,2.124,0,0,0-1.428-.483,2.223,2.223,0,0,0-1.389.387,1.217,1.217,0,0,0-.5,1.011.986.986,0,0,0,.466.888,5.731,5.731,0,0,0,1.683.571,8.77,8.77,0,0,1,1.973.65,2.878,2.878,0,0,1,1.121.91,2.237,2.237,0,0,1,.365,1.3,2.434,2.434,0,0,1-1.02,2.043A4.277,4.277,0,0,1,70.04.176a4.789,4.789,0,0,1-2.021-.4,3.288,3.288,0,0,1-1.375-1.129,2.722,2.722,0,0,1-.5-1.569h1.626a1.683,1.683,0,0,0,.655,1.3,2.54,2.54,0,0,0,1.613.479,2.622,2.622,0,0,0,1.481-.374A1.148,1.148,0,0,0,72.079-2.522Zm7.8-2.312a5.571,5.571,0,0,1,1.037-3.52,3.28,3.28,0,0,1,2.716-1.332,3.3,3.3,0,0,1,2.646,1.143V-13.5h1.626V0H86.414l-.079-1.02a3.311,3.311,0,0,1-2.716,1.2,3.248,3.248,0,0,1-2.694-1.354,5.634,5.634,0,0,1-1.042-3.533Zm1.626.185a4.218,4.218,0,0,0,.668,2.531,2.159,2.159,0,0,0,1.846.914,2.372,2.372,0,0,0,2.259-1.389V-6.961a2.39,2.39,0,0,0-2.241-1.345,2.17,2.17,0,0,0-1.863.923A4.644,4.644,0,0,0,81.51-4.649ZM94.377.176a4.155,4.155,0,0,1-3.146-1.27,4.714,4.714,0,0,1-1.213-3.4v-.3a5.707,5.707,0,0,1,.541-2.527,4.217,4.217,0,0,1,1.512-1.74,3.8,3.8,0,0,1,2.1-.628,3.562,3.562,0,0,1,2.883,1.222,5.289,5.289,0,0,1,1.028,3.5v.677H91.644a3.38,3.38,0,0,0,.822,2.272,2.583,2.583,0,0,0,2,.866A2.832,2.832,0,0,0,95.924-1.5a3.666,3.666,0,0,0,1.046-.932l.993.773A3.993,3.993,0,0,1,94.377.176Zm-.2-8.525a2.169,2.169,0,0,0-1.652.716A3.482,3.482,0,0,0,91.7-5.625H96.46v-.123a3.1,3.1,0,0,0-.668-1.92A2.042,2.042,0,0,0,94.175-8.35ZM106.189,0h-1.626V-9.51h1.626Zm-1.758-12.032a.971.971,0,0,1,.242-.668.907.907,0,0,1,.716-.272.922.922,0,0,1,.721.272.96.96,0,0,1,.246.668.929.929,0,0,1-.246.659.938.938,0,0,1-.721.264.924.924,0,0,1-.716-.264A.938.938,0,0,1,104.432-12.032Zm5.9,2.522.053,1.2a3.465,3.465,0,0,1,2.848-1.371q3.015,0,3.041,3.4V0h-1.626V-6.293a2.189,2.189,0,0,0-.47-1.521,1.884,1.884,0,0,0-1.437-.492,2.347,2.347,0,0,0-1.389.422,2.865,2.865,0,0,0-.932,1.107V0h-1.626V-9.51ZM119.522,0V-8.253h-1.5V-9.51h1.5v-.976a3.238,3.238,0,0,1,.817-2.364,3.088,3.088,0,0,1,2.312-.835,4.293,4.293,0,0,1,1.116.148l-.088,1.311a4.67,4.67,0,0,0-.879-.079,1.586,1.586,0,0,0-1.222.463,1.877,1.877,0,0,0-.431,1.327V-9.51h2.03v1.257h-2.03V0Zm5.019-4.843a5.617,5.617,0,0,1,.549-2.514,4.1,4.1,0,0,1,1.529-1.723,4.163,4.163,0,0,1,2.237-.606A4.01,4.01,0,0,1,132-8.341a5.174,5.174,0,0,1,1.2,3.577v.114a5.666,5.666,0,0,1-.532,2.492,4.038,4.038,0,0,1-1.521,1.718,4.211,4.211,0,0,1-2.272.615,4,4,0,0,1-3.133-1.345,5.147,5.147,0,0,1-1.2-3.56Zm1.635.193a4.068,4.068,0,0,0,.734,2.54,2.349,2.349,0,0,0,1.964.958,2.335,2.335,0,0,0,1.969-.971,4.449,4.449,0,0,0,.729-2.72,4.061,4.061,0,0,0-.743-2.536,2.361,2.361,0,0,0-1.973-.971,2.335,2.335,0,0,0-1.942.958A4.416,4.416,0,0,0,126.176-4.649Zm13.658-3.4a4.873,4.873,0,0,0-.8-.062,2.143,2.143,0,0,0-2.171,1.362V0h-1.626V-9.51h1.582l.026,1.1a2.532,2.532,0,0,1,2.268-1.274,1.661,1.661,0,0,1,.721.123Zm3.023-1.459.044,1.055a3.512,3.512,0,0,1,2.821-1.23,2.719,2.719,0,0,1,2.716,1.529,3.6,3.6,0,0,1,1.235-1.107,3.647,3.647,0,0,1,1.8-.422q3.129,0,3.182,3.313V0h-1.626V-6.275a2.184,2.184,0,0,0-.466-1.525A2.051,2.051,0,0,0,151-8.306a2.156,2.156,0,0,0-1.5.541,2.193,2.193,0,0,0-.694,1.455V0h-1.635V-6.231a1.814,1.814,0,0,0-2.03-2.074,2.175,2.175,0,0,0-2.188,1.362V0h-1.626V-9.51ZM162.976,0a3.416,3.416,0,0,1-.229-1A3.628,3.628,0,0,1,160.04.176a3.357,3.357,0,0,1-2.307-.8,2.573,2.573,0,0,1-.9-2.017,2.688,2.688,0,0,1,1.129-2.307,5.325,5.325,0,0,1,3.177-.822h1.582v-.747a1.826,1.826,0,0,0-.51-1.358,2.049,2.049,0,0,0-1.5-.505,2.371,2.371,0,0,0-1.459.439,1.3,1.3,0,0,0-.589,1.063h-1.635a2.244,2.244,0,0,1,.505-1.375A3.449,3.449,0,0,1,158.9-9.3a4.613,4.613,0,0,1,1.9-.387,3.759,3.759,0,0,1,2.575.822,2.964,2.964,0,0,1,.967,2.263v4.377a5.351,5.351,0,0,0,.334,2.083V0Zm-2.7-1.239a2.858,2.858,0,0,0,1.45-.4,2.392,2.392,0,0,0,.993-1.028V-4.614h-1.274q-2.988,0-2.988,1.749a1.48,1.48,0,0,0,.51,1.2A1.959,1.959,0,0,0,160.277-1.239Zm10.433.088a2.342,2.342,0,0,0,1.521-.527A1.855,1.855,0,0,0,172.951-3h1.538a2.949,2.949,0,0,1-.562,1.556,3.7,3.7,0,0,1-1.384,1.178,3.994,3.994,0,0,1-1.833.439,3.918,3.918,0,0,1-3.089-1.3,5.163,5.163,0,0,1-1.147-3.546v-.272a5.725,5.725,0,0,1,.51-2.47,3.883,3.883,0,0,1,1.463-1.679,4.157,4.157,0,0,1,2.254-.6,3.814,3.814,0,0,1,2.659.958,3.424,3.424,0,0,1,1.129,2.487h-1.538a2.241,2.241,0,0,0-.7-1.516A2.174,2.174,0,0,0,170.7-8.35a2.276,2.276,0,0,0-1.92.892,4.19,4.19,0,0,0-.681,2.58v.308a4.106,4.106,0,0,0,.677,2.531A2.287,2.287,0,0,0,170.71-1.151ZM178.084,0h-1.626V-9.51h1.626Zm-1.758-12.032a.971.971,0,0,1,.242-.668.907.907,0,0,1,.716-.272A.922.922,0,0,1,178-12.7a.96.96,0,0,1,.246.668.929.929,0,0,1-.246.659.938.938,0,0,1-.721.264.924.924,0,0,1-.716-.264A.938.938,0,0,1,176.326-12.032Zm3.929,7.189a5.617,5.617,0,0,1,.549-2.514,4.1,4.1,0,0,1,1.529-1.723,4.163,4.163,0,0,1,2.237-.606,4.01,4.01,0,0,1,3.142,1.345,5.174,5.174,0,0,1,1.2,3.577v.114a5.666,5.666,0,0,1-.532,2.492A4.038,4.038,0,0,1,186.86-.439a4.211,4.211,0,0,1-2.272.615,4,4,0,0,1-3.133-1.345,5.147,5.147,0,0,1-1.2-3.56Zm1.635.193a4.068,4.068,0,0,0,.734,2.54,2.349,2.349,0,0,0,1.964.958,2.335,2.335,0,0,0,1.969-.971,4.449,4.449,0,0,0,.729-2.72,4.061,4.061,0,0,0-.743-2.536,2.361,2.361,0,0,0-1.973-.971,2.335,2.335,0,0,0-1.942.958A4.416,4.416,0,0,0,181.89-4.649Zm3.419-8.851h1.969l-2.355,2.584-1.31,0Zm7.181,3.99.053,1.2a3.465,3.465,0,0,1,2.848-1.371q3.015,0,3.041,3.4V0H196.8V-6.293a2.189,2.189,0,0,0-.47-1.521,1.884,1.884,0,0,0-1.437-.492,2.347,2.347,0,0,0-1.389.422,2.865,2.865,0,0,0-.932,1.107V0h-1.626V-9.51Z" transform="translate(403.13 4207.092)" fill="#fff"/>
    <path id="Trazado_183581" data-name="Trazado 183581" d="M3-4.731V0H1.4V-12.086H5.86a4.478,4.478,0,0,1,3.109,1.013,3.433,3.433,0,0,1,1.125,2.681,3.388,3.388,0,0,1-1.1,2.71,4.678,4.678,0,0,1-3.15.95Zm0-1.3H5.86a2.863,2.863,0,0,0,1.959-.6A2.2,2.2,0,0,0,8.5-8.38a2.277,2.277,0,0,0-.681-1.73,2.682,2.682,0,0,0-1.868-.674H3ZM16.228-7.6a4.6,4.6,0,0,0-.755-.058,2.024,2.024,0,0,0-2.05,1.287V0H11.887V-8.981h1.494l.025,1.038a2.391,2.391,0,0,1,2.142-1.2,1.569,1.569,0,0,1,.681.116ZM19.308,0H17.772V-8.981h1.536Zm-1.66-11.364a.917.917,0,0,1,.228-.631.857.857,0,0,1,.677-.257.87.87,0,0,1,.681.257.907.907,0,0,1,.232.631.877.877,0,0,1-.232.623.886.886,0,0,1-.681.249.872.872,0,0,1-.677-.249A.886.886,0,0,1,17.647-11.364Zm5.562,2.382.042,1a3.317,3.317,0,0,1,2.665-1.162A2.568,2.568,0,0,1,28.48-7.7a3.4,3.4,0,0,1,1.166-1.046,3.445,3.445,0,0,1,1.7-.4q2.955,0,3,3.129V0H32.813V-5.927a2.062,2.062,0,0,0-.44-1.44A1.937,1.937,0,0,0,30.9-7.844a2.036,2.036,0,0,0-1.419.51A2.071,2.071,0,0,0,28.82-5.96V0H27.276V-5.885a1.713,1.713,0,0,0-1.917-1.959,2.055,2.055,0,0,0-2.067,1.287V0H21.756V-8.981ZM42.209,0a3.226,3.226,0,0,1-.216-.946A3.426,3.426,0,0,1,39.437.166a3.17,3.17,0,0,1-2.179-.751,2.43,2.43,0,0,1-.851-1.905,2.539,2.539,0,0,1,1.067-2.179,5.029,5.029,0,0,1,3-.776h1.494v-.706a1.725,1.725,0,0,0-.481-1.282,1.935,1.935,0,0,0-1.419-.477A2.239,2.239,0,0,0,38.69-7.5a1.223,1.223,0,0,0-.556,1H36.59a2.119,2.119,0,0,1,.477-1.3,3.258,3.258,0,0,1,1.295-.992,4.356,4.356,0,0,1,1.8-.365,3.551,3.551,0,0,1,2.432.776A2.8,2.8,0,0,1,43.5-6.234V-2.1A5.054,5.054,0,0,0,43.82-.133V0ZM39.661-1.17a2.7,2.7,0,0,0,1.37-.374,2.259,2.259,0,0,0,.938-.971V-4.358h-1.2q-2.822,0-2.822,1.652a1.4,1.4,0,0,0,.481,1.129A1.85,1.85,0,0,0,39.661-1.17ZM50.253-7.6a4.6,4.6,0,0,0-.755-.058,2.024,2.024,0,0,0-2.05,1.287V0H45.912V-8.981h1.494l.025,1.038a2.391,2.391,0,0,1,2.142-1.2,1.569,1.569,0,0,1,.681.116ZM53.333,0H51.8V-8.981h1.536Zm-1.66-11.364a.917.917,0,0,1,.228-.631.857.857,0,0,1,.677-.257.87.87,0,0,1,.681.257.907.907,0,0,1,.232.631.877.877,0,0,1-.232.623.886.886,0,0,1-.681.249.872.872,0,0,1-.677-.249A.886.886,0,0,1,51.672-11.364ZM61.334,0a3.226,3.226,0,0,1-.216-.946A3.426,3.426,0,0,1,58.562.166a3.17,3.17,0,0,1-2.179-.751,2.43,2.43,0,0,1-.851-1.905A2.539,2.539,0,0,1,56.6-4.669a5.029,5.029,0,0,1,3-.776h1.494v-.706a1.725,1.725,0,0,0-.481-1.282,1.935,1.935,0,0,0-1.419-.477,2.239,2.239,0,0,0-1.378.415,1.223,1.223,0,0,0-.556,1H55.715a2.119,2.119,0,0,1,.477-1.3,3.258,3.258,0,0,1,1.295-.992,4.356,4.356,0,0,1,1.8-.365,3.551,3.551,0,0,1,2.432.776,2.8,2.8,0,0,1,.913,2.137V-2.1a5.054,5.054,0,0,0,.315,1.967V0ZM58.786-1.17a2.7,2.7,0,0,0,1.37-.374,2.259,2.259,0,0,0,.938-.971V-4.358h-1.2q-2.822,0-2.822,1.652a1.4,1.4,0,0,0,.481,1.129A1.85,1.85,0,0,0,58.786-1.17Z" transform="translate(705.234 4332.999)" fill="#fff"/>
    <path id="Trazado_183580" data-name="Trazado 183580" d="M4.964-5.387A7.494,7.494,0,0,1,1.98-6.836a2.768,2.768,0,0,1-.934-2.121,2.923,2.923,0,0,1,1.141-2.362,4.536,4.536,0,0,1,2.968-.934,4.951,4.951,0,0,1,2.22.481,3.651,3.651,0,0,1,1.511,1.328,3.4,3.4,0,0,1,.535,1.851h-1.6a2.21,2.21,0,0,0-.7-1.729,2.835,2.835,0,0,0-1.967-.629,2.9,2.9,0,0,0-1.839.52,1.734,1.734,0,0,0-.66,1.443,1.56,1.56,0,0,0,.627,1.252A6.147,6.147,0,0,0,5.416-6.8a9.9,9.9,0,0,1,2.357.935A3.577,3.577,0,0,1,9.035-4.673a3.04,3.04,0,0,1,.411,1.6A2.824,2.824,0,0,1,8.3-.718,4.884,4.884,0,0,1,5.238.166,5.681,5.681,0,0,1,2.914-.311,3.911,3.911,0,0,1,1.249-1.619,3.191,3.191,0,0,1,.664-3.5h1.6a2.082,2.082,0,0,0,.809,1.731,3.408,3.408,0,0,0,2.162.635,3.133,3.133,0,0,0,1.934-.515,1.672,1.672,0,0,0,.672-1.4,1.641,1.641,0,0,0-.623-1.374A7.178,7.178,0,0,0,4.964-5.387ZM14.975.166A3.924,3.924,0,0,1,12-1.033a4.452,4.452,0,0,1-1.146-3.208v-.282a5.39,5.39,0,0,1,.51-2.386A3.982,3.982,0,0,1,12.8-8.554a3.59,3.59,0,0,1,1.988-.594,3.364,3.364,0,0,1,2.723,1.154,5,5,0,0,1,.971,3.3v.639H12.393a3.193,3.193,0,0,0,.776,2.146,2.44,2.44,0,0,0,1.888.818,2.675,2.675,0,0,0,1.378-.332,3.462,3.462,0,0,0,.988-.88l.938.73A3.772,3.772,0,0,1,14.975.166Zm-.191-8.052a2.048,2.048,0,0,0-1.561.677,3.288,3.288,0,0,0-.78,1.9h4.5v-.116a2.925,2.925,0,0,0-.631-1.814A1.928,1.928,0,0,0,14.784-7.886Zm9.073,6.8a2.212,2.212,0,0,0,1.436-.5,1.752,1.752,0,0,0,.681-1.245h1.453a2.785,2.785,0,0,1-.531,1.469A3.5,3.5,0,0,1,25.587-.249a3.772,3.772,0,0,1-1.731.415,3.7,3.7,0,0,1-2.918-1.224,4.877,4.877,0,0,1-1.083-3.349v-.257A5.407,5.407,0,0,1,20.337-7a3.667,3.667,0,0,1,1.382-1.585,3.926,3.926,0,0,1,2.129-.564,3.6,3.6,0,0,1,2.511.9,3.234,3.234,0,0,1,1.067,2.349H25.973a2.116,2.116,0,0,0-.66-1.432,2.053,2.053,0,0,0-1.465-.56,2.149,2.149,0,0,0-1.814.843,3.957,3.957,0,0,0-.643,2.436v.291a3.878,3.878,0,0,0,.639,2.391A2.16,2.16,0,0,0,23.856-1.087Zm10.841.2A3.262,3.262,0,0,1,32.066.166a2.792,2.792,0,0,1-2.187-.834,3.611,3.611,0,0,1-.76-2.469V-8.981h1.536v5.8q0,2.042,1.66,2.042a2.3,2.3,0,0,0,2.341-1.312V-8.981h1.536V0H34.73Zm5.279-8.093.05,1.129a3.273,3.273,0,0,1,2.689-1.295q2.847,0,2.872,3.212V0H44.052V-5.943a2.068,2.068,0,0,0-.444-1.436,1.78,1.78,0,0,0-1.357-.465,2.216,2.216,0,0,0-1.312.4A2.706,2.706,0,0,0,40.06-6.4V0H38.524V-8.981ZM47.53-4.565A5.261,5.261,0,0,1,48.51-7.89a3.1,3.1,0,0,1,2.565-1.258,3.115,3.115,0,0,1,2.5,1.079V-12.75h1.536V0H53.7l-.075-.963A3.127,3.127,0,0,1,51.058.166a3.068,3.068,0,0,1-2.544-1.278,5.321,5.321,0,0,1-.984-3.337Zm1.536.174A3.984,3.984,0,0,0,49.7-2a2.039,2.039,0,0,0,1.743.863,2.24,2.24,0,0,0,2.133-1.312V-6.574a2.257,2.257,0,0,0-2.117-1.27,2.049,2.049,0,0,0-1.76.872A4.386,4.386,0,0,0,49.066-4.391ZM63.036,0a3.226,3.226,0,0,1-.216-.946A3.426,3.426,0,0,1,60.264.166a3.17,3.17,0,0,1-2.179-.751,2.43,2.43,0,0,1-.851-1.905A2.539,2.539,0,0,1,58.3-4.669a5.029,5.029,0,0,1,3-.776H62.8v-.706a1.725,1.725,0,0,0-.481-1.282,1.935,1.935,0,0,0-1.419-.477,2.239,2.239,0,0,0-1.378.415,1.223,1.223,0,0,0-.556,1H57.417a2.119,2.119,0,0,1,.477-1.3,3.258,3.258,0,0,1,1.295-.992,4.356,4.356,0,0,1,1.8-.365,3.551,3.551,0,0,1,2.432.776,2.8,2.8,0,0,1,.913,2.137V-2.1a5.054,5.054,0,0,0,.315,1.967V0ZM60.488-1.17a2.7,2.7,0,0,0,1.37-.374,2.259,2.259,0,0,0,.938-.971V-4.358h-1.2q-2.822,0-2.822,1.652a1.4,1.4,0,0,0,.481,1.129A1.85,1.85,0,0,0,60.488-1.17ZM71.08-7.6a4.6,4.6,0,0,0-.755-.058,2.024,2.024,0,0,0-2.05,1.287V0H66.738V-8.981h1.494l.025,1.038a2.391,2.391,0,0,1,2.142-1.2,1.569,1.569,0,0,1,.681.116ZM74.159,0H72.624V-8.981h1.536ZM72.5-11.364a.917.917,0,0,1,.228-.631.857.857,0,0,1,.677-.257.87.87,0,0,1,.681.257.907.907,0,0,1,.232.631.877.877,0,0,1-.232.623.886.886,0,0,1-.681.249.872.872,0,0,1-.677-.249A.886.886,0,0,1,72.5-11.364ZM82.161,0a3.226,3.226,0,0,1-.216-.946A3.426,3.426,0,0,1,79.389.166,3.17,3.17,0,0,1,77.21-.585a2.43,2.43,0,0,1-.851-1.905,2.539,2.539,0,0,1,1.067-2.179,5.029,5.029,0,0,1,3-.776H81.92v-.706a1.725,1.725,0,0,0-.481-1.282,1.935,1.935,0,0,0-1.419-.477,2.239,2.239,0,0,0-1.378.415,1.223,1.223,0,0,0-.556,1H76.542a2.119,2.119,0,0,1,.477-1.3,3.258,3.258,0,0,1,1.295-.992,4.356,4.356,0,0,1,1.8-.365,3.551,3.551,0,0,1,2.432.776,2.8,2.8,0,0,1,.913,2.137V-2.1a5.054,5.054,0,0,0,.315,1.967V0ZM79.613-1.17a2.7,2.7,0,0,0,1.37-.374,2.259,2.259,0,0,0,.938-.971V-4.358h-1.2q-2.822,0-2.822,1.652a1.4,1.4,0,0,0,.481,1.129A1.85,1.85,0,0,0,79.613-1.17Z" transform="translate(695.127 4474.504)" fill="#fff"/>
    <path id="Trazado_183572" data-name="Trazado 183572" d="M8.068-5.337H3V0H1.4V-12.086H8.89v1.3H3v4.142H8.068ZM15.921-.888A3.262,3.262,0,0,1,13.29.166,2.792,2.792,0,0,1,11.1-.668a3.611,3.611,0,0,1-.76-2.469V-8.981h1.536v5.8q0,2.042,1.66,2.042a2.3,2.3,0,0,0,2.341-1.312V-8.981h1.536V0H15.954ZM23.475.166a3.924,3.924,0,0,1-2.972-1.2,4.452,4.452,0,0,1-1.146-3.208v-.282a5.39,5.39,0,0,1,.51-2.386A3.982,3.982,0,0,1,21.3-8.554a3.59,3.59,0,0,1,1.988-.594,3.364,3.364,0,0,1,2.723,1.154,5,5,0,0,1,.971,3.3v.639H20.893a3.193,3.193,0,0,0,.776,2.146,2.44,2.44,0,0,0,1.888.818,2.675,2.675,0,0,0,1.378-.332,3.462,3.462,0,0,0,.988-.88l.938.73A3.772,3.772,0,0,1,23.475.166Zm-.191-8.052a2.048,2.048,0,0,0-1.561.677,3.288,3.288,0,0,0-.78,1.9h4.5v-.116a2.925,2.925,0,0,0-.631-1.814A1.928,1.928,0,0,0,23.284-7.886Zm6.923-1.1.05,1.129a3.273,3.273,0,0,1,2.689-1.295q2.847,0,2.872,3.212V0H34.282V-5.943a2.068,2.068,0,0,0-.444-1.436,1.78,1.78,0,0,0-1.357-.465,2.216,2.216,0,0,0-1.312.4A2.706,2.706,0,0,0,30.29-6.4V0H28.754V-8.981Zm10.011-2.175v2.175h1.677v1.187H40.217v5.577a1.247,1.247,0,0,0,.224.81.943.943,0,0,0,.764.27,3.718,3.718,0,0,0,.73-.1V0a4.478,4.478,0,0,1-1.179.165A1.912,1.912,0,0,1,39.2-.457a2.675,2.675,0,0,1-.523-1.768v-5.57H37.046V-8.981h1.635v-2.175ZM47.414.166a3.924,3.924,0,0,1-2.972-1.2A4.452,4.452,0,0,1,43.3-4.242v-.282a5.39,5.39,0,0,1,.51-2.386,3.982,3.982,0,0,1,1.428-1.644,3.59,3.59,0,0,1,1.988-.594,3.364,3.364,0,0,1,2.723,1.154,5,5,0,0,1,.971,3.3v.639H44.833a3.193,3.193,0,0,0,.776,2.146,2.44,2.44,0,0,0,1.888.818,2.675,2.675,0,0,0,1.378-.332,3.462,3.462,0,0,0,.988-.88l.938.73A3.772,3.772,0,0,1,47.414.166Zm-.191-8.052a2.048,2.048,0,0,0-1.561.677,3.288,3.288,0,0,0-.78,1.9h4.5v-.116a2.925,2.925,0,0,0-.631-1.814A1.928,1.928,0,0,0,47.223-7.886Zm10.7,5.5a1.13,1.13,0,0,0-.469-.967,4.514,4.514,0,0,0-1.635-.594,7.731,7.731,0,0,1-1.851-.6,2.633,2.633,0,0,1-1.013-.83,1.986,1.986,0,0,1-.328-1.146,2.33,2.33,0,0,1,.934-1.868,3.647,3.647,0,0,1,2.386-.764,3.753,3.753,0,0,1,2.478.789,2.5,2.5,0,0,1,.95,2.017H57.832A1.386,1.386,0,0,0,57.3-7.429a2.006,2.006,0,0,0-1.349-.457,2.1,2.1,0,0,0-1.312.365,1.15,1.15,0,0,0-.473.955.932.932,0,0,0,.44.838,5.413,5.413,0,0,0,1.59.54,8.283,8.283,0,0,1,1.864.614,2.718,2.718,0,0,1,1.058.859,2.112,2.112,0,0,1,.344,1.224A2.3,2.3,0,0,1,58.5-.56,4.039,4.039,0,0,1,56,.166a4.523,4.523,0,0,1-1.909-.382,3.105,3.105,0,0,1-1.3-1.067,2.571,2.571,0,0,1-.469-1.482h1.536a1.59,1.59,0,0,0,.618,1.224A2.4,2.4,0,0,0,56-1.087a2.476,2.476,0,0,0,1.4-.353A1.084,1.084,0,0,0,57.923-2.382Zm7.371-2.183a5.261,5.261,0,0,1,.979-3.324,3.1,3.1,0,0,1,2.565-1.258,3.115,3.115,0,0,1,2.5,1.079V-12.75h1.536V0H71.461l-.075-.963A3.127,3.127,0,0,1,68.822.166a3.068,3.068,0,0,1-2.544-1.278,5.321,5.321,0,0,1-.984-3.337Zm1.536.174A3.984,3.984,0,0,0,67.46-2a2.039,2.039,0,0,0,1.743.863,2.24,2.24,0,0,0,2.133-1.312V-6.574a2.257,2.257,0,0,0-2.117-1.27,2.049,2.049,0,0,0-1.76.872A4.386,4.386,0,0,0,66.83-4.391ZM78.982.166a3.924,3.924,0,0,1-2.972-1.2,4.452,4.452,0,0,1-1.146-3.208v-.282a5.39,5.39,0,0,1,.51-2.386A3.982,3.982,0,0,1,76.8-8.554a3.59,3.59,0,0,1,1.988-.594,3.364,3.364,0,0,1,2.723,1.154,5,5,0,0,1,.971,3.3v.639H76.4a3.193,3.193,0,0,0,.776,2.146,2.44,2.44,0,0,0,1.888.818,2.675,2.675,0,0,0,1.378-.332,3.462,3.462,0,0,0,.988-.88l.938.73A3.772,3.772,0,0,1,78.982.166Zm-.191-8.052a2.048,2.048,0,0,0-1.561.677,3.288,3.288,0,0,0-.78,1.9h4.5v-.116a2.925,2.925,0,0,0-.631-1.814A1.928,1.928,0,0,0,78.791-7.886ZM90.138,0H88.6V-8.981h1.536Zm-1.66-11.364a.917.917,0,0,1,.228-.631.857.857,0,0,1,.677-.257.87.87,0,0,1,.681.257.907.907,0,0,1,.232.631.877.877,0,0,1-.232.623.886.886,0,0,1-.681.249.872.872,0,0,1-.677-.249A.886.886,0,0,1,88.478-11.364Zm5.57,2.382.05,1.129a3.273,3.273,0,0,1,2.689-1.295q2.847,0,2.872,3.212V0H98.124V-5.943a2.068,2.068,0,0,0-.444-1.436,1.78,1.78,0,0,0-1.357-.465,2.216,2.216,0,0,0-1.312.4,2.706,2.706,0,0,0-.88,1.046V0H92.6V-8.981ZM102.73,0V-7.794h-1.419V-8.981h1.419V-9.9a3.058,3.058,0,0,1,.772-2.233,2.916,2.916,0,0,1,2.183-.789,4.055,4.055,0,0,1,1.054.14l-.083,1.238a4.41,4.41,0,0,0-.83-.075,1.5,1.5,0,0,0-1.154.437,1.773,1.773,0,0,0-.407,1.253v.949h1.917v1.187h-1.917V0Zm4.74-4.574a5.3,5.3,0,0,1,.519-2.374,3.87,3.87,0,0,1,1.444-1.627,3.932,3.932,0,0,1,2.113-.573,3.788,3.788,0,0,1,2.968,1.27A4.886,4.886,0,0,1,115.646-4.5v.108a5.351,5.351,0,0,1-.5,2.353,3.813,3.813,0,0,1-1.436,1.623,3.977,3.977,0,0,1-2.146.581A3.778,3.778,0,0,1,108.6-1.1a4.861,4.861,0,0,1-1.133-3.362Zm1.544.183a3.842,3.842,0,0,0,.693,2.4,2.218,2.218,0,0,0,1.855.9A2.2,2.2,0,0,0,113.422-2a4.2,4.2,0,0,0,.689-2.569,3.836,3.836,0,0,0-.7-2.395,2.23,2.23,0,0,0-1.864-.917,2.205,2.205,0,0,0-1.834.9A4.17,4.17,0,0,0,109.014-4.391Zm12.9-3.212a4.6,4.6,0,0,0-.755-.058,2.024,2.024,0,0,0-2.05,1.287V0h-1.536V-8.981h1.494l.025,1.038a2.391,2.391,0,0,1,2.142-1.2,1.569,1.569,0,0,1,.681.116Zm2.855-1.378.042,1a3.317,3.317,0,0,1,2.665-1.162A2.568,2.568,0,0,1,130.04-7.7a3.4,3.4,0,0,1,1.166-1.046,3.445,3.445,0,0,1,1.7-.4q2.955,0,3,3.129V0h-1.536V-5.927a2.062,2.062,0,0,0-.44-1.44,1.937,1.937,0,0,0-1.478-.477,2.036,2.036,0,0,0-1.419.51,2.071,2.071,0,0,0-.656,1.374V0h-1.544V-5.885a1.713,1.713,0,0,0-1.917-1.959,2.055,2.055,0,0,0-2.067,1.287V0h-1.536V-8.981ZM143.77,0a3.226,3.226,0,0,1-.216-.946A3.426,3.426,0,0,1,141,.166a3.17,3.17,0,0,1-2.179-.751,2.43,2.43,0,0,1-.851-1.905,2.539,2.539,0,0,1,1.067-2.179,5.029,5.029,0,0,1,3-.776h1.494v-.706a1.725,1.725,0,0,0-.481-1.282,1.935,1.935,0,0,0-1.419-.477,2.239,2.239,0,0,0-1.378.415,1.223,1.223,0,0,0-.556,1H138.15a2.119,2.119,0,0,1,.477-1.3,3.258,3.258,0,0,1,1.295-.992,4.356,4.356,0,0,1,1.8-.365,3.551,3.551,0,0,1,2.432.776,2.8,2.8,0,0,1,.913,2.137V-2.1a5.054,5.054,0,0,0,.315,1.967V0Zm-2.548-1.17a2.7,2.7,0,0,0,1.37-.374,2.259,2.259,0,0,0,.938-.971V-4.358h-1.2q-2.822,0-2.822,1.652a1.4,1.4,0,0,0,.481,1.129A1.85,1.85,0,0,0,141.221-1.17Zm9.853.083a2.212,2.212,0,0,0,1.436-.5,1.752,1.752,0,0,0,.681-1.245h1.453a2.785,2.785,0,0,1-.531,1.469A3.5,3.5,0,0,1,152.8-.249a3.772,3.772,0,0,1-1.731.415,3.7,3.7,0,0,1-2.918-1.224,4.877,4.877,0,0,1-1.083-3.349v-.257A5.407,5.407,0,0,1,147.555-7a3.667,3.667,0,0,1,1.382-1.585,3.926,3.926,0,0,1,2.129-.564,3.6,3.6,0,0,1,2.511.9,3.234,3.234,0,0,1,1.067,2.349h-1.453a2.116,2.116,0,0,0-.66-1.432,2.053,2.053,0,0,0-1.465-.56,2.149,2.149,0,0,0-1.814.843,3.957,3.957,0,0,0-.643,2.436v.291a3.878,3.878,0,0,0,.639,2.391A2.16,2.16,0,0,0,151.074-1.087ZM158.039,0H156.5V-8.981h1.536Zm-1.66-11.364a.917.917,0,0,1,.228-.631.857.857,0,0,1,.677-.257.87.87,0,0,1,.681.257.907.907,0,0,1,.232.631.877.877,0,0,1-.232.623.886.886,0,0,1-.681.249.872.872,0,0,1-.677-.249A.886.886,0,0,1,156.378-11.364Zm3.71,6.79a5.3,5.3,0,0,1,.519-2.374,3.87,3.87,0,0,1,1.444-1.627,3.932,3.932,0,0,1,2.113-.573,3.788,3.788,0,0,1,2.968,1.27A4.886,4.886,0,0,1,168.265-4.5v.108a5.351,5.351,0,0,1-.5,2.353,3.813,3.813,0,0,1-1.436,1.623,3.977,3.977,0,0,1-2.146.581,3.778,3.778,0,0,1-2.959-1.27,4.861,4.861,0,0,1-1.133-3.362Zm1.544.183a3.842,3.842,0,0,0,.693,2.4,2.218,2.218,0,0,0,1.855.9A2.2,2.2,0,0,0,166.041-2a4.2,4.2,0,0,0,.689-2.569,3.836,3.836,0,0,0-.7-2.395,2.23,2.23,0,0,0-1.864-.917,2.205,2.205,0,0,0-1.834.9A4.17,4.17,0,0,0,161.633-4.391Zm3.229-8.359h1.859L164.5-10.31l-1.237,0Zm6.782,3.769.05,1.129a3.273,3.273,0,0,1,2.689-1.295q2.847,0,2.872,3.212V0h-1.536V-5.943a2.068,2.068,0,0,0-.444-1.436,1.78,1.78,0,0,0-1.357-.465,2.216,2.216,0,0,0-1.312.4,2.706,2.706,0,0,0-.88,1.046V0h-1.536V-8.981Z" transform="translate(403.13 4404.875)" fill="#fff"/>
    <path id="Trazado_183573" data-name="Trazado 183573" d="M5.4-2.117l3.453-9.969H10.6L6.118,0H4.707L.232-12.086H1.967ZM17.141,0a3.226,3.226,0,0,1-.216-.946A3.426,3.426,0,0,1,14.369.166,3.17,3.17,0,0,1,12.19-.585a2.43,2.43,0,0,1-.851-1.905,2.539,2.539,0,0,1,1.067-2.179,5.029,5.029,0,0,1,3-.776H16.9v-.706a1.725,1.725,0,0,0-.481-1.282A1.935,1.935,0,0,0,15-7.911a2.239,2.239,0,0,0-1.378.415,1.223,1.223,0,0,0-.556,1H11.521A2.119,2.119,0,0,1,12-7.79a3.258,3.258,0,0,1,1.295-.992,4.356,4.356,0,0,1,1.8-.365,3.551,3.551,0,0,1,2.432.776,2.8,2.8,0,0,1,.913,2.137V-2.1a5.054,5.054,0,0,0,.315,1.967V0ZM14.593-1.17a2.7,2.7,0,0,0,1.37-.374,2.259,2.259,0,0,0,.938-.971V-4.358H15.7q-2.822,0-2.822,1.652a1.4,1.4,0,0,0,.481,1.129A1.85,1.85,0,0,0,14.593-1.17ZM22.512,0H20.976V-12.75h1.536Zm4.125,0H25.1V-8.981h1.536Zm-1.66-11.364a.917.917,0,0,1,.228-.631.857.857,0,0,1,.677-.257.87.87,0,0,1,.681.257.907.907,0,0,1,.232.631.877.877,0,0,1-.232.623.886.886,0,0,1-.681.249.872.872,0,0,1-.677-.249A.886.886,0,0,1,24.977-11.364Zm3.744,6.8A5.261,5.261,0,0,1,29.7-7.89a3.1,3.1,0,0,1,2.565-1.258,3.115,3.115,0,0,1,2.5,1.079V-12.75H36.3V0H34.888l-.075-.963A3.127,3.127,0,0,1,32.249.166,3.068,3.068,0,0,1,29.7-1.112a5.321,5.321,0,0,1-.984-3.337Zm1.536.174A3.984,3.984,0,0,0,30.887-2a2.039,2.039,0,0,0,1.743.863,2.24,2.24,0,0,0,2.133-1.312V-6.574a2.257,2.257,0,0,0-2.117-1.27,2.049,2.049,0,0,0-1.76.872A4.386,4.386,0,0,0,30.256-4.391ZM44.227,0a3.226,3.226,0,0,1-.216-.946A3.426,3.426,0,0,1,41.454.166a3.17,3.17,0,0,1-2.179-.751,2.43,2.43,0,0,1-.851-1.905,2.539,2.539,0,0,1,1.067-2.179,5.029,5.029,0,0,1,3-.776h1.494v-.706A1.725,1.725,0,0,0,43.5-7.433a1.935,1.935,0,0,0-1.419-.477,2.239,2.239,0,0,0-1.378.415,1.223,1.223,0,0,0-.556,1H38.607a2.119,2.119,0,0,1,.477-1.3,3.258,3.258,0,0,1,1.295-.992,4.356,4.356,0,0,1,1.8-.365,3.551,3.551,0,0,1,2.432.776,2.8,2.8,0,0,1,.913,2.137V-2.1a5.054,5.054,0,0,0,.315,1.967V0ZM41.678-1.17a2.7,2.7,0,0,0,1.37-.374,2.259,2.259,0,0,0,.938-.971V-4.358h-1.2q-2.822,0-2.822,1.652a1.4,1.4,0,0,0,.481,1.129A1.85,1.85,0,0,0,41.678-1.17ZM52.27-7.6a4.6,4.6,0,0,0-.755-.058,2.024,2.024,0,0,0-2.05,1.287V0H47.929V-8.981h1.494l.025,1.038a2.391,2.391,0,0,1,2.142-1.2,1.569,1.569,0,0,1,.681.116ZM63.119-2.382a1.13,1.13,0,0,0-.469-.967,4.514,4.514,0,0,0-1.635-.594,7.731,7.731,0,0,1-1.851-.6,2.633,2.633,0,0,1-1.013-.83,1.986,1.986,0,0,1-.328-1.146,2.33,2.33,0,0,1,.934-1.868,3.647,3.647,0,0,1,2.386-.764,3.753,3.753,0,0,1,2.478.789,2.5,2.5,0,0,1,.95,2.017H63.028a1.386,1.386,0,0,0-.535-1.087,2.006,2.006,0,0,0-1.349-.457,2.1,2.1,0,0,0-1.312.365,1.15,1.15,0,0,0-.473.955.932.932,0,0,0,.44.838,5.413,5.413,0,0,0,1.59.54,8.283,8.283,0,0,1,1.864.614,2.718,2.718,0,0,1,1.058.859,2.112,2.112,0,0,1,.344,1.224,2.3,2.3,0,0,1-.963,1.93,4.039,4.039,0,0,1-2.5.726,4.523,4.523,0,0,1-1.909-.382,3.105,3.105,0,0,1-1.3-1.067,2.571,2.571,0,0,1-.469-1.482h1.536A1.59,1.59,0,0,0,59.67-1.54a2.4,2.4,0,0,0,1.523.452,2.476,2.476,0,0,0,1.4-.353A1.084,1.084,0,0,0,63.119-2.382ZM68.324,0H66.788V-8.981h1.536Zm-1.66-11.364a.917.917,0,0,1,.228-.631.857.857,0,0,1,.677-.257.87.87,0,0,1,.681.257.907.907,0,0,1,.232.631.877.877,0,0,1-.232.623.886.886,0,0,1-.681.249.872.872,0,0,1-.677-.249A.886.886,0,0,1,66.664-11.364Z" transform="translate(718.711 4658.687)" fill="#fff"/>
    <path id="Trazado_183574" data-name="Trazado 183574" d="M11.329-5.985A7.916,7.916,0,0,1,10.7-2.7,4.793,4.793,0,0,1,8.9-.562,4.933,4.933,0,0,1,6.2.176,4.891,4.891,0,0,1,3.516-.567,4.908,4.908,0,0,1,1.7-2.685a7.6,7.6,0,0,1-.664-3.186v-.923a7.822,7.822,0,0,1,.642-3.261,4.891,4.891,0,0,1,1.815-2.167,4.87,4.87,0,0,1,2.685-.751,4.961,4.961,0,0,1,2.711.743A4.784,4.784,0,0,1,10.7-10.077a7.955,7.955,0,0,1,.633,3.283ZM9.65-6.812a5.738,5.738,0,0,0-.914-3.494,3.015,3.015,0,0,0-2.558-1.217,2.982,2.982,0,0,0-2.518,1.217,5.62,5.62,0,0,0-.945,3.379v.94a5.746,5.746,0,0,0,.927,3.467A3,3,0,0,0,6.2-1.257,2.983,2.983,0,0,0,8.728-2.448,5.714,5.714,0,0,0,9.65-5.862ZM21.656-4.649a5.654,5.654,0,0,1-1,3.5A3.2,3.2,0,0,1,17.965.176,3.315,3.315,0,0,1,15.179-1.1L15.1,0H13.605V-13.5h1.626v5.036a3.3,3.3,0,0,1,2.716-1.222,3.221,3.221,0,0,1,2.72,1.31,5.824,5.824,0,0,1,.989,3.586ZM20.03-4.834A4.394,4.394,0,0,0,19.389-7.4a2.124,2.124,0,0,0-1.846-.905,2.387,2.387,0,0,0-2.312,1.494V-2.7A2.454,2.454,0,0,0,17.561-1.2a2.112,2.112,0,0,0,1.819-.905A4.672,4.672,0,0,0,20.03-4.834Zm9.211,2.312a1.2,1.2,0,0,0-.5-1.024,4.78,4.78,0,0,0-1.731-.628,8.186,8.186,0,0,1-1.96-.633,2.788,2.788,0,0,1-1.072-.879A2.1,2.1,0,0,1,23.634-6.9a2.467,2.467,0,0,1,.989-1.978,3.861,3.861,0,0,1,2.527-.809,3.974,3.974,0,0,1,2.624.835,2.652,2.652,0,0,1,1.006,2.136H29.145a1.468,1.468,0,0,0-.567-1.151,2.124,2.124,0,0,0-1.428-.483,2.223,2.223,0,0,0-1.389.387,1.217,1.217,0,0,0-.5,1.011.986.986,0,0,0,.466.888,5.731,5.731,0,0,0,1.683.571,8.77,8.77,0,0,1,1.973.65,2.878,2.878,0,0,1,1.121.91,2.237,2.237,0,0,1,.365,1.3,2.434,2.434,0,0,1-1.02,2.043A4.277,4.277,0,0,1,27.2.176a4.789,4.789,0,0,1-2.021-.4,3.288,3.288,0,0,1-1.375-1.129,2.722,2.722,0,0,1-.5-1.569h1.626a1.683,1.683,0,0,0,.655,1.3,2.54,2.54,0,0,0,1.613.479,2.622,2.622,0,0,0,1.481-.374A1.148,1.148,0,0,0,29.241-2.522Zm7.69,2.7a4.155,4.155,0,0,1-3.146-1.27,4.714,4.714,0,0,1-1.213-3.4v-.3a5.707,5.707,0,0,1,.541-2.527,4.217,4.217,0,0,1,1.512-1.74,3.8,3.8,0,0,1,2.1-.628,3.562,3.562,0,0,1,2.883,1.222,5.289,5.289,0,0,1,1.028,3.5v.677H34.2a3.38,3.38,0,0,0,.822,2.272,2.583,2.583,0,0,0,2,.866A2.832,2.832,0,0,0,38.479-1.5a3.666,3.666,0,0,0,1.046-.932l.993.773A3.993,3.993,0,0,1,36.932.176Zm-.2-8.525a2.169,2.169,0,0,0-1.652.716,3.482,3.482,0,0,0-.826,2.008h4.764v-.123a3.1,3.1,0,0,0-.668-1.92A2.042,2.042,0,0,0,36.729-8.35Zm10.389.3a4.873,4.873,0,0,0-.8-.062A2.143,2.143,0,0,0,44.147-6.75V0H42.521V-9.51H44.1l.026,1.1A2.532,2.532,0,0,1,46.4-9.686a1.661,1.661,0,0,1,.721.123Zm4.79,5.845,2.355-7.3h1.661L52.515,0H51.275L47.83-9.51h1.661ZM63.229,0A3.416,3.416,0,0,1,63-1,3.628,3.628,0,0,1,60.293.176a3.357,3.357,0,0,1-2.307-.8,2.573,2.573,0,0,1-.9-2.017,2.688,2.688,0,0,1,1.129-2.307,5.325,5.325,0,0,1,3.177-.822h1.582v-.747a1.826,1.826,0,0,0-.51-1.358,2.049,2.049,0,0,0-1.5-.505,2.371,2.371,0,0,0-1.459.439,1.3,1.3,0,0,0-.589,1.063H57.278a2.244,2.244,0,0,1,.505-1.375A3.449,3.449,0,0,1,59.155-9.3a4.613,4.613,0,0,1,1.9-.387,3.759,3.759,0,0,1,2.575.822A2.964,2.964,0,0,1,64.6-6.6v4.377a5.351,5.351,0,0,0,.334,2.083V0Zm-2.7-1.239a2.858,2.858,0,0,0,1.45-.4,2.392,2.392,0,0,0,.993-1.028V-4.614H61.7q-2.988,0-2.988,1.749a1.48,1.48,0,0,0,.51,1.2A1.959,1.959,0,0,0,60.53-1.239Zm10.433.088a2.342,2.342,0,0,0,1.521-.527A1.855,1.855,0,0,0,73.2-3h1.538a2.949,2.949,0,0,1-.562,1.556A3.7,3.7,0,0,1,72.8-.264a3.994,3.994,0,0,1-1.833.439,3.918,3.918,0,0,1-3.089-1.3,5.163,5.163,0,0,1-1.147-3.546v-.272a5.725,5.725,0,0,1,.51-2.47A3.883,3.883,0,0,1,68.7-9.088a4.157,4.157,0,0,1,2.254-.6,3.814,3.814,0,0,1,2.659.958A3.424,3.424,0,0,1,74.742-6.24H73.2a2.241,2.241,0,0,0-.7-1.516,2.174,2.174,0,0,0-1.551-.593,2.276,2.276,0,0,0-1.92.892,4.19,4.19,0,0,0-.681,2.58v.308a4.106,4.106,0,0,0,.677,2.531A2.287,2.287,0,0,0,70.963-1.151ZM78.337,0H76.711V-9.51h1.626ZM76.579-12.032a.971.971,0,0,1,.242-.668.907.907,0,0,1,.716-.272.922.922,0,0,1,.721.272.96.96,0,0,1,.246.668.929.929,0,0,1-.246.659.938.938,0,0,1-.721.264.924.924,0,0,1-.716-.264A.938.938,0,0,1,76.579-12.032Zm3.929,7.189a5.617,5.617,0,0,1,.549-2.514,4.1,4.1,0,0,1,1.529-1.723,4.163,4.163,0,0,1,2.237-.606,4.01,4.01,0,0,1,3.142,1.345,5.174,5.174,0,0,1,1.2,3.577v.114a5.666,5.666,0,0,1-.532,2.492A4.038,4.038,0,0,1,87.113-.439a4.211,4.211,0,0,1-2.272.615,4,4,0,0,1-3.133-1.345,5.147,5.147,0,0,1-1.2-3.56Zm1.635.193a4.068,4.068,0,0,0,.734,2.54,2.349,2.349,0,0,0,1.964.958,2.335,2.335,0,0,0,1.969-.971,4.449,4.449,0,0,0,.729-2.72A4.061,4.061,0,0,0,86.8-7.378a2.361,2.361,0,0,0-1.973-.971,2.335,2.335,0,0,0-1.942.958A4.416,4.416,0,0,0,82.143-4.649ZM85.562-13.5H87.53l-2.355,2.584-1.31,0Zm7.181,3.99.053,1.2a3.465,3.465,0,0,1,2.848-1.371q3.015,0,3.041,3.4V0H97.058V-6.293a2.189,2.189,0,0,0-.47-1.521,1.884,1.884,0,0,0-1.437-.492,2.347,2.347,0,0,0-1.389.422,2.865,2.865,0,0,0-.932,1.107V0H91.2V-9.51Z" transform="translate(930.97 4333.999)" fill="#fff"/>
    <path id="Trazado_183575" data-name="Trazado 183575" d="M-35.955-4.731V0h-1.594V-12.086h4.458a4.478,4.478,0,0,1,3.109,1.013,3.433,3.433,0,0,1,1.125,2.681,3.388,3.388,0,0,1-1.1,2.71,4.678,4.678,0,0,1-3.15.95Zm0-1.3h2.864a2.863,2.863,0,0,0,1.959-.6,2.2,2.2,0,0,0,.681-1.742,2.277,2.277,0,0,0-.681-1.73A2.682,2.682,0,0,0-33-10.783h-2.955Zm12.617,6.2a3.924,3.924,0,0,1-2.972-1.2,4.452,4.452,0,0,1-1.146-3.208v-.282a5.39,5.39,0,0,1,.51-2.386,3.982,3.982,0,0,1,1.428-1.644,3.59,3.59,0,0,1,1.988-.594,3.364,3.364,0,0,1,2.723,1.154,5,5,0,0,1,.971,3.3v.639h-6.084a3.193,3.193,0,0,0,.776,2.146,2.44,2.44,0,0,0,1.888.818,2.675,2.675,0,0,0,1.378-.332,3.462,3.462,0,0,0,.988-.88l.938.73A3.772,3.772,0,0,1-23.338.166Zm-.191-8.052a2.048,2.048,0,0,0-1.561.677,3.288,3.288,0,0,0-.78,1.9h4.5v-.116A2.925,2.925,0,0,0-22-7.242,1.928,1.928,0,0,0-23.529-7.886Zm9.812.282a4.6,4.6,0,0,0-.755-.058,2.024,2.024,0,0,0-2.05,1.287V0h-1.536V-8.981h1.494l.025,1.038a2.391,2.391,0,0,1,2.142-1.2,1.569,1.569,0,0,1,.681.116Zm3.91-3.553v2.175h1.677v1.187H-9.807v5.577a1.247,1.247,0,0,0,.224.81.943.943,0,0,0,.764.27,3.718,3.718,0,0,0,.73-.1V0A4.478,4.478,0,0,1-9.268.166,1.912,1.912,0,0,1-10.82-.457a2.675,2.675,0,0,1-.523-1.768v-5.57h-1.635V-8.981h1.635v-2.175ZM-4.669,0H-6.2V-8.981h1.536Zm-1.66-11.364a.917.917,0,0,1,.228-.631.857.857,0,0,1,.677-.257.87.87,0,0,1,.681.257.907.907,0,0,1,.232.631.877.877,0,0,1-.232.623.886.886,0,0,1-.681.249.872.872,0,0,1-.677-.249A.886.886,0,0,1-6.329-11.364ZM-.76-8.981l.05,1.129A3.273,3.273,0,0,1,1.98-9.147q2.847,0,2.872,3.212V0H3.316V-5.943a2.068,2.068,0,0,0-.444-1.436,1.78,1.78,0,0,0-1.357-.465,2.216,2.216,0,0,0-1.312.4A2.706,2.706,0,0,0-.677-6.4V0H-2.212V-8.981ZM10.895.166a3.924,3.924,0,0,1-2.972-1.2A4.452,4.452,0,0,1,6.778-4.242v-.282a5.39,5.39,0,0,1,.51-2.386A3.982,3.982,0,0,1,8.716-8.554,3.59,3.59,0,0,1,10.7-9.147a3.364,3.364,0,0,1,2.723,1.154,5,5,0,0,1,.971,3.3v.639H8.313a3.193,3.193,0,0,0,.776,2.146,2.44,2.44,0,0,0,1.888.818,2.675,2.675,0,0,0,1.378-.332,3.462,3.462,0,0,0,.988-.88l.938.73A3.772,3.772,0,0,1,10.895.166ZM10.7-7.886a2.048,2.048,0,0,0-1.561.677,3.288,3.288,0,0,0-.78,1.9h4.5v-.116a2.925,2.925,0,0,0-.631-1.814A1.928,1.928,0,0,0,10.7-7.886Zm6.923-1.1.05,1.129a3.273,3.273,0,0,1,2.689-1.295q2.847,0,2.872,3.212V0H21.7V-5.943a2.068,2.068,0,0,0-.444-1.436A1.78,1.78,0,0,0,19.9-7.844a2.216,2.216,0,0,0-1.312.4A2.706,2.706,0,0,0,17.71-6.4V0H16.174V-8.981Zm10.011-2.175v2.175h1.677v1.187H27.637v5.577a1.247,1.247,0,0,0,.224.81.943.943,0,0,0,.764.27,3.718,3.718,0,0,0,.73-.1V0a4.478,4.478,0,0,1-1.179.165,1.912,1.912,0,0,1-1.552-.623A2.675,2.675,0,0,1,26.1-2.225v-5.57H24.467V-8.981H26.1v-2.175ZM34.834.166a3.924,3.924,0,0,1-2.972-1.2,4.452,4.452,0,0,1-1.146-3.208v-.282a5.39,5.39,0,0,1,.51-2.386,3.982,3.982,0,0,1,1.428-1.644,3.59,3.59,0,0,1,1.988-.594,3.364,3.364,0,0,1,2.723,1.154,5,5,0,0,1,.971,3.3v.639H32.253a3.193,3.193,0,0,0,.776,2.146,2.44,2.44,0,0,0,1.888.818A2.675,2.675,0,0,0,36.3-1.419a3.462,3.462,0,0,0,.988-.88l.938.73A3.772,3.772,0,0,1,34.834.166Zm-.191-8.052a2.048,2.048,0,0,0-1.561.677,3.288,3.288,0,0,0-.78,1.9h4.5v-.116a2.925,2.925,0,0,0-.631-1.814A1.928,1.928,0,0,0,34.643-7.886Z" transform="translate(928.417 4605.903)" fill="#12263f"/>
    <path id="Trazado_183576" data-name="Trazado 183576" d="M-26.96,0V-12.8h3.612a5.815,5.815,0,0,1,2.953.738,4.993,4.993,0,0,1,1.982,2.1,6.837,6.837,0,0,1,.708,3.129v.817a6.861,6.861,0,0,1-.7,3.173,4.915,4.915,0,0,1-2,2.092A6.185,6.185,0,0,1-23.418,0Zm1.688-11.417V-1.38H-23.5a3.863,3.863,0,0,0,3.037-1.214,5.016,5.016,0,0,0,1.085-3.457V-6.8A5.1,5.1,0,0,0-20.4-10.19a3.644,3.644,0,0,0-2.9-1.227ZM-13.645,0h-1.626V-9.51h1.626ZM-15.4-12.032a.971.971,0,0,1,.242-.668.907.907,0,0,1,.716-.272.922.922,0,0,1,.721.272.96.96,0,0,1,.246.668.929.929,0,0,1-.246.659.938.938,0,0,1-.721.264.924.924,0,0,1-.716-.264A.938.938,0,0,1-15.4-12.032Zm8.956,3.981a4.873,4.873,0,0,0-.8-.062A2.143,2.143,0,0,0-9.417-6.75V0h-1.626V-9.51h1.582l.026,1.1A2.532,2.532,0,0,1-7.167-9.686a1.661,1.661,0,0,1,.721.123ZM-1.006.176a4.155,4.155,0,0,1-3.146-1.27,4.714,4.714,0,0,1-1.213-3.4v-.3a5.707,5.707,0,0,1,.541-2.527,4.217,4.217,0,0,1,1.512-1.74,3.8,3.8,0,0,1,2.1-.628A3.562,3.562,0,0,1,1.674-8.464,5.289,5.289,0,0,1,2.7-4.966v.677H-3.74a3.38,3.38,0,0,0,.822,2.272,2.583,2.583,0,0,0,2,.866A2.832,2.832,0,0,0,.541-1.5a3.666,3.666,0,0,0,1.046-.932l.993.773A3.993,3.993,0,0,1-1.006.176Zm-.2-8.525a2.169,2.169,0,0,0-1.652.716,3.482,3.482,0,0,0-.826,2.008H1.077v-.123a3.1,3.1,0,0,0-.668-1.92A2.042,2.042,0,0,0-1.208-8.35ZM8.4-1.151a2.342,2.342,0,0,0,1.521-.527A1.855,1.855,0,0,0,10.639-3h1.538a2.949,2.949,0,0,1-.562,1.556A3.7,3.7,0,0,1,10.23-.264,3.994,3.994,0,0,1,8.4.176a3.918,3.918,0,0,1-3.089-1.3A5.163,5.163,0,0,1,4.162-4.667v-.272a5.725,5.725,0,0,1,.51-2.47A3.883,3.883,0,0,1,6.135-9.088a4.157,4.157,0,0,1,2.254-.6,3.814,3.814,0,0,1,2.659.958A3.424,3.424,0,0,1,12.177-6.24H10.639a2.241,2.241,0,0,0-.7-1.516A2.174,2.174,0,0,0,8.389-8.35a2.276,2.276,0,0,0-1.92.892,4.19,4.19,0,0,0-.681,2.58v.308a4.106,4.106,0,0,0,.677,2.531A2.287,2.287,0,0,0,8.4-1.151Zm7.813-10.661v2.3h1.775v1.257H16.211v5.9a1.32,1.32,0,0,0,.237.858,1,1,0,0,0,.809.286,3.937,3.937,0,0,0,.773-.105V0a4.742,4.742,0,0,1-1.248.175,2.025,2.025,0,0,1-1.644-.659,2.832,2.832,0,0,1-.554-1.872v-5.9H12.854V-9.51h1.731v-2.3ZM25.756,0a3.416,3.416,0,0,1-.229-1A3.628,3.628,0,0,1,22.821.176a3.357,3.357,0,0,1-2.307-.8,2.573,2.573,0,0,1-.9-2.017,2.688,2.688,0,0,1,1.129-2.307,5.325,5.325,0,0,1,3.177-.822H25.5v-.747a1.826,1.826,0,0,0-.51-1.358,2.049,2.049,0,0,0-1.5-.505,2.371,2.371,0,0,0-1.459.439,1.3,1.3,0,0,0-.589,1.063H19.806a2.244,2.244,0,0,1,.505-1.375A3.449,3.449,0,0,1,21.683-9.3a4.613,4.613,0,0,1,1.9-.387,3.759,3.759,0,0,1,2.575.822A2.964,2.964,0,0,1,27.127-6.6v4.377a5.351,5.351,0,0,0,.334,2.083V0Zm-2.7-1.239a2.858,2.858,0,0,0,1.45-.4A2.392,2.392,0,0,0,25.5-2.663V-4.614H24.227q-2.988,0-2.988,1.749a1.48,1.48,0,0,0,.51,1.2A1.959,1.959,0,0,0,23.058-1.239Z" transform="translate(1153.137 4264.368)" fill="#12263f"/>
    <path id="Trazado_183577" data-name="Trazado 183577" d="M-29.974,0h-1.594V-12.086h1.594Zm4.125-8.981.05,1.129a3.273,3.273,0,0,1,2.689-1.295q2.847,0,2.872,3.212V0h-1.536V-5.943a2.068,2.068,0,0,0-.444-1.436,1.78,1.78,0,0,0-1.357-.465,2.216,2.216,0,0,0-1.312.4,2.706,2.706,0,0,0-.88,1.046V0H-27.3V-8.981Zm7.554,4.416a5.261,5.261,0,0,1,.979-3.324A3.1,3.1,0,0,1-14.75-9.147a3.115,3.115,0,0,1,2.5,1.079V-12.75h1.536V0h-1.411L-12.2-.963A3.127,3.127,0,0,1-14.767.166a3.068,3.068,0,0,1-2.544-1.278,5.321,5.321,0,0,1-.984-3.337Zm1.536.174A3.984,3.984,0,0,0-16.128-2a2.039,2.039,0,0,0,1.743.863,2.24,2.24,0,0,0,2.133-1.312V-6.574a2.257,2.257,0,0,0-2.117-1.27,2.049,2.049,0,0,0-1.76.872A4.386,4.386,0,0,0-16.759-4.391ZM-6.666,0H-8.2V-8.981h1.536Zm-1.66-11.364a.917.917,0,0,1,.228-.631.857.857,0,0,1,.677-.257.87.87,0,0,1,.681.257.907.907,0,0,1,.232.631.877.877,0,0,1-.232.623.886.886,0,0,1-.681.249.872.872,0,0,1-.677-.249A.886.886,0,0,1-8.326-11.364ZM.133-7.6a4.6,4.6,0,0,0-.755-.058,2.024,2.024,0,0,0-2.05,1.287V0H-4.208V-8.981h1.494l.025,1.038a2.391,2.391,0,0,1,2.142-1.2,1.569,1.569,0,0,1,.681.116ZM5.271.166A3.924,3.924,0,0,1,2.3-1.033,4.452,4.452,0,0,1,1.154-4.242v-.282a5.39,5.39,0,0,1,.51-2.386A3.982,3.982,0,0,1,3.092-8.554,3.59,3.59,0,0,1,5.08-9.147,3.364,3.364,0,0,1,7.8-7.994a5,5,0,0,1,.971,3.3v.639H2.689a3.193,3.193,0,0,0,.776,2.146,2.44,2.44,0,0,0,1.888.818,2.675,2.675,0,0,0,1.378-.332A3.462,3.462,0,0,0,7.72-2.3l.938.73A3.772,3.772,0,0,1,5.271.166ZM5.08-7.886a2.048,2.048,0,0,0-1.561.677,3.288,3.288,0,0,0-.78,1.9h4.5v-.116a2.925,2.925,0,0,0-.631-1.814A1.928,1.928,0,0,0,5.08-7.886Zm9.073,6.8a2.212,2.212,0,0,0,1.436-.5,1.752,1.752,0,0,0,.681-1.245h1.453a2.785,2.785,0,0,1-.531,1.469A3.5,3.5,0,0,1,15.884-.249a3.772,3.772,0,0,1-1.731.415,3.7,3.7,0,0,1-2.918-1.224,4.877,4.877,0,0,1-1.083-3.349v-.257A5.407,5.407,0,0,1,10.633-7a3.667,3.667,0,0,1,1.382-1.585,3.926,3.926,0,0,1,2.129-.564,3.6,3.6,0,0,1,2.511.9,3.234,3.234,0,0,1,1.067,2.349H16.27a2.116,2.116,0,0,0-.66-1.432,2.053,2.053,0,0,0-1.465-.56,2.149,2.149,0,0,0-1.814.843,3.957,3.957,0,0,0-.643,2.436v.291a3.878,3.878,0,0,0,.639,2.391A2.16,2.16,0,0,0,14.153-1.087Zm7.379-10.069v2.175h1.677v1.187H21.532v5.577a1.247,1.247,0,0,0,.224.81.943.943,0,0,0,.764.27,3.718,3.718,0,0,0,.73-.1V0a4.478,4.478,0,0,1-1.179.165A1.912,1.912,0,0,1,20.52-.457,2.675,2.675,0,0,1,20-2.225v-5.57H18.361V-8.981H20v-2.175ZM30.547,0a3.226,3.226,0,0,1-.216-.946A3.426,3.426,0,0,1,27.774.166,3.17,3.17,0,0,1,25.6-.585a2.43,2.43,0,0,1-.851-1.905,2.539,2.539,0,0,1,1.067-2.179,5.029,5.029,0,0,1,3-.776h1.494v-.706a1.725,1.725,0,0,0-.481-1.282,1.935,1.935,0,0,0-1.419-.477,2.239,2.239,0,0,0-1.378.415,1.223,1.223,0,0,0-.556,1H24.927a2.119,2.119,0,0,1,.477-1.3A3.258,3.258,0,0,1,26.7-8.782a4.356,4.356,0,0,1,1.8-.365,3.551,3.551,0,0,1,2.432.776,2.8,2.8,0,0,1,.913,2.137V-2.1a5.054,5.054,0,0,0,.315,1.967V0ZM28-1.17a2.7,2.7,0,0,0,1.37-.374,2.259,2.259,0,0,0,.938-.971V-4.358H29.1q-2.822,0-2.822,1.652a1.4,1.4,0,0,0,.481,1.129A1.85,1.85,0,0,0,28-1.17Z" transform="translate(1151.399 4400.382)" fill="#12263f"/>
    <path id="Trazado_183578" data-name="Trazado 183578" d="M-28.928-5.337H-34V0h-1.594V-12.086h7.487v1.3H-34v4.142h5.072ZM-24.77,0h-1.536V-8.981h1.536Zm-1.66-11.364a.917.917,0,0,1,.228-.631.857.857,0,0,1,.677-.257.87.87,0,0,1,.681.257.907.907,0,0,1,.232.631.877.877,0,0,1-.232.623.886.886,0,0,1-.681.249.872.872,0,0,1-.677-.249A.886.886,0,0,1-26.43-11.364Zm3.744,6.8a5.261,5.261,0,0,1,.979-3.324,3.1,3.1,0,0,1,2.565-1.258,3.115,3.115,0,0,1,2.5,1.079V-12.75h1.536V0h-1.411l-.075-.963A3.127,3.127,0,0,1-19.158.166,3.068,3.068,0,0,1-21.7-1.112a5.321,5.321,0,0,1-.984-3.337Zm1.536.174A3.984,3.984,0,0,0-20.52-2a2.039,2.039,0,0,0,1.743.863,2.24,2.24,0,0,0,2.133-1.312V-6.574a2.257,2.257,0,0,0-2.117-1.27,2.049,2.049,0,0,0-1.76.872A4.386,4.386,0,0,0-21.15-4.391ZM-9,.166a3.924,3.924,0,0,1-2.972-1.2,4.452,4.452,0,0,1-1.146-3.208v-.282A5.39,5.39,0,0,1-12.6-6.91a3.982,3.982,0,0,1,1.428-1.644,3.59,3.59,0,0,1,1.988-.594A3.364,3.364,0,0,1-6.466-7.994,5,5,0,0,1-5.5-4.69v.639H-11.58A3.193,3.193,0,0,0-10.8-1.905a2.44,2.44,0,0,0,1.888.818,2.675,2.675,0,0,0,1.378-.332,3.462,3.462,0,0,0,.988-.88l.938.73A3.772,3.772,0,0,1-9,.166Zm-.191-8.052a2.048,2.048,0,0,0-1.561.677,3.288,3.288,0,0,0-.78,1.9h4.5v-.116a2.925,2.925,0,0,0-.631-1.814A1.928,1.928,0,0,0-9.189-7.886Zm5.1,3.32A5.261,5.261,0,0,1-3.113-7.89,3.1,3.1,0,0,1-.548-9.147a3.115,3.115,0,0,1,2.5,1.079V-12.75H3.486V0H2.075L2-.963A3.127,3.127,0,0,1-.564.166,3.068,3.068,0,0,1-3.109-1.112a5.321,5.321,0,0,1-.984-3.337Zm1.536.174A3.984,3.984,0,0,0-1.926-2a2.039,2.039,0,0,0,1.743.863A2.24,2.24,0,0,0,1.951-2.449V-6.574A2.257,2.257,0,0,0-.166-7.844a2.049,2.049,0,0,0-1.76.872A4.386,4.386,0,0,0-2.557-4.391ZM7.537,0H6V-8.981H7.537ZM5.877-11.364a.917.917,0,0,1,.228-.631.857.857,0,0,1,.677-.257.87.87,0,0,1,.681.257.907.907,0,0,1,.232.631.877.877,0,0,1-.232.623.886.886,0,0,1-.681.249.872.872,0,0,1-.677-.249A.886.886,0,0,1,5.877-11.364Zm3.752,6.8A5.279,5.279,0,0,1,10.6-7.906a3.106,3.106,0,0,1,2.573-1.241,3.09,3.09,0,0,1,2.565,1.162l.075-1h1.4V-.216a3.654,3.654,0,0,1-1.033,2.748,3.814,3.814,0,0,1-2.777,1,4.619,4.619,0,0,1-1.9-.415,3.272,3.272,0,0,1-1.419-1.137l.8-.921A3,3,0,0,0,13.3,2.283a2.353,2.353,0,0,0,1.747-.631,2.411,2.411,0,0,0,.627-1.776V-.9A3.156,3.156,0,0,1,13.157.166,3.068,3.068,0,0,1,10.6-1.1,5.55,5.55,0,0,1,9.629-4.565Zm1.544.174A4.027,4.027,0,0,0,11.8-2a2.023,2.023,0,0,0,1.743.867,2.249,2.249,0,0,0,2.133-1.32v-4.1a2.276,2.276,0,0,0-2.117-1.287,2.041,2.041,0,0,0-1.751.872A4.386,4.386,0,0,0,11.173-4.391Zm9.812-4.59.05,1.129a3.273,3.273,0,0,1,2.689-1.295q2.847,0,2.872,3.212V0H25.06V-5.943a2.068,2.068,0,0,0-.444-1.436,1.78,1.78,0,0,0-1.357-.465,2.216,2.216,0,0,0-1.312.4,2.706,2.706,0,0,0-.88,1.046V0H19.532V-8.981ZM34.457,0a3.226,3.226,0,0,1-.216-.946A3.426,3.426,0,0,1,31.684.166a3.17,3.17,0,0,1-2.179-.751,2.43,2.43,0,0,1-.851-1.905,2.539,2.539,0,0,1,1.067-2.179,5.029,5.029,0,0,1,3-.776h1.494v-.706a1.725,1.725,0,0,0-.481-1.282,1.935,1.935,0,0,0-1.419-.477,2.239,2.239,0,0,0-1.378.415,1.223,1.223,0,0,0-.556,1H28.837a2.119,2.119,0,0,1,.477-1.3,3.258,3.258,0,0,1,1.295-.992,4.356,4.356,0,0,1,1.8-.365,3.551,3.551,0,0,1,2.432.776,2.8,2.8,0,0,1,.913,2.137V-2.1a5.054,5.054,0,0,0,.315,1.967V0ZM31.908-1.17a2.7,2.7,0,0,0,1.37-.374,2.259,2.259,0,0,0,.938-.971V-4.358h-1.2q-2.822,0-2.822,1.652a1.4,1.4,0,0,0,.481,1.129A1.85,1.85,0,0,0,31.908-1.17Z" transform="translate(926.417 4680.025)" fill="#12263f"/>
    <path id="Trazado_183579" data-name="Trazado 183579" d="M-23.109-5.653a7.476,7.476,0,0,1-.6,3.1A4.527,4.527,0,0,1-25.4-.531a4.659,4.659,0,0,1-2.557.7,4.619,4.619,0,0,1-2.532-.7,4.635,4.635,0,0,1-1.714-2,7.174,7.174,0,0,1-.627-3.009v-.872a7.388,7.388,0,0,1,.606-3.08,4.619,4.619,0,0,1,1.714-2.046,4.6,4.6,0,0,1,2.536-.71,4.685,4.685,0,0,1,2.561.7,4.519,4.519,0,0,1,1.706,2.034,7.513,7.513,0,0,1,.6,3.1Zm-1.585-.78a5.419,5.419,0,0,0-.863-3.3,2.847,2.847,0,0,0-2.416-1.15,2.817,2.817,0,0,0-2.378,1.15,5.308,5.308,0,0,0-.892,3.192v.888a5.427,5.427,0,0,0,.876,3.275,2.829,2.829,0,0,0,2.411,1.191,2.817,2.817,0,0,0,2.391-1.125,5.4,5.4,0,0,0,.872-3.225Zm11.339,2.042A5.34,5.34,0,0,1-14.3-1.083,3.024,3.024,0,0,1-16.842.166a3.131,3.131,0,0,1-2.631-1.2L-19.548,0h-1.411V-12.75h1.536v4.756a3.113,3.113,0,0,1,2.565-1.154A3.042,3.042,0,0,1-14.29-7.911a5.5,5.5,0,0,1,.934,3.387Zm-1.536-.174A4.15,4.15,0,0,0-15.5-6.989a2.006,2.006,0,0,0-1.743-.855,2.255,2.255,0,0,0-2.183,1.411v3.885a2.318,2.318,0,0,0,2.2,1.411,2,2,0,0,0,1.718-.855A4.413,4.413,0,0,0-14.892-4.565Zm8.7,2.183a1.131,1.131,0,0,0-.469-.967A4.514,4.514,0,0,0-8.3-3.943a7.731,7.731,0,0,1-1.851-.6,2.633,2.633,0,0,1-1.013-.83,1.986,1.986,0,0,1-.328-1.146,2.33,2.33,0,0,1,.934-1.868,3.647,3.647,0,0,1,2.386-.764,3.753,3.753,0,0,1,2.478.789,2.5,2.5,0,0,1,.95,2.017H-6.284a1.386,1.386,0,0,0-.535-1.087,2.006,2.006,0,0,0-1.349-.457,2.1,2.1,0,0,0-1.312.365,1.15,1.15,0,0,0-.473.955.932.932,0,0,0,.44.838,5.413,5.413,0,0,0,1.59.54,8.283,8.283,0,0,1,1.864.614A2.718,2.718,0,0,1-5-3.715,2.112,2.112,0,0,1-4.657-2.49,2.3,2.3,0,0,1-5.62-.56a4.039,4.039,0,0,1-2.5.726,4.523,4.523,0,0,1-1.909-.382,3.105,3.105,0,0,1-1.3-1.067A2.571,2.571,0,0,1-11.8-2.764h1.536A1.59,1.59,0,0,0-9.641-1.54a2.4,2.4,0,0,0,1.523.452,2.476,2.476,0,0,0,1.4-.353A1.084,1.084,0,0,0-6.192-2.382Zm3.129-2.191a5.3,5.3,0,0,1,.519-2.374A3.87,3.87,0,0,1-1.1-8.575a3.932,3.932,0,0,1,2.113-.573A3.788,3.788,0,0,1,3.98-7.877,4.886,4.886,0,0,1,5.113-4.5v.108a5.351,5.351,0,0,1-.5,2.353A3.813,3.813,0,0,1,3.175-.415,3.977,3.977,0,0,1,1.029.166,3.778,3.778,0,0,1-1.93-1.1,4.861,4.861,0,0,1-3.063-4.466Zm1.544.183a3.842,3.842,0,0,0,.693,2.4,2.218,2.218,0,0,0,1.855.9A2.2,2.2,0,0,0,2.889-2a4.2,4.2,0,0,0,.689-2.569,3.836,3.836,0,0,0-.7-2.395,2.23,2.23,0,0,0-1.864-.917,2.205,2.205,0,0,0-1.834.9A4.17,4.17,0,0,0-1.519-4.391ZM8.708,0H7.172V-12.75H8.708Zm6.184.166a3.924,3.924,0,0,1-2.972-1.2,4.452,4.452,0,0,1-1.146-3.208v-.282a5.39,5.39,0,0,1,.51-2.386,3.982,3.982,0,0,1,1.428-1.644A3.59,3.59,0,0,1,14.7-9.147a3.364,3.364,0,0,1,2.723,1.154,5,5,0,0,1,.971,3.3v.639H12.31a3.193,3.193,0,0,0,.776,2.146,2.44,2.44,0,0,0,1.888.818,2.675,2.675,0,0,0,1.378-.332,3.462,3.462,0,0,0,.988-.88l.938.73A3.772,3.772,0,0,1,14.892.166ZM14.7-7.886a2.048,2.048,0,0,0-1.561.677,3.288,3.288,0,0,0-.78,1.9h4.5v-.116a2.925,2.925,0,0,0-.631-1.814A1.928,1.928,0,0,0,14.7-7.886Zm7.554-3.271v2.175h1.677v1.187H22.254v5.577a1.247,1.247,0,0,0,.224.81.943.943,0,0,0,.764.27,3.718,3.718,0,0,0,.73-.1V0a4.478,4.478,0,0,1-1.179.165,1.912,1.912,0,0,1-1.552-.623,2.675,2.675,0,0,1-.523-1.768v-5.57H19.083V-8.981h1.635v-2.175ZM31.269,0a3.226,3.226,0,0,1-.216-.946A3.426,3.426,0,0,1,28.5.166a3.17,3.17,0,0,1-2.179-.751,2.43,2.43,0,0,1-.851-1.905,2.539,2.539,0,0,1,1.067-2.179,5.029,5.029,0,0,1,3-.776h1.494v-.706a1.725,1.725,0,0,0-.481-1.282,1.935,1.935,0,0,0-1.419-.477A2.239,2.239,0,0,0,27.75-7.5a1.223,1.223,0,0,0-.556,1H25.649a2.119,2.119,0,0,1,.477-1.3,3.258,3.258,0,0,1,1.295-.992,4.356,4.356,0,0,1,1.8-.365,3.551,3.551,0,0,1,2.432.776,2.8,2.8,0,0,1,.913,2.137V-2.1a5.054,5.054,0,0,0,.315,1.967V0ZM28.721-1.17a2.7,2.7,0,0,0,1.37-.374,2.259,2.259,0,0,0,.938-.971V-4.358h-1.2Q27-4.358,27-2.706a1.4,1.4,0,0,0,.481,1.129A1.85,1.85,0,0,0,28.721-1.17Z" transform="translate(923.417 4642.964)" fill="#12263f"/>
    <path id="Trazado_183583" data-name="Trazado 183583" d="M-74.821,0V-12.8h3.612a5.815,5.815,0,0,1,2.953.738,4.993,4.993,0,0,1,1.982,2.1,6.837,6.837,0,0,1,.708,3.129v.817a6.861,6.861,0,0,1-.7,3.173,4.915,4.915,0,0,1-2,2.092A6.185,6.185,0,0,1-71.279,0Zm1.688-11.417V-1.38h1.775a3.863,3.863,0,0,0,3.037-1.214,5.016,5.016,0,0,0,1.085-3.457V-6.8A5.1,5.1,0,0,0-68.26-10.19a3.644,3.644,0,0,0-2.9-1.227ZM-61.506,0h-1.626V-9.51h1.626Zm-1.758-12.032a.971.971,0,0,1,.242-.668.907.907,0,0,1,.716-.272.922.922,0,0,1,.721.272.96.96,0,0,1,.246.668.929.929,0,0,1-.246.659.938.938,0,0,1-.721.264.924.924,0,0,1-.716-.264A.938.938,0,0,1-63.264-12.032Zm3.973,7.2a5.589,5.589,0,0,1,1.028-3.538,3.289,3.289,0,0,1,2.725-1.314,3.271,3.271,0,0,1,2.716,1.23l.079-1.055h1.485V-.229a3.869,3.869,0,0,1-1.094,2.909,4.038,4.038,0,0,1-2.94,1.063A4.891,4.891,0,0,1-57.3,3.3a3.465,3.465,0,0,1-1.5-1.2l.844-.976a3.18,3.18,0,0,0,2.558,1.292,2.491,2.491,0,0,0,1.85-.668,2.553,2.553,0,0,0,.664-1.881V-.949A3.342,3.342,0,0,1-55.556.176a3.248,3.248,0,0,1-2.7-1.345A5.876,5.876,0,0,1-59.291-4.834Zm1.635.185A4.264,4.264,0,0,0-57-2.123a2.142,2.142,0,0,0,1.846.918,2.382,2.382,0,0,0,2.259-1.4V-6.943a2.41,2.41,0,0,0-2.241-1.362,2.161,2.161,0,0,0-1.854.923A4.644,4.644,0,0,0-57.656-4.649Zm10.389-4.86.053,1.2a3.465,3.465,0,0,1,2.848-1.371q3.015,0,3.041,3.4V0h-1.626V-6.293a2.189,2.189,0,0,0-.47-1.521,1.884,1.884,0,0,0-1.437-.492,2.347,2.347,0,0,0-1.389.422,2.865,2.865,0,0,0-.932,1.107V0h-1.626V-9.51ZM-33,0a3.416,3.416,0,0,1-.229-1A3.628,3.628,0,0,1-35.938.176a3.357,3.357,0,0,1-2.307-.8,2.573,2.573,0,0,1-.9-2.017,2.688,2.688,0,0,1,1.129-2.307,5.325,5.325,0,0,1,3.177-.822h1.582v-.747a1.826,1.826,0,0,0-.51-1.358,2.049,2.049,0,0,0-1.5-.505,2.371,2.371,0,0,0-1.459.439,1.3,1.3,0,0,0-.589,1.063h-1.635a2.244,2.244,0,0,1,.505-1.375A3.449,3.449,0,0,1-37.077-9.3a4.613,4.613,0,0,1,1.9-.387,3.759,3.759,0,0,1,2.575.822A2.964,2.964,0,0,1-31.632-6.6v4.377A5.351,5.351,0,0,0-31.3-.141V0Zm-2.7-1.239a2.858,2.858,0,0,0,1.45-.4,2.392,2.392,0,0,0,.993-1.028V-4.614h-1.274q-2.988,0-2.988,1.749a1.48,1.48,0,0,0,.51,1.2A1.959,1.959,0,0,0-35.7-1.239Zm10.679-3.595a5.571,5.571,0,0,1,1.037-3.52A3.28,3.28,0,0,1-21.27-9.686a3.3,3.3,0,0,1,2.646,1.143V-13.5H-17V0h-1.494l-.079-1.02a3.311,3.311,0,0,1-2.716,1.2,3.248,3.248,0,0,1-2.694-1.354,5.634,5.634,0,0,1-1.042-3.533Zm1.626.185a4.218,4.218,0,0,0,.668,2.531,2.159,2.159,0,0,0,1.846.914,2.372,2.372,0,0,0,2.259-1.389V-6.961a2.39,2.39,0,0,0-2.241-1.345,2.17,2.17,0,0,0-1.863.923A4.644,4.644,0,0,0-23.4-4.649ZM-10.529.176a4.155,4.155,0,0,1-3.146-1.27,4.714,4.714,0,0,1-1.213-3.4v-.3a5.707,5.707,0,0,1,.541-2.527,4.217,4.217,0,0,1,1.512-1.74,3.8,3.8,0,0,1,2.1-.628A3.562,3.562,0,0,1-7.849-8.464a5.289,5.289,0,0,1,1.028,3.5v.677h-6.442a3.38,3.38,0,0,0,.822,2.272,2.583,2.583,0,0,0,2,.866A2.832,2.832,0,0,0-8.982-1.5a3.666,3.666,0,0,0,1.046-.932l.993.773A3.993,3.993,0,0,1-10.529.176Zm-.2-8.525a2.169,2.169,0,0,0-1.652.716,3.482,3.482,0,0,0-.826,2.008h4.764v-.123a3.1,3.1,0,0,0-.668-1.92A2.042,2.042,0,0,0-10.731-8.35Zm14.063,7.2a2.342,2.342,0,0,0,1.521-.527A1.855,1.855,0,0,0,5.572-3H7.11a2.949,2.949,0,0,1-.562,1.556A3.7,3.7,0,0,1,5.164-.264,3.994,3.994,0,0,1,3.331.176a3.918,3.918,0,0,1-3.089-1.3A5.163,5.163,0,0,1-.905-4.667v-.272A5.725,5.725,0,0,1-.4-7.409,3.883,3.883,0,0,1,1.068-9.088a4.157,4.157,0,0,1,2.254-.6,3.814,3.814,0,0,1,2.659.958A3.424,3.424,0,0,1,7.11-6.24H5.572a2.241,2.241,0,0,0-.7-1.516A2.174,2.174,0,0,0,3.322-8.35a2.276,2.276,0,0,0-1.92.892,4.19,4.19,0,0,0-.681,2.58v.308A4.106,4.106,0,0,0,1.4-2.039,2.287,2.287,0,0,0,3.331-1.151ZM8.508-4.843a5.617,5.617,0,0,1,.549-2.514,4.1,4.1,0,0,1,1.529-1.723,4.163,4.163,0,0,1,2.237-.606,4.01,4.01,0,0,1,3.142,1.345,5.174,5.174,0,0,1,1.2,3.577v.114a5.666,5.666,0,0,1-.532,2.492A4.038,4.038,0,0,1,15.113-.439a4.211,4.211,0,0,1-2.272.615A4,4,0,0,1,9.708-1.169a5.147,5.147,0,0,1-1.2-3.56Zm1.635.193a4.068,4.068,0,0,0,.734,2.54,2.349,2.349,0,0,0,1.964.958,2.335,2.335,0,0,0,1.969-.971,4.449,4.449,0,0,0,.729-2.72A4.061,4.061,0,0,0,14.8-7.378a2.361,2.361,0,0,0-1.973-.971,2.335,2.335,0,0,0-1.942.958A4.416,4.416,0,0,0,10.143-4.649Zm10.6-4.86.053,1.2a3.465,3.465,0,0,1,2.848-1.371q3.015,0,3.041,3.4V0H25.058V-6.293a2.189,2.189,0,0,0-.47-1.521,1.884,1.884,0,0,0-1.437-.492,2.347,2.347,0,0,0-1.389.422,2.865,2.865,0,0,0-.932,1.107V0H19.2V-9.51ZM29.681,0V-8.253h-1.5V-9.51h1.5v-.809a3.3,3.3,0,0,1,.91-2.479,3.528,3.528,0,0,1,2.571-.888,7.741,7.741,0,0,1,2.487.536l-.272,1.371a5.634,5.634,0,0,0-2.092-.439,2.047,2.047,0,0,0-1.507.47,1.938,1.938,0,0,0-.461,1.411v.826h1.942v1.257H31.315V0Zm6.776,0H34.822V-9.51h1.635Zm8.517,0a3.416,3.416,0,0,1-.229-1A3.628,3.628,0,0,1,42.038.176a3.357,3.357,0,0,1-2.307-.8,2.573,2.573,0,0,1-.9-2.017,2.688,2.688,0,0,1,1.129-2.307,5.325,5.325,0,0,1,3.177-.822h1.582v-.747a1.826,1.826,0,0,0-.51-1.358,2.049,2.049,0,0,0-1.5-.505,2.371,2.371,0,0,0-1.459.439,1.3,1.3,0,0,0-.589,1.063H39.023a2.244,2.244,0,0,1,.505-1.375A3.449,3.449,0,0,1,40.9-9.3a4.613,4.613,0,0,1,1.9-.387,3.759,3.759,0,0,1,2.575.822A2.964,2.964,0,0,1,46.345-6.6v4.377a5.351,5.351,0,0,0,.334,2.083V0Zm-2.7-1.239a2.858,2.858,0,0,0,1.45-.4,2.392,2.392,0,0,0,.993-1.028V-4.614H43.444q-2.988,0-2.988,1.749a1.48,1.48,0,0,0,.51,1.2A1.959,1.959,0,0,0,42.275-1.239ZM50.432-9.51l.053,1.2a3.465,3.465,0,0,1,2.848-1.371q3.015,0,3.041,3.4V0H54.747V-6.293a2.189,2.189,0,0,0-.47-1.521,1.884,1.884,0,0,0-1.437-.492,2.347,2.347,0,0,0-1.389.422,2.865,2.865,0,0,0-.932,1.107V0H48.894V-9.51Zm9.923,8.183h5.563V0h-7.55V-1.2l5.247-6.97H58.447V-9.51h7.207v1.151ZM73.617,0a3.416,3.416,0,0,1-.229-1A3.628,3.628,0,0,1,70.682.176a3.357,3.357,0,0,1-2.307-.8,2.573,2.573,0,0,1-.9-2.017A2.688,2.688,0,0,1,68.6-4.944a5.325,5.325,0,0,1,3.177-.822h1.582v-.747a1.826,1.826,0,0,0-.51-1.358,2.049,2.049,0,0,0-1.5-.505,2.371,2.371,0,0,0-1.459.439A1.3,1.3,0,0,0,69.3-6.873H67.667a2.244,2.244,0,0,1,.505-1.375A3.449,3.449,0,0,1,69.543-9.3a4.613,4.613,0,0,1,1.9-.387,3.759,3.759,0,0,1,2.575.822A2.964,2.964,0,0,1,74.988-6.6v4.377a5.351,5.351,0,0,0,.334,2.083V0Zm-2.7-1.239a2.858,2.858,0,0,0,1.45-.4,2.392,2.392,0,0,0,.993-1.028V-4.614H72.088q-2.988,0-2.988,1.749a1.48,1.48,0,0,0,.51,1.2A1.959,1.959,0,0,0,70.919-1.239Z" transform="translate(966.417 4718.086)" fill="#12263f"/>
    <path id="Unión_30" data-name="Unión 30" d="M71.149,30.432H0V8.394H71.149V0L98.336,19.411,71.149,38.826Z" transform="translate(498.349 4253.316) rotate(90)" fill="#bec1c7"/>
    <path id="Unión_38" data-name="Unión 38" d="M71.149,30.432H0V8.394H71.149V0L98.336,19.411,71.149,38.826Z" transform="translate(758.9 4510.499) rotate(90)" fill="#bec1c7"/>
    <path id="Trazado_183584" data-name="Trazado 183584" d="M2.673-9.187V-7.4H4.054v.978H2.673v4.593a1.027,1.027,0,0,0,.185.667.777.777,0,0,0,.629.222,3.062,3.062,0,0,0,.6-.082V0a3.688,3.688,0,0,1-.971.136A1.575,1.575,0,0,1,1.839-.376a2.2,2.2,0,0,1-.431-1.456V-6.419H.062V-7.4H1.408V-9.187ZM6.9,0H5.64V-7.4H6.9ZM5.537-9.358a.755.755,0,0,1,.188-.52.706.706,0,0,1,.557-.212.717.717,0,0,1,.561.212.747.747,0,0,1,.191.52.722.722,0,0,1-.191.513.73.73,0,0,1-.561.205.718.718,0,0,1-.557-.205A.73.73,0,0,1,5.537-9.358ZM12,.137A3.232,3.232,0,0,1,9.55-.851a3.666,3.666,0,0,1-.943-2.642v-.232a4.438,4.438,0,0,1,.42-1.965A3.28,3.28,0,0,1,10.2-7.044a2.956,2.956,0,0,1,1.637-.489,2.77,2.77,0,0,1,2.242.95,4.114,4.114,0,0,1,.8,2.721v.526H9.871a2.629,2.629,0,0,0,.639,1.767A2.009,2.009,0,0,0,12.065-.9,2.2,2.2,0,0,0,13.2-1.169a2.851,2.851,0,0,0,.813-.725l.772.6A3.106,3.106,0,0,1,12,.137ZM11.84-6.494a1.687,1.687,0,0,0-1.285.557,2.708,2.708,0,0,0-.643,1.562h3.705v-.1a2.409,2.409,0,0,0-.52-1.494A1.588,1.588,0,0,0,11.84-6.494Zm5.7-.9.041.93A2.7,2.7,0,0,1,19.8-7.533q2.345,0,2.365,2.646V0H20.9V-4.895a1.7,1.7,0,0,0-.366-1.183,1.466,1.466,0,0,0-1.118-.383,1.825,1.825,0,0,0-1.08.328,2.228,2.228,0,0,0-.725.861V0H16.345V-7.4Zm9.6,7.533a3.232,3.232,0,0,1-2.447-.988,3.666,3.666,0,0,1-.943-2.642v-.232a4.438,4.438,0,0,1,.42-1.965,3.28,3.28,0,0,1,1.176-1.354,2.956,2.956,0,0,1,1.637-.489,2.77,2.77,0,0,1,2.242.95,4.114,4.114,0,0,1,.8,2.721v.526H25.013a2.629,2.629,0,0,0,.639,1.767A2.009,2.009,0,0,0,27.207-.9a2.2,2.2,0,0,0,1.135-.273,2.851,2.851,0,0,0,.813-.725l.772.6A3.106,3.106,0,0,1,27.139.137Zm-.157-6.631a1.687,1.687,0,0,0-1.285.557,2.708,2.708,0,0,0-.643,1.562h3.705v-.1a2.409,2.409,0,0,0-.52-1.494A1.588,1.588,0,0,0,26.981-6.494Zm5.7-.9.041.93a2.7,2.7,0,0,1,2.215-1.066q2.345,0,2.365,2.646V0H36.039V-4.895a1.7,1.7,0,0,0-.366-1.183,1.466,1.466,0,0,0-1.118-.383,1.825,1.825,0,0,0-1.08.328,2.228,2.228,0,0,0-.725.861V0H31.486V-7.4Z" transform="translate(504.206 4297.43)" fill="#12263f"/>
    <path id="Trazado_183585" data-name="Trazado 183585" d="M2.673-9.187V-7.4H4.054v.978H2.673v4.593a1.027,1.027,0,0,0,.185.667.777.777,0,0,0,.629.222,3.062,3.062,0,0,0,.6-.082V0a3.688,3.688,0,0,1-.971.136A1.575,1.575,0,0,1,1.839-.376a2.2,2.2,0,0,1-.431-1.456V-6.419H.062V-7.4H1.408V-9.187ZM6.9,0H5.64V-7.4H6.9ZM5.537-9.358a.755.755,0,0,1,.188-.52.706.706,0,0,1,.557-.212.717.717,0,0,1,.561.212.747.747,0,0,1,.191.52.722.722,0,0,1-.191.513.73.73,0,0,1-.561.205.718.718,0,0,1-.557-.205A.73.73,0,0,1,5.537-9.358ZM12,.137A3.232,3.232,0,0,1,9.55-.851a3.666,3.666,0,0,1-.943-2.642v-.232a4.438,4.438,0,0,1,.42-1.965A3.28,3.28,0,0,1,10.2-7.044a2.956,2.956,0,0,1,1.637-.489,2.77,2.77,0,0,1,2.242.95,4.114,4.114,0,0,1,.8,2.721v.526H9.871a2.629,2.629,0,0,0,.639,1.767A2.009,2.009,0,0,0,12.065-.9,2.2,2.2,0,0,0,13.2-1.169a2.851,2.851,0,0,0,.813-.725l.772.6A3.106,3.106,0,0,1,12,.137ZM11.84-6.494a1.687,1.687,0,0,0-1.285.557,2.708,2.708,0,0,0-.643,1.562h3.705v-.1a2.409,2.409,0,0,0-.52-1.494A1.588,1.588,0,0,0,11.84-6.494Zm5.7-.9.041.93A2.7,2.7,0,0,1,19.8-7.533q2.345,0,2.365,2.646V0H20.9V-4.895a1.7,1.7,0,0,0-.366-1.183,1.466,1.466,0,0,0-1.118-.383,1.825,1.825,0,0,0-1.08.328,2.228,2.228,0,0,0-.725.861V0H16.345V-7.4Zm9.6,7.533a3.232,3.232,0,0,1-2.447-.988,3.666,3.666,0,0,1-.943-2.642v-.232a4.438,4.438,0,0,1,.42-1.965,3.28,3.28,0,0,1,1.176-1.354,2.956,2.956,0,0,1,1.637-.489,2.77,2.77,0,0,1,2.242.95,4.114,4.114,0,0,1,.8,2.721v.526H25.013a2.629,2.629,0,0,0,.639,1.767A2.009,2.009,0,0,0,27.207-.9a2.2,2.2,0,0,0,1.135-.273,2.851,2.851,0,0,0,.813-.725l.772.6A3.106,3.106,0,0,1,27.139.137Zm-.157-6.631a1.687,1.687,0,0,0-1.285.557,2.708,2.708,0,0,0-.643,1.562h3.705v-.1a2.409,2.409,0,0,0-.52-1.494A1.588,1.588,0,0,0,26.981-6.494Zm5.7-.9.041.93a2.7,2.7,0,0,1,2.215-1.066q2.345,0,2.365,2.646V0H36.039V-4.895a1.7,1.7,0,0,0-.366-1.183,1.466,1.466,0,0,0-1.118-.383,1.825,1.825,0,0,0-1.08.328,2.228,2.228,0,0,0-.725.861V0H31.486V-7.4Z" transform="translate(764.757 4554.611)" fill="#12263f"/>
    <path id="Trazado_183586" data-name="Trazado 183586" d="M4.026.137A3.232,3.232,0,0,1,1.579-.851,3.666,3.666,0,0,1,.636-3.493v-.232a4.438,4.438,0,0,1,.42-1.965A3.28,3.28,0,0,1,2.232-7.044a2.956,2.956,0,0,1,1.637-.489,2.77,2.77,0,0,1,2.242.95,4.114,4.114,0,0,1,.8,2.721v.526H1.9A2.629,2.629,0,0,0,2.54-1.569,2.009,2.009,0,0,0,4.095-.9a2.2,2.2,0,0,0,1.135-.273,2.851,2.851,0,0,0,.813-.725l.772.6A3.106,3.106,0,0,1,4.026.137ZM3.869-6.494a1.687,1.687,0,0,0-1.285.557,2.708,2.708,0,0,0-.643,1.562H5.646v-.1a2.409,2.409,0,0,0-.52-1.494A1.588,1.588,0,0,0,3.869-6.494Zm8.812,4.532a.931.931,0,0,0-.386-.8,3.718,3.718,0,0,0-1.347-.489,6.367,6.367,0,0,1-1.524-.492,2.169,2.169,0,0,1-.834-.684,1.635,1.635,0,0,1-.27-.943A1.919,1.919,0,0,1,9.088-6.9a3,3,0,0,1,1.965-.629,3.091,3.091,0,0,1,2.041.649,2.063,2.063,0,0,1,.783,1.661H12.605a1.142,1.142,0,0,0-.441-.9,1.652,1.652,0,0,0-1.111-.376,1.729,1.729,0,0,0-1.08.3.947.947,0,0,0-.39.786.767.767,0,0,0,.362.69,4.458,4.458,0,0,0,1.309.444,6.821,6.821,0,0,1,1.535.506,2.239,2.239,0,0,1,.872.708,1.74,1.74,0,0,1,.284,1.008,1.893,1.893,0,0,1-.793,1.589,3.326,3.326,0,0,1-2.058.6A3.725,3.725,0,0,1,9.522-.178a2.557,2.557,0,0,1-1.07-.878,2.117,2.117,0,0,1-.386-1.22H9.331A1.309,1.309,0,0,0,9.84-1.268,1.976,1.976,0,0,0,11.095-.9a2.039,2.039,0,0,0,1.152-.291A.893.893,0,0,0,12.681-1.962Z" transform="translate(836.633 4641.087)" fill="#12263f"/>
    <path id="Unión_32" data-name="Unión 32" d="M0,0H22.912V10.906H0Z" transform="translate(623.251 4393.529)" fill="url(#linear-gradient)"/>
    <path id="Unión_31" data-name="Unión 31" d="M0,0H150.6V10.906H0Z" transform="translate(646.162 4323.685) rotate(90)" fill="#bec1c7"/>
    <path id="Unión_35" data-name="Unión 35" d="M0,0H29.571V10.906H0Z" transform="translate(664.827 4334.136) rotate(180)" fill="#bec1c7"/>
    <path id="Unión_46" data-name="Unión 46" d="M0,0H29.571V10.906H0Z" transform="translate(837.63 4334.136) rotate(180)" fill="#bec1c7"/>
    <path id="Unión_37" data-name="Unión 37" d="M0,0H29.571V10.906H0Z" transform="translate(664.827 4474.519) rotate(180)" fill="#bec1c7"/>
    <path id="Unión_33" data-name="Unión 33" d="M19.583,13.983,0,27.969V0Z" transform="translate(659.343 4314.7)" fill="#bec1c7"/>
    <path id="Unión_45" data-name="Unión 45" d="M19.583,13.983,0,27.969V0Z" transform="translate(832.146 4314.7)" fill="#bec1c7"/>
    <path id="Unión_36" data-name="Unión 36" d="M19.583,13.983,0,27.969V0Z" transform="translate(659.343 4455.083)" fill="#bec1c7"/>
    <g id="OfmmeW.tif" transform="translate(-970.688 1957.271)">
      <g id="Grupo_142298" data-name="Grupo 142298" transform="translate(1318.747 2223.866)">
        <path id="Trazado_118067" data-name="Trazado 118067" d="M1318.747,2259.373v-30.35c.353-1,1.184-1.071,2.073-.993,0-.164,0-.266,0-.368a1.314,1.314,0,0,1,1.491-1.482h.813c0-.267,0-.483,0-.7,0-1.16.442-1.606,1.593-1.606,4.811,0,9.623.005,14.434-.009a1.421,1.421,0,0,1,1.122.357c1.823,1.869,3.649,3.735,5.457,5.619a1.068,1.068,0,0,1,.26.676q.023,9.1.015,18.208,0,3.073,0,6.146a1.309,1.309,0,0,1-1.435,1.427c-.252,0-.5,0-.774,0-.057.62.1,1.246-.366,1.747s-1.125.37-1.723.416c0,.114,0,.177,0,.241-.014,1.266-.42,1.668-1.689,1.668q-9.827,0-19.654.01A1.507,1.507,0,0,1,1318.747,2259.373Zm20.27-34.422h-14.292c-.526,0-.527,0-.527.538q0,14.6,0,29.2c0,.537,0,.538.534.538h19.656c.54,0,.541,0,.541-.531q0-11.7,0-23.4v-.429h-4.307c-1.135,0-1.6-.471-1.6-1.61C1339.017,2227.837,1339.017,2226.418,1339.017,2224.95Zm3.664,31.349H1324.7c-1.113,0-1.578-.469-1.578-1.592q0-13.481,0-26.962v-.49h-.637c-.592,0-.592,0-.592.59V2256.8c0,.57,0,.57.575.57q9.652,0,19.3,0C1342.748,2257.37,1342.743,2257.621,1342.681,2256.3Zm-2.075,2.151h-18.212c-1.117,0-1.574-.462-1.574-1.592v-27.743c-.094-.007-.155-.014-.216-.016-.782-.022-.782-.021-.782.748v28.846c0,.6,0,.6.617.6h19.46C1340.672,2259.3,1340.672,2259.3,1340.606,2258.451Zm-.514-32.879c0,1.37,0,2.622,0,3.874,0,.273.142.35.388.347.588-.007,1.176,0,1.764,0h1.96Z" transform="translate(-1318.747 -2223.866)" fill="#12263f"/>
        <path id="Trazado_118068" data-name="Trazado 118068" d="M1423.9,2345.685h7.48a2.5,2.5,0,0,1,.345.006.533.533,0,0,1-.01,1.064,2.421,2.421,0,0,1-.307.005h-15.037a1.737,1.737,0,0,1-.344-.011.533.533,0,0,1,.01-1.055,1.9,1.9,0,0,1,.344-.009Z" transform="translate(-1408.117 -2336.302)" fill="#12263f"/>
        <path id="Trazado_118069" data-name="Trazado 118069" d="M1423.9,2386.695h-7.48a2.35,2.35,0,0,1-.345-.007.533.533,0,0,1,.017-1.064,2.183,2.183,0,0,1,.268,0h15.114c.077,0,.154,0,.23,0a.531.531,0,0,1,.529.543.524.524,0,0,1-.546.527c-.1.007-.2,0-.307,0Z" transform="translate(-1408.13 -2373.163)" fill="#12263f"/>
        <path id="Trazado_118070" data-name="Trazado 118070" d="M1423.856,2427.593h-7.48a1.8,1.8,0,0,1-.344-.01.533.533,0,0,1,0-1.055,1.839,1.839,0,0,1,.344-.01h15.037a1.817,1.817,0,0,1,.344.01.533.533,0,0,1,0,1.055,1.818,1.818,0,0,1-.344.01Z" transform="translate(-1408.117 -2410.91)" fill="#12263f"/>
        <path id="Trazado_118071" data-name="Trazado 118071" d="M1423.925,2468.513h-7.519a2.191,2.191,0,0,1-.345-.007.533.533,0,0,1-.007-1.061,1.856,1.856,0,0,1,.306-.007h15.075a1.612,1.612,0,0,1,.344.013.532.532,0,0,1,.007,1.048,1.825,1.825,0,0,1-.382.014Z" transform="translate(-1408.124 -2448.681)" fill="#12263f"/>
        <path id="Trazado_118072" data-name="Trazado 118072" d="M1421.508,2508.427h-5.139a1.715,1.715,0,0,1-.344-.011.533.533,0,0,1,.014-1.056,1.681,1.681,0,0,1,.306-.008H1426.7a1.815,1.815,0,0,1,.268.006.534.534,0,0,1-.014,1.064,2.467,2.467,0,0,1-.307.005Z" transform="translate(-1408.117 -2485.521)" fill="#12263f"/>
      </g>
    </g>
    <g id="tJppI8" transform="translate(-229.817 1836.328)">
      <g id="Grupo_142299" data-name="Grupo 142299" transform="translate(573.505 2545.417)">
        <path id="Trazado_118073" data-name="Trazado 118073" d="M573.967,2566.857a2.579,2.579,0,0,1-.46-1.739q.031-3.41,0-6.82a2.446,2.446,0,0,1,.574-1.762,2.788,2.788,0,0,1-.572-2.126c.016-2.273,0-4.547.006-6.82a2.118,2.118,0,0,1,2.164-2.169q14.142-.006,28.284,0a2.14,2.14,0,0,1,2.171,2.133c.015,2.512.023,5.026-.013,7.538a3.355,3.355,0,0,1-.4,1.222c-.08.18-.113.289.01.454a2.174,2.174,0,0,1,.414,1.382c-.013.665,0,1.329,0,1.994a.671.671,0,1,1-1.333.02c-.008-.691,0-1.382,0-2.073a.814.814,0,0,0-.858-.887c-.146-.006-.292,0-.439,0H576.138a5.379,5.379,0,0,0-.558.013.741.741,0,0,0-.729.785q-.007,3.729,0,7.458c0,.537.33.842.929.859.545.015,1.09,0,1.636,0h9.255c.542,0,.838.218.851.62.014.424-.338.721-.87.721q-5.425,0-10.851,0c-.718,0-.952.232-.952.954q0,3.569,0,7.139c0,.715.3,1.013,1.016,1.013q6.144,0,12.287,0a1.174,1.174,0,0,1,.5.08.583.583,0,0,1,.326.665.683.683,0,0,1-.555.556,1.688,1.688,0,0,1-.436.028q-6.044,0-12.088,0a2.147,2.147,0,0,1-1.99-.94,2.45,2.45,0,0,1-.377-1.181c-.033-2.526-.039-5.052,0-7.577A6.583,6.583,0,0,1,573.967,2566.857Zm15.866-20.1H575.794c-.66,0-.946.284-.946.939q0,3.569,0,7.137c0,.772.257,1.03,1.019,1.03h27.918c.736,0,1.018-.275,1.019-1q0-3.528,0-7.056c0-.782-.269-1.051-1.051-1.051Z" transform="translate(-573.505 -2545.417)" fill="#12263f"/>
        <path id="Trazado_118074" data-name="Trazado 118074" d="M778.878,2761.488a9.623,9.623,0,0,1,19.246-.016,9.623,9.623,0,0,1-19.246.016Zm1.332-.019a8.227,8.227,0,0,0,8.3,8.29,8.282,8.282,0,0,0,.1-16.562A8.276,8.276,0,0,0,780.21,2761.469Z" transform="translate(-762.495 -2735.404)" fill="#12263f"/>
        <path id="Trazado_118075" data-name="Trazado 118075" d="M622.057,2723.267a2.153,2.153,0,1,1-.234,4.3,2.219,2.219,0,0,1-2-2.23A2.166,2.166,0,0,1,622.057,2723.267Zm-.044,2.962a.866.866,0,0,0,.826-.8.841.841,0,0,0-1.683-.01A.864.864,0,0,0,622.013,2726.229Z" transform="translate(-616.128 -2709.076)" fill="#12263f"/>
        <path id="Trazado_118076" data-name="Trazado 118076" d="M622.061,2854.377a2.109,2.109,0,0,1,2.162,2.16,2.17,2.17,0,0,1-4.339-.052A2.125,2.125,0,0,1,622.061,2854.377Zm.835,2.15a.82.82,0,0,0-.8-.816.8.8,0,0,0-.883.771.871.871,0,0,0,.84.848A.886.886,0,0,0,622.9,2856.527Z" transform="translate(-616.184 -2829.728)" fill="#12263f"/>
        <path id="Trazado_118077" data-name="Trazado 118077" d="M716.623,2733.764c-.69,0-1.38,0-2.07,0-.529,0-.818-.238-.825-.655-.007-.437.285-.68.839-.681q2.071-.005,4.141,0c.5,0,.821.272.82.67s-.332.661-.835.664C718,2733.768,717.313,2733.764,716.623,2733.764Z" transform="translate(-702.542 -2717.507)" fill="#12263f"/>
        <path id="Trazado_118078" data-name="Trazado 118078" d="M715.812,2771.463c-.478,0-.957,0-1.435,0a.63.63,0,0,1-.684-.572.565.565,0,0,1,.584-.688c1.056-.031,2.114-.027,3.171,0a.57.57,0,0,1,.536.662.611.611,0,0,1-.617.6c-.518.011-1.036,0-1.555,0Z" transform="translate(-702.506 -2752.249)" fill="#12263f"/>
        <path id="Trazado_118079" data-name="Trazado 118079" d="M721.624,2602.889q-3.647,0-7.294,0a.734.734,0,0,1-.734-.372.644.644,0,0,1,.394-.9,2.247,2.247,0,0,1,.588-.062q7.095,0,14.19,0c.093,0,.186,0,.279,0a.633.633,0,0,1,.684.7c-.011.426-.224.627-.693.628Q725.331,2602.892,721.624,2602.889Z" transform="translate(-702.36 -2597.081)" fill="#12263f"/>
        <path id="Trazado_118080" data-name="Trazado 118080" d="M721.735,2640.534q-3.583,0-7.167,0c-.571,0-.852-.219-.855-.653a.618.618,0,0,1,.578-.637c.119-.01.239,0,.359,0h14.084c.186,0,.372-.012.557-.013a.542.542,0,0,1,.6.5c.061.43-.091.7-.443.768a2.978,2.978,0,0,1-.59.046q-3.564,0-7.127,0Z" transform="translate(-702.528 -2631.742)" fill="#12263f"/>
        <path id="Trazado_118081" data-name="Trazado 118081" d="M622.014,2596.7a2.149,2.149,0,1,1,2.181-2.133A2.195,2.195,0,0,1,622.014,2596.7Zm0-1.338a.814.814,0,1,0-.836-.827A.845.845,0,0,0,622.017,2595.361Z" transform="translate(-616.152 -2588.654)" fill="#12263f"/>
        <path id="Trazado_118082" data-name="Trazado 118082" d="M839.01,2832.3a2.256,2.256,0,0,1,.245-.367q2.434-2.444,4.876-4.88a3.735,3.735,0,0,1,.348-.328.626.626,0,0,1,.865.056.686.686,0,0,1,.038.874c-.154.183-.331.345-.5.514q-2.65,2.651-5.3,5.3c-.547.546-.814.546-1.367,0q-1.286-1.28-2.566-2.566a2.416,2.416,0,0,1-.215-.235.68.68,0,0,1,.055-.932.623.623,0,0,1,.894.044q1.012.984,2,1.994a5.583,5.583,0,0,1,.415.533Z" transform="translate(-814.394 -2804.153)" fill="#12263f"/>
      </g>
    </g>
    <g id="jS21yb.tif" transform="translate(795.317 2011.573)">
      <g id="Grupo_142300" data-name="Grupo 142300" transform="translate(-132.259 2625.498)">
        <path id="Trazado_118083" data-name="Trazado 118083" d="M-107.962,2636.493c1.122-1.332,2.1-2.494,3.077-3.652a1.977,1.977,0,0,1,3.161-.283c1.949,1.611,2,2.233.375,4.174-2.086,2.484-4.181,4.961-6.247,7.462a1.666,1.666,0,0,0-.35.976c-.024,3.82-.014,7.64-.016,11.459,0,1.41-.6,2.01-2.017,2.01q-10.147,0-20.293,0c-1.372,0-1.983-.609-1.984-1.975q0-14.6,0-29.2a1.7,1.7,0,0,1,1.931-1.957c5.545,0,11.09,0,16.635-.009a2.168,2.168,0,0,1,1.663.676q1.688,1.729,3.416,3.417a2.081,2.081,0,0,1,.656,1.6C-107.975,2632.888-107.962,2634.583-107.962,2636.493Zm-1.1-5.466c-1.214,0-2.358,0-3.5,0-.8,0-.913-.113-.916-.923,0-1.143,0-2.286,0-3.445a2.988,2.988,0,0,0-.335-.045q-8.28,0-16.56-.009c-.68,0-.782.371-.782.931q.011,14.526.006,29.053c0,.848.1.948.96.948q10.074,0,20.148,0c.892,0,.978-.089.978-1q0-4.9,0-9.8v-.8c-1,1.188-1.867,2.219-2.74,3.241a1.992,1.992,0,0,1-.594.56q-2.039.928-4.108,1.787a.544.544,0,0,1-.784-.659c.326-1.458.679-2.91,1.05-4.357a1.791,1.791,0,0,1,.406-.626c1.9-2.28,3.761-4.592,5.726-6.813a3.826,3.826,0,0,0,1.068-2.959C-109.136,2634.447-109.066,2632.771-109.066,2631.027Zm3.556,4.259-9.424,11.237,2.306,1.935,9.425-11.233Z" transform="translate(132.259 -2625.498)" fill="#12263f"/>
        <path id="Trazado_118084" data-name="Trazado 118084" d="M-102.176,2753.465h-1.514a.6.6,0,0,1-.677-.676c0-1.032,0-2.065,0-3.1a.573.573,0,0,1,.639-.64c1.032,0,2.064,0,3.1,0a.6.6,0,0,1,.677.676c0,1.032,0,2.064,0,3.1a.575.575,0,0,1-.639.641C-101.121,2753.468-101.649,2753.464-102.176,2753.465Zm1.105-3.266h-2.141v2.1h2.141Z" transform="translate(108.234 -2731.922)" fill="#12263f"/>
        <path id="Trazado_118085" data-name="Trazado 118085" d="M-102.158,2796.821c.482,0,.964.007,1.445,0s.733.2.732.693q0,1.514,0,3.028c0,.492-.248.7-.727.7-.986-.007-1.973-.009-2.959,0-.528,0-.74-.252-.734-.764.012-.963.014-1.927,0-2.89-.009-.563.255-.788.8-.769C-103.122,2796.834-102.64,2796.82-102.158,2796.821Zm1.028,3.3v-2.144h-2.108v2.144Z" transform="translate(108.264 -2773.065)" fill="#12263f"/>
        <path id="Trazado_118086" data-name="Trazado 118086" d="M-58.888,2713.176c1.561,0,3.123,0,4.684,0,.426,0,.838.054.817.586-.019.483-.418.522-.813.522q-4.684-.006-9.368,0c-.425,0-.837-.053-.817-.587.019-.485.418-.523.813-.521C-62.01,2713.18-60.449,2713.176-58.888,2713.176Z" transform="translate(73.795 -2701.019)" fill="#12263f"/>
        <path id="Trazado_118087" data-name="Trazado 118087" d="M-56.788,2666.469c-.94,0-1.883.038-2.82-.025a.929.929,0,0,1-.7-.527c-.081-.414.288-.553.681-.552,1.9,0,3.808-.018,5.711.025.248.006.488.339.731.521-.239.186-.468.516-.718.533C-54.858,2666.507-55.824,2666.469-56.788,2666.469Z" transform="translate(70.289 -2659.836)" fill="#12263f"/>
        <path id="Trazado_118088" data-name="Trazado 118088" d="M-101.248,2656.271c.451-.894.847-1.662,1.228-2.438.185-.375.4-.745.877-.5s.289.644.1,1.01c-.476.94-.938,1.887-1.419,2.824-.334.649-.64.7-1.155.208a15.323,15.323,0,0,1-1.392-1.424c-.145-.182-.06-.548-.08-.831.282.024.634-.049.831.094A7.743,7.743,0,0,1-101.248,2656.271Z" transform="translate(107.136 -2649.406)" fill="#12263f"/>
        <path id="Trazado_118089" data-name="Trazado 118089" d="M-102.3,2704.062c.444-.883.826-1.635,1.2-2.391.18-.364.376-.762.865-.533s.328.625.139,1c-.487.96-.958,1.928-1.452,2.884-.313.6-.625.655-1.115.188-.465-.442-.91-.905-1.366-1.356-.269-.266-.452-.563-.138-.892.345-.362.66-.166.94.126S-102.657,2703.681-102.3,2704.062Z" transform="translate(108.201 -2690.593)" fill="#12263f"/>
        <path id="Trazado_118090" data-name="Trazado 118090" d="M-61.325,2762.073c-.78,0-1.559,0-2.339,0-.4,0-.742-.166-.657-.579a.868.868,0,0,1,.655-.5c1.558-.044,3.118-.022,4.677-.024.4,0,.742.166.657.578a.886.886,0,0,1-.657.5C-59.762,2762.113-60.545,2762.073-61.325,2762.073Z" transform="translate(73.75 -2742.186)" fill="#12263f"/>
        <path id="Trazado_118091" data-name="Trazado 118091" d="M-62.3,2809.8a9.172,9.172,0,0,1-1.507-.024c-.243-.041-.443-.339-.663-.521.216-.185.423-.518.649-.53a27.8,27.8,0,0,1,3.089,0c.229.013.441.338.66.52-.216.185-.412.492-.652.531A10.117,10.117,0,0,1-62.3,2809.8Z" transform="translate(73.871 -2783.285)" fill="#12263f"/>
      </g>
    </g>
    <g id="owRQ3E" transform="translate(702.371 1264.806)">
      <g id="Grupo_142301" data-name="Grupo 142301" transform="translate(171.52 3041.522)">
        <path id="Trazado_118092" data-name="Trazado 118092" d="M260.736,3143.5c-1.016,0-2.032.009-3.049,0a2.588,2.588,0,0,1-2.48-1.841c-.066-.2-.128-.408-.18-.615a13.042,13.042,0,0,0-2.28-5.008,10.409,10.409,0,0,1-2.195-4.879,9.412,9.412,0,0,1,2.4-7.87,9.824,9.824,0,0,1,10.44-3.226,9.948,9.948,0,0,1,7.512,8.009,8.607,8.607,0,0,1-1.069,6.231c-.528.946-1.195,1.813-1.754,2.742a11.594,11.594,0,0,0-.953,1.9c-.316.849-.521,1.739-.782,2.608a2.6,2.6,0,0,1-2.617,1.952c-1,.008-2,0-3,0Zm0-1.934c.963,0,1.926-.006,2.889,0a.816.816,0,0,0,.894-.667c.187-.687.4-1.367.587-2.055a9.72,9.72,0,0,1,1.625-3.281,19.809,19.809,0,0,0,1.613-2.639,6.531,6.531,0,0,0,.738-3.925,8.442,8.442,0,0,0-6.248-7.1,8.319,8.319,0,0,0-9,3.432,7.18,7.18,0,0,0-.561,7.782,14.31,14.31,0,0,0,1.358,2.233,10.685,10.685,0,0,1,1.98,4.163c.112.449.278.885.385,1.335a.848.848,0,0,0,.956.729C258.879,3141.552,259.806,3141.564,260.734,3141.564Z" transform="translate(-241.998 -3111.302)" fill="#12263f"/>
        <path id="Trazado_118093" data-name="Trazado 118093" d="M308.676,3401.489h7.778a1.389,1.389,0,0,1-.773,1.038,6.408,6.408,0,0,1-3.665.713,5.057,5.057,0,0,1-2.726-.806,4.975,4.975,0,0,1-.733-.82Z" transform="translate(-293.894 -3362.975)" fill="#12263f"/>
        <path id="Trazado_118094" data-name="Trazado 118094" d="M308.385,3368.048v-1.132h8.07v1.132Z" transform="translate(-293.741 -3332.101)" fill="#12263f"/>
        <path id="Trazado_118095" data-name="Trazado 118095" d="M465.489,3212.359c.748,0,1.5-.008,2.245,0a.826.826,0,0,1,.917.824.8.8,0,0,1-.9.785q-2.3.015-4.6,0c-.578,0-.919-.327-.907-.818s.348-.785.941-.791C463.957,3212.353,464.723,3212.359,465.489,3212.359Z" transform="translate(-431.144 -3194.079)" fill="#12263f"/>
        <path id="Trazado_118096" data-name="Trazado 118096" d="M227.972,3093.974c-.171.221-.3.554-.529.641a1,1,0,0,1-.868-.086c-1.14-1.07-2.243-2.182-3.328-3.307a.729.729,0,0,1,.032-1.061.76.76,0,0,1,1.1-.064c1.11,1.077,2.2,2.174,3.285,3.276A2.591,2.591,0,0,1,227.972,3093.974Z" transform="translate(-217.522 -3084.714)" fill="#12263f"/>
        <path id="Trazado_118097" data-name="Trazado 118097" d="M174.7,3212.371c.731,0,1.461-.007,2.192,0a.818.818,0,0,1,.9.779.807.807,0,0,1-.9.833q-2.218.011-4.436,0c-.58,0-.929-.317-.933-.805a.833.833,0,0,1,.931-.806C173.2,3212.364,173.947,3212.371,174.7,3212.371Z" transform="translate(-171.52 -3194.089)" fill="#12263f"/>
        <path id="Trazado_118098" data-name="Trazado 118098" d="M316.078,3349.288v1.152h-8.033c-.023-.035-.056-.062-.059-.091-.106-1.061-.106-1.061.935-1.061Z" transform="translate(-293.344 -3316.359)" fill="#12263f"/>
        <path id="Trazado_118099" data-name="Trazado 118099" d="M308.411,3385.866v-1.121h8.067v1.121Z" transform="translate(-293.765 -3348.023)" fill="#12263f"/>
        <path id="Trazado_118100" data-name="Trazado 118100" d="M340.868,3044.607c0,.712.009,1.424,0,2.136-.01.583-.323.909-.827.9a.794.794,0,0,1-.789-.885q-.014-2.163,0-4.325a.817.817,0,0,1,.829-.908.809.809,0,0,1,.784.9c.013.729,0,1.46,0,2.189Z" transform="translate(-321.297 -3041.522)" fill="#12263f"/>
        <path id="Trazado_118101" data-name="Trazado 118101" d="M431.4,3300.509c-.213.244-.368.583-.6.644a1.15,1.15,0,0,1-.908-.172c-.6-.5-1.127-1.087-1.681-1.641-.466-.466-.939-.926-1.393-1.4a.814.814,0,1,1,1.148-1.15q1.52,1.5,3.015,3.031A3.824,3.824,0,0,1,431.4,3300.509Z" transform="translate(-399.244 -3269.219)" fill="#12263f"/>
        <path id="Trazado_118102" data-name="Trazado 118102" d="M224.579,3301.3c-.224-.191-.574-.349-.644-.589a1.1,1.1,0,0,1,.184-.9c.8-.88,1.667-1.7,2.51-2.546.163-.164.319-.335.492-.489a.781.781,0,0,1,1.144-.021.753.753,0,0,1,.022,1.141c-.67.713-1.372,1.4-2.064,2.088-.339.339-.674.685-1.033,1A3.141,3.141,0,0,1,224.579,3301.3Z" transform="translate(-218.3 -3269.229)" fill="#12263f"/>
        <path id="Trazado_118103" data-name="Trazado 118103" d="M429.829,3094.416c-.2-.173-.516-.32-.606-.552a.95.95,0,0,1,.087-.826c.983-1.049,2-2.065,3.045-3.056a.8.8,0,0,1,1.1,1.135c-1,1.034-2.025,2.042-3.053,3.047A2.143,2.143,0,0,1,429.829,3094.416Z" transform="translate(-401.602 -3084.619)" fill="#12263f"/>
        <path id="Trazado_118104" data-name="Trazado 118104" d="M287.5,3145.2a1.545,1.545,0,0,1,.481.038.741.741,0,0,1,.552.862.783.783,0,0,1-.848.719,5.675,5.675,0,0,0-5.593,5.256c0,.035,0,.071-.007.106-.051.787-.362,1.17-.907,1.12-.523-.048-.785-.474-.745-1.209A7.36,7.36,0,0,1,287.5,3145.2Z" transform="translate(-268.773 -3134.101)" fill="#12263f"/>
      </g>
    </g>
  </g>
</svg>
