<svg id="icon2" xmlns="http://www.w3.org/2000/svg" xmlns:xlink="http://www.w3.org/1999/xlink" width="103.929" height="103.929" viewBox="0 0 103.929 103.929">
  <defs>
    <radialGradient id="radial-gradient" cx="0.076" cy="0.019" r="1.465" gradientTransform="translate(0.001)" gradientUnits="objectBoundingBox">
      <stop offset="0" stop-color="#f6f6f7"/>
      <stop offset="0.477" stop-color="#f9f9fa"/>
      <stop offset="0.715" stop-color="#fff"/>
    </radialGradient>
  </defs>
  <g id="Grupo_18423" data-name="Grupo 18423" transform="translate(0 0)">
    <g id="Grupo_18421" data-name="Grupo 18421">
      <g id="Grupo_18420" data-name="Grupo 18420">
        <g id="Grupo_18419" data-name="Grupo 18419">
          <path id="Trazado_40936" data-name="Trazado 40936" d="M298.552,2197.684a51.964,51.964,0,1,1-51.964-51.963A51.964,51.964,0,0,1,298.552,2197.684Z" transform="translate(-194.623 -2145.721)" fill="#fff"/>
        </g>
      </g>
    </g>
    <path id="Trazado_40937" data-name="Trazado 40937" d="M298.078,2197.168a51.963,51.963,0,1,0-51.964,51.966A51.758,51.758,0,0,0,298.078,2197.168Z" transform="translate(-194.149 -2145.205)" fill="url(#radial-gradient)"/>
    <path id="Trazado_40938" data-name="Trazado 40938" d="M281.6,2193.014a39.664,39.664,0,1,0-39.664,39.664A39.517,39.517,0,0,0,281.6,2193.014Z" transform="translate(-189.818 -2140.878)" fill="none" stroke="#ffca45" stroke-miterlimit="10" stroke-width="4"/>
    <g id="Grupo_18422" data-name="Grupo 18422" transform="translate(9.206 29.174)">
      <path id="Trazado_40939" data-name="Trazado 40939" d="M290.013,2164.488a51.97,51.97,0,0,1-89.468,51.749,51.805,51.805,0,0,0,89.468-51.749Z" transform="translate(-200.545 -2164.488)" fill="#eceef0"/>
    </g>
  </g>
  <g id="Grupo_28522" data-name="Grupo 28522" transform="translate(26.545 31.308)">
    <path id="Trazado_67918" data-name="Trazado 67918" d="M128.166,136.942a.889.889,0,0,1-.889-.889V98.131a5.869,5.869,0,0,1,5.863-5.862H153.7a.888.888,0,0,1,.889.888v37.922a.888.888,0,0,1-.889.888H133.14a4.091,4.091,0,0,0-4.087,4.087A.888.888,0,0,1,128.166,136.942Zm4.975-42.9a4.092,4.092,0,0,0-4.087,4.087v33.723a5.842,5.842,0,0,1,4.087-1.664h19.669V94.044Z" transform="translate(-101.746 -92.269)" fill="#00223d"/>
    <path id="Trazado_67919" data-name="Trazado 67919" d="M152.2,134.91h-24.03a.888.888,0,1,1,0-1.776h23.141v-4.087a.888.888,0,1,1,1.776,0v4.975A.888.888,0,0,1,152.2,134.91Z" transform="translate(-101.746 -90.237)" fill="#00223d"/>
    <path id="Trazado_67920" data-name="Trazado 67920" d="M129.534,136.942a.889.889,0,0,1-.889-.889,4.091,4.091,0,0,0-4.087-4.087H104a.887.887,0,0,1-.888-.888V93.157a.887.887,0,0,1,.888-.888h20.557a5.869,5.869,0,0,1,5.863,5.862v37.922A.888.888,0,0,1,129.534,136.942Zm-24.645-6.752h19.669a5.842,5.842,0,0,1,4.087,1.664V98.131a4.092,4.092,0,0,0-4.087-4.087H104.889Z" transform="translate(-103.114 -92.269)" fill="#00223d"/>
    <path id="Trazado_67921" data-name="Trazado 67921" d="M129.453,134.91h-24.03a.889.889,0,0,1-.889-.889v-4.975a.888.888,0,1,1,1.776,0v4.087h23.142a.888.888,0,0,1,0,1.776Z" transform="translate(-103.034 -90.237)" fill="#00223d"/>
    <path id="Trazado_67922" data-name="Trazado 67922" d="M149.542,126.263H133.585a.888.888,0,0,1-.889-.888v-26a.888.888,0,0,1,1.776,0v25.114h15.07a.888.888,0,0,1,0,1.775Z" transform="translate(-101.439 -91.917)" fill="#00223d"/>
    <path id="Trazado_67923" data-name="Trazado 67923" d="M137.938,126.017a.888.888,0,0,1-.889-.888v-5.257a.886.886,0,0,1,.422-.754l3.522-2.181v-3.917a.887.887,0,0,1,.243-.611l3.136-3.309v-5.373a.887.887,0,0,1,.888-.888H149.3a.888.888,0,0,1,0,1.776h-3.149v4.837a.887.887,0,0,1-.243.611l-3.136,3.31v4.058a.885.885,0,0,1-.421.754l-3.522,2.18v4.762A.887.887,0,0,1,137.938,126.017Z" transform="translate(-101.193 -91.67)" fill="#00223d"/>
    <path id="Trazado_67924" data-name="Trazado 67924" d="M120.74,100.134a2.435,2.435,0,0,1-1.721-.73c-.579-.546-1.055-.4-2.166.126-1.018.479-2.409,1.136-3.748-.126-.578-.546-1.055-.4-2.166.126-1.016.479-2.409,1.136-3.747-.126a.71.71,0,0,1,.974-1.033c.579.545,1.054.4,2.167-.126,1.016-.48,2.408-1.136,3.747.126.579.545,1.053.4,2.166-.126,1.018-.48,2.409-1.136,3.748.126.579.545,1.055.4,2.166-.126,1.016-.48,2.408-1.136,3.747.126a.71.71,0,1,1-.974,1.033c-.579-.546-1.055-.4-2.167.126A4.884,4.884,0,0,1,120.74,100.134Z" transform="translate(-102.896 -91.965)" fill="#00223d"/>
    <path id="Trazado_67925" data-name="Trazado 67925" d="M120.74,106.086a2.435,2.435,0,0,1-1.721-.73c-.578-.544-1.053-.4-2.166.126-1.018.479-2.409,1.135-3.748-.126-.578-.544-1.053-.4-2.166.126-1.016.479-2.409,1.135-3.747-.126a.71.71,0,1,1,.974-1.033c.579.545,1.054.4,2.167-.126,1.016-.48,2.408-1.135,3.747.125.579.547,1.053.4,2.167-.125,1.016-.48,2.408-1.135,3.747.125.579.547,1.053.4,2.166-.125,1.016-.48,2.408-1.135,3.747.125a.71.71,0,0,1-.974,1.034c-.578-.545-1.053-.4-2.167.126A4.884,4.884,0,0,1,120.74,106.086Z" transform="translate(-102.896 -91.628)" fill="#00223d"/>
    <path id="Trazado_67926" data-name="Trazado 67926" d="M120.74,112.038a2.435,2.435,0,0,1-1.721-.73c-.579-.546-1.055-.4-2.166.126-1.018.479-2.409,1.136-3.748-.126-.578-.546-1.055-.4-2.166.126-1.016.479-2.409,1.136-3.747-.126a.71.71,0,1,1,.974-1.033c.579.545,1.054.4,2.167-.126,1.016-.479,2.408-1.136,3.747.126.579.545,1.053.4,2.166-.126,1.018-.479,2.409-1.136,3.748.126.579.545,1.055.4,2.166-.126,1.016-.479,2.408-1.136,3.747.126a.71.71,0,1,1-.974,1.033c-.579-.546-1.055-.4-2.167.126A4.868,4.868,0,0,1,120.74,112.038Z" transform="translate(-102.896 -91.291)" fill="#00223d"/>
    <path id="Trazado_67927" data-name="Trazado 67927" d="M120.74,117.99a2.435,2.435,0,0,1-1.721-.73c-.578-.544-1.053-.4-2.166.126-1.018.48-2.409,1.136-3.748-.126-.578-.544-1.053-.4-2.166.126-1.016.48-2.409,1.136-3.747-.126a.71.71,0,1,1,.974-1.033c.579.546,1.054.4,2.167-.126,1.016-.48,2.408-1.135,3.747.125.579.547,1.053.4,2.167-.125,1.016-.48,2.408-1.135,3.747.125.579.547,1.053.4,2.166-.125,1.016-.48,2.408-1.135,3.747.125a.71.71,0,0,1-.974,1.034c-.578-.545-1.053-.4-2.167.126A4.884,4.884,0,0,1,120.74,117.99Z" transform="translate(-102.896 -90.954)" fill="#00223d"/>
    <path id="Trazado_67928" data-name="Trazado 67928" d="M120.74,123.942a2.435,2.435,0,0,1-1.721-.73c-.579-.545-1.055-.4-2.166.126-1.018.479-2.409,1.136-3.748-.126-.578-.545-1.055-.4-2.166.126-1.016.479-2.409,1.136-3.747-.126a.71.71,0,1,1,.974-1.033c.579.545,1.054.4,2.167-.126,1.016-.479,2.408-1.136,3.747.126.579.545,1.053.4,2.166-.126,1.018-.479,2.409-1.136,3.748.126.579.545,1.055.4,2.166-.126,1.016-.479,2.408-1.136,3.747.126a.71.71,0,1,1-.974,1.033c-.579-.545-1.055-.4-2.167.126A4.868,4.868,0,0,1,120.74,123.942Z" transform="translate(-102.896 -90.617)" fill="#00223d"/>
  </g>
</svg>
