<svg id="icon2" xmlns="http://www.w3.org/2000/svg" xmlns:xlink="http://www.w3.org/1999/xlink" width="85.136" height="85.136" viewBox="0 0 85.136 85.136">
  <defs>
    <radialGradient id="radial-gradient" cx="0.076" cy="0.019" r="1.465" gradientTransform="translate(0.001)" gradientUnits="objectBoundingBox">
      <stop offset="0" stop-color="#f6f6f7"/>
      <stop offset="0.477" stop-color="#f9f9fa"/>
      <stop offset="0.715" stop-color="#fff"/>
    </radialGradient>
  </defs>
  <g id="Grupo_18423" data-name="Grupo 18423" transform="translate(0 0)">
    <g id="Grupo_18421" data-name="Grupo 18421">
      <g id="Grupo_18420" data-name="Grupo 18420">
        <g id="Grupo_18419" data-name="Grupo 18419">
          <path id="Trazado_40936" data-name="Trazado 40936" d="M279.759,2188.288a42.568,42.568,0,1,1-42.567-42.567A42.567,42.567,0,0,1,279.759,2188.288Z" transform="translate(-194.623 -2145.721)" fill="#fff"/>
        </g>
      </g>
    </g>
    <path id="Trazado_40937" data-name="Trazado 40937" d="M279.526,2188.033a42.567,42.567,0,1,0-42.567,42.569A42.4,42.4,0,0,0,279.526,2188.033Z" transform="translate(-194.389 -2145.467)" fill="url(#radial-gradient)"/>
    <path id="Trazado_40938" data-name="Trazado 40938" d="M267.443,2186.041a32.492,32.492,0,1,0-32.492,32.492A32.37,32.37,0,0,0,267.443,2186.041Z" transform="translate(-192.254 -2143.332)" fill="none" stroke="#1d272b" stroke-miterlimit="10" stroke-width="4"/>
    <g id="Grupo_18422" data-name="Grupo 18422" transform="translate(7.541 23.899)">
      <path id="Trazado_40939" data-name="Trazado 40939" d="M273.836,2164.488a42.573,42.573,0,0,1-73.291,42.392,42.438,42.438,0,0,0,73.291-42.392Z" transform="translate(-200.545 -2164.488)" fill="#eceef0"/>
    </g>
  </g>
  <g id="OedFhz" transform="translate(-4165.151 696.271)">
    <g id="Grupo_142373" data-name="Grupo 142373" transform="translate(4190.337 -671.644)">
      <path id="Trazado_183522" data-name="Trazado 183522" d="M4204.775-603.889v-12.258h1.282V-603.9h2.583v-21.325h1.3v.427q0,10.687,0,21.374c0,.682-.162.847-.845.848q-3.683,0-7.366,0c-.682,0-.843-.161-.843-.854q0-5.22,0-10.44v-11.342h1.3v21.322Z" transform="translate(-4197.638 639.534)" fill="#12263f"/>
      <path id="Trazado_183523" data-name="Trazado 183523" d="M4204.859-650.517l-.52-1.168c.692-.322,1.359-.637,2.03-.946,1.919-.883,3.841-1.762,5.757-2.652a.423.423,0,0,0,.227-.281c.022-.541.011-1.083.011-1.685-.755.332-1.465.642-2.173.957q-4.257,1.9-8.516,3.788a1.346,1.346,0,0,1-.625.083.462.462,0,0,0-.545.372c-.489,1.347-1,2.685-1.514,4.023a1.353,1.353,0,0,1-.261.487c-.534.525-1.021.4-1.287-.309-.541-1.435-1.09-2.867-1.626-4.3a.343.343,0,0,0-.379-.266,3.8,3.8,0,0,0-2.656.783,3.3,3.3,0,0,0-1.147,2.616c-.006,2.822,0,5.644,0,8.467v.436h-1.26a2.486,2.486,0,0,1-.03-.278c0-2.9-.012-5.8,0-8.694a4.469,4.469,0,0,1,3.641-4.521,5.513,5.513,0,0,1,1.168-.1c1.9-.01,3.8,0,5.695-.013a2.162,2.162,0,0,0,.83-.187q5.441-2.4,10.873-4.819c.734-.325,1.109-.072,1.107.736,0,.962-.011,1.924,0,2.886a.7.7,0,0,1-.439.717C4210.446-653.1,4207.67-651.818,4204.859-650.517Zm-7.718-1.894,1.042,2.725,1.023-2.7c-.119-.013-.19-.028-.262-.028C4198.365-652.412,4197.786-652.411,4197.142-652.411Z" transform="translate(-4190.337 662.803)" fill="#12263f"/>
      <path id="Trazado_183524" data-name="Trazado 183524" d="M4257.179-583.79h-14.241v-1.285c.123-.007.255-.021.388-.021q7.118,0,14.236,0c.713,0,.9.19.908.886,0,.354,0,.709.005,1.063a.557.557,0,0,0,.036.113l5.215-3.347-5.254-3.372c0,.459,0,.855,0,1.252,0,.626-.191.819-.807.818q-3.905-.005-7.811-.009-3.261,0-6.522,0h-.4v-1.288h14.244c0-.624.008-1.214,0-1.8-.006-.318.075-.624.378-.712a1,1,0,0,1,.73.095c2.286,1.429,4.558,2.88,6.832,4.331.661.422.657.839.007,1.251q-3.387,2.148-6.769,4.3c-.258.164-.479.463-.833.256s-.351-.578-.344-.94C4257.186-582.72,4257.179-583.236,4257.179-583.79Z" transform="translate(-4226.721 616.224)" fill="#12263f"/>
      <path id="Trazado_183525" data-name="Trazado 183525" d="M4234.506-617.59v-1.3h12.836c.551,0,.752.192.771.744.008.214-.011.429-.014.643s0,.4,0,.683l5.26-3.372-5.253-3.375c0,.5.01.923,0,1.347-.015.5-.216.7-.713.74-.076.006-.151,0-.228,0H4234.51v-1.274h12.29c0-.524,0-1.01,0-1.5,0-.4-.061-.827.374-1.079.45-.261.738.1,1.052.3q3.244,2.048,6.474,4.118a1.682,1.682,0,0,1,.446.4c.194.261.08.574-.255.787l-6.89,4.387a.942.942,0,0,0-.192.12.487.487,0,0,1-.606.161.667.667,0,0,1-.393-.641c-.007-.48-.008-.961-.012-1.441,0-.137,0-.274,0-.447Z" transform="translate(-4220.89 639.67)" fill="#12263f"/>
      <path id="Trazado_183526" data-name="Trazado 183526" d="M4276.077-664.792c0-.663.005-1.257,0-1.85a.733.733,0,0,1,.357-.7.65.65,0,0,1,.738.086q3.458,2.207,6.923,4.406a.653.653,0,0,1-.006,1.22q-3.479,2.209-6.956,4.422c-.244.156-.516.275-.727.088a1.08,1.08,0,0,1-.313-.675c-.044-.591-.015-1.186-.015-1.823h-5.818v-1.3c.137-.006.26-.017.383-.017q2.9,0,5.808,0c.736,0,.917.181.918.911v1.179l5.257-3.371-5.257-3.375c0,.509,0,.957,0,1.4a.591.591,0,0,1-.649.666c-2.113.006-4.227,0-6.34,0a.662.662,0,0,1-.122-.026v-1.247Z" transform="translate(-4245.619 668.727)" fill="#12263f"/>
      <path id="Trazado_183527" data-name="Trazado 183527" d="M4202.776-667.565a11.568,11.568,0,0,1,.206-1.679,2.916,2.916,0,0,1,2.524-2.29,6.765,6.765,0,0,1,2.856.088,3.081,3.081,0,0,1,2.2,2.775,17.921,17.921,0,0,1-.02,2.8,2.993,2.993,0,0,1-2.642,2.618,13.6,13.6,0,0,1-2.263.01,3.1,3.1,0,0,1-2.743-2.649C4202.844-666.4,4202.822-666.9,4202.776-667.565Zm1.325.143.018,0c0,.3-.008.607,0,.91a1.887,1.887,0,0,0,1.506,1.958,10.782,10.782,0,0,0,1.852.047,1.862,1.862,0,0,0,1.831-1.963c.012-.708.006-1.417-.034-2.124a1.844,1.844,0,0,0-1.719-1.709c-.518-.024-1.038-.009-1.557,0a1.854,1.854,0,0,0-1.818,1.6C4204.13-668.28,4204.126-667.85,4204.1-667.422Z" transform="translate(-4198.941 671.644)" fill="#12263f"/>
      <path id="Trazado_183528" data-name="Trazado 183528" d="M4245.12-593.707h1.247v1.26h-1.247Z" transform="translate(-4228.232 617.732)" fill="#12263f"/>
      <path id="Trazado_183529" data-name="Trazado 183529" d="M4254.754-592.417h-1.243v-1.267h1.243Z" transform="translate(-4234.037 617.716)" fill="#12263f"/>
      <path id="Trazado_183530" data-name="Trazado 183530" d="M4279.939-560.047v1.244h-1.278v-1.244Z" transform="translate(-4251.434 594.448)" fill="#12263f"/>
      <path id="Trazado_183531" data-name="Trazado 183531" d="M4245.112-627.332h1.24v1.247h-1.24Z" transform="translate(-4228.227 640.992)" fill="#12263f"/>
      <path id="Trazado_183532" data-name="Trazado 183532" d="M4254.73-626.072h-1.239v-1.258h1.239Z" transform="translate(-4234.023 640.99)" fill="#12263f"/>
      <path id="Trazado_183533" data-name="Trazado 183533" d="M4261.859-627.341h1.249v1.252h-1.249Z" transform="translate(-4239.811 640.998)" fill="#12263f"/>
      <path id="Trazado_183534" data-name="Trazado 183534" d="M4214.831-615.513h-1.249v-1.255h1.249Z" transform="translate(-4206.416 633.684)" fill="#12263f"/>
      <path id="Trazado_183535" data-name="Trazado 183535" d="M4213.55-607.1v-1.251h1.257v1.251Z" transform="translate(-4206.394 627.863)" fill="#12263f"/>
      <path id="Trazado_183536" data-name="Trazado 183536" d="M4236.689-592.4v-1.249h1.258v1.249Z" transform="translate(-4222.4 617.692)" fill="#12263f"/>
      <path id="Trazado_183537" data-name="Trazado 183537" d="M4263.115-592.415h-1.241v-1.266h1.241Z" transform="translate(-4239.822 617.714)" fill="#12263f"/>
      <path id="Trazado_183538" data-name="Trazado 183538" d="M4236.708-560.095h1.254v1.257h-1.254Z" transform="translate(-4222.414 594.482)" fill="#12263f"/>
      <path id="Trazado_183539" data-name="Trazado 183539" d="M4245.062-558.8v-1.238h1.258v1.238Z" transform="translate(-4228.192 594.441)" fill="#12263f"/>
      <path id="Trazado_183540" data-name="Trazado 183540" d="M4253.51-560.086h1.241v1.258h-1.241Z" transform="translate(-4234.036 594.475)" fill="#12263f"/>
      <path id="Trazado_183541" data-name="Trazado 183541" d="M4263.131-558.807h-1.245v-1.253h1.245Z" transform="translate(-4239.83 594.457)" fill="#12263f"/>
      <path id="Trazado_183542" data-name="Trazado 183542" d="M4270.25-558.812v-1.234h1.259v1.234Z" transform="translate(-4245.616 594.448)" fill="#12263f"/>
    </g>
  </g>
</svg>
