<svg id="icon3" xmlns="http://www.w3.org/2000/svg" xmlns:xlink="http://www.w3.org/1999/xlink" width="85.136" height="85.136" viewBox="0 0 85.136 85.136">
  <defs>
    <radialGradient id="radial-gradient" cx="0.076" cy="0.019" r="1.465" gradientTransform="translate(0.001)" gradientUnits="objectBoundingBox">
      <stop offset="0" stop-color="#f6f6f7"/>
      <stop offset="0.477" stop-color="#f9f9fa"/>
      <stop offset="0.715" stop-color="#fff"/>
    </radialGradient>
  </defs>
  <g id="Grupo_18423" data-name="Grupo 18423" transform="translate(0 0)">
    <g id="Grupo_18421" data-name="Grupo 18421">
      <g id="Grupo_18420" data-name="Grupo 18420">
        <g id="Grupo_18419" data-name="Grupo 18419">
          <path id="Trazado_40936" data-name="Trazado 40936" d="M279.759,2188.288a42.568,42.568,0,1,1-42.567-42.567A42.567,42.567,0,0,1,279.759,2188.288Z" transform="translate(-194.623 -2145.721)" fill="#fff"/>
        </g>
      </g>
    </g>
    <path id="Trazado_40937" data-name="Trazado 40937" d="M279.526,2188.033a42.567,42.567,0,1,0-42.567,42.569A42.4,42.4,0,0,0,279.526,2188.033Z" transform="translate(-194.389 -2145.467)" fill="url(#radial-gradient)"/>
    <path id="Trazado_40938" data-name="Trazado 40938" d="M267.443,2186.041a32.492,32.492,0,1,0-32.492,32.492A32.37,32.37,0,0,0,267.443,2186.041Z" transform="translate(-192.254 -2143.332)" fill="none" stroke="#1d272b" stroke-miterlimit="10" stroke-width="4"/>
    <g id="Grupo_18422" data-name="Grupo 18422" transform="translate(7.541 23.899)">
      <path id="Trazado_40939" data-name="Trazado 40939" d="M273.836,2164.488a42.573,42.573,0,0,1-73.291,42.392,42.438,42.438,0,0,0,73.291-42.392Z" transform="translate(-200.545 -2164.488)" fill="#eceef0"/>
    </g>
  </g>
  <g id="NFFokD" transform="translate(-4069.122 881.074)">
    <g id="Grupo_142374" data-name="Grupo 142374" transform="translate(4097.286 -857.17)">
      <path id="Trazado_183543" data-name="Trazado 183543" d="M4120.766-840.5c-1.694-.4-1.693-.4-1.693-1.929,0-2.58,0-5.16,0-7.916-1.335,0-2.61-.041-3.88.014-.886.038-1.235-.288-1.205-1.177.044-1.281.011-2.563.011-3.975h-1.268c-4.124,0-8.248.022-12.372-.016-1-.01-1.4.284-1.394,1.35q.053,11.943,0,23.887c0,1.073.4,1.373,1.394,1.35,2.043-.047,4.088-.014,6.132-.014,1.458,0,1.458,0,1.962,1.644h-2.56c-2.438,0-4.878-.039-7.315.018-1.01.024-1.294-.358-1.292-1.322q.038-13.666,0-27.331c0-.942.34-1.264,1.26-1.259,4.877.025,9.754,0,14.631.038a2.23,2.23,0,0,1,1.387.591c1.91,1.841,3.772,3.734,5.628,5.631a1.691,1.691,0,0,1,.548.972C4120.783-846.821,4120.766-843.7,4120.766-840.5Z" transform="translate(-4097.286 857.17)" fill="#12263f"/>
      <path id="Trazado_183544" data-name="Trazado 183544" d="M4166.151-764.446l7.173,4.814c1.238.831,1.559,2.013.81,2.983-.764.989-1.989.993-3.082-.009-2.113-1.937-4.218-3.883-6.4-5.9a8.3,8.3,0,0,1-7.578,1.909,7.864,7.864,0,0,1-4.549-3.045,8.141,8.141,0,0,1,.558-10.3,8.11,8.11,0,0,1,10.3-1.356C4166.965-773.075,4168.015-769.061,4166.151-764.446Zm-7.071,2.063a6.152,6.152,0,0,0,6.1-6.1,6.18,6.18,0,0,0-6.162-6.15,6.139,6.139,0,0,0-6.078,6.109A6.114,6.114,0,0,0,4159.08-762.383Z" transform="translate(-4139.398 793.945)" fill="#12263f"/>
      <path id="Trazado_183545" data-name="Trazado 183545" d="M4124.915-809.174q-3.228,0-6.457,0c-.482,0-1.058.028-.9-.668a1.12,1.12,0,0,1,.877-.57q6.51-.056,13.021,0c.292,0,.58.389.87.6-.284.214-.562.607-.851.613C4129.292-809.15,4127.1-809.173,4124.915-809.174Z" transform="translate(-4113.176 820.497)" fill="#12263f"/>
      <path id="Trazado_183546" data-name="Trazado 183546" d="M4124.774-790.074c-2.117,0-4.233.024-6.349-.026-.312-.007-.827-.312-.882-.561-.153-.68.409-.678.9-.678q6.456,0,12.914,0c.457,0,.971-.1.968.649,0,.776-.554.607-.985.609C4129.151-790.068,4126.963-790.074,4124.774-790.074Z" transform="translate(-4113.164 805.508)" fill="#12263f"/>
      <path id="Trazado_183547" data-name="Trazado 183547" d="M4128.83-829.553c.334.977.071,1.288-.834,1.278-3.182-.037-6.364-.016-9.546-.014-.476,0-1.055.044-.9-.656a1.094,1.094,0,0,1,.849-.582C4121.861-829.568,4125.327-829.553,4128.83-829.553Z" transform="translate(-4113.167 835.499)" fill="#12263f"/>
      <path id="Trazado_183548" data-name="Trazado 183548" d="M4126.339-772.145a2.042,2.042,0,0,1-2.16,1.263c-2-.071-4,0-6-.046-.244-.005-.48-.348-.72-.534.24-.228.476-.648.72-.653,2.357-.05,4.715-.03,7.073-.03Z" transform="translate(-4113.117 790.447)" fill="#12263f"/>
      <path id="Trazado_183549" data-name="Trazado 183549" d="M4123.631-752.96c.115.925-.18,1.278-1.048,1.245-1.426-.055-2.856.015-4.283-.04-.283-.011-.553-.348-.829-.535.278-.223.55-.631.835-.64C4120.081-752.989,4121.858-752.96,4123.631-752.96Z" transform="translate(-4113.127 775.393)" fill="#12263f"/>
      <path id="Trazado_183550" data-name="Trazado 183550" d="M4169.067-749.523c1.4-1.239,2.709-2.4,4.016-3.567.479-.428,1-.851,1.568-.232.621.672.109,1.162-.4,1.611-1.473,1.305-2.956,2.6-4.413,3.925a1.064,1.064,0,0,1-1.8-.127c-.572-.734-1.167-1.45-1.761-2.166-.415-.5-.6-1.05-.023-1.5s1.061-.1,1.455.395C4168.129-750.654,4168.565-750.135,4169.067-749.523Z" transform="translate(-4151.125 775.916)" fill="#12263f"/>
    </g>
  </g>
</svg>
