<svg id="icon1" xmlns="http://www.w3.org/2000/svg" xmlns:xlink="http://www.w3.org/1999/xlink" width="85.136" height="85.136" viewBox="0 0 85.136 85.136">
  <defs>
    <radialGradient id="radial-gradient" cx="0.076" cy="0.019" r="1.465" gradientTransform="translate(0.001)" gradientUnits="objectBoundingBox">
      <stop offset="0" stop-color="#f6f6f7"/>
      <stop offset="0.477" stop-color="#f9f9fa"/>
      <stop offset="0.715" stop-color="#fff"/>
    </radialGradient>
  </defs>
  <g id="Grupo_18423" data-name="Grupo 18423" transform="translate(0 0)">
    <g id="Grupo_18421" data-name="Grupo 18421">
      <g id="Grupo_18420" data-name="Grupo 18420">
        <g id="Grupo_18419" data-name="Grupo 18419">
          <path id="Trazado_40936" data-name="Trazado 40936" d="M279.759,2188.288a42.568,42.568,0,1,1-42.567-42.567A42.567,42.567,0,0,1,279.759,2188.288Z" transform="translate(-194.623 -2145.721)" fill="#fff"/>
        </g>
      </g>
    </g>
    <path id="Trazado_40937" data-name="Trazado 40937" d="M279.526,2188.033a42.567,42.567,0,1,0-42.567,42.569A42.4,42.4,0,0,0,279.526,2188.033Z" transform="translate(-194.389 -2145.467)" fill="url(#radial-gradient)"/>
    <path id="Trazado_40938" data-name="Trazado 40938" d="M267.443,2186.041a32.492,32.492,0,1,0-32.492,32.492A32.37,32.37,0,0,0,267.443,2186.041Z" transform="translate(-192.254 -2143.332)" fill="none" stroke="#1d272b" stroke-miterlimit="10" stroke-width="4"/>
    <g id="Grupo_18422" data-name="Grupo 18422" transform="translate(7.541 23.899)">
      <path id="Trazado_40939" data-name="Trazado 40939" d="M273.836,2164.488a42.573,42.573,0,0,1-73.291,42.392,42.438,42.438,0,0,0,73.291-42.392Z" transform="translate(-200.545 -2164.488)" fill="#eceef0"/>
    </g>
  </g>
  <g id="_3G1vEY.tif" data-name="3G1vEY.tif" transform="translate(-3793.336 901)">
    <g id="Grupo_142372" data-name="Grupo 142372" transform="translate(3815.165 -878.096)">
      <path id="Trazado_183517" data-name="Trazado 183517" d="M3821.224-855.156a20.7,20.7,0,0,1-1.545,1.936c-1.008,1-2.211.874-3.4-.27-1.254-1.207-1.483-2.633-.5-3.639q2.8-2.878,5.685-5.678a1.443,1.443,0,0,0,.414-1.79,10.051,10.051,0,0,1,5.137-12.486,10,10,0,0,1,12.946,3.815,1.816,1.816,0,0,0,1.848,1.04c1.845-.068,3.695-.053,5.541,0a8.334,8.334,0,0,1,7.735,10.891,3.261,3.261,0,0,0,.02,2.348c2.485,6.615-2.3,14.022-9.359,14.182a8.151,8.151,0,0,0-6.079,2.524,53.186,53.186,0,0,1-4.195,3.616,4.385,4.385,0,0,1-1.2.486,4.835,4.835,0,0,1-.383-1.249c-.045-1.654-.018-3.309-.018-5.09C3826.828-844.555,3822.575-847.833,3821.224-855.156Zm25.208-.23c0,1.672.032,3.188-.022,4.7a4.01,4.01,0,0,1-.454,1.2,4.069,4.069,0,0,1-1.165-.546c-1.534-1.468-2.971-3.042-4.553-4.454a3.586,3.586,0,0,0-2.142-.87,9.723,9.723,0,0,1-6.571-2.1,1.817,1.817,0,0,0-.726-.334c-1.673-.432-3.35-.846-5.231-1.317-.74,1.086-2.523,1.692-2.52,3.725a9.287,9.287,0,0,0,6.456,8.9,13.14,13.14,0,0,0,3.958.469c1.369-.03,1.954.33,1.816,1.781-.116,1.211-.024,2.442-.024,4,1.646-1.387,3.1-2.451,4.353-3.711a6.89,6.89,0,0,1,5.405-2.093,9.006,9.006,0,0,0,9.124-7.013,8.1,8.1,0,0,0-.395-5.612A8.933,8.933,0,0,1,3846.432-855.387Zm-6.318-12.65a8.685,8.685,0,0,0-8.618-8.639,8.827,8.827,0,0,0-8.979,8.613,8.931,8.931,0,0,0,8.715,8.776A8.9,8.9,0,0,0,3840.114-868.037Zm1.528,1.365c2.428,0,4.778-.025,7.125.026.363.008.718.37,1.077.569-.359.251-.706.7-1.079.72a29.331,29.331,0,0,1-4.288.012c-2.058-.179-3.478.084-4.421,2.415-1.114,2.755-3.734,4.168-6.617,5.18a13,13,0,0,0,4.231.9,4.5,4.5,0,0,1,3.954,1.7c.911,1.119,2,2.1,3,3.138a10.184,10.184,0,0,0,.314-3.326c-.063-1.093.383-1.535,1.461-1.4a5.023,5.023,0,0,0,.968-.009,7.133,7.133,0,0,0,6.7-6.563,6.672,6.672,0,0,0-5.662-7.357,54.829,54.829,0,0,0-7.137-.058Zm-19.017,4.227c-2,2.059-3.922,4.04-5.851,6.013-.7.716-.229,1.3.26,1.777.427.421.93,1.018,1.628.323,1.986-1.976,3.974-3.95,5.99-5.954Z" transform="translate(-3815.165 878.096)" fill="#12263f"/>
      <path id="Trazado_183518" data-name="Trazado 183518" d="M3868.562-785.577c1.29,0,2.582-.038,3.868.028.318.017.619.376.928.578-.288.236-.572.672-.864.677q-4.005.08-8.013,0c-.285-.006-.561-.444-.841-.682.305-.2.6-.56.917-.575C3865.889-785.615,3867.227-785.577,3868.562-785.577Z" transform="translate(-3850.125 811.378)" fill="#12263f"/>
      <path id="Trazado_183519" data-name="Trazado 183519" d="M3855.777-796.891a11.268,11.268,0,0,1-1.777-.029c-.283-.046-.518-.388-.775-.6.237-.233.465-.654.714-.667a35.974,35.974,0,0,1,3.833,0c.239.013.455.441.682.677-.253.206-.486.55-.762.59A13.606,13.606,0,0,1,3855.777-796.891Z" transform="translate(-3842.614 820.5)" fill="#12263f"/>
      <path id="Trazado_183520" data-name="Trazado 183520" d="M3884.447-850.4a16.621,16.621,0,0,1-.476-1.909,2.856,2.856,0,0,1,.277-1.061c.317.193.772.308.93.59,1.523,2.718-.027,7.335-2.879,8.575-.3.132-.738-.038-1.112-.068.155-.377.2-.926.482-1.1A5.571,5.571,0,0,0,3884.447-850.4Z" transform="translate(-3862.781 860.263)" fill="#12263f"/>
      <path id="Trazado_183521" data-name="Trazado 183521" d="M3914.8-822.249c1.016,0,2.036-.049,3.045.03.317.025.607.4.909.611-.289.234-.573.663-.869.671q-3.114.089-6.232,0c-.306-.008-.6-.415-.9-.637.333-.226.653-.616,1-.647C3912.763-822.307,3913.784-822.25,3914.8-822.249Z" transform="translate(-3884.104 837.832)" fill="#12263f"/>
    </g>
  </g>
</svg>
