<svg xmlns="http://www.w3.org/2000/svg" width="86" height="86" viewBox="0 0 86 86">
  <g id="icon5" transform="translate(-1232 -5830)">
    <circle id="Elipse_4871" data-name="Elipse 4871" cx="43" cy="43" r="43" transform="translate(1232 5830)" fill="#4dd0e1"/>
    <g id="bbmYRn" transform="translate(-2300.087 6764.486)">
      <g id="Grupo_142371" data-name="Grupo 142371" transform="translate(3552.107 -914.486)">
        <path id="Trazado_183509" data-name="Trazado 183509" d="M3554.177-868.075h-2.07v-1.553q0-21.168,0-42.336c0-2.14.354-2.516,2.446-2.517q21.168-.009,42.336,0c2.045,0,2.463.309,2.466,1.981q.024,18.076,0,36.152c0,.258-.055.516-.1.88h-1.842v-1.88c0-8.985-.025-17.97.027-26.955.008-1.319-.388-1.715-1.7-1.712q-19.978.06-39.957,0c-1.379,0-1.641.5-1.637,1.75.042,11.416.024,22.833.024,34.249Zm43.1-44.25h-42.96v4.389h39.4C3597.811-907.936,3597.811-907.936,3597.274-912.325Z" transform="translate(-3552.107 914.486)" fill="#fff"/>
        <path id="Trazado_183510" data-name="Trazado 183510" d="M3619.612-850.078l1.27,1.147c1.375-1.687,2.4-.8,3.494.363q2.664,2.825,5.493,5.493c1.116,1.052,1.1,1.914-.043,2.882a17.837,17.837,0,0,0-1.683,1.679c-1.016,1.13-1.931.992-2.938-.053q-2.806-2.91-5.715-5.719c-1.047-1.006-1.466-1.948.093-3.258l-1.555-1.15a13.5,13.5,0,0,1-19.114-2.785,13.283,13.283,0,0,1,1.638-17.339,13.3,13.3,0,0,1,17.525-.712C3623.831-864.9,3624.406-858.121,3619.612-850.078Zm-9.839-20.375a11.239,11.239,0,0,0-11.313,11.214,11.328,11.328,0,0,0,11.265,11.3A11.434,11.434,0,0,0,3621-859.111,11.338,11.338,0,0,0,3609.773-870.453Zm17.087,30.326,1.2-1.259-5.584-5.837-1.491,1.211Z" transform="translate(-3582.375 885.803)" fill="#fff"/>
        <path id="Trazado_183511" data-name="Trazado 183511" d="M3572.414-878.188v9.221h4.316v2.032h-6.377v-13.3H3605.3c0,1.949.076,3.943-.073,5.919-.025.34-1.006.607-1.915,1.115v-4.982Z" transform="translate(-3564.567 891.101)" fill="#fff"/>
        <path id="Trazado_183512" data-name="Trazado 183512" d="M3570.5-828.42h6.377v2h-4.35v5.8h7.476c.034.734.06,1.289.092,1.982h-9.6Z" transform="translate(-3564.668 855.715)" fill="#fff"/>
        <path id="Trazado_183513" data-name="Trazado 183513" d="M3570.291-902.721v-1.78h2.619v1.78Z" transform="translate(-3564.524 907.668)" fill="#fff"/>
        <path id="Trazado_183514" data-name="Trazado 183514" d="M3587.993-904.4v1.733l-2.552.149V-904.4Z" transform="translate(-3574.87 907.601)" fill="#fff"/>
        <path id="Trazado_183515" data-name="Trazado 183515" d="M3600.427-902.695v-1.742H3603c.031.516.063,1.064.1,1.742Z" transform="translate(-3585.103 907.624)" fill="#fff"/>
        <path id="Trazado_183516" data-name="Trazado 183516" d="M3625.866-835.818l-3.7-3.627,1.394-1.346,2.417,2.307,4.927-5.1,1.483,1.663Z" transform="translate(-3599.948 866.067)" fill="#fff"/>
      </g>
    </g>
  </g>
</svg>
