<svg id="icon1" xmlns="http://www.w3.org/2000/svg" xmlns:xlink="http://www.w3.org/1999/xlink" width="103.929" height="103.929" viewBox="0 0 103.929 103.929">
  <defs>
    <radialGradient id="radial-gradient" cx="0.076" cy="0.019" r="1.465" gradientTransform="translate(0.001)" gradientUnits="objectBoundingBox">
      <stop offset="0" stop-color="#f6f6f7"/>
      <stop offset="0.477" stop-color="#f9f9fa"/>
      <stop offset="0.715" stop-color="#fff"/>
    </radialGradient>
  </defs>
  <g id="Grupo_18423" data-name="Grupo 18423" transform="translate(0 0)">
    <g id="Grupo_18421" data-name="Grupo 18421">
      <g id="Grupo_18420" data-name="Grupo 18420">
        <g id="Grupo_18419" data-name="Grupo 18419">
          <path id="Trazado_40936" data-name="Trazado 40936" d="M298.552,2197.684a51.964,51.964,0,1,1-51.964-51.963A51.964,51.964,0,0,1,298.552,2197.684Z" transform="translate(-194.623 -2145.721)" fill="#fff"/>
        </g>
      </g>
    </g>
    <path id="Trazado_40937" data-name="Trazado 40937" d="M298.078,2197.168a51.963,51.963,0,1,0-51.964,51.966A51.758,51.758,0,0,0,298.078,2197.168Z" transform="translate(-194.149 -2145.205)" fill="url(#radial-gradient)"/>
    <path id="Trazado_40938" data-name="Trazado 40938" d="M281.6,2193.014a39.664,39.664,0,1,0-39.664,39.664A39.517,39.517,0,0,0,281.6,2193.014Z" transform="translate(-189.818 -2140.878)" fill="none" stroke="#ffca45" stroke-miterlimit="10" stroke-width="4"/>
    <g id="Grupo_18422" data-name="Grupo 18422" transform="translate(9.206 29.174)">
      <path id="Trazado_40939" data-name="Trazado 40939" d="M290.013,2164.488a51.97,51.97,0,0,1-89.468,51.749,51.805,51.805,0,0,0,89.468-51.749Z" transform="translate(-200.545 -2164.488)" fill="#eceef0"/>
    </g>
  </g>
  <g id="Grupo_28520" data-name="Grupo 28520" transform="translate(29.729 26.415)">
    <path id="Trazado_67883" data-name="Trazado 67883" d="M228.764,214.078a5.26,5.26,0,1,1,5.26-5.26A5.266,5.266,0,0,1,228.764,214.078Zm0-9.117a3.856,3.856,0,1,0,3.856,3.856A3.86,3.86,0,0,0,228.764,204.961Z" transform="translate(-213.348 -197.279)" fill="#00223d"/>
    <path id="Trazado_67884" data-name="Trazado 67884" d="M228.764,248.336a5.26,5.26,0,1,1,5.26-5.26A5.266,5.266,0,0,1,228.764,248.336Zm0-9.117a3.856,3.856,0,1,0,3.856,3.856A3.86,3.86,0,0,0,228.764,239.219Z" transform="translate(-213.348 -216.908)" fill="#00223d"/>
    <path id="Trazado_67885" data-name="Trazado 67885" d="M228.764,282.594a5.26,5.26,0,1,1,5.26-5.26A5.266,5.266,0,0,1,228.764,282.594Zm0-9.116a3.856,3.856,0,1,0,3.856,3.856A3.86,3.86,0,0,0,228.764,273.478Z" transform="translate(-213.348 -236.538)" fill="#00223d"/>
    <path id="Trazado_67886" data-name="Trazado 67886" d="M206.244,199.59h-4.608a1.916,1.916,0,1,1,0-3.832h4.608a1.916,1.916,0,1,1,0,3.832Zm-4.608-2.427a.511.511,0,1,0,0,1.023h4.608a.511.511,0,1,0,0-1.023Z" transform="translate(-199.72 -192.81)" fill="#00223d"/>
    <path id="Trazado_67887" data-name="Trazado 67887" d="M206.244,219.545h-4.608a1.916,1.916,0,0,1,0-3.832h4.608a1.916,1.916,0,0,1,0,3.832Zm-4.608-2.428a.512.512,0,1,0,0,1.023h4.608a.512.512,0,0,0,0-1.023Z" transform="translate(-199.72 -204.244)" fill="#00223d"/>
    <path id="Trazado_67888" data-name="Trazado 67888" d="M206.244,239.5h-4.608a1.916,1.916,0,0,1,0-3.832h4.608a1.916,1.916,0,0,1,0,3.832Zm-4.608-2.428a.512.512,0,0,0,0,1.024h4.608a.512.512,0,0,0,0-1.024Z" transform="translate(-199.72 -215.678)" fill="#00223d"/>
    <path id="Trazado_67889" data-name="Trazado 67889" d="M206.244,259.456h-4.608a1.916,1.916,0,0,1,0-3.832h4.608a1.916,1.916,0,0,1,0,3.832Zm-4.608-2.428a.512.512,0,0,0,0,1.024h4.608a.512.512,0,0,0,0-1.024Z" transform="translate(-199.72 -227.112)" fill="#00223d"/>
    <path id="Trazado_67890" data-name="Trazado 67890" d="M206.244,279.412h-4.608a1.916,1.916,0,0,1,0-3.832h4.608a1.916,1.916,0,0,1,0,3.832Zm-4.608-2.428a.512.512,0,1,0,0,1.023h4.608a.512.512,0,1,0,0-1.023Z" transform="translate(-199.72 -238.546)" fill="#00223d"/>
    <path id="Trazado_67891" data-name="Trazado 67891" d="M206.244,299.368h-4.608a1.916,1.916,0,1,1,0-3.832h4.608a1.916,1.916,0,1,1,0,3.832Zm-4.608-2.428a.512.512,0,1,0,0,1.023h4.608a.512.512,0,0,0,0-1.023Z" transform="translate(-199.72 -249.981)" fill="#00223d"/>
    <path id="Trazado_67892" data-name="Trazado 67892" d="M246.965,241.19H210.524a1.64,1.64,0,0,1-1.638-1.639V237.54a.7.7,0,0,1,.7-.7H211.5a.511.511,0,0,0,.511-.54.564.564,0,0,0-.579-.483h-1.839a.7.7,0,0,1-.7-.7v-6.094a.7.7,0,0,1,.7-.7H211.5a.511.511,0,0,0,.511-.54.564.564,0,0,0-.579-.483h-1.839a.7.7,0,0,1-.7-.7V220.5a.7.7,0,0,1,.7-.7H211.5a.511.511,0,0,0,.511-.54.564.564,0,0,0-.579-.483h-1.839a.7.7,0,0,1-.7-.7v-6.094a.7.7,0,0,1,.7-.7H211.5a.511.511,0,0,0,.511-.54.564.564,0,0,0-.579-.484h-1.839a.7.7,0,0,1-.7-.7v-6.094a.7.7,0,0,1,.7-.7H211.5a.511.511,0,0,0,.511-.54.564.564,0,0,0-.579-.483h-1.839a.7.7,0,0,1-.7-.7v-6.094a.7.7,0,0,1,.7-.7H211.5a.511.511,0,0,0,.511-.54.564.564,0,0,0-.579-.483h-1.839a.7.7,0,0,1-.7-.7v-2.012a1.64,1.64,0,0,1,1.638-1.638h36.441a1.64,1.64,0,0,1,1.638,1.638v49.059A1.64,1.64,0,0,1,246.965,241.19Zm-36.675-2.948v1.31a.234.234,0,0,0,.234.234h36.441a.234.234,0,0,0,.234-.234V190.493a.234.234,0,0,0-.234-.234H210.524a.234.234,0,0,0-.234.234v1.31h1.137a1.952,1.952,0,0,1,1.982,1.814,1.9,1.9,0,0,1-.524,1.42,1.924,1.924,0,0,1-1.39.6H210.29v4.69h1.137a1.952,1.952,0,0,1,1.982,1.814,1.9,1.9,0,0,1-.524,1.421,1.924,1.924,0,0,1-1.39.6H210.29v4.689h1.137a1.952,1.952,0,0,1,1.982,1.814,1.9,1.9,0,0,1-.524,1.42,1.922,1.922,0,0,1-1.39.6H210.29v4.69h1.137a1.952,1.952,0,0,1,1.982,1.814,1.9,1.9,0,0,1-.524,1.42,1.922,1.922,0,0,1-1.39.6H210.29v4.69h1.137a1.952,1.952,0,0,1,1.982,1.814,1.9,1.9,0,0,1-.524,1.42,1.922,1.922,0,0,1-1.39.6H210.29v4.69h1.137a1.951,1.951,0,0,1,1.982,1.814,1.9,1.9,0,0,1-.524,1.421,1.923,1.923,0,0,1-1.39.6Z" transform="translate(-204.972 -188.855)" fill="#00223d"/>
    <path id="Trazado_67893" data-name="Trazado 67893" d="M234.88,231.822a.7.7,0,0,1-.7-.7v-5.512a.7.7,0,1,1,1.4,0v5.512A.7.7,0,0,1,234.88,231.822Z" transform="translate(-219.464 -209.511)" fill="#00223d"/>
    <path id="Trazado_67894" data-name="Trazado 67894" d="M234.88,266.08a.7.7,0,0,1-.7-.7v-5.513a.7.7,0,1,1,1.4,0v5.513A.7.7,0,0,1,234.88,266.08Z" transform="translate(-219.464 -229.14)" fill="#00223d"/>
    <path id="Trazado_67895" data-name="Trazado 67895" d="M255.319,208.335h-2.107a.7.7,0,0,1,0-1.4h2.107a.7.7,0,0,1,0,1.4Z" transform="translate(-229.967 -199.212)" fill="#00223d"/>
    <path id="Trazado_67896" data-name="Trazado 67896" d="M271.775,208.335H267.7a.7.7,0,0,1,0-1.4h4.079a.7.7,0,0,1,0,1.4Z" transform="translate(-238.266 -199.212)" fill="#00223d"/>
    <path id="Trazado_67897" data-name="Trazado 67897" d="M288.9,208.335H286.8a.7.7,0,0,1,0-1.4H288.9a.7.7,0,0,1,0,1.4Z" transform="translate(-249.211 -199.212)" fill="#00223d"/>
    <path id="Trazado_67898" data-name="Trazado 67898" d="M269.661,222.935H253.212a.7.7,0,1,1,0-1.4h16.449a.7.7,0,0,1,0,1.4Z" transform="translate(-229.967 -207.578)" fill="#00223d"/>
    <path id="Trazado_67899" data-name="Trazado 67899" d="M269.661,242.593H253.212a.7.7,0,0,1,0-1.4h16.449a.7.7,0,0,1,0,1.4Z" transform="translate(-229.967 -218.841)" fill="#00223d"/>
    <path id="Trazado_67900" data-name="Trazado 67900" d="M269.661,257.193H253.212a.7.7,0,0,1,0-1.4h16.449a.7.7,0,0,1,0,1.4Z" transform="translate(-229.967 -227.207)" fill="#00223d"/>
    <path id="Trazado_67901" data-name="Trazado 67901" d="M269.661,276.853H253.212a.7.7,0,0,1,0-1.4h16.449a.7.7,0,0,1,0,1.4Z" transform="translate(-229.967 -238.471)" fill="#00223d"/>
    <path id="Trazado_67902" data-name="Trazado 67902" d="M269.661,291.451H253.212a.7.7,0,0,1,0-1.4h16.449a.7.7,0,0,1,0,1.4Z" transform="translate(-229.967 -246.836)" fill="#00223d"/>
  </g>
</svg>
