<svg id="icon5" xmlns="http://www.w3.org/2000/svg" xmlns:xlink="http://www.w3.org/1999/xlink" width="85.136" height="85.136" viewBox="0 0 85.136 85.136">
  <defs>
    <radialGradient id="radial-gradient" cx="0.076" cy="0.019" r="1.465" gradientTransform="translate(0.001)" gradientUnits="objectBoundingBox">
      <stop offset="0" stop-color="#f6f6f7"/>
      <stop offset="0.477" stop-color="#f9f9fa"/>
      <stop offset="0.715" stop-color="#fff"/>
    </radialGradient>
  </defs>
  <g id="Grupo_18423" data-name="Grupo 18423" transform="translate(0 0)">
    <g id="Grupo_18421" data-name="Grupo 18421">
      <g id="Grupo_18420" data-name="Grupo 18420">
        <g id="Grupo_18419" data-name="Grupo 18419">
          <path id="Trazado_40936" data-name="Trazado 40936" d="M279.759,2188.288a42.568,42.568,0,1,1-42.567-42.567A42.567,42.567,0,0,1,279.759,2188.288Z" transform="translate(-194.623 -2145.721)" fill="#fff"/>
        </g>
      </g>
    </g>
    <path id="Trazado_40937" data-name="Trazado 40937" d="M279.526,2188.033a42.567,42.567,0,1,0-42.567,42.569A42.4,42.4,0,0,0,279.526,2188.033Z" transform="translate(-194.389 -2145.467)" fill="url(#radial-gradient)"/>
    <path id="Trazado_40938" data-name="Trazado 40938" d="M267.443,2186.041a32.492,32.492,0,1,0-32.492,32.492A32.37,32.37,0,0,0,267.443,2186.041Z" transform="translate(-192.254 -2143.332)" fill="none" stroke="#1d272b" stroke-miterlimit="10" stroke-width="4"/>
    <g id="Grupo_18422" data-name="Grupo 18422" transform="translate(7.541 23.899)">
      <path id="Trazado_40939" data-name="Trazado 40939" d="M273.836,2164.488a42.573,42.573,0,0,1-73.291,42.392,42.438,42.438,0,0,0,73.291-42.392Z" transform="translate(-200.545 -2164.488)" fill="#eceef0"/>
    </g>
  </g>
  <g id="CttiFW" transform="translate(-3841.057 1179.378)">
    <g id="Grupo_142376" data-name="Grupo 142376" transform="translate(3862.613 -1158.729)">
      <path id="Trazado_183555" data-name="Trazado 183555" d="M3878.146-1121.707c-.328-.135-.625-.239-.905-.377-.574-.281-1.141-.575-1.7-.877a.215.215,0,0,0-.306.047c-.483.494-.986.968-1.458,1.472a2.746,2.746,0,0,1-3.179.56,5.811,5.811,0,0,1-1.57-1.292c-.311-.3-.6-.628-.92-.923a2.884,2.884,0,0,1-.489-3.764,7.9,7.9,0,0,1,.84-.892c.329-.334.67-.657.994-1a.273.273,0,0,0,.028-.254,16.151,16.151,0,0,1-1.7-4.07.269.269,0,0,0-.314-.239c-.657.012-1.316-.02-1.972.01a2.771,2.771,0,0,1-2.818-2.385,6.265,6.265,0,0,1-.055-1.1,19.115,19.115,0,0,1,.06-2.326,2.734,2.734,0,0,1,2.807-2.418c.665.03,1.332,0,2,.009a.241.241,0,0,0,.282-.211,15.951,15.951,0,0,1,1.715-4.09c.083-.137.031-.21-.063-.3-.486-.479-.955-.977-1.453-1.443a2.687,2.687,0,0,1-.4-3.46,10.709,10.709,0,0,1,1.174-1.342c.29-.313.6-.6.9-.908a2.889,2.889,0,0,1,3.751-.447,7.886,7.886,0,0,1,.858.8q.5.494.988,1a.209.209,0,0,0,.306.044,15.364,15.364,0,0,1,3.993-1.678.335.335,0,0,0,.294-.4c-.016-.632.018-1.265-.01-1.9a2.773,2.773,0,0,1,2.407-2.826,6.326,6.326,0,0,1,1.072-.052,19.569,19.569,0,0,1,2.326.06,2.737,2.737,0,0,1,2.421,2.8c-.03.648.006,1.3-.011,1.947-.006.225.075.307.281.362a16.427,16.427,0,0,1,3.69,1.486c.518.283.507.271.932-.166a13.6,13.6,0,0,1,1.5-1.458,2.588,2.588,0,0,1,3.094-.093,9.478,9.478,0,0,1,1.364,1.187c.306.283.585.594.884.884a2.88,2.88,0,0,1,.462,3.747,8.25,8.25,0,0,1-.84.893q-.484.493-.981.973a.194.194,0,0,0-.04.284,15.681,15.681,0,0,1,1.689,4.018c.056.2.136.289.363.283.648-.017,1.3.019,1.946-.011a2.746,2.746,0,0,1,2.8,2.424,15.044,15.044,0,0,1,.057,1.993,5.914,5.914,0,0,1-.134,1.778,2.766,2.766,0,0,1-2.714,2.03c-.648-.028-1.3.008-1.947-.011-.238-.007-.322.082-.378.293a16.365,16.365,0,0,1-1.479,3.666l-.051.089c-.236.423-.234.42.109.758.486.479.993.939,1.445,1.449a2.7,2.7,0,0,1,.361,3,6.052,6.052,0,0,1-1.352,1.621c-.279.288-.577.557-.85.85a2.879,2.879,0,0,1-3.807.461,10.943,10.943,0,0,1-1.122-1.082c-.225-.221-.456-.438-.666-.673-.128-.144-.221-.131-.386-.047-.759.387-1.529.751-2.3,1.122a1.064,1.064,0,0,1-.178.04c.055-.231.09-.436.154-.631.1-.3.211-.595.332-.886a.435.435,0,0,1,.181-.2c.572-.321,1.15-.632,1.726-.948a.682.682,0,0,1,.925.12c.654.649,1.3,1.31,1.958,1.952a1.358,1.358,0,0,0,1.859.118,17.256,17.256,0,0,0,1.285-1.207,9.978,9.978,0,0,0,.795-.832,1.444,1.444,0,0,0-.12-2.1c-.6-.6-1.211-1.2-1.815-1.806a.689.689,0,0,1-.137-1,16.294,16.294,0,0,0,1.761-3.877c.095-.308.168-.625.234-.941a.7.7,0,0,1,.764-.635c.879,0,1.76-.035,2.637.008a1.477,1.477,0,0,0,1.558-1.456c.044-.868.031-1.741.005-2.611a1.552,1.552,0,0,0-.574-1.185,1.233,1.233,0,0,0-.82-.3c-.88.008-1.759,0-2.639,0-.646,0-.789-.122-.944-.748a15.468,15.468,0,0,0-1.887-4.538c-.366-.583-.342-.79.14-1.271.6-.6,1.21-1.2,1.81-1.812a1.352,1.352,0,0,0,.135-1.837,16.054,16.054,0,0,0-1.218-1.306c-.292-.3-.594-.589-.913-.856a1.427,1.427,0,0,0-1.947.1c-.576.618-1.19,1.2-1.787,1.8-.469.47-.686.5-1.252.145a15.137,15.137,0,0,0-4.588-1.9c-.564-.133-.713-.316-.713-.9,0-.828-.038-1.659.01-2.484a1.5,1.5,0,0,0-1.526-1.6c-.845-.027-1.692-.035-2.536,0a1.489,1.489,0,0,0-1.4.915,1.3,1.3,0,0,0-.093.5c-.009.905,0,1.81,0,2.716,0,.525-.174.729-.685.847a15.05,15.05,0,0,0-4.635,1.913c-.541.339-.759.31-1.211-.138-.231-.228-.458-.459-.687-.689-.38-.38-.757-.763-1.142-1.138a1.37,1.37,0,0,0-1.879-.12,17.073,17.073,0,0,0-1.283,1.209,10.047,10.047,0,0,0-.868.937,1.381,1.381,0,0,0,.124,1.9c.609.622,1.23,1.231,1.845,1.848a.745.745,0,0,1,.13,1.148,15.4,15.4,0,0,0-1.862,4.357c-.03.115-.057.232-.079.349a.718.718,0,0,1-.76.646c-.871,0-1.744.034-2.613-.008a1.425,1.425,0,0,0-1.565,1.353,20.257,20.257,0,0,0,.023,2.962,1.381,1.381,0,0,0,1.466,1.247c.861-.035,1.724-.008,2.585-.008.563,0,.752.167.877.715a15.107,15.107,0,0,0,1.88,4.566c.375.611.353.791-.148,1.289-.605.6-1.213,1.2-1.81,1.811a1.373,1.373,0,0,0-.1,1.863c.36.44.771.841,1.172,1.246a9.859,9.859,0,0,0,.955.887,1.381,1.381,0,0,0,1.938-.13c.634-.621,1.256-1.254,1.884-1.882a.7.7,0,0,1,.986-.138c.605.331,1.214.657,1.82.988.058.032.132.067.157.12A5.076,5.076,0,0,1,3878.146-1121.707Z" transform="translate(-3862.613 1158.729)" fill="#12263f"/>
      <path id="Trazado_183556" data-name="Trazado 183556" d="M4050.363-954.037c-1,0-2-.022-2.995.008a1.426,1.426,0,0,1-1.465-1.246,9.053,9.053,0,0,0-2.327-4.837c-.657-.737-1.369-1.427-2.059-2.134a12.157,12.157,0,0,1-3.294-6.327,12.23,12.23,0,0,1,1.429-8.568,11.973,11.973,0,0,1,3.817-4.107,12.061,12.061,0,0,1,8.4-2,11.849,11.849,0,0,1,4.942,1.778,12.311,12.311,0,0,1,3.118,2.779,12.306,12.306,0,0,1,2.641,6.416,12.387,12.387,0,0,1-1.443,7.316,12.038,12.038,0,0,1-2.3,2.99,15.778,15.778,0,0,0-2.753,3.351,8.811,8.811,0,0,0-1.258,3.4,1.333,1.333,0,0,1-1.359,1.177C4052.427-954.031,4051.4-954.037,4050.363-954.037Zm3.122-1.33c.035-.209.057-.378.09-.545a12,12,0,0,1,2.843-5.448c.629-.738,1.353-1.4,2.011-2.11a10.672,10.672,0,0,0,2.271-3.848,10.893,10.893,0,0,0-.169-7.684,10.613,10.613,0,0,0-3.151-4.4,10.871,10.871,0,0,0-3.488-1.993,10.638,10.638,0,0,0-9.5,1.161,10.754,10.754,0,0,0-4.452,5.694,10.924,10.924,0,0,0-.483,5.272,10.5,10.5,0,0,0,1.308,3.8,12.394,12.394,0,0,0,1.378,1.93c.854.971,1.821,1.845,2.666,2.823a9.978,9.978,0,0,1,2.39,5.095c.03.2.1.264.308.263,1.9-.009,3.791-.005,5.686-.005Z" transform="translate(-4029.001 992.336)" fill="#12263f"/>
      <path id="Trazado_183557" data-name="Trazado 183557" d="M4198.508-388.114l1.3.192a6.581,6.581,0,0,0,.083.718,1.057,1.057,0,0,0,1.065.895c1.091.017,2.184.02,3.275,0a1.135,1.135,0,0,0,1.136-1.151c.012-.152,0-.305,0-.487.237-.013.456-.013.671-.039s.431-.076.661-.118a2.812,2.812,0,0,1-1.044,2.685,2.389,2.389,0,0,1-1.417.448c-1.1.008-2.2.032-3.3,0a2.427,2.427,0,0,1-2.429-2.385C4198.487-387.613,4198.508-387.87,4198.508-388.114Z" transform="translate(-4181.29 427.598)" fill="#12263f"/>
      <path id="Trazado_183558" data-name="Trazado 183558" d="M4168.894-884.925a.669.669,0,0,1-.7.661,5.727,5.727,0,0,0-2.828.78,6.26,6.26,0,0,0-2.464,2.7,1.388,1.388,0,0,1-.173.282.638.638,0,0,1-.831.142.647.647,0,0,1-.282-.82,7.609,7.609,0,0,1,2.093-2.771,6.933,6.933,0,0,1,3.5-1.57,7.509,7.509,0,0,1,1.045-.071A.651.651,0,0,1,4168.894-884.925Z" transform="translate(-4146.246 899.586)" fill="#12263f"/>
      <path id="Trazado_183559" data-name="Trazado 183559" d="M4241.66-487.9c-.427,0-.854,0-1.281,0a.663.663,0,0,1-.713-.669.667.667,0,0,1,.722-.661q1.281-.005,2.562,0a.67.67,0,0,1,.712.669.668.668,0,0,1-.721.66h-1.281Z" transform="translate(-4220.347 523.532)" fill="#12263f"/>
      <path id="Trazado_183560" data-name="Trazado 183560" d="M4150-755.047a.672.672,0,0,1-.649.683.672.672,0,0,1-.682-.649.672.672,0,0,1,.648-.682A.675.675,0,0,1,4150-755.047Z" transform="translate(-4134.012 776.346)" fill="#12263f"/>
    </g>
  </g>
</svg>
