<svg xmlns="http://www.w3.org/2000/svg" xmlns:xlink="http://www.w3.org/1999/xlink" width="86" height="86" viewBox="0 0 86 86">
  <defs>
    <clipPath id="clip-path">
      <rect id="Rectángulo_37044" data-name="Rectángulo 37044" width="54.691" height="60.244" fill="#fff"/>
    </clipPath>
  </defs>
  <g id="icon2" transform="translate(-500 -5830)">
    <circle id="Elipse_4868" data-name="Elipse 4868" cx="43" cy="43" r="43" transform="translate(500 5830)" fill="#039be5"/>
    <g id="Grupo_142365" data-name="Grupo 142365" transform="translate(515.644 5842.716)">
      <g id="Grupo_141597" data-name="Grupo 141597" transform="translate(0 0)" clip-path="url(#clip-path)">
        <path id="Trazado_183339" data-name="Trazado 183339" d="M128.787,55.735a4.994,4.994,0,1,1,4.994-4.994,5,5,0,0,1-4.994,4.994m0-8.083a3.089,3.089,0,1,0,3.089,3.089,3.092,3.092,0,0,0-3.089-3.089" transform="translate(-101.33 -37.445)" fill="#fff"/>
        <path id="Trazado_183340" data-name="Trazado 183340" d="M120.713,215.5a3.076,3.076,0,0,1-.5-.04,3.11,3.11,0,0,1-2.523-3.094v-21.74a.953.953,0,0,1,1.905,0v21.74a1.207,1.207,0,0,0,.924,1.213,1.12,1.12,0,0,0,1.314-1.1V196.73a1.942,1.942,0,1,1,3.883,0v15.632a1.207,1.207,0,0,0,.924,1.213,1.12,1.12,0,0,0,1.313-1.1v-1.739a.953.953,0,0,1,1.905,0v1.739a3.025,3.025,0,0,1-3.525,2.983,3.109,3.109,0,0,1-2.523-3.094V196.73c0-.04-.072-.04-.072,0v15.743a3.023,3.023,0,0,1-3.029,3.023" transform="translate(-96.338 -155.253)" fill="#fff"/>
        <path id="Trazado_183341" data-name="Trazado 183341" d="M175.2,221.8a.953.953,0,0,1-.953-.953V202.98a.953.953,0,1,1,1.905,0v17.87a.953.953,0,0,1-.953.953" transform="translate(-142.632 -165.368)" fill="#fff"/>
        <path id="Trazado_183342" data-name="Trazado 183342" d="M104.467,189.427a2.576,2.576,0,0,1-2.573-2.573v-5.895a.953.953,0,1,1,1.905,0v5.895a.668.668,0,0,0,.668.668.659.659,0,0,0,.309-.075.953.953,0,0,1,.886,1.687,2.581,2.581,0,0,1-1.195.294" transform="translate(-83.405 -147.343)" fill="#fff"/>
        <path id="Trazado_183343" data-name="Trazado 183343" d="M119.087,107.267a.949.949,0,0,1-.668-.274,9.878,9.878,0,0,0-6.971-2.859h-.282a9.878,9.878,0,0,0-6.971,2.859.953.953,0,1,1-1.337-1.357,11.772,11.772,0,0,1,8.308-3.407h.282a11.771,11.771,0,0,1,8.307,3.407.953.953,0,0,1-.668,1.631" transform="translate(-83.961 -83.678)" fill="#fff"/>
        <path id="Trazado_183344" data-name="Trazado 183344" d="M177.637,218.86a2.581,2.581,0,0,1-1.195-.294.953.953,0,0,1,.886-1.687.658.658,0,0,0,.309.075.668.668,0,0,0,.616-.408.953.953,0,0,1,1.755.742,2.569,2.569,0,0,1-2.37,1.571" transform="translate(-144.008 -176.777)" fill="#fff"/>
        <path id="Trazado_183345" data-name="Trazado 183345" d="M245.925,65.553a.953.953,0,1,1,0-1.905,2.474,2.474,0,1,0-.464-4.905.953.953,0,0,1-.355-1.872,4.38,4.38,0,1,1,.819,8.683" transform="translate(-199.995 -46.488)" fill="#fff"/>
        <path id="Trazado_183346" data-name="Trazado 183346" d="M222.608,275.669c-.1,0-.192,0-.288-.014a3.1,3.1,0,0,1-2.73-3.1v-8.423a.953.953,0,0,1,1.905,0v8.423a1.177,1.177,0,0,0,1.005,1.2,1.119,1.119,0,0,0,1.232-1.113v-7.977a.953.953,0,0,1,1.905,0v7.977a3.023,3.023,0,0,1-3.03,3.024" transform="translate(-179.744 -215.425)" fill="#fff"/>
        <path id="Trazado_183347" data-name="Trazado 183347" d="M256.335,246.429c-.1,0-.192,0-.288-.014a3.1,3.1,0,0,1-2.73-3.1V230.66a.953.953,0,0,1,1.905,0v12.656a1.177,1.177,0,0,0,1.005,1.2,1.119,1.119,0,0,0,1.232-1.113V228.412a.953.953,0,1,1,1.905,0v14.993a3.023,3.023,0,0,1-3.03,3.024" transform="translate(-207.351 -186.185)" fill="#fff"/>
        <path id="Trazado_183348" data-name="Trazado 183348" d="M277.1,164.725a.953.953,0,0,1-.953-.953V149.443a.953.953,0,1,1,1.905,0v14.329a.953.953,0,0,1-.953.953" transform="translate(-226.038 -121.545)" fill="#fff"/>
        <path id="Trazado_183349" data-name="Trazado 183349" d="M283.262,224.734a.953.953,0,0,1-.953-.953v-1.407a.953.953,0,0,1,1.905,0v1.407a.953.953,0,0,1-.953.953" transform="translate(-231.082 -181.243)" fill="#fff"/>
        <path id="Trazado_183350" data-name="Trazado 183350" d="M254.042,127.775a2.581,2.581,0,0,1-1.195-.294.953.953,0,1,1,.886-1.687.658.658,0,0,0,.309.075.668.668,0,0,0,.668-.668V111.437a3.474,3.474,0,0,0-1.022-2.462,8.232,8.232,0,0,0-5.809-2.383h-.239a.953.953,0,1,1,0-1.905h.239a10.126,10.126,0,0,1,7.146,2.931,5.39,5.39,0,0,1,1.591,3.819V125.2a2.576,2.576,0,0,1-2.573,2.573" transform="translate(-201.923 -85.691)" fill="#fff"/>
        <path id="Trazado_183351" data-name="Trazado 183351" d="M79.471,224.734a.953.953,0,0,1-.953-.953v-1.407a.953.953,0,0,1,1.905,0v1.407a.953.953,0,0,1-.953.953" transform="translate(-64.27 -181.243)" fill="#fff"/>
        <path id="Trazado_183352" data-name="Trazado 183352" d="M74,242.747H70.879a.953.953,0,0,1-.953-.953V231.476a.953.953,0,0,1,.953-.953H74a.953.953,0,0,1,.953.953v10.319a.953.953,0,0,1-.953.953m-2.166-1.905h1.213v-8.413H71.831Z" transform="translate(-57.237 -188.693)" fill="#fff"/>
        <path id="Trazado_183353" data-name="Trazado 183353" d="M29.357,65.547l-.059,0a4.38,4.38,0,0,1,.273-8.751.953.953,0,0,1,0,1.905,2.474,2.474,0,0,0-.156,4.944.953.953,0,0,1-.058,1.9" transform="translate(-20.62 -46.488)" fill="#fff"/>
        <path id="Trazado_183354" data-name="Trazado 183354" d="M24.938,181.789a3.074,3.074,0,0,1-.5-.04,3.109,3.109,0,0,1-2.523-3.094V163.023c0-.04-.072-.04-.072,0v15.743a3.025,3.025,0,0,1-3.525,2.983,3.109,3.109,0,0,1-2.523-3.094V149.443a.953.953,0,1,1,1.905,0v29.212a1.207,1.207,0,0,0,.924,1.213,1.12,1.12,0,0,0,1.314-1.1V163.023a1.941,1.941,0,1,1,3.883,0v15.632a1.207,1.207,0,0,0,.924,1.213,1.12,1.12,0,0,0,1.313-1.1v-1.887a.953.953,0,1,1,1.905,0v1.887a3.023,3.023,0,0,1-3.029,3.023" transform="translate(-12.932 -121.545)" fill="#fff"/>
        <path id="Trazado_183355" data-name="Trazado 183355" d="M73.308,172.6a.953.953,0,0,1-.953-.953V158.682a.953.953,0,0,1,1.905,0v12.965a.953.953,0,0,1-.953.953" transform="translate(-59.226 -129.108)" fill="#fff"/>
        <path id="Trazado_183356" data-name="Trazado 183356" d="M2.573,127.775A2.576,2.576,0,0,1,0,125.2V111.437a5.389,5.389,0,0,1,1.591-3.819,10.125,10.125,0,0,1,7.146-2.931.953.953,0,0,1,0,1.905,8.232,8.232,0,0,0-5.809,2.383,3.472,3.472,0,0,0-1.022,2.462V125.2a.668.668,0,0,0,.668.668.658.658,0,0,0,.309-.075.953.953,0,1,1,.886,1.687,2.581,2.581,0,0,1-1.195.294" transform="translate(0 -85.691)" fill="#fff"/>
        <path id="Trazado_183357" data-name="Trazado 183357" d="M75.742,182.587a2.581,2.581,0,0,1-1.195-.294.953.953,0,0,1,.886-1.687.658.658,0,0,0,.309.075.668.668,0,0,0,.668-.668V172.6a.953.953,0,1,1,1.905,0v7.411a2.576,2.576,0,0,1-2.573,2.573" transform="translate(-60.603 -140.503)" fill="#fff"/>
        <path id="Trazado_183358" data-name="Trazado 183358" d="M186.058,175.151a4.217,4.217,0,0,1-1.012-.123,4.165,4.165,0,0,1-2.585-1.9l-7.891-13.044a.953.953,0,0,1,1.63-.986l7.891,13.044a2.287,2.287,0,0,0,3.141.773l.016-.01a2.287,2.287,0,0,0,.762-3.134L180.225,156.9a.953.953,0,1,1,1.63-.986l7.786,12.87a4.194,4.194,0,0,1-1.417,5.758l-.017.01a4.143,4.143,0,0,1-2.149.6" transform="translate(-142.78 -127.245)" fill="#fff"/>
        <path id="Trazado_183359" data-name="Trazado 183359" d="M72.735,34.049a17.127,17.127,0,0,1-4.1-.5A17.017,17.017,0,0,1,63.9,2.464,17.018,17.018,0,0,1,89.23,21.093,17.039,17.039,0,0,1,72.735,34.049M72.679,1.906a15.117,15.117,0,0,0-12.9,22.94A15.112,15.112,0,1,0,85.635,9.2,15.012,15.012,0,0,0,76.318,2.35a15.212,15.212,0,0,0-3.638-.444m.05,28.622a13.59,13.59,0,0,1-3.25-.4,13.5,13.5,0,0,1-3.76-24.656,13.5,13.5,0,1,1,13.972,23.1,13.406,13.406,0,0,1-6.962,1.955m-.044-25.1a11.6,11.6,0,0,0-2.751,22.855,11.51,11.51,0,0,0,8.771-1.339h0A11.593,11.593,0,0,0,75.476,5.767a11.678,11.678,0,0,0-2.791-.34" transform="translate(-45.577 0)" fill="#fff"/>
        <path id="Trazado_183360" data-name="Trazado 183360" d="M223.057,154.39a.953.953,0,0,1-.953-.953V151.6a.953.953,0,1,1,1.905,0v1.835a.953.953,0,0,1-.953.953" transform="translate(-181.802 -123.313)" fill="#fff"/>
      </g>
    </g>
  </g>
</svg>
