<svg id="icon4" xmlns="http://www.w3.org/2000/svg" xmlns:xlink="http://www.w3.org/1999/xlink" width="85.136" height="85.136" viewBox="0 0 85.136 85.136">
  <defs>
    <radialGradient id="radial-gradient" cx="0.076" cy="0.019" r="1.465" gradientTransform="translate(0.001)" gradientUnits="objectBoundingBox">
      <stop offset="0" stop-color="#f6f6f7"/>
      <stop offset="0.477" stop-color="#f9f9fa"/>
      <stop offset="0.715" stop-color="#fff"/>
    </radialGradient>
  </defs>
  <g id="Grupo_18423" data-name="Grupo 18423" transform="translate(0 0)">
    <g id="Grupo_18421" data-name="Grupo 18421">
      <g id="Grupo_18420" data-name="Grupo 18420">
        <g id="Grupo_18419" data-name="Grupo 18419">
          <path id="Trazado_40936" data-name="Trazado 40936" d="M279.759,2188.288a42.568,42.568,0,1,1-42.567-42.567A42.567,42.567,0,0,1,279.759,2188.288Z" transform="translate(-194.623 -2145.721)" fill="#fff"/>
        </g>
      </g>
    </g>
    <path id="Trazado_40937" data-name="Trazado 40937" d="M279.526,2188.033a42.567,42.567,0,1,0-42.567,42.569A42.4,42.4,0,0,0,279.526,2188.033Z" transform="translate(-194.389 -2145.467)" fill="url(#radial-gradient)"/>
    <path id="Trazado_40938" data-name="Trazado 40938" d="M267.443,2186.041a32.492,32.492,0,1,0-32.492,32.492A32.37,32.37,0,0,0,267.443,2186.041Z" transform="translate(-192.254 -2143.332)" fill="none" stroke="#1d272b" stroke-miterlimit="10" stroke-width="4"/>
    <g id="Grupo_18422" data-name="Grupo 18422" transform="translate(7.541 23.899)">
      <path id="Trazado_40939" data-name="Trazado 40939" d="M273.836,2164.488a42.573,42.573,0,0,1-73.291,42.392,42.438,42.438,0,0,0,73.291-42.392Z" transform="translate(-200.545 -2164.488)" fill="#eceef0"/>
    </g>
  </g>
  <g id="BbQzTf" transform="translate(-4143.77 872.157)">
    <g id="Grupo_142375" data-name="Grupo 142375" transform="translate(4167.809 -853.253)">
      <path id="Trazado_183551" data-name="Trazado 183551" d="M4185.479-780.77a17.741,17.741,0,0,1-17.581-15.84,17.617,17.617,0,0,1,14.193-19.129,17.709,17.709,0,0,1,8.493.445c.706.208,1.177.611.94,1.379-.221.716-.82.793-1.485.615a15.383,15.383,0,0,0-12.927,1.774,14.766,14.766,0,0,0-7.063,14.759,14.606,14.606,0,0,0,9.853,12.75,15.407,15.407,0,0,0,20.743-11.563,14.678,14.678,0,0,0-.61-7.987c-.242-.649-.458-1.329.411-1.7.67-.285,1.326.152,1.617,1.029a17.6,17.6,0,0,1-13.086,23.025C4187.832-780.968,4186.646-780.913,4185.479-780.77Z" transform="translate(-4167.809 823.172)" fill="#12263f"/>
      <path id="Trazado_183552" data-name="Trazado 183552" d="M4252.886-826.657a1.919,1.919,0,0,1-1.738-1.479,1.573,1.573,0,0,1,1.043-1.736,5.091,5.091,0,0,0,1.4-.872c2.59-2.544,5.138-5.131,7.722-7.682a1.254,1.254,0,0,0,.423-1.33c-.369-1.644-.623-3.314-.976-4.962a1.5,1.5,0,0,1,.472-1.534c2.2-2.171,4.355-4.383,6.574-6.533a1.634,1.634,0,0,1,1.314-.441c.342.1.667.693.758,1.12.324,1.523.576,3.064.79,4.607a1.13,1.13,0,0,0,1.13,1.113q2.409.338,4.8.813a1.3,1.3,0,0,1,.9.653,1.433,1.433,0,0,1-.337,1.152c-2.221,2.283-4.492,4.517-6.736,6.778a1.573,1.573,0,0,1-1.633.454c-1.581-.361-3.178-.655-4.778-.915a1.307,1.307,0,0,0-.989.284q-4.258,4.188-8.454,8.44c-.207.209-.244.58-.439.808C4253.744-827.473,4253.3-827.075,4252.886-826.657Zm15.266-23.568c-1.74,1.746-3.356,3.363-4.963,4.991a.559.559,0,0,0-.166.415c.25,1.187.525,2.368.829,3.705,1.688-1.692,3.241-3.243,4.782-4.806a.684.684,0,0,0,.209-.491C4268.644-847.627,4268.409-848.838,4268.152-850.225Zm-2.737,10.8c1.283.247,2.4.469,3.511.666a.687.687,0,0,0,.527-.1c1.6-1.578,3.178-3.175,4.868-4.874-1.274-.248-2.386-.473-3.5-.672a.685.685,0,0,0-.527.109C4268.693-842.72,4267.112-841.125,4265.415-839.422Z" transform="translate(-4235.201 853.253)" fill="#12263f"/>
      <path id="Trazado_183553" data-name="Trazado 183553" d="M4210.243-785.623c1.471.359,2.955.672,4.406,1.1.629.184,1.2.653.832,1.433-.341.712-.98.7-1.641.4a9.578,9.578,0,0,0-13.271,8.81c-.129,4.989,3.732,9.09,8.975,9.647a9.629,9.629,0,0,0,10.091-7.663,9.161,9.161,0,0,0-.38-5.072,6.84,6.84,0,0,1-.245-.722,1.084,1.084,0,0,1,.608-1.429.953.953,0,0,1,1.343.7,16.958,16.958,0,0,1,.911,3.483,11.765,11.765,0,0,1-10,12.726,11.8,11.8,0,0,1-13.243-9.676C4197.387-778.912,4202.921-785.378,4210.243-785.623Z" transform="translate(-4192.597 798.553)" fill="#12263f"/>
      <path id="Trazado_183554" data-name="Trazado 183554" d="M4235.742-743.045a5.662,5.662,0,0,1-5.647-5.653,5.679,5.679,0,0,1,5.395-5.71c.71-.023,1.312.081,1.4.919s-.379,1.227-1.179,1.285a3.623,3.623,0,0,0-3.492,3.966,3.576,3.576,0,0,0,3.33,3.232,3.528,3.528,0,0,0,3.758-2.833,3.564,3.564,0,0,1,.191-1.118c.214-.351.632-.806.955-.8a1.329,1.329,0,0,1,.952.8,3.211,3.211,0,0,1-.065,1.589A5.657,5.657,0,0,1,4235.742-743.045Z" transform="translate(-4218.187 773.309)" fill="#12263f"/>
    </g>
  </g>
</svg>
