<svg xmlns="http://www.w3.org/2000/svg" width="86" height="86" viewBox="0 0 86 86">
  <g id="icon4" transform="translate(-988 -5830)">
    <circle id="Elipse_4870" data-name="Elipse 4870" cx="43" cy="43" r="43" transform="translate(988 5830)" fill="#039be5"/>
    <g id="Fn9hEg" transform="translate(-2061.944 6770.247)">
      <g id="Grupo_142370" data-name="Grupo 142370" transform="translate(3066.98 -920.247)">
        <path id="Trazado_183502" data-name="Trazado 183502" d="M3119.331-919.509v42.174a1.6,1.6,0,0,1-1.523.739q-24.648-.027-49.3-.006a1.587,1.587,0,0,1-1.532-.734v-42.174a1.6,1.6,0,0,1,1.532-.738q24.644.026,49.287.005A1.587,1.587,0,0,1,3119.331-919.509ZM3117.1-878.82v-30.454h-47.9v30.454Zm.019-39.185h-47.9v6.459h47.9Z" transform="translate(-3066.98 920.247)" fill="#fff"/>
        <path id="Trazado_183503" data-name="Trazado 183503" d="M3136.866-797.465c2.043,3.251,4.074,6.46,6.066,9.692a1.662,1.662,0,0,1,.193,1.2,1.085,1.085,0,0,1-.828.641,1.681,1.681,0,0,1-1.117-.621c-.859-1.228-1.629-2.518-2.428-3.788q-1.951-3.1-3.9-6.211c-.564-.9-.563-1.117.051-1.951q3.119-4.239,6.247-8.473a1.134,1.134,0,0,1,1.616-.446c.574.38.657,1.018.152,1.709-1.926,2.639-3.871,5.265-5.809,7.9C3137.044-797.721,3136.976-797.622,3136.866-797.465Z" transform="translate(-3124.63 823.989)" fill="#fff"/>
        <path id="Trazado_183504" data-name="Trazado 183504" d="M3300.571-808.7a4.256,4.256,0,0,1,.929.675q3.3,4.419,6.558,8.871a1.106,1.106,0,0,1,.032,1.351q-3.248,5.157-6.491,10.315a1.093,1.093,0,0,1-1.594.5,1.122,1.122,0,0,1-.242-1.658q2.882-4.614,5.8-9.208a.782.782,0,0,0-.045-1.07c-1.915-2.555-3.792-5.139-5.694-7.705a1.087,1.087,0,0,1-.162-1.335A4.212,4.212,0,0,1,3300.571-808.7Z" transform="translate(-3265.681 824.921)" fill="#fff"/>
        <path id="Trazado_183505" data-name="Trazado 183505" d="M3211.032-775.646a1.146,1.146,0,0,1-1.061-1.836q1.437-2.6,2.891-5.2,2.744-4.907,5.491-9.813c.283-.508.659-.935,1.252-.734a1.761,1.761,0,0,1,.863.839,1.151,1.151,0,0,1-.162.878q-4.213,7.578-8.471,15.13A3.047,3.047,0,0,1,3211.032-775.646Z" transform="translate(-3188.993 811.742)" fill="#fff"/>
        <path id="Trazado_183506" data-name="Trazado 183506" d="M3099.167-889.032a1.11,1.11,0,0,1-1.141,1.057,1.082,1.082,0,0,1-1.035-1.154,1.082,1.082,0,0,1,1.1-1.022A1.11,1.11,0,0,1,3099.167-889.032Z" transform="translate(-3092.625 894.528)" fill="#fff"/>
        <path id="Trazado_183507" data-name="Trazado 183507" d="M3129.176-889.058a1.1,1.1,0,0,1-1.117,1.083,1.082,1.082,0,0,1-1.064-1.13,1.08,1.08,0,0,1,1.075-1.047A1.1,1.1,0,0,1,3129.176-889.058Z" transform="translate(-3118.267 894.528)" fill="#fff"/>
        <path id="Trazado_183508" data-name="Trazado 183508" d="M3158.054-887.975a1.1,1.1,0,0,1-1.052-1.158,1.106,1.106,0,0,1,1.119-1.018,1.12,1.12,0,0,1,1.054,1.158A1.117,1.117,0,0,1,3158.054-887.975Z" transform="translate(-3143.909 894.528)" fill="#fff"/>
      </g>
    </g>
  </g>
</svg>
