<svg id="icon3" xmlns="http://www.w3.org/2000/svg" xmlns:xlink="http://www.w3.org/1999/xlink" width="103.929" height="103.929" viewBox="0 0 103.929 103.929">
  <defs>
    <radialGradient id="radial-gradient" cx="0.076" cy="0.019" r="1.465" gradientTransform="translate(0.001)" gradientUnits="objectBoundingBox">
      <stop offset="0" stop-color="#f6f6f7"/>
      <stop offset="0.477" stop-color="#f9f9fa"/>
      <stop offset="0.715" stop-color="#fff"/>
    </radialGradient>
  </defs>
  <g id="Grupo_18423" data-name="Grupo 18423" transform="translate(0 0)">
    <g id="Grupo_18421" data-name="Grupo 18421">
      <g id="Grupo_18420" data-name="Grupo 18420">
        <g id="Grupo_18419" data-name="Grupo 18419">
          <path id="Trazado_40936" data-name="Trazado 40936" d="M298.552,2197.684a51.964,51.964,0,1,1-51.964-51.963A51.964,51.964,0,0,1,298.552,2197.684Z" transform="translate(-194.623 -2145.721)" fill="#fff"/>
        </g>
      </g>
    </g>
    <path id="Trazado_40937" data-name="Trazado 40937" d="M298.078,2197.168a51.963,51.963,0,1,0-51.964,51.966A51.758,51.758,0,0,0,298.078,2197.168Z" transform="translate(-194.149 -2145.205)" fill="url(#radial-gradient)"/>
    <path id="Trazado_40938" data-name="Trazado 40938" d="M281.6,2193.014a39.664,39.664,0,1,0-39.664,39.664A39.517,39.517,0,0,0,281.6,2193.014Z" transform="translate(-189.818 -2140.878)" fill="none" stroke="#ffca45" stroke-miterlimit="10" stroke-width="4"/>
    <g id="Grupo_18422" data-name="Grupo 18422" transform="translate(9.206 29.174)">
      <path id="Trazado_40939" data-name="Trazado 40939" d="M290.013,2164.488a51.97,51.97,0,0,1-89.468,51.749,51.805,51.805,0,0,0,89.468-51.749Z" transform="translate(-200.545 -2164.488)" fill="#eceef0"/>
    </g>
  </g>
  <g id="Grupo_28521" data-name="Grupo 28521" transform="translate(24.783 34.623)">
    <path id="Trazado_67903" data-name="Trazado 67903" d="M290.649,277.161a.879.879,0,0,1-.878-.879V246.37a5.9,5.9,0,0,1,5.9-5.9h22.285a.878.878,0,0,1,.878.878v29.913a.878.878,0,0,1-.878.878H295.668a4.145,4.145,0,0,0-4.14,4.141A.88.88,0,0,1,290.649,277.161Zm5.019-34.933a4.146,4.146,0,0,0-4.14,4.142v25.716a5.882,5.882,0,0,1,4.14-1.7h21.407V242.228Z" transform="translate(-262.468 -240.472)" fill="#00223d"/>
    <path id="Trazado_67904" data-name="Trazado 67904" d="M291.828,277.161a.879.879,0,0,1-.878-.879,4.145,4.145,0,0,0-4.141-4.141H264.525a.878.878,0,0,1-.878-.878V241.35a.878.878,0,0,1,.878-.878H286.81a5.9,5.9,0,0,1,5.9,5.9v29.912A.88.88,0,0,1,291.828,277.161ZM265.4,270.384H286.81a5.884,5.884,0,0,1,4.141,1.7V246.37a4.146,4.146,0,0,0-4.141-4.142H265.4Z" transform="translate(-263.647 -240.472)" fill="#00223d"/>
    <path id="Trazado_67905" data-name="Trazado 67905" d="M291.97,279.864c-.07,0-.137,0-.2-.005a5.514,5.514,0,0,1-5.625-3.99H265.87a.879.879,0,0,1-.878-.879v-5.019a.878.878,0,1,1,1.756,0v4.141h20.1a.878.878,0,0,1,.867.739,3.8,3.8,0,0,0,4.005,3.253c.031,0,.062,0,.093,0a3.783,3.783,0,0,0,4-3.253.878.878,0,0,1,.867-.739h20.1v-4.141a.878.878,0,1,1,1.757,0v5.019a.879.879,0,0,1-.879.879H297.394A5.5,5.5,0,0,1,291.97,279.864Z" transform="translate(-263.586 -239.18)" fill="#00223d"/>
    <path id="Trazado_67906" data-name="Trazado 67906" d="M312.841,250.966h-6.249a.879.879,0,0,1-.878-.879V245.72a.878.878,0,0,1,.878-.878h6.249a.879.879,0,0,1,.879.878v4.367A.88.88,0,0,1,312.841,250.966Zm-5.371-1.757h4.493V246.6H307.47Z" transform="translate(-261.748 -240.275)" fill="#00223d"/>
    <path id="Trazado_67907" data-name="Trazado 67907" d="M312.841,258.745h-6.249a.878.878,0,0,1-.878-.879V253.5a.878.878,0,0,1,.878-.878h6.249a.879.879,0,0,1,.879.878v4.367A.879.879,0,0,1,312.841,258.745Zm-5.371-1.757h4.493v-2.61H307.47Z" transform="translate(-261.748 -239.923)" fill="#00223d"/>
    <path id="Trazado_67908" data-name="Trazado 67908" d="M312.841,266.523h-6.249a.878.878,0,0,1-.878-.878v-4.367a.878.878,0,0,1,.878-.878h6.249a.879.879,0,0,1,.879.878v4.367A.879.879,0,0,1,312.841,266.523Zm-5.371-1.757h4.493v-2.609H307.47Z" transform="translate(-261.748 -239.572)" fill="#00223d"/>
    <path id="Trazado_67909" data-name="Trazado 67909" d="M303.517,248.687h-8.282a.878.878,0,1,1,0-1.756h8.282a.878.878,0,1,1,0,1.756Z" transform="translate(-262.26 -240.18)" fill="#00223d"/>
    <path id="Trazado_67910" data-name="Trazado 67910" d="M303.517,256.755h-8.282a.878.878,0,0,1,0-1.757h8.282a.878.878,0,0,1,0,1.757Z" transform="translate(-262.26 -239.816)" fill="#00223d"/>
    <path id="Trazado_67911" data-name="Trazado 67911" d="M303.517,264.246h-8.282a.878.878,0,0,1,0-1.757h8.282a.878.878,0,0,1,0,1.757Z" transform="translate(-262.26 -239.478)" fill="#00223d"/>
    <path id="Trazado_67912" data-name="Trazado 67912" d="M274.976,250.966h-6.249a.879.879,0,0,1-.878-.879V245.72a.878.878,0,0,1,.878-.878h6.249a.878.878,0,0,1,.878.878v4.367A.879.879,0,0,1,274.976,250.966Zm-5.37-1.757H274.1V246.6h-4.491Z" transform="translate(-263.457 -240.275)" fill="#00223d"/>
    <path id="Trazado_67913" data-name="Trazado 67913" d="M274.976,258.745h-6.249a.878.878,0,0,1-.878-.879V253.5a.878.878,0,0,1,.878-.878h6.249a.878.878,0,0,1,.878.878v4.367A.878.878,0,0,1,274.976,258.745Zm-5.37-1.757H274.1v-2.61h-4.491Z" transform="translate(-263.457 -239.923)" fill="#00223d"/>
    <path id="Trazado_67914" data-name="Trazado 67914" d="M274.976,266.523h-6.249a.878.878,0,0,1-.878-.878v-4.367a.878.878,0,0,1,.878-.878h6.249a.878.878,0,0,1,.878.878v4.367A.878.878,0,0,1,274.976,266.523Zm-5.37-1.757H274.1v-2.609h-4.491Z" transform="translate(-263.457 -239.572)" fill="#00223d"/>
    <path id="Trazado_67915" data-name="Trazado 67915" d="M286.421,248.687h-8.282a.878.878,0,1,1,0-1.756h8.282a.878.878,0,1,1,0,1.756Z" transform="translate(-263.032 -240.18)" fill="#00223d"/>
    <path id="Trazado_67916" data-name="Trazado 67916" d="M286.421,256.755h-8.282a.878.878,0,0,1,0-1.757h8.282a.878.878,0,1,1,0,1.757Z" transform="translate(-263.032 -239.816)" fill="#00223d"/>
    <path id="Trazado_67917" data-name="Trazado 67917" d="M286.421,264.246h-8.282a.878.878,0,0,1,0-1.757h8.282a.878.878,0,1,1,0,1.757Z" transform="translate(-263.032 -239.478)" fill="#00223d"/>
  </g>
</svg>
