<svg xmlns="http://www.w3.org/2000/svg" width="86" height="86" viewBox="0 0 86 86">
  <g id="icon1" transform="translate(-256 -5830)">
    <circle id="Elipse_4775" data-name="Elipse 4775" cx="43" cy="43" r="43" transform="translate(256 5830)" fill="#4dd0e1"/>
    <g id="jS21yb.tif" transform="translate(410.3 3222.002)">
      <g id="Grupo_142300" data-name="Grupo 142300" transform="translate(-132.259 2625.498)">
        <path id="Trazado_118083" data-name="Trazado 118083" d="M-94.736,2642.478c1.733-2.057,3.238-3.852,4.752-5.639s3.084-1.923,4.881-.437c3.01,2.488,3.1,3.449.579,6.447-3.222,3.836-6.456,7.662-9.647,11.524a2.572,2.572,0,0,0-.541,1.507c-.037,5.9-.022,11.8-.025,17.7,0,2.177-.931,3.1-3.116,3.1q-15.67,0-31.34,0c-2.118,0-3.063-.94-3.064-3.049q0-22.549,0-45.1c0-2.053.955-3.022,2.983-3.022,8.564,0,17.127.006,25.69-.014a3.346,3.346,0,0,1,2.568,1.044q2.606,2.669,5.275,5.278a3.214,3.214,0,0,1,1.014,2.473C-94.756,2636.911-94.736,2639.529-94.736,2642.478Zm-1.7-8.441c-1.875,0-3.641,0-5.407,0-1.241,0-1.409-.175-1.414-1.426-.006-1.765,0-3.53,0-5.32a4.637,4.637,0,0,0-.517-.069q-12.787-.005-25.575-.015c-1.051,0-1.208.573-1.207,1.439q.017,22.434.01,44.868c0,1.31.158,1.464,1.483,1.464q15.558,0,31.116,0c1.377,0,1.51-.137,1.511-1.543q0-7.568,0-15.134v-1.231c-1.549,1.835-2.883,3.427-4.232,5.006a3.067,3.067,0,0,1-.918.865q-3.148,1.433-6.344,2.76a.839.839,0,0,1-1.21-1.018c.5-2.252,1.048-4.494,1.621-6.729a2.764,2.764,0,0,1,.628-.967c2.932-3.521,5.809-7.091,8.843-10.522a5.909,5.909,0,0,0,1.649-4.571C-96.549,2639.318-96.441,2636.729-96.441,2634.037Zm5.491,6.577-14.553,17.353,3.562,2.988,14.556-17.348Z" transform="translate(132.259 -2625.498)" fill="#fff"/>
        <path id="Trazado_118084" data-name="Trazado 118084" d="M-100.984,2755.868h-2.338a.923.923,0,0,1-1.046-1.044c0-1.594,0-3.188,0-4.783a.885.885,0,0,1,.986-.989c1.594-.006,3.188,0,4.782,0a.922.922,0,0,1,1.046,1.043c0,1.594,0,3.188,0,4.783a.887.887,0,0,1-.987.989C-99.354,2755.873-100.169,2755.867-100.984,2755.868Zm1.707-5.043h-3.306v3.251h3.306Z" transform="translate(110.339 -2722.597)" fill="#fff"/>
        <path id="Trazado_118085" data-name="Trazado 118085" d="M-100.937,2796.823c.744,0,1.488.01,2.232,0s1.132.308,1.13,1.071q-.006,2.339,0,4.677c0,.761-.382,1.084-1.123,1.078-1.523-.011-3.046-.013-4.57,0-.816.008-1.143-.389-1.133-1.18.018-1.487.022-2.976,0-4.464-.014-.87.393-1.217,1.234-1.187C-102.425,2796.844-101.681,2796.823-100.937,2796.823Zm1.588,5.094v-3.312H-102.6v3.312Z" transform="translate(110.367 -2760.136)" fill="#fff"/>
        <path id="Trazado_118086" data-name="Trazado 118086" d="M-55.895,2713.177c2.411,0,4.823.005,7.234,0,.658,0,1.294.083,1.261.906-.03.747-.645.806-1.256.805q-7.234-.01-14.468,0c-.657,0-1.293-.082-1.261-.906.03-.749.646-.808,1.255-.805C-60.717,2713.183-58.306,2713.177-55.895,2713.177Z" transform="translate(78.917 -2694.403)" fill="#fff"/>
        <path id="Trazado_118087" data-name="Trazado 118087" d="M-54.867,2667.072c-1.452,0-2.909.059-4.355-.039a1.435,1.435,0,0,1-1.076-.813c-.125-.639.444-.855,1.051-.853,2.94.005,5.882-.028,8.82.039.383.009.753.524,1.13.8-.369.288-.723.8-1.109.823C-51.888,2667.129-53.379,2667.072-54.867,2667.072Z" transform="translate(75.718 -2656.827)" fill="#fff"/>
        <path id="Trazado_118088" data-name="Trazado 118088" d="M-100.244,2657.913c.7-1.38,1.308-2.567,1.9-3.765.285-.579.621-1.15,1.354-.772s.447.995.16,1.56c-.735,1.451-1.449,2.913-2.192,4.36-.515,1-.988,1.086-1.784.321a23.685,23.685,0,0,1-2.149-2.2c-.225-.28-.093-.847-.124-1.282.436.038.979-.075,1.284.145A11.959,11.959,0,0,1-100.244,2657.913Z" transform="translate(109.337 -2647.311)" fill="#fff"/>
        <path id="Trazado_118089" data-name="Trazado 118089" d="M-101.191,2705.69c.685-1.363,1.275-2.525,1.854-3.693.279-.562.581-1.177,1.336-.823s.507.965.215,1.539c-.752,1.482-1.479,2.977-2.242,4.454-.483.934-.965,1.011-1.723.29-.718-.683-1.4-1.4-2.11-2.094-.416-.411-.7-.87-.213-1.378.533-.56,1.02-.257,1.452.194S-101.747,2705.1-101.191,2705.69Z" transform="translate(110.309 -2684.89)" fill="#fff"/>
        <path id="Trazado_118090" data-name="Trazado 118090" d="M-59.687,2762.675c-1.2,0-2.408,0-3.612,0-.616,0-1.146-.256-1.015-.895a1.341,1.341,0,0,1,1.012-.773c2.406-.069,4.815-.034,7.222-.037.617,0,1.146.256,1.015.893a1.366,1.366,0,0,1-1.015.773C-57.274,2762.737-58.483,2762.675-59.687,2762.675Z" transform="translate(78.876 -2731.962)" fill="#fff"/>
        <path id="Trazado_118091" data-name="Trazado 118091" d="M-61.122,2810.407a14.137,14.137,0,0,1-2.328-.038c-.376-.063-.685-.523-1.024-.8.333-.286.654-.8,1-.819a43.126,43.126,0,0,1,4.77,0c.354.02.681.523,1.02.8-.333.285-.637.76-1.006.819A15.666,15.666,0,0,1-61.122,2810.407Z" transform="translate(78.987 -2769.46)" fill="#fff"/>
      </g>
    </g>
  </g>
</svg>
