<svg xmlns="http://www.w3.org/2000/svg" width="331.972" height="286.056" viewBox="0 0 331.972 286.056">
  <g id="img10" transform="translate(-43.84 -107.052)">
    <g id="Grupo_142316" data-name="Grupo 142316" transform="translate(264.264 107.052)">
      <g id="Grupo_28685" data-name="Grupo 28685">
        <path id="Trazado_68412" data-name="Trazado 68412" d="M550.642,913.45a1.4,1.4,0,0,1-1.448,1.369c-1.477-.08-2.979-.094-4.465-.042a1.406,1.406,0,0,1-1.422-1.369v-.028a1.419,1.419,0,0,1,1.332-1.494c1.564-.055,3.145-.04,4.7.044a1.413,1.413,0,0,1,1.3,1.366A1.446,1.446,0,0,1,550.642,913.45Zm-13.127,2.1c-1.464.264-2.932.6-4.363.989a1.374,1.374,0,0,1-1.682-1.034,1.454,1.454,0,0,1,.986-1.764c1.505-.412,3.05-.762,4.591-1.041a1.386,1.386,0,0,1,1.592,1.18,1.564,1.564,0,0,1,.018.171A1.433,1.433,0,0,1,537.515,915.553Zm-11.232,3.417c-1.368.6-2.727,1.266-4.042,1.985a1.347,1.347,0,0,1-1.859-.614,1.483,1.483,0,0,1,.585-1.951c1.384-.758,2.816-1.461,4.257-2.09a1.356,1.356,0,0,1,1.8.779,1.516,1.516,0,0,1,.1.48A1.455,1.455,0,0,1,526.283,918.97Zm-10.222,5.967c-1.208.9-2.391,1.875-3.519,2.884a1.334,1.334,0,0,1-1.943-.163,1.5,1.5,0,0,1,.155-2.039c1.188-1.062,2.434-2.083,3.7-3.036a1.337,1.337,0,0,1,1.922.336,1.495,1.495,0,0,1-.32,2.017Zm-8.7,8.208c-.983,1.161-1.933,2.382-2.823,3.631a1.336,1.336,0,0,1-1.929.292,1.492,1.492,0,0,1-.278-2.024c.936-1.313,1.935-2.6,2.97-3.82a1.333,1.333,0,0,1,1.946-.12,1.47,1.47,0,0,1,.461,1A1.487,1.487,0,0,1,507.36,933.145Zm-6.753,10.023c-.716,1.362-1.384,2.773-1.987,4.195a1.353,1.353,0,0,1-1.819.733,1.475,1.475,0,0,1-.7-1.909c.634-1.5,1.338-2.981,2.091-4.415a1.345,1.345,0,0,1,1.872-.568,1.454,1.454,0,0,1,.711,1.192A1.5,1.5,0,0,1,500.607,943.168Zm-1.194,53.686a1.347,1.347,0,0,1-1.858-.616c-.719-1.452-1.387-2.957-1.985-4.472a1.471,1.471,0,0,1,.746-1.889,1.356,1.356,0,0,1,1.8.782c.568,1.439,1.2,2.868,1.885,4.246a1.5,1.5,0,0,1,.154.59A1.46,1.46,0,0,1,499.413,996.854Zm-3.27-42.349c-.409,1.494-.76,3.025-1.045,4.551a1.383,1.383,0,0,1-1.618,1.141,1.447,1.447,0,0,1-1.087-1.7c.3-1.606.67-3.219,1.1-4.792a1.37,1.37,0,0,1,1.705-.991,1.435,1.435,0,0,1,1,1.314A1.523,1.523,0,0,1,496.143,954.505Zm-1.317,30.7a1.374,1.374,0,0,1-1.68-1.038c-.39-1.584-.721-3.206-.983-4.822a1.438,1.438,0,0,1,1.128-1.668,1.387,1.387,0,0,1,1.59,1.183c.249,1.536.563,3.078.934,4.583a1.5,1.5,0,0,1,.042.287A1.44,1.44,0,0,1,494.826,985.206Zm-.62-18.6c-.08,1.551-.1,3.127-.05,4.683a1.379,1.379,0,1,1-2.754.122c0-.01,0-.021,0-.031-.05-1.638-.032-3.3.052-4.929a1.376,1.376,0,0,1,2.753,0C494.208,966.5,494.207,966.551,494.205,966.6Z" transform="translate(-491.373 -911.854)" fill="#12263f"/>
        <path id="Trazado_68413" data-name="Trazado 68413" d="M553.539,1411.087a1.48,1.48,0,0,0-.287-.809c-.436-.589-.867-1.2-1.283-1.808a1.336,1.336,0,0,0-1.922-.338,1.491,1.491,0,0,0-.322,2.017c.437.643.89,1.282,1.349,1.9a1.336,1.336,0,0,0,1.934.255A1.474,1.474,0,0,0,553.539,1411.087Z" transform="translate(-539.538 -1318.897)" fill="#12263f"/>
      </g>
      <g id="Grupo_28686" data-name="Grupo 28686" transform="translate(45.743 19.792)">
        <path id="Trazado_68414" data-name="Trazado 68414" d="M763.917,1538.1a1.419,1.419,0,0,0-1.23-1.36c-.706-.079-1.424-.175-2.13-.285a1.39,1.39,0,0,0-1.566,1.218,1.435,1.435,0,0,0,1.161,1.643c.744.116,1.5.217,2.243.3a1.4,1.4,0,0,0,1.516-1.285A1.526,1.526,0,0,0,763.917,1538.1Z" transform="translate(-758.975 -1444.201)" fill="#12263f"/>
        <path id="Trazado_68415" data-name="Trazado 68415" d="M869.436,1097.44a1.38,1.38,0,1,1-2.756.01c0-1.52-.072-3.065-.2-4.606a1.428,1.428,0,0,1,1.255-1.565,1.4,1.4,0,0,1,1.492,1.316q.083,1,.133,2C869.407,1095.542,869.433,1096.5,869.436,1097.44Zm-2.4-10.9a1.378,1.378,0,0,1-1.647-1.092c-.322-1.5-.707-2.993-1.146-4.451a1.46,1.46,0,0,1,.9-1.814,1.367,1.367,0,0,1,1.729.943c.462,1.535.868,3.111,1.206,4.685a1.475,1.475,0,0,1,.032.244A1.438,1.438,0,0,1,867.033,1086.536Zm1.916,18.768c-.2,1.594-.476,3.2-.809,4.777a1.379,1.379,0,0,1-1.644,1.1,1.449,1.449,0,0,1-1.047-1.725c.316-1.5.575-3.022.768-4.536a1.393,1.393,0,0,1,1.55-1.241,1.421,1.421,0,0,1,1.192,1.356A1.529,1.529,0,0,1,868.948,1105.3Zm-5.482-30.593a1.35,1.35,0,0,1-1.836-.686c-.626-1.383-1.316-2.755-2.05-4.076a1.485,1.485,0,0,1,.5-1.977,1.343,1.343,0,0,1,1.885.521c.773,1.392,1.5,2.836,2.158,4.292a1.5,1.5,0,0,1,.132.544A1.458,1.458,0,0,1,863.466,1074.712Zm2.55,42.922c-.533,1.508-1.135,3.012-1.79,4.472a1.351,1.351,0,0,1-1.833.693,1.478,1.478,0,0,1-.661-1.924c.622-1.387,1.194-2.816,1.7-4.247a1.361,1.361,0,0,1,1.771-.853,1.443,1.443,0,0,1,.9,1.281A1.514,1.514,0,0,1,866.016,1117.634Zm-5.438,11.356c-.836,1.352-1.737,2.682-2.676,3.955a1.336,1.336,0,0,1-1.934.258,1.493,1.493,0,0,1-.245-2.029c.893-1.21,1.748-2.474,2.543-3.759a1.34,1.34,0,0,1,1.906-.426,1.461,1.461,0,0,1,.626,1.139A1.491,1.491,0,0,1,860.578,1128.99Zm-7.668,9.843c-1.1,1.129-2.253,2.223-3.433,3.25a1.334,1.334,0,0,1-1.94-.19,1.5,1.5,0,0,1,.181-2.036c1.122-.975,2.219-2.015,3.262-3.088a1.333,1.333,0,0,1,1.949.02,1.5,1.5,0,0,1-.019,2.045Zm-9.531,7.854c-1.306.85-2.662,1.652-4.03,2.382a1.347,1.347,0,0,1-1.853-.633,1.482,1.482,0,0,1,.6-1.945c1.3-.694,2.586-1.455,3.827-2.262a1.34,1.34,0,0,1,1.9.466,1.491,1.491,0,0,1,.205.685A1.468,1.468,0,0,1,843.378,1146.688Zm-10.949,5.466c-1.449.526-2.939.994-4.428,1.391a1.375,1.375,0,0,1-1.675-1.046,1.455,1.455,0,0,1,1-1.757c1.415-.377,2.83-.821,4.206-1.321a1.363,1.363,0,0,1,1.753.894,1.506,1.506,0,0,1,.075.4A1.449,1.449,0,0,1,832.429,1152.154Zm-11.813,2.808c-1.122.135-2.263.234-3.39.3q-.612.034-1.221.053a1.393,1.393,0,0,1-1.42-1.4,1.419,1.419,0,0,1,1.335-1.49q.579-.018,1.161-.05c1.071-.059,2.155-.154,3.222-.282a1.4,1.4,0,0,1,1.525,1.273c0,.029.006.06.007.089A1.427,1.427,0,0,1,820.616,1154.962Z" transform="translate(-805.079 -1059.6)" fill="#12263f"/>
        <path id="Trazado_68416" data-name="Trazado 68416" d="M1048.506,1025.355a1.486,1.486,0,0,0-.292-.816c-.46-.616-.943-1.233-1.432-1.835a1.333,1.333,0,0,0-1.943-.161,1.5,1.5,0,0,0-.154,2.039c.465.571.922,1.158,1.36,1.743a1.335,1.335,0,0,0,1.935.245A1.478,1.478,0,0,0,1048.506,1025.355Z" transform="translate(-995.574 -1022.197)" fill="#12263f"/>
      </g>
      <g id="Grupo_28688" data-name="Grupo 28688" transform="translate(13.099 14.249)">
        <path id="Trazado_68417" data-name="Trazado 68417" d="M630.128,997a.62.62,0,0,0-.748-.009l-6.44,4.691a32.845,32.845,0,0,0-10.748-2.754l-3.657-7.271a.636.636,0,0,0-.668-.353l-9.293,1.509a.659.659,0,0,0-.535.548l-1.391,8.09a33.9,33.9,0,0,0-9.452,6.035l-7.49-2.429a.628.628,0,0,0-.71.247l-5.554,7.962a.7.7,0,0,0-.009.785l4.471,6.757a37.284,37.284,0,0,0-2.624,11.279l-6.929,3.837a.686.686,0,0,0-.336.7l1.438,9.751a.662.662,0,0,0,.522.562l7.71,1.46a36.2,36.2,0,0,0,5.751,9.919l-2.315,7.859a.7.7,0,0,0,.235.745l7.588,5.828a.62.62,0,0,0,.748.01l6.44-4.692a32.842,32.842,0,0,0,10.748,2.754l3.657,7.271a.636.636,0,0,0,.668.352l9.293-1.509a.659.659,0,0,0,.535-.548l1.391-8.091a33.9,33.9,0,0,0,9.452-6.034l7.49,2.429a.627.627,0,0,0,.71-.247l5.554-7.962a.7.7,0,0,0,.009-.784l-4.471-6.757a37.287,37.287,0,0,0,2.625-11.279l6.929-3.837a.686.686,0,0,0,.336-.7l-1.438-9.751a.662.662,0,0,0-.522-.562l-7.71-1.46a36.209,36.209,0,0,0-5.751-9.919l2.315-7.859a.7.7,0,0,0-.235-.745Z" transform="translate(-568.006 -991.294)" fill="#fff"/>
        <g id="Grupo_28687" data-name="Grupo 28687" transform="translate(32.076 33.658)">
          <path id="Trazado_68418" data-name="Trazado 68418" d="M774.519,1189.794a9.6,9.6,0,0,1-10.3,8.946,9.265,9.265,0,0,1-6.4-3.549,10.182,10.182,0,0,1-2.13-7.255,9.6,9.6,0,0,1,10.3-8.947,9.735,9.735,0,0,1,8.555,9.347A10.476,10.476,0,0,1,774.519,1189.794Zm-14.992,3.922a7.1,7.1,0,0,0,4.9,2.721,7.361,7.361,0,0,0,7.894-6.859,7.52,7.52,0,0,0-6.537-8.283,7.36,7.36,0,0,0-7.894,6.859,8.074,8.074,0,0,0-.022,1.128A7.763,7.763,0,0,0,759.526,1193.716Z" transform="translate(-755.655 -1178.947)" fill="#00223d"/>
        </g>
        <path id="Trazado_68419" data-name="Trazado 68419" d="M720.669,1122.308q-.063-1.244-.246-2.493h0q-.058-.393-.128-.784a25.509,25.509,0,0,0-.976-3.769l-.017-.05c-.016-.047-.033-.095-.05-.142-.032-.092-.065-.183-.1-.275a.551.551,0,0,0-.543-.371.546.546,0,0,0-.169.038.588.588,0,0,0-.317.747,24.258,24.258,0,0,1,1.208,4.782,23.87,23.87,0,0,1-7.293,21.022,21.571,21.571,0,0,1-11.2,5.489,21.188,21.188,0,0,1-16.462-4.211,23.281,23.281,0,0,1-8.8-15.193c-1.867-12.665,6.429-24.552,18.493-26.511a21.154,21.154,0,0,1,11.714,1.429.519.519,0,0,0,.237.042.552.552,0,0,0,.481-.36.588.588,0,0,0-.3-.754,22.221,22.221,0,0,0-12.3-1.5c-12.665,2.057-21.373,14.546-19.414,27.831a24.439,24.439,0,0,0,9.241,15.949,22.306,22.306,0,0,0,14.9,4.68,22.6,22.6,0,0,0,2.379-.258,22.949,22.949,0,0,0,15.2-9.7A25.055,25.055,0,0,0,720.669,1122.308Z" transform="translate(-656.057 -1079.809)" fill="#00223d"/>
      </g>
    </g>
    <g id="Grupo_142317" data-name="Grupo 142317" transform="translate(71.528 214.235) rotate(-60)">
      <g id="Grupo_28690" data-name="Grupo 28690" opacity="0.996">
        <path id="Trazado_68420" data-name="Trazado 68420" d="M888.708,488.584a.883.883,0,0,0-.654-.822c-.7-.175-1.421-.33-2.133-.461a.856.856,0,0,0-.985.726.889.889,0,0,0,.692,1.034c.679.124,1.363.272,2.034.439a.851.851,0,0,0,1.025-.663A.949.949,0,0,0,888.708,488.584Z" transform="translate(-842.807 -486.727)" fill="#00223d"/>
        <path id="Trazado_68421" data-name="Trazado 68421" d="M677.958,485.146a.868.868,0,0,1-.892.848,33.789,33.789,0,0,0-3.571.007q-.375.021-.752.05a.866.866,0,0,1-.911-.825.912.912,0,0,1,.787-.957q.394-.03.787-.052a35.231,35.231,0,0,1,3.745-.007.873.873,0,0,1,.808.844C677.959,485.085,677.959,485.115,677.958,485.146Zm-9.5,1.513a33.968,33.968,0,0,0-4.18,1.152.843.843,0,0,1-1.075-.569.905.905,0,0,1,.542-1.128,35.519,35.519,0,0,1,4.382-1.208.854.854,0,0,1,1,.7.971.971,0,0,1,.015.128A.886.886,0,0,1,668.459,486.66Zm-8.193,2.838a34.523,34.523,0,0,0-3.783,2.2.828.828,0,0,1-1.175-.273.918.918,0,0,1,.26-1.233,36.282,36.282,0,0,1,3.968-2.3.835.835,0,0,1,1.134.424.936.936,0,0,1,.081.336A.9.9,0,0,1,660.265,489.5Zm-7.279,4.864a35.938,35.938,0,0,0-3.155,3.1.823.823,0,0,1-1.2.036.925.925,0,0,1-.035-1.262,37.722,37.722,0,0,1,3.309-3.25.825.825,0,0,1,1.2.119.925.925,0,0,1-.114,1.258Zm-5.926,6.581a37.472,37.472,0,0,0-2.344,3.81.83.83,0,0,1-1.159.341.915.915,0,0,1-.325-1.216,39.394,39.394,0,0,1,2.456-3.994.826.826,0,0,1,1.19-.19.9.9,0,0,1,.346.673A.921.921,0,0,1,647.061,500.943Zm-4.224,7.891a37.872,37.872,0,0,0-1.385,4.291.848.848,0,0,1-1.044.629.9.9,0,0,1-.6-1.1,39.734,39.734,0,0,1,1.453-4.5.838.838,0,0,1,1.11-.488.893.893,0,0,1,.528.78A.928.928,0,0,1,642.837,508.835Zm-2.256,8.732a38.472,38.472,0,0,0-.339,4.521.852.852,0,1,1-1.7-.031,40.623,40.623,0,0,1,.356-4.74.86.86,0,0,1,.963-.759.878.878,0,0,1,.73.837A.983.983,0,0,1,640.581,517.566Zm-.064,14.6a.85.85,0,0,1-1.022-.668,40.583,40.583,0,0,1-.684-4.068c-.026-.208-.048-.415-.069-.623a.875.875,0,0,1,.758-.981.863.863,0,0,1,.936.8c.019.195.04.389.064.588a38.754,38.754,0,0,0,.653,3.884.928.928,0,0,1,.021.156A.888.888,0,0,1,640.518,532.164Z" transform="translate(-638.539 -484.164)" fill="#00223d"/>
      </g>
      <g id="Grupo_28691" data-name="Grupo 28691" transform="translate(53.689 13.244)" opacity="0.3">
        <path id="Trazado_68422" data-name="Trazado 68422" d="M972.437,607.383a40.828,40.828,0,0,1-.093,4.674.865.865,0,0,1-.918.818.886.886,0,0,1-.779-.963,38.79,38.79,0,0,0,.088-4.459.852.852,0,1,1,1.7-.083Zm-1.15-3.632a.857.857,0,0,1-.975-.74,38.966,38.966,0,0,0-.927-4.356.9.9,0,0,1,.584-1.1.846.846,0,0,1,1.052.612,40.666,40.666,0,0,1,.971,4.565.95.95,0,0,1,.01.1A.884.884,0,0,1,971.288,603.752Zm.423,12.938a40.364,40.364,0,0,1-1.167,4.514.843.843,0,0,1-1.079.56.9.9,0,0,1-.534-1.132,38.529,38.529,0,0,0,1.114-4.305.853.853,0,0,1,1.006-.693.882.882,0,0,1,.678.827A.957.957,0,0,1,971.711,616.689Zm-2.63-21.765a.837.837,0,0,1-1.117-.472,37.52,37.52,0,0,0-1.9-3.991.92.92,0,0,1,.31-1.22.83.83,0,0,1,1.164.326,39.13,39.13,0,0,1,1.994,4.186.926.926,0,0,1,.067.3A.9.9,0,0,1,969.08,594.924Zm-.218,30.608a39.427,39.427,0,0,1-2.167,4.086.828.828,0,0,1-1.176.272.919.919,0,0,1-.259-1.234,37.379,37.379,0,0,0,2.067-3.9.834.834,0,0,1,1.136-.419.9.9,0,0,1,.482.759A.928.928,0,0,1,968.863,625.532Zm-4.787,7.869a38.4,38.4,0,0,1-3.036,3.424.823.823,0,0,1-1.2-.031.925.925,0,0,1,.029-1.263,36.68,36.68,0,0,0,2.9-3.267.824.824,0,0,1,1.2-.121.908.908,0,0,1,.309.643A.918.918,0,0,1,964.076,633.4Zm-6.445,6.44A36.67,36.67,0,0,1,953.9,642.4a.83.83,0,0,1-1.161-.334.918.918,0,0,1,.317-1.218,34.69,34.69,0,0,0,3.559-2.442.825.825,0,0,1,1.191.183.923.923,0,0,1-.174,1.25Z" transform="translate(-952.626 -583.539)" fill="#00223d"/>
        <path id="Trazado_68423" data-name="Trazado 68423" d="M1011.6,560.585a.918.918,0,0,0-.171-.491c-.439-.61-.9-1.209-1.363-1.78a.824.824,0,0,0-1.2-.1.927.927,0,0,0-.095,1.259c.444.545.881,1.117,1.3,1.7a.825.825,0,0,0,1.192.173A.912.912,0,0,0,1011.6,560.585Z" transform="translate(-999.001 -558)" fill="#00223d"/>
      </g>
      <g id="Grupo_28693" data-name="Grupo 28693" transform="translate(8.692 9.46)">
        <path id="Trazado_68424" data-name="Trazado 68424" d="M730.958,540.723a.416.416,0,0,0-.5-.007l-4.309,3.139a21.977,21.977,0,0,0-7.192-1.842l-2.447-4.865a.426.426,0,0,0-.447-.236l-6.218,1.01a.441.441,0,0,0-.358.367l-.931,5.414a22.675,22.675,0,0,0-6.325,4.038l-5.012-1.626a.42.42,0,0,0-.475.165l-3.716,5.328a.47.47,0,0,0-.006.525l2.992,4.521a24.954,24.954,0,0,0-1.756,7.547l-4.636,2.568a.459.459,0,0,0-.225.469l.962,6.525a.442.442,0,0,0,.349.376l5.159.977a24.215,24.215,0,0,0,3.848,6.637l-1.55,5.259a.465.465,0,0,0,.157.5l5.077,3.9a.415.415,0,0,0,.5.006l4.309-3.139a21.974,21.974,0,0,0,7.192,1.843l2.447,4.865a.425.425,0,0,0,.447.236l6.219-1.01a.441.441,0,0,0,.358-.367l.931-5.414a22.681,22.681,0,0,0,6.325-4.038l5.012,1.626a.42.42,0,0,0,.475-.165l3.716-5.328a.471.471,0,0,0,.006-.525l-2.992-4.522a24.949,24.949,0,0,0,1.756-7.547l4.636-2.568a.459.459,0,0,0,.225-.469L744,558.37a.443.443,0,0,0-.35-.376l-5.159-.977a24.225,24.225,0,0,0-3.848-6.637l1.549-5.259a.465.465,0,0,0-.157-.5Z" transform="translate(-689.389 -536.906)" fill="#fff"/>
        <g id="Grupo_28692" data-name="Grupo 28692" transform="translate(21.351 22.404)">
          <path id="Trazado_68425" data-name="Trazado 68425" d="M827.146,669.2a6.813,6.813,0,0,1-2.3,4.572,6.192,6.192,0,0,1-4.709,1.523,6.684,6.684,0,0,1-5.808-7.359,6.54,6.54,0,0,1,7.013-6.093,6.313,6.313,0,0,1,4.357,2.417,6.9,6.9,0,0,1,1.471,3.94A7.233,7.233,0,0,1,827.146,669.2Zm-6.854,4.316a4.558,4.558,0,0,0,3.465-1.12,5.016,5.016,0,0,0,1.694-3.362h0a5.112,5.112,0,0,0-1.068-3.635,4.642,4.642,0,0,0-3.2-1.778,4.811,4.811,0,0,0-5.159,4.483,5.313,5.313,0,0,0-.014.73A4.878,4.878,0,0,0,820.292,673.516Z" transform="translate(-814.297 -661.811)" fill="#00223d"/>
        </g>
        <path id="Trazado_68426" data-name="Trazado 68426" d="M789.67,622.214q-.042-.847-.168-1.7a17.6,17.6,0,0,0-.823-3.318l-.052-.144a.851.851,0,0,0-.839-.573.812.812,0,0,0-.261.058.909.909,0,0,0-.49,1.154,15.685,15.685,0,0,1,.782,3.095h0c.009.058.017.116.025.174a15.581,15.581,0,0,1-.732,7.325,15.383,15.383,0,0,1-1.814,3.574l-.019.027-.057.083a14.152,14.152,0,0,1-9.373,5.979,13.92,13.92,0,0,1-1.467.16,13.758,13.758,0,0,1-9.19-2.886,15.072,15.072,0,0,1-5.7-9.835,15.522,15.522,0,0,1,2.6-11.183,14.153,14.153,0,0,1,9.373-5.979,13.7,13.7,0,0,1,7.583.925.81.81,0,0,0,.365.065.854.854,0,0,0,.744-.555.91.91,0,0,0-.468-1.164,15.326,15.326,0,0,0-8.484-1.036,15.832,15.832,0,0,0-10.487,6.69,17.335,17.335,0,0,0-2.907,12.511,16.856,16.856,0,0,0,6.375,11,15.389,15.389,0,0,0,10.282,3.229,15.689,15.689,0,0,0,1.641-.178C784.3,638.382,790.1,630.723,789.67,622.214Z" transform="translate(-745.954 -593.82)" fill="#00223d"/>
      </g>
    </g>
    <g id="Grupo_50615" data-name="Grupo 50615" transform="translate(69.14 130.108)">
      <g id="Grupo_50614" data-name="Grupo 50614" transform="translate(0 0)">
        <g id="Grupo_50608" data-name="Grupo 50608" transform="translate(54.454)">
          <rect id="Rectángulo_29154" data-name="Rectángulo 29154" width="198.392" height="260.139" rx="8" fill="#12263f"/>
          <rect id="Rectángulo_29155" data-name="Rectángulo 29155" width="171.52" height="209.826" transform="translate(13.436 24.585)" fill="#fffdfa"/>
          <path id="Trazado_100895" data-name="Trazado 100895" d="M255.742,144a3.533,3.533,0,1,1-3.532-3.533A3.532,3.532,0,0,1,255.742,144Z" transform="translate(-153.014 -130.731)" fill="#fff"/>
          <circle id="Elipse_4052" data-name="Elipse 4052" cx="6.639" cy="6.639" r="6.639" transform="translate(92.557 240.875)" fill="#fff"/>
          <rect id="Rectángulo_29156" data-name="Rectángulo 29156" width="171.52" height="12.813" transform="translate(13.436 24.585)" fill="#4dd0e1"/>
          <g id="Grupo_50607" data-name="Grupo 50607" transform="translate(31.785 53.254)">
            <rect id="Rectángulo_29157" data-name="Rectángulo 29157" width="55.522" height="59.827" fill="#e3e3e3"/>
            <line id="Línea_1560" data-name="Línea 1560" x2="132.494" transform="translate(0 75.168)" fill="none" stroke="#e3e3e3" stroke-miterlimit="10" stroke-width="3.151"/>
            <line id="Línea_1561" data-name="Línea 1561" x2="62.518" transform="translate(69.976 58.232)" fill="none" stroke="#e3e3e3" stroke-miterlimit="10" stroke-width="3.151"/>
            <line id="Línea_1562" data-name="Línea 1562" x2="62.518" transform="translate(69.976 43.993)" fill="none" stroke="#e3e3e3" stroke-miterlimit="10" stroke-width="3.151"/>
            <line id="Línea_1563" data-name="Línea 1563" x2="62.518" transform="translate(69.976 29.754)" fill="none" stroke="#e3e3e3" stroke-miterlimit="10" stroke-width="3.151"/>
            <line id="Línea_1564" data-name="Línea 1564" x2="62.518" transform="translate(69.976 15.515)" fill="none" stroke="#e3e3e3" stroke-miterlimit="10" stroke-width="3.151"/>
            <line id="Línea_1565" data-name="Línea 1565" x2="62.518" transform="translate(69.976 1.276)" fill="none" stroke="#e3e3e3" stroke-miterlimit="10" stroke-width="3.151"/>
            <line id="Línea_1566" data-name="Línea 1566" x2="132.494" transform="translate(0 89.821)" fill="none" stroke="#e3e3e3" stroke-miterlimit="10" stroke-width="3.151"/>
            <line id="Línea_1567" data-name="Línea 1567" x2="132.494" transform="translate(0 104.474)" fill="none" stroke="#e3e3e3" stroke-miterlimit="10" stroke-width="3.151"/>
            <line id="Línea_1568" data-name="Línea 1568" x2="132.494" transform="translate(0 119.127)" fill="none" stroke="#e3e3e3" stroke-miterlimit="10" stroke-width="3.151"/>
            <line id="Línea_1569" data-name="Línea 1569" x2="132.494" transform="translate(0 133.78)" fill="none" stroke="#e3e3e3" stroke-miterlimit="10" stroke-width="3.151"/>
            <line id="Línea_1570" data-name="Línea 1570" x2="132.494" transform="translate(0 148.433)" fill="none" stroke="#e3e3e3" stroke-miterlimit="10" stroke-width="3.151"/>
          </g>
        </g>
        <g id="Grupo_50613" data-name="Grupo 50613" transform="translate(0 185.221)">
          <g id="Grupo_50610" data-name="Grupo 50610" transform="translate(0 36.854)">
            <path id="Rectángulo_29158" data-name="Rectángulo 29158" d="M12.644,0H51.189a0,0,0,0,1,0,0V38.064a0,0,0,0,1,0,0H12.644A12.644,12.644,0,0,1,0,25.42V12.644A12.644,12.644,0,0,1,12.644,0Z" fill="#26a69a"/>
            <rect id="Rectángulo_29159" data-name="Rectángulo 29159" width="172.491" height="6.464" transform="translate(21.434)" fill="#26a69a"/>
            <rect id="Rectángulo_29160" data-name="Rectángulo 29160" width="172.491" height="6.464" transform="translate(21.434 31.6)" fill="#26a69a"/>
            <path id="Rectángulo_29161" data-name="Rectángulo 29161" d="M8.284,0H160.048a0,0,0,0,1,0,0V25.137a0,0,0,0,1,0,0H8.284A8.284,8.284,0,0,1,0,16.853V8.284A8.284,8.284,0,0,1,8.284,0Z" transform="translate(31.097 6.464)" fill="#fffdfa"/>
            <g id="Grupo_50609" data-name="Grupo 50609" transform="translate(31.339 12.336)">
              <line id="Línea_1571" data-name="Línea 1571" x2="159.807" fill="none" stroke="#e8e8e8" stroke-miterlimit="10" stroke-width="0.969"/>
              <line id="Línea_1572" data-name="Línea 1572" x2="159.807" transform="translate(0 6.464)" fill="none" stroke="#e8e8e8" stroke-miterlimit="10" stroke-width="0.969"/>
              <line id="Línea_1573" data-name="Línea 1573" x2="159.807" transform="translate(0 12.928)" fill="none" stroke="#e8e8e8" stroke-miterlimit="10" stroke-width="0.969"/>
            </g>
          </g>
          <g id="Grupo_50612" data-name="Grupo 50612" transform="translate(23.061 0)">
            <path id="Rectángulo_29162" data-name="Rectángulo 29162" d="M12.242,0h37.32a0,0,0,0,1,0,0V36.854a0,0,0,0,1,0,0H12.242A12.242,12.242,0,0,1,0,24.612V12.242A12.242,12.242,0,0,1,12.242,0Z" transform="translate(154.141 36.854) rotate(180)" fill="#1565c0"/>
            <rect id="Rectángulo_29163" data-name="Rectángulo 29163" width="133.389" height="6.258" transform="translate(133.389 6.258) rotate(180)" fill="#1565c0"/>
            <rect id="Rectángulo_29164" data-name="Rectángulo 29164" width="133.389" height="6.258" transform="translate(133.389 36.854) rotate(180)" fill="#1565c0"/>
            <path id="Rectángulo_29165" data-name="Rectángulo 29165" d="M8.02,0H121.341a0,0,0,0,1,0,0V24.338a0,0,0,0,1,0,0H8.02A8.02,8.02,0,0,1,0,16.317V8.02A8.02,8.02,0,0,1,8.02,0Z" transform="translate(124.033 30.596) rotate(180)" fill="#fffdfa"/>
            <g id="Grupo_50611" data-name="Grupo 50611" transform="translate(2.425 11.963)">
              <line id="Línea_1574" data-name="Línea 1574" x2="121.57" fill="none" stroke="#e8e8e8" stroke-miterlimit="10" stroke-width="0.969"/>
              <line id="Línea_1575" data-name="Línea 1575" x2="121.57" transform="translate(0 6.464)" fill="none" stroke="#e8e8e8" stroke-miterlimit="10" stroke-width="0.969"/>
              <line id="Línea_1576" data-name="Línea 1576" x2="121.57" transform="translate(0 12.928)" fill="none" stroke="#e8e8e8" stroke-miterlimit="10" stroke-width="0.969"/>
            </g>
          </g>
        </g>
      </g>
    </g>
    <g id="Grupo_50626" data-name="Grupo 50626" transform="translate(311.263 216.326)">
      <g id="Grupo_50616" data-name="Grupo 50616" transform="translate(28.293 29.608)">
        <path id="Trazado_100896" data-name="Trazado 100896" d="M376.669,253.341s4.506.65,7.15,10.433,4.2,26.26,14.65,34.808l-6.492,8.992-15.308-18.009Z" transform="translate(-376.669 -253.341)" fill="#fffdfa"/>
        <path id="Trazado_100897" data-name="Trazado 100897" d="M398.442,302.957s10.02,4.47,4.506,12.9l-9.992-9.082Z" transform="translate(-377.648 -256.323)" fill="#e1b89b"/>
      </g>
      <path id="Trazado_100898" data-name="Trazado 100898" d="M367.469,245.436c1.626,4.68-1.61,10.055-7.228,12.007s-11.49-.26-13.116-4.939,1.61-10.056,7.229-12.008S365.844,240.756,367.469,245.436Z" transform="translate(-346.575 -222.918)" fill="#5b7393"/>
      <g id="Grupo_50620" data-name="Grupo 50620" transform="translate(9.264 66.829)">
        <path id="Trazado_100899" data-name="Trazado 100899" d="M409.2,322.795l-24.557-25.859-1.35-3.994-8.7,1.449-5.982,19.1,24.169,16.673-24.169,20.31s3.03,16.272,3.7,16.049c.53-.177,25.689-20.183,36.382-28.644a9.884,9.884,0,0,0,3.608-9.421h0A9.89,9.89,0,0,0,409.2,322.795Z" transform="translate(-357.155 -292.942)" fill="#26a69a"/>
        <g id="Grupo_50619" data-name="Grupo 50619" transform="translate(0 1.019)">
          <g id="Grupo_50617" data-name="Grupo 50617" transform="translate(2.733 83.108)">
            <path id="Trazado_100900" data-name="Trazado 100900" d="M369.65,383.176l.4,13.564H361.79l-.561-14.291Z" transform="translate(-359.445 -382.449)" fill="#e1b89b"/>
            <path id="Trazado_100901" data-name="Trazado 100901" d="M361.662,396.3l8.241-.827,11.686,5.3a4.367,4.367,0,0,1,2.149,2.12l.434,2.256-23.278.09a1.554,1.554,0,0,1-1.484-2.037Z" transform="translate(-359.331 -383.231)" fill="#fffdfa"/>
          </g>
          <g id="Grupo_50618" data-name="Grupo 50618">
            <path id="Trazado_100902" data-name="Trazado 100902" d="M357.937,297s-2.975,12.973-.586,33.285l.329,52.877,14.016-.912,4.857-88.225Z" transform="translate(-356.423 -294.026)" fill="#26a69a"/>
            <line id="Línea_1577" data-name="Línea 1577" x1="1.101" y2="20.205" transform="translate(16.219 51.581)" fill="none" stroke="#00223d" stroke-miterlimit="10" stroke-width="0.388"/>
            <path id="Trazado_100903" data-name="Trazado 100903" d="M376.4,319.38l.252-6.4,4.23-6.068" transform="translate(-357.624 -294.801)" fill="none" stroke="#00223d" stroke-miterlimit="10" stroke-width="0.388"/>
          </g>
        </g>
      </g>
      <g id="Grupo_50624" data-name="Grupo 50624" transform="translate(0 28.546)">
        <g id="Grupo_50621" data-name="Grupo 50621" transform="translate(10.778)">
          <path id="Trazado_100904" data-name="Trazado 100904" d="M364.544,252.285l7.364-.074a6.571,6.571,0,0,1,6.574,5.632c1.533,10.641,4.171,32.651,4.171,32.651l-24.62,3.994V258.861A6.577,6.577,0,0,1,364.544,252.285Z" transform="translate(-358.034 -252.211)" fill="#fffdfa"/>
          <line id="Línea_1578" data-name="Línea 1578" x1="3.117" y1="21.848" transform="translate(21.503 16.435)" fill="none" stroke="#00223d" stroke-miterlimit="10" stroke-width="0.388"/>
        </g>
        <g id="Grupo_50623" data-name="Grupo 50623" transform="translate(0 0.062)">
          <circle id="Elipse_4053" data-name="Elipse 4053" cx="6.064" cy="6.064" r="6.064" transform="translate(0 58.57)" fill="#e1b89b"/>
          <g id="Grupo_50622" data-name="Grupo 50622" transform="translate(2.042)">
            <path id="Trazado_100905" data-name="Trazado 100905" d="M363.985,252.289s-11.055-.665-13.3,7.749-1.932,52.193-1.932,52.193l7.712.686,4.036-49.935Z" transform="translate(-348.739 -252.277)" fill="#fffdfa"/>
            <line id="Línea_1579" data-name="Línea 1579" y1="23.798" x2="1.923" transform="translate(9.232 18.22)" fill="none" stroke="#00223d" stroke-miterlimit="10" stroke-width="0.388"/>
          </g>
        </g>
      </g>
      <g id="Grupo_50625" data-name="Grupo 50625" transform="translate(6.971 0)">
        <path id="Trazado_100906" data-name="Trazado 100906" d="M368.354,256.247h0a3.983,3.983,0,0,1-3.983-3.983v-7.44h7.966v7.44A3.983,3.983,0,0,1,368.354,256.247Z" transform="translate(-354.607 -223.221)" fill="#e1b89b"/>
        <path id="Trazado_100907" data-name="Trazado 100907" d="M372.338,250.535l-7.967-5.712h7.967Z" transform="translate(-354.607 -223.221)" fill="#3f1311"/>
        <circle id="Elipse_4054" data-name="Elipse 4054" cx="10.115" cy="10.115" r="10.115" transform="translate(0 14.305) rotate(-45)" fill="#e1b89b"/>
        <path id="Trazado_100908" data-name="Trazado 100908" d="M378.35,236.755l2.278,3a.481.481,0,0,1-.336.77l-2.451.235Z" transform="translate(-355.417 -222.736)" fill="#e1b89b"/>
        <path id="Trazado_100909" data-name="Trazado 100909" d="M360.288,238.106s12.386,1.545,13.668-9.39c0,0-1.794-4.121-9.055-2.445s-6.863,11.142-6.863,11.142Z" transform="translate(-354.226 -222.082)" fill="#5b7393"/>
        <path id="Trazado_100910" data-name="Trazado 100910" d="M373.771,228.85s2.137.238,4.324,3.175c0,0-1.93-8.037-12.755-5.754l2.307,3.9Z" transform="translate(-354.665 -222.081)" fill="#5b7393"/>
        <path id="Trazado_100911" data-name="Trazado 100911" d="M362.618,238.687a3.145,3.145,0,1,1-3.145-3.145A3.145,3.145,0,0,1,362.618,238.687Z" transform="translate(-354.124 -222.663)" fill="#e1b89b"/>
      </g>
    </g>
    <g id="Grupo_50638" data-name="Grupo 50638" transform="translate(43.84 262.107)">
      <g id="Grupo_50627" data-name="Grupo 50627" transform="translate(60.396 0)">
        <path id="Trazado_100912" data-name="Trazado 100912" d="M145.387,304.095h0a3.981,3.981,0,0,0,3.105-4.7l-1.485-7.288-7.8,1.591,1.486,7.287A3.981,3.981,0,0,0,145.387,304.095Z" transform="translate(-127.076 -271.843)" fill="#e1b89b"/>
        <path id="Trazado_100913" data-name="Trazado 100913" d="M140.345,299.3l6.662-7.185-7.8,1.591Z" transform="translate(-127.076 -271.844)" fill="#3f1311"/>
        <circle id="Elipse_4055" data-name="Elipse 4055" cx="10.111" cy="10.111" r="10.111" transform="translate(0 16.803) rotate(-56.199)" fill="#e1b89b"/>
        <path id="Trazado_100914" data-name="Trazado 100914" d="M132.064,287.007l-1.632,3.4a.481.481,0,0,0,.484.686l2.447-.258Z" transform="translate(-126.546 -271.537)" fill="#e1b89b"/>
        <path id="Trazado_100915" data-name="Trazado 100915" d="M142.133,274.158a13.619,13.619,0,0,0-2.8.181c-8.308,1.2-8.545,8-8.545,8a8.186,8.186,0,0,1,3.064-3.709c11.926-1.98,12.825,6.689,12.779,6.681l4.448-1.612S153.991,274.628,142.133,274.158Z" transform="translate(-126.57 -270.764)" fill="#5b7393"/>
        <path id="Trazado_100916" data-name="Trazado 100916" d="M147.64,285.786a3.143,3.143,0,1,0,2.452-3.708A3.144,3.144,0,0,0,147.64,285.786Z" transform="translate(-127.579 -271.237)" fill="#e1b89b"/>
        <path id="Trazado_100917" data-name="Trazado 100917" d="M143.45,280.191c-.228-.146-1.507-1.171-3.925.254s-10.884,5.77-11.84.166,6.06-9.04,10.7-5.762,7.085,3.54,7.085,3.54Z" transform="translate(-126.378 -270.729)" fill="#5b7393"/>
      </g>
      <g id="Grupo_50632" data-name="Grupo 50632" transform="translate(0 66.494)">
        <g id="Grupo_50629" data-name="Grupo 50629" transform="translate(29.439 6.923)">
          <g id="Grupo_50628" data-name="Grupo 50628" transform="translate(1.153 26.611)">
            <path id="Trazado_100918" data-name="Trazado 100918" d="M103.117,380.139l3.6,13.078,7.891-2.423-3.657-13.82Z" transform="translate(-95.102 -376.973)" fill="#e1b89b"/>
            <path id="Trazado_100919" data-name="Trazado 100919" d="M113.749,390.427l-8.118,1.628-9.609,8.5a4.372,4.372,0,0,0-1.431,2.657l.247,2.282,22.27-6.743a1.554,1.554,0,0,0,.821-2.383Z" transform="translate(-94.59 -377.782)" fill="#5b7393"/>
          </g>
          <path id="Trazado_100920" data-name="Trazado 100920" d="M107.665,348.66l8.644,34.1L100.9,386.679,93.363,351.91Z" transform="translate(-93.363 -348.66)" fill="#12263f"/>
        </g>
        <g id="Grupo_50631" data-name="Grupo 50631">
          <g id="Grupo_50630" data-name="Grupo 50630" transform="translate(0 41.665)">
            <path id="Trazado_100921" data-name="Trazado 100921" d="M82.681,385.623l-3.91,12.988,7.971,2.146L91,387.11Z" transform="translate(-63.047 -385.623)" fill="#e1b89b"/>
            <path id="Trazado_100922" data-name="Trazado 100922" d="M86.069,400.283l-7.739-2.94-12.658,2.081a4.37,4.37,0,0,0-2.625,1.489l-1,2.064,22.445,6.138a1.554,1.554,0,0,0,1.962-1.58Z" transform="translate(-62.042 -386.327)" fill="#5b7393"/>
          </g>
          <path id="Trazado_100923" data-name="Trazado 100923" d="M128.4,343.024l-31.705-.738a11.637,11.637,0,0,0-8.575,8.494L77.95,387.668l13.769,4.551,11.059-32.176,33.483,5.577a16.182,16.182,0,0,0,8.52-.751,12.475,12.475,0,0,0,6.962-6.253c1.96-4.078,2.261-11.2-3.121-17.322Z" transform="translate(-62.998 -341.294)" fill="#12263f"/>
        </g>
      </g>
      <g id="Grupo_50637" data-name="Grupo 50637" transform="translate(14.528 27.072)">
        <g id="Grupo_50633" data-name="Grupo 50633" transform="translate(9.727 5.378)">
          <path id="Trazado_100924" data-name="Trazado 100924" d="M99.768,319.389a6.062,6.062,0,1,1-4.29-7.422A6.062,6.062,0,0,1,99.768,319.389Z" transform="translate(-87.849 -305.474)" fill="#e1b89b"/>
          <path id="Trazado_100925" data-name="Trazado 100925" d="M123.041,322.1l11.993-16.084s3.683-2.558,10.652.748-8.133,18.01-8.133,18.01l-11.575,10.656a6.077,6.077,0,0,1-6.127,1.131c-6.419-2.275-20.2-9.472-23.332-12.349l4.314-8.3Z" transform="translate(-88.37 -305.073)" fill="#5b7393"/>
        </g>
        <g id="Grupo_50634" data-name="Grupo 50634" transform="translate(0 5.715)">
          <path id="Trazado_100926" data-name="Trazado 100926" d="M89.093,305.856l1.854,10.671L77.5,312.257Z" transform="translate(-77.499 -305.457)" fill="#fafafc"/>
          <path id="Trazado_100927" data-name="Trazado 100927" d="M94.923,310.585l-14.95,1.046,9.12-5.8-1.3-.4L77.5,311.713l4.082,24.121L99.19,336Z" transform="translate(-77.499 -305.431)" fill="#167377"/>
        </g>
        <g id="Grupo_50636" data-name="Grupo 50636" transform="translate(12.897)">
          <path id="Trazado_100928" data-name="Trazado 100928" d="M131.624,340.5l5.52-34.831c.143-1.446,1.6-3.27,4.592-4.287l6.56-2.035c2.183,0,4.14,2.436,4.725,4.54,1.545,5.561,4.007,18.883,3.44,40.273Z" transform="translate(-93.649 -299.351)" fill="#5b7393"/>
          <g id="Grupo_50635" data-name="Grupo 50635" transform="translate(0 3.447)">
            <path id="Trazado_100929" data-name="Trazado 100929" d="M103.345,328.07a6.062,6.062,0,1,1-6.062-6.062A6.062,6.062,0,0,1,103.345,328.07Z" transform="translate(-91.221 -304.159)" fill="#e1b89b"/>
            <path id="Trazado_100930" data-name="Trazado 100930" d="M124.532,325.9l11.1-20.94s1.451-2.964,9.037-1.572-3.2,19.5-3.2,19.5l-8.428,13.285a6.075,6.075,0,0,1-5.626,2.675c-6.79-.539-21.966-3.93-25.732-5.9l2.024-9.131Z" transform="translate(-91.85 -303.018)" fill="#5b7393"/>
            <path id="Trazado_100931" data-name="Trazado 100931" d="M132.007,339.585a4.489,4.489,0,0,0,2.855-2.279c1.324-2.089,9.39-15.481,9.39-15.481" transform="translate(-93.672 -304.148)" fill="none" stroke="#00223d" stroke-miterlimit="10" stroke-width="0.388"/>
          </g>
        </g>
      </g>
    </g>
    <g id="Grupo_50654" data-name="Grupo 50654" transform="translate(184.208 232.234)">
      <g id="Grupo_50643" data-name="Grupo 50643" transform="translate(4.67 65.508)">
        <g id="Grupo_50640" data-name="Grupo 50640" transform="translate(6.836 13.334)">
          <g id="Grupo_50639" data-name="Grupo 50639" transform="translate(0 35.506)">
            <path id="Trazado_100932" data-name="Trazado 100932" d="M241.5,364.556l-5.222,12.525-7.526-3.4,5.373-13.254Z" transform="translate(-223.935 -360.426)" fill="#e1b89b"/>
            <path id="Trazado_100933" data-name="Trazado 100933" d="M228.931,373.334l7.851,2.639,8.466,9.644a4.37,4.37,0,0,1,1.085,2.817l-.533,2.234-21.251-9.5a1.555,1.555,0,0,1-.514-2.467Z" transform="translate(-223.627 -361.202)" fill="#393e39"/>
          </g>
          <path id="Trazado_100934" data-name="Trazado 100934" d="M252.131,346.55l-9.74,24.664-14.162-6.507,13.805-42.059,10.809,4.262Z" transform="translate(-223.904 -322.649)" fill="#dee7f3"/>
        </g>
        <g id="Grupo_50642" data-name="Grupo 50642">
          <g id="Grupo_50641" data-name="Grupo 50641" transform="translate(41.521 57.664)">
            <path id="Trazado_100935" data-name="Trazado 100935" d="M268.979,369.814l1.992,13.423-8.2.972-2.239-14.125Z" transform="translate(-260.53 -369.814)" fill="#e1b89b"/>
            <path id="Trazado_100936" data-name="Trazado 100936" d="M262.651,383.721l8.087-1.791,12.228,3.891a4.367,4.367,0,0,1,2.383,1.854l.7,2.188-23.105,2.83a1.556,1.556,0,0,1-1.714-1.849Z" transform="translate(-260.57 -370.542)" fill="#393e39"/>
          </g>
          <path id="Trazado_100937" data-name="Trazado 100937" d="M216.428,308.462s-1.117,13.286,5.346,16.294c6.013,2.8,27.584,3.573,27.584,3.573l6.127,45.151,14.787-2.426-3.988-52.424a4.417,4.417,0,0,0-3.756-3.61Z" transform="translate(-216.355 -308.462)" fill="#dee7f3"/>
        </g>
      </g>
      <g id="Grupo_50651" data-name="Grupo 50651" transform="translate(0 26.076)">
        <g id="Grupo_50649" data-name="Grupo 50649">
          <g id="Grupo_50645" data-name="Grupo 50645" transform="translate(4.743)">
            <g id="Grupo_50644" data-name="Grupo 50644" transform="translate(16.473 2.984)">
              <path id="Trazado_100938" data-name="Trazado 100938" d="M268.742,308.7l1.815-8.167L249.111,298.3l-5.4-23.968c-.45-2.178-3.89-4.881-6.266-4.467l.685-.178c-2.376.413-4.559,2.944-4.107,5.122l4.355,28.673a4.188,4.188,0,0,0,3.266,3.152Z" transform="translate(-233.96 -269.683)" fill="#f79924"/>
            </g>
            <path id="Trazado_100939" data-name="Trazado 100939" d="M242.826,275.738a8.852,8.852,0,0,0-4.774-7.285c-2.138-1.094-4.658-2.072-6.637-1.931-4.28.307-9.454.462-13.378,1.812l-1.605,37.606,27.758.657Z" transform="translate(-216.433 -266.508)" fill="#ffa726"/>
          </g>
          <g id="Grupo_50648" data-name="Grupo 50648" transform="translate(0 0.707)">
            <g id="Grupo_50646" data-name="Grupo 50646" transform="translate(25.194 34.661)">
              <path id="Trazado_100940" data-name="Trazado 100940" d="M245.684,309.389c-.213,3.105,1.861,3.714,4.966,3.929s6.066-.052,6.279-3.157a5.636,5.636,0,0,0-11.246-.772Z" transform="translate(-238.641 -304.139)" fill="#ffa739"/>
              <path id="Trazado_100941" data-name="Trazado 100941" d="M241.074,312.427l6.5.446a3.1,3.1,0,0,0,3.3-2.875h0A3.1,3.1,0,0,0,248,306.7l-6.5-.445a3.1,3.1,0,0,0-3.3,2.875h0A3.1,3.1,0,0,0,241.074,312.427Z" transform="translate(-238.191 -304.265)" fill="#ffa739"/>
            </g>
            <g id="Grupo_50647" data-name="Grupo 50647">
              <path id="Trazado_100942" data-name="Trazado 100942" d="M222.808,267.261s-11.031.388-11.351,9.9A243.98,243.98,0,0,0,212.3,303.6a5.854,5.854,0,0,0,3.777,4.844c6.915,2.583,27.842,2.381,27.842,2.381l.963-9.026L224.1,297.447Z" transform="translate(-211.386 -267.261)" fill="#ffa739"/>
              <path id="Trazado_100943" data-name="Trazado 100943" d="M244.457,302.427l-19.564-4.1-.279-16.367" transform="translate(-212.181 -268.145)" fill="#ffa739" stroke="#00223d" stroke-miterlimit="10" stroke-width="0.388"/>
            </g>
          </g>
        </g>
        <g id="Grupo_50650" data-name="Grupo 50650" transform="translate(19.377 18.789)">
          <path id="Trazado_100944" data-name="Trazado 100944" d="M286.447,287.714,259.755,286.5a1.862,1.862,0,0,0-1.886,1.389l-6.1,23.351a1.862,1.862,0,0,0,1.717,2.33l27.136,1.234a1.861,1.861,0,0,0,1.894-1.422l5.654-23.37A1.862,1.862,0,0,0,286.447,287.714Z" transform="translate(-233.187 -286.499)" fill="#14191e"/>
          <path id="Trazado_100945" data-name="Trazado 100945" d="M288.082,287.789l-26.692-1.214a1.862,1.862,0,0,0-1.885,1.389l-6.1,23.351a1.862,1.862,0,0,0,1.716,2.33l27.136,1.234a1.862,1.862,0,0,0,1.894-1.422l5.654-23.371A1.862,1.862,0,0,0,288.082,287.789Z" transform="translate(-233.286 -286.503)" fill="#252d37"/>
          <path id="Trazado_100946" data-name="Trazado 100946" d="M251.3,313.054l-18.239-.83a1.008,1.008,0,0,0-1.053.961h0a1.008,1.008,0,0,0,.961,1.053l19.33.949Z" transform="translate(-232.003 -288.045)" fill="#14191e"/>
          <path id="Trazado_100947" data-name="Trazado 100947" d="M272.088,300.756a2.912,2.912,0,1,0,3.041-2.777A2.913,2.913,0,0,0,272.088,300.756Z" transform="translate(-234.412 -287.189)" fill="#fff"/>
        </g>
      </g>
      <g id="Grupo_50653" data-name="Grupo 50653" transform="translate(8.31 0)">
        <g id="Grupo_50652" data-name="Grupo 50652" transform="translate(0)">
          <path id="Trazado_100948" data-name="Trazado 100948" d="M230.96,270.865h0a3.983,3.983,0,0,1-3.376-4.51l1.06-7.365,7.886,1.135-1.06,7.364A3.982,3.982,0,0,1,230.96,270.865Z" transform="translate(-220.668 -239.98)" fill="#e1b89b"/>
          <path id="Trazado_100949" data-name="Trazado 100949" d="M235.864,265.647l-7.324-6.776,8.046,1.007Z" transform="translate(-220.728 -239.973)" fill="#3f1311"/>
          <path id="Trazado_100950" data-name="Trazado 100950" d="M243.968,252.787a10.115,10.115,0,1,1-8.571-11.452A10.116,10.116,0,0,1,243.968,252.787Z" transform="translate(-220.445 -238.913)" fill="#e1b89b"/>
          <path id="Trazado_100951" data-name="Trazado 100951" d="M243.664,253l1.827,3.3a.48.48,0,0,1-.443.713l-2.46-.116Z" transform="translate(-221.572 -239.621)" fill="#e1b89b"/>
          <path id="Trazado_100952" data-name="Trazado 100952" d="M231.976,238.829a13.632,13.632,0,0,1,2.807.018c8.368.718,7.565,6.794,7.565,6.794-1.192-2.2-1.336-.6-2.072-.986-12.076-5.89-12.42,7.428-12.374,7.417l-4.652-.431S220.16,239.988,231.976,238.829Z" transform="translate(-220.388 -238.765)" fill="#12263f"/>
          <circle id="Elipse_4056" data-name="Elipse 4056" cx="3.145" cy="3.145" r="3.145" transform="translate(0 12.22) rotate(-36.739)" fill="#e1b89b"/>
        </g>
        <path id="Trazado_100953" data-name="Trazado 100953" d="M231.841,243.74s2-1.8,4.665.584,6.61,3.191,7.122,1.476-2.189-5.464-5.247-6.186-6.245,1.776-6.245,1.776Z" transform="translate(-220.926 -238.808)" fill="#12263f"/>
      </g>
    </g>
  </g>
</svg>
