<svg xmlns="http://www.w3.org/2000/svg" xmlns:xlink="http://www.w3.org/1999/xlink" width="459.957" height="273.718" viewBox="0 0 459.957 273.718">
  <defs>
    <clipPath id="clip-path">
      <path id="Trazado_26183" data-name="Trazado 26183" d="M472.759,180.072l-15.39.054a4.522,4.522,0,0,1-.567,5.465,3.52,3.52,0,0,1-3.69.852c-1.555-.772-2.335-3.541-.859-6.3-.268-.009-.658-.021-1.128-.034a36.253,36.253,0,0,0-5.861.058,6.339,6.339,0,0,0-3.726,1.559,5.276,5.276,0,0,0-1.3,2.166,5.359,5.359,0,0,0-.232,1.571c-.008,1.5.058,16.489.06,16.864a3.75,3.75,0,0,0-3.678,1.288,3.5,3.5,0,0,0,3.7,5.63s.113,32.109.116,32.915l32.553-.115Z" transform="translate(-435.557 -180.037)" fill="none"/>
    </clipPath>
    <clipPath id="clip-path-2">
      <path id="Trazado_26197" data-name="Trazado 26197" d="M431.955,162l9.171.609a3.866,3.866,0,0,0,1.383,4.3,3.527,3.527,0,0,0,3.654.252,3.654,3.654,0,0,0,1.662-4.109l5.6.372a23.424,23.424,0,0,0,.953-5.475,26.538,26.538,0,1,0-43.315,18.75l-.715,10.773-.8,12.117a10.412,10.412,0,0,0,.071,2.092,10.284,10.284,0,0,0,.567,2.226,10.4,10.4,0,0,0,7.734,6.57,7.7,7.7,0,0,0,5.245,3.642c.4-7.17,1.2-22.319,1.213-22.724a3.145,3.145,0,0,1-3.406-1.135,3.106,3.106,0,0,1,.47-4.077,3.165,3.165,0,0,1,3.53-.389c.025-.449.908-13.01,1.324-18.84C428.4,163.3,430.417,161.9,431.955,162Z" transform="translate(-401.364 -129.655)" fill="none"/>
    </clipPath>
    <linearGradient id="linear-gradient" x1="0.5" x2="0.5" y2="1" gradientUnits="objectBoundingBox">
      <stop offset="0" stop-color="#4dd0e1"/>
      <stop offset="1" stop-color="#039be5"/>
    </linearGradient>
    <clipPath id="clip-path-3">
      <rect id="Rectángulo_4014" data-name="Rectángulo 4014" width="131.501" height="70.613" rx="1" fill="#1565c0"/>
    </clipPath>
    <linearGradient id="linear-gradient-2" x1="0.5" x2="0.5" y2="1" gradientUnits="objectBoundingBox">
      <stop offset="0" stop-color="#fff"/>
      <stop offset="1" stop-color="#d2e6ee"/>
    </linearGradient>
    <clipPath id="clip-path-4">
      <path id="Trazado_26215" data-name="Trazado 26215" d="M325.975,200.584c.573.727,2.836,1.995,3.413,3.5s-1.36,1.9-1.36,1.9c.285,2.378.587,5.235-.893,7.29-1.094,1.518-3.163,2.814-4.942,1.618.479,1.545,1.057,3.189,1.757,4.906a60.51,60.51,0,0,0,3.03,6.348,26.043,26.043,0,0,1-2.886.52,26.334,26.334,0,0,1-7.132-.109c-3.467-2.054-4.231-3.8-4.263-5.031-.054-2.049,1.905-2.948,2.455-5.438.571-2.586-.774-5.088-2-6.8a2.125,2.125,0,0,1-2.178.02c-.847-.658-1.675-2.194-.892-3.12a2.239,2.239,0,0,1,2.654-.628c.759-1.211,2.416-3.153,1.581-6.433,2.461-.5,8.849-3.481,9.979-6.162C324.4,193.384,325.4,199.856,325.975,200.584Z" transform="translate(-309.766 -192.958)" fill="#d08b73"/>
    </clipPath>
    <clipPath id="clip-path-5">
      <path id="Trazado_26225" data-name="Trazado 26225" d="M319.819,231.457a30.078,30.078,0,0,1,10.087,12.616q.058-7.481.115-14.963l-3.742-5.438,1.81-6.092,5.686.913,2.885,4.874q-.666,3-1.331,5.994c.351,3.461.826,8.332,1.34,14.241.446,5.113.827,10.078-1.511,11.624a6.931,6.931,0,0,1-3.092,1.018,7.079,7.079,0,0,1-2.52-.416c-2.124-.78-9.1-7.134-17.817-16.48Z" transform="translate(-311.73 -217.579)" fill="#d08b73"/>
    </clipPath>
    <clipPath id="clip-path-6">
      <path id="Trazado_26234" data-name="Trazado 26234" d="M209.5,245.513l-5.368,9.909,8.832,7.192a11.127,11.127,0,0,1-.583-5.318,11.5,11.5,0,0,1,3.726-6.88Z" transform="translate(-204.136 -245.513)" fill="#d08b73"/>
    </clipPath>
    <clipPath id="clip-path-7">
      <path id="Trazado_26238" data-name="Trazado 26238" d="M209.058,263.2c-.761-1.126-1.586-2.283-2.483-3.459-1.536-2.017-3.078-3.828-4.573-5.445-6.463.267-9.745,2.542-11.417,4.17-3.525,3.432-4.422,8.291-4.147,27.911.1,7.326.253,13.4.375,17.663a16.717,16.717,0,0,0,25.224-1.315c-.222-5.6-.5-10.146-.718-13.238-.48-6.936-.658-10.906-1.157-16.208C209.766,269.048,209.356,265.567,209.058,263.2Z" transform="translate(-186.392 -254.291)" fill="#00223d"/>
    </clipPath>
    <linearGradient id="linear-gradient-3" x1="0.5" x2="0.5" y2="1" gradientUnits="objectBoundingBox">
      <stop offset="0" stop-color="#fff"/>
      <stop offset="1" stop-color="#d3d3d3"/>
    </linearGradient>
    <radialGradient id="radial-gradient" cx="0.076" cy="0.019" r="1.465" gradientTransform="translate(0.001)" gradientUnits="objectBoundingBox">
      <stop offset="0" stop-color="#f6f6f7"/>
      <stop offset="0.477" stop-color="#f9f9fa"/>
      <stop offset="0.715" stop-color="#fff"/>
    </radialGradient>
    <clipPath id="clip-path-8">
      <path id="Trazado_26257" data-name="Trazado 26257" d="M498.429,295.382s.023,26.419.971,31.125,13.339,28.541,13.339,28.541l2.415,3.493,5.981-3.493a113.736,113.736,0,0,0-3.789-16.6c-2.444-7.319-6.2-10.491-5.588-13.333s1.765-14.269.982-21.6-2.651-15.827-2.651-15.827l-12.6.239Z" transform="translate(-497.492 -287.689)" fill="#12263f"/>
    </clipPath>
    <clipPath id="clip-path-9">
      <path id="Trazado_26265" data-name="Trazado 26265" d="M507.171,218.45c-.262.7-.633,1.773-.787,2.034s-2.44,1.722-2.81,2.351,1.1,1.1,1.1,1.1c-.04-.017-.9,3.07-.92,3.377a4.239,4.239,0,0,0,2.046,3.541,4.355,4.355,0,0,0,4.423,0c-.344,1.255-.708,2.5-1.069,3.755l6.191,2.249s.281-4.479.914-5.956,2.044-5.322,2.044-5.322a1.6,1.6,0,0,0,1.273-.405c.67-.542,1.012-2.3-.075-2.713a1.493,1.493,0,0,0-1.993.748c-.806-.107-1.488-2.03-1.745-2.639-.807-1.914-.322-3.777.072-5.716-.042.209-1.229.617-1.425.776a5.012,5.012,0,0,0-1.31,2.377,12.685,12.685,0,0,0-.325,1.33c-.186.951.052,1.472-1.12,1.116A23.7,23.7,0,0,1,507.171,218.45Z" transform="translate(-503.514 -214.86)" fill="#d08b73"/>
    </clipPath>
  </defs>
  <g id="img11" transform="translate(-80.594 -65.234)">
    <g id="BACKGROUND" transform="translate(80.594 65.235)">
      <g id="Grupo_15917" data-name="Grupo 15917" transform="translate(0)" opacity="0.2">
        <circle id="Elipse_1058" data-name="Elipse 1058" cx="12.193" cy="12.193" r="12.193" transform="translate(402.506 152.1) rotate(-72.134)" fill="#00223d"/>
        <circle id="Elipse_1059" data-name="Elipse 1059" cx="12.193" cy="12.193" r="12.193" transform="translate(430.648 92.216) rotate(-13.194)" fill="#00223d"/>
        <circle id="Elipse_1060" data-name="Elipse 1060" cx="4.648" cy="4.648" r="4.648" transform="translate(405.914 115.201)" fill="#00223d"/>
        <circle id="Elipse_1061" data-name="Elipse 1061" cx="10.817" cy="10.817" r="10.817" transform="translate(191.639 13.536)" fill="#eef9f9"/>
        <circle id="Elipse_1062" data-name="Elipse 1062" cx="6.81" cy="6.81" r="6.81" transform="matrix(0.722, -0.692, 0.692, 0.722, 159.087, 13.332)" fill="#eef2f5"/>
        <circle id="Elipse_1063" data-name="Elipse 1063" cx="6.81" cy="6.81" r="6.81" transform="translate(238.634)" fill="#eef2f5"/>
        <circle id="Elipse_1064" data-name="Elipse 1064" cx="21.035" cy="21.035" r="21.035" transform="translate(0 148.415) rotate(-9.217)" fill="#b0c0d2"/>
        <circle id="Elipse_1065" data-name="Elipse 1065" cx="21.035" cy="21.035" r="21.035" transform="translate(9.995 29.761)" fill="#aee6e6"/>
        <circle id="Elipse_1066" data-name="Elipse 1066" cx="6.004" cy="6.004" r="6.004" transform="translate(48.442 123.013)" fill="#fcf3f1"/>
      </g>
      <circle id="Elipse_1067" data-name="Elipse 1067" cx="6.35" cy="6.35" r="6.35" transform="translate(31.03 201.188)" fill="#fcf3f1" opacity="0.2"/>
    </g>
    <g id="OBJECTS" transform="translate(110.927 100.708)">
      <g id="Grupo_15980" data-name="Grupo 15980" transform="translate(0)">
        <g id="Grupo_15935" data-name="Grupo 15935" transform="translate(156.924)">
          <rect id="Rectángulo_4007" data-name="Rectángulo 4007" width="188.814" height="135.811" rx="3" fill="#12263f"/>
          <rect id="Rectángulo_4008" data-name="Rectángulo 4008" width="180.168" height="129.851" rx="3" transform="translate(4.323 2.98)" fill="#fefefe"/>
          <g id="Grupo_15927" data-name="Grupo 15927" transform="translate(92.632 55.048)">
            <g id="Grupo_15926" data-name="Grupo 15926" clip-path="url(#clip-path)">
              <g id="Grupo_15925" data-name="Grupo 15925" transform="translate(-32.228 -42.909)">
                <path id="Trazado_26169" data-name="Trazado 26169" d="M441.19,244.91H439.7a6.964,6.964,0,0,1-6.992-6.938v-.8h15.446v.717A7,7,0,0,1,441.19,244.91Z" transform="translate(-402.727 -149.211)" fill="#12263f"/>
                <circle id="Elipse_1068" data-name="Elipse 1068" cx="26.538" cy="26.538" r="26.538" transform="translate(0 37.53) rotate(-45)" fill="#f5ca56"/>
                <path id="Trazado_26170" data-name="Trazado 26170" d="M453.76,216.241H422.88V186.29h30.774Z" transform="translate(-400.647 -138.45)" fill="#f5ca56"/>
                <g id="Grupo_15923" data-name="Grupo 15923" transform="translate(30.884 34.922)">
                  <path id="Trazado_26171" data-name="Trazado 26171" d="M434.893,205.617h-.872V173.243h.758Z" transform="translate(-433.888 -170.612)" fill="#282e5b"/>
                  <path id="Trazado_26172" data-name="Trazado 26172" d="M450.6,205.416h-.872V172.5h.756Z" transform="translate(-437.209 -170.455)" fill="#282e5b"/>
                  <path id="Trazado_26173" data-name="Trazado 26173" d="M438.268,173.98h-.028c-.618-.017-.887-.672-1.146-1.3-.243-.591-.517-1.261-.989-1.368a1.2,1.2,0,0,0-1.038.39,1.42,1.42,0,0,0-.329,1.142l-.86.142a2.289,2.289,0,0,1,.557-1.885,2.062,2.062,0,0,1,1.864-.64c.913.208,1.295,1.139,1.6,1.888a2.658,2.658,0,0,0,.4.772,4.886,4.886,0,0,0,.58-1.059c.371-.8.755-1.624,1.483-1.627h0c.7,0,1.053.752,1.4,1.48.148.313.424.895.579.949a3.692,3.692,0,0,0,.446-.884c.341-.813.765-1.824,1.735-2.031a2.3,2.3,0,0,1,2.3,1.087,2.358,2.358,0,0,1,.3,1.52l-.864-.114a1.494,1.494,0,0,0-.181-.952,1.453,1.453,0,0,0-1.374-.688c-.524.113-.837.858-1.113,1.516-.3.724-.59,1.407-1.249,1.418h-.01c-.673,0-1.022-.734-1.359-1.446-.145-.306-.447-.942-.61-.982-.17,0-.55.816-.692,1.123C439.315,173.189,438.948,173.978,438.268,173.98Z" transform="translate(-433.852 -169.907)" fill="#282e5b"/>
                </g>
                <g id="Grupo_15924" data-name="Grupo 15924" transform="translate(22.205 69.905)">
                  <path id="Trazado_26174" data-name="Trazado 26174" d="M453.765,228.658l-30.881-4.425v2.159l30.626,4.387A10.434,10.434,0,0,0,453.765,228.658Z" transform="translate(-422.853 -216.38)" fill="#bec6c4"/>
                  <path id="Trazado_26175" data-name="Trazado 26175" d="M453.761,223.285l-30.9-4.427v2.159l30.9,4.427Z" transform="translate(-422.849 -215.243)" fill="#bec6c4"/>
                  <path id="Trazado_26176" data-name="Trazado 26176" d="M453.725,214.273h-30.88v1.536l30.88,4.427Z" transform="translate(-422.844 -214.273)" fill="#bec6c4"/>
                  <path id="Trazado_26177" data-name="Trazado 26177" d="M452.848,233.9l-29.95-4.291v.107a10.5,10.5,0,0,0,.217,2.082l28.549,4.091A10.4,10.4,0,0,0,452.848,233.9Z" transform="translate(-422.856 -217.516)" fill="#bec6c4"/>
                  <path id="Trazado_26178" data-name="Trazado 26178" d="M424.088,235.15a10.377,10.377,0,0,0,9.5,6.081h10.049a10.4,10.4,0,0,0,6.525-2.346Z" transform="translate(-423.107 -218.689)" fill="#bec6c4"/>
                  <path id="Trazado_26179" data-name="Trazado 26179" d="M453.725,220.648l-30.88-4.427.016,2.079,30.9,4.427Z" transform="translate(-422.844 -214.685)" fill="#eeeff0"/>
                  <path id="Trazado_26180" data-name="Trazado 26180" d="M453.761,227.877v-1.855l-30.9-4.427.015,2.079,30.881,4.425C453.762,228.025,453.762,227.953,453.761,227.877Z" transform="translate(-422.849 -215.822)" fill="#eeeff0"/>
                  <path id="Trazado_26181" data-name="Trazado 26181" d="M453.51,231.358l-30.626-4.387.011,2.078,29.95,4.291A10.363,10.363,0,0,0,453.51,231.358Z" transform="translate(-422.853 -216.959)" fill="#eeeff0"/>
                  <path id="Trazado_26182" data-name="Trazado 26182" d="M451.722,236.474l-28.549-4.091a10.3,10.3,0,0,0,.722,2.182l26.071,3.735A10.469,10.469,0,0,0,451.722,236.474Z" transform="translate(-422.914 -218.103)" fill="#eeeff0"/>
                </g>
              </g>
            </g>
          </g>
          <g id="Grupo_15930" data-name="Grupo 15930" transform="translate(65.671 15.322)">
            <g id="Grupo_15929" data-name="Grupo 15929" clip-path="url(#clip-path-2)">
              <g id="Grupo_15928" data-name="Grupo 15928" transform="translate(0 0.001)">
                <path id="Trazado_26184" data-name="Trazado 26184" d="M423.675,232.337a10.568,10.568,0,0,1-1.315-.177,7.718,7.718,0,0,0,12.692.836,10.553,10.553,0,0,1-1.35.007Z" transform="translate(-405.805 -151.335)" fill="#12263f"/>
                <path id="Trazado_26185" data-name="Trazado 26185" d="M454.382,157.953a26.538,26.538,0,1,0-43.315,18.75l-.715,10.773,8.793.584,2.118-31.908a2.262,2.262,0,0,1,.689-1.794,2.061,2.061,0,0,1,1.9-.509c.9.27,1.213,1.227,1.466,1.995a2.649,2.649,0,0,0,.344.8,4.943,4.943,0,0,0,.651-1.016c.426-.77.867-1.568,1.593-1.519h0c.7.047,1,.823,1.293,1.574.125.322.36.922.512.987a3.709,3.709,0,0,0,.506-.851c.4-.787.89-1.766,1.873-1.906a2.3,2.3,0,0,1,2.219,1.244,2.326,2.326,0,0,1,.2,1.482l-2.145,32.3,8.793.584.715-10.773A26.5,26.5,0,0,0,454.382,157.953Z" transform="translate(-401.364 -129.656)" fill="#f5ca56"/>
                <path id="Trazado_26186" data-name="Trazado 26186" d="M438.682,162.774a1.334,1.334,0,0,0-.14-.514,1.454,1.454,0,0,0-1.322-.781c-.531.076-.895.8-1.216,1.435-.353.7-.686,1.363-1.345,1.327h-.009c-.672-.045-.968-.8-1.255-1.537-.123-.316-.38-.972-.541-1.023-.17-.01-.6.776-.769,1.072-.406.737-.827,1.5-1.507,1.454l-.027,0c-.617-.05-.839-.733-1.053-1.381-.2-.606-.428-1.294-.891-1.434a1.206,1.206,0,0,0-1.062.318,1.3,1.3,0,0,0-.4.812h.016l-2.145,32.3,11.485.762Z" transform="translate(-406.367 -136.361)" fill="#f5ca56"/>
                <path id="Trazado_26187" data-name="Trazado 26187" d="M426.929,162.284h-.016a1.306,1.306,0,0,1,.4-.812,1.206,1.206,0,0,1,1.062-.318c.463.14.691.828.891,1.434.215.649.437,1.331,1.053,1.381l.027,0c.68.045,1.1-.717,1.507-1.454.164-.3.6-1.082.769-1.072.161.05.418.706.541,1.023.287.733.583,1.492,1.255,1.537h.009c.659.035.992-.626,1.345-1.327.321-.637.684-1.359,1.216-1.435a1.454,1.454,0,0,1,1.322.781,1.334,1.334,0,0,1,.14.514l-2.179,32.81.87.058,2.145-32.3a2.325,2.325,0,0,0-.2-1.482,2.3,2.3,0,0,0-2.219-1.244c-.982.14-1.476,1.119-1.873,1.906a3.7,3.7,0,0,1-.506.851c-.151-.065-.386-.665-.512-.987-.294-.751-.6-1.527-1.293-1.574h0c-.725-.048-1.167.749-1.593,1.519a4.941,4.941,0,0,1-.651,1.016,2.645,2.645,0,0,1-.344-.8c-.254-.768-.571-1.724-1.467-1.995a2.061,2.061,0,0,0-1.9.509,2.263,2.263,0,0,0-.689,1.794l-2.118,31.908.87.058Z" transform="translate(-406.134 -136.126)" fill="#12263f"/>
                <path id="Trazado_26188" data-name="Trazado 26188" d="M412.07,212.854l-.144,2.154,30.241,6.512a10.423,10.423,0,0,0,.4-2.1Z" transform="translate(-403.598 -147.252)" fill="#bec6c4"/>
                <path id="Trazado_26189" data-name="Trazado 26189" d="M412.426,207.491l-.143,2.154,30.512,6.571.143-2.154Z" transform="translate(-403.673 -146.118)" fill="#bec6c4"/>
                <path id="Trazado_26190" data-name="Trazado 26190" d="M433.885,204.389l-21.149-1.4-.1,1.478,30.512,6.571.4-6Z" transform="translate(-403.749 -145.165)" fill="#bec6c4"/>
                <path id="Trazado_26191" data-name="Trazado 26191" d="M411.737,218.324a10.411,10.411,0,0,0,.071,2.092L440,226.487a10.434,10.434,0,0,0,1.319-1.9l-29.577-6.37Z" transform="translate(-403.553 -148.386)" fill="#bec6c4"/>
                <path id="Trazado_26192" data-name="Trazado 26192" d="M412.552,223.828a10.4,10.4,0,0,0,7.734,6.57,10.579,10.579,0,0,0,1.315.177l10.027.666a10.562,10.562,0,0,0,1.35-.007,10.382,10.382,0,0,0,5.322-1.861Z" transform="translate(-403.73 -149.573)" fill="#bec6c4"/>
                <path id="Trazado_26193" data-name="Trazado 26193" d="M412.6,204.86l-.138,2.074,30.512,6.571.138-2.074Z" transform="translate(-403.711 -145.561)" fill="#eeeff0"/>
                <path id="Trazado_26194" data-name="Trazado 26194" d="M412.245,210.223l-.137,2.075,30.5,6.568c.006-.074.02-.147.026-.222l.123-1.851Z" transform="translate(-403.636 -146.696)" fill="#eeeff0"/>
                <path id="Trazado_26195" data-name="Trazado 26195" d="M411.752,217.661l29.577,6.37a10.309,10.309,0,0,0,.8-1.932l-30.241-6.512Z" transform="translate(-403.561 -147.83)" fill="#eeeff0"/>
                <path id="Trazado_26196" data-name="Trazado 26196" d="M412.4,223.231l25.747,5.545a10.454,10.454,0,0,0,1.88-1.7L411.833,221A10.281,10.281,0,0,0,412.4,223.231Z" transform="translate(-403.578 -148.976)" fill="#eeeff0"/>
              </g>
            </g>
          </g>
          <path id="Trazado_26198" data-name="Trazado 26198" d="M491.2,142.877a19.6,19.6,0,1,1,0,39.205" transform="translate(-354.694 -117.13)" fill="none" stroke="#12263f" stroke-linecap="round" stroke-linejoin="round" stroke-width="1.772"/>
          <g id="Grupo_15931" data-name="Grupo 15931" transform="translate(17.529 20.567)">
            <line id="Línea_467" data-name="Línea 467" x2="35.686" fill="none" stroke="#baccc6" stroke-linecap="round" stroke-linejoin="round" stroke-width="1"/>
            <line id="Línea_468" data-name="Línea 468" x2="35.686" transform="translate(0 5.18)" fill="none" stroke="#baccc6" stroke-linecap="round" stroke-linejoin="round" stroke-width="1"/>
            <line id="Línea_469" data-name="Línea 469" x2="35.686" transform="translate(0 10.36)" fill="none" stroke="#baccc6" stroke-linecap="round" stroke-linejoin="round" stroke-width="1"/>
            <line id="Línea_470" data-name="Línea 470" x2="35.686" transform="translate(0 15.54)" fill="none" stroke="#baccc6" stroke-linecap="round" stroke-linejoin="round" stroke-width="1"/>
            <line id="Línea_471" data-name="Línea 471" x2="13.84" transform="translate(0 20.72)" fill="none" stroke="#baccc6" stroke-linecap="round" stroke-linejoin="round" stroke-width="1"/>
          </g>
          <g id="Grupo_15932" data-name="Grupo 15932" transform="translate(50.651 90.643)">
            <path id="Trazado_26199" data-name="Trazado 26199" d="M389.851,237.225h4.767a6.508,6.508,0,0,0,.154-1.4V225.18H382.315v17.178h5.927a6.52,6.52,0,0,0,1.609-.208Z" transform="translate(-382.315 -225.18)" fill="#c1507f"/>
            <path id="Trazado_26200" data-name="Trazado 26200" d="M391.873,245.381a6.53,6.53,0,0,0,4.767-4.925h-4.767Z" transform="translate(-384.337 -228.411)" fill="#a73464"/>
          </g>
          <g id="Grupo_15933" data-name="Grupo 15933" transform="translate(56.726 69.254)">
            <path id="Trazado_26201" data-name="Trazado 26201" d="M397.556,210.1h4.767a6.566,6.566,0,0,0,.153-1.4V198.053H390.02V215.23h5.926a6.521,6.521,0,0,0,1.609-.207Z" transform="translate(-390.02 -198.053)" fill="#aee6e6"/>
            <path id="Trazado_26202" data-name="Trazado 26202" d="M399.577,218.254a6.532,6.532,0,0,0,4.767-4.925h-4.767Z" transform="translate(-392.041 -201.284)" fill="#e8e8e8"/>
          </g>
          <g id="Grupo_15934" data-name="Grupo 15934" transform="translate(64.677 102.689)">
            <path id="Trazado_26203" data-name="Trazado 26203" d="M409.148,254.912h5.721a7.877,7.877,0,0,0,.184-1.676v-12.78H400.1v20.615h7.113a7.8,7.8,0,0,0,1.931-.25Z" transform="translate(-400.104 -240.456)" fill="url(#linear-gradient)"/>
            <path id="Trazado_26204" data-name="Trazado 26204" d="M411.574,264.7a7.837,7.837,0,0,0,5.721-5.91h-5.721Z" transform="translate(-402.53 -244.333)" fill="#1565c0"/>
          </g>
        </g>
        <g id="Grupo_15940" data-name="Grupo 15940" transform="translate(2.702 0.969)">
          <g id="Grupo_15938" data-name="Grupo 15938">
            <rect id="Rectángulo_4009" data-name="Rectángulo 4009" width="135.825" height="83.681" rx="3" fill="#00223d"/>
            <g id="Grupo_15937" data-name="Grupo 15937" transform="translate(2.162 3.414)">
              <rect id="Rectángulo_4010" data-name="Rectángulo 4010" width="131.501" height="70.613" rx="3" fill="#fff"/>
              <g id="Grupo_15936" data-name="Grupo 15936" clip-path="url(#clip-path-3)">
                <rect id="Rectángulo_4011" data-name="Rectángulo 4011" width="37.369" height="12.796" rx="1" transform="translate(13.718 59.922)" fill="#26aab7"/>
                <path id="Trazado_94713" data-name="Trazado 94713" d="M3.832,0H55.98a3.832,3.832,0,0,1,3.832,3.832V8.964A3.832,3.832,0,0,1,55.98,12.8H3.832A3.832,3.832,0,0,1,0,8.964V3.832A3.832,3.832,0,0,1,3.832,0Z" transform="translate(57.972 59.922)" fill="#26aab7"/>
                <path id="Trazado_94712" data-name="Trazado 94712" d="M0,0H154.206V5.69H0Z" transform="translate(-11.353 -0.027)" fill="#1565c0"/>
              </g>
            </g>
            <path id="Trazado_26205" data-name="Trazado 26205" d="M210.35,113.677c0-.472-1.059-.853-2.365-.853s-2.366.382-2.366.853,1.059.853,2.366.853S210.35,114.149,210.35,113.677Z" transform="translate(-140.072 -111.743)" fill="#282e5b"/>
            <path id="Trazado_26206" data-name="Trazado 26206" d="M209.908,113.736c0-.351-.788-.636-1.761-.636s-1.761.285-1.761.636.788.636,1.761.636S209.908,114.086,209.908,113.736Z" transform="translate(-140.235 -111.801)" fill="#565699"/>
            <path id="Trazado_26207" data-name="Trazado 26207" d="M134.173,183.9V116.1c0-2.567,5.764-4.646,12.874-4.646H135.365c-7.11,0-12.874,2.079-12.874,4.646v67.8c0,2.566,5.764,4.646,12.874,4.646h11.682C139.937,188.546,134.173,186.466,134.173,183.9Z" transform="translate(-122.491 -111.453)" fill="#034c8a" opacity="0.1"/>
          </g>
          <g id="Grupo_15939" data-name="Grupo 15939" transform="translate(15.88 11.565)">
            <rect id="Rectángulo_4015" data-name="Rectángulo 4015" width="104.066" height="23.144" rx="1" fill="#12263f"/>
            <rect id="Rectángulo_4016" data-name="Rectángulo 4016" width="37.527" height="21.946" rx="1" transform="translate(0 25.323)" fill="#ffa726"/>
            <rect id="Rectángulo_4017" data-name="Rectángulo 4017" width="27.541" height="7.625" rx="1.813" transform="translate(3.994 27.551)" fill="url(#linear-gradient-2)"/>
            <line id="Línea_472" data-name="Línea 472" x2="25.228" transform="translate(5.676 37.198)" fill="none" stroke="#fefefe" stroke-linecap="round" stroke-linejoin="round" stroke-width="0.5"/>
            <line id="Línea_473" data-name="Línea 473" x2="25.228" transform="translate(43.045 25.323)" fill="none" stroke="#f6c343" stroke-linecap="round" stroke-linejoin="round" stroke-width="0.5"/>
            <line id="Línea_474" data-name="Línea 474" x2="25.228" transform="translate(78.838 36.059)" fill="none" stroke="#baccc6" stroke-linecap="round" stroke-linejoin="round" stroke-width="0.5"/>
            <line id="Línea_475" data-name="Línea 475" x2="25.228" transform="translate(78.838 37.937)" fill="none" stroke="#baccc6" stroke-linecap="round" stroke-linejoin="round" stroke-width="0.5"/>
            <line id="Línea_476" data-name="Línea 476" x2="25.228" transform="translate(78.838 39.816)" fill="none" stroke="#baccc6" stroke-linecap="round" stroke-linejoin="round" stroke-width="0.5"/>
            <line id="Línea_477" data-name="Línea 477" x2="25.228" transform="translate(78.838 41.694)" fill="none" stroke="#baccc6" stroke-linecap="round" stroke-linejoin="round" stroke-width="0.5"/>
            <line id="Línea_478" data-name="Línea 478" x2="25.228" transform="translate(78.838 43.573)" fill="none" stroke="#baccc6" stroke-linecap="round" stroke-linejoin="round" stroke-width="0.5"/>
            <line id="Línea_479" data-name="Línea 479" x2="61.02" transform="translate(43.045 27.503)" fill="none" stroke="#baccc6" stroke-linecap="round" stroke-linejoin="round" stroke-width="0.5"/>
            <line id="Línea_480" data-name="Línea 480" x2="61.02" transform="translate(43.045 29.682)" fill="none" stroke="#baccc6" stroke-linecap="round" stroke-linejoin="round" stroke-width="0.5"/>
            <line id="Línea_481" data-name="Línea 481" x2="61.02" transform="translate(43.045 31.862)" fill="none" stroke="#baccc6" stroke-linecap="round" stroke-linejoin="round" stroke-width="0.5"/>
            <line id="Línea_482" data-name="Línea 482" x2="61.02" transform="translate(43.045 34.041)" fill="none" stroke="#baccc6" stroke-linecap="round" stroke-linejoin="round" stroke-width="0.5"/>
            <line id="Línea_483" data-name="Línea 483" x2="61.02" transform="translate(43.045 45.451)" fill="none" stroke="#baccc6" stroke-linecap="round" stroke-linejoin="round" stroke-width="0.5"/>
            <line id="Línea_484" data-name="Línea 484" x2="61.02" transform="translate(43.045 47.269)" fill="none" stroke="#baccc6" stroke-linecap="round" stroke-linejoin="round" stroke-width="0.5"/>
            <line id="Línea_485" data-name="Línea 485" x2="39.787" transform="translate(43.045 49.087)" fill="none" stroke="#baccc6" stroke-linecap="round" stroke-linejoin="round" stroke-width="0.5"/>
            <line id="Línea_486" data-name="Línea 486" x2="23.178" transform="translate(43.045 36.913)" fill="none" stroke="#1565c0" stroke-linecap="round" stroke-linejoin="round" stroke-width="0.5"/>
            <line id="Línea_487" data-name="Línea 487" x2="23.178" transform="translate(43.045 39.556)" fill="none" stroke="#1565c0" stroke-linecap="round" stroke-linejoin="round" stroke-width="0.5"/>
            <line id="Línea_488" data-name="Línea 488" x2="16.556" transform="translate(43.045 42.198)" fill="none" stroke="#1565c0" stroke-linecap="round" stroke-linejoin="round" stroke-width="0.5"/>
            <line id="Línea_489" data-name="Línea 489" x2="25.228" transform="translate(5.676 39.22)" fill="none" stroke="#fefefe" stroke-linecap="round" stroke-linejoin="round" stroke-width="0.5"/>
            <line id="Línea_490" data-name="Línea 490" x2="25.228" transform="translate(5.676 41.243)" fill="none" stroke="#fefefe" stroke-linecap="round" stroke-linejoin="round" stroke-width="0.5"/>
            <line id="Línea_491" data-name="Línea 491" x2="15.557" transform="translate(5.676 43.265)" fill="none" stroke="#fefefe" stroke-linecap="round" stroke-linejoin="round" stroke-width="0.5"/>
          </g>
        </g>
        <g id="Grupo_15977" data-name="Grupo 15977" transform="translate(40.045 55.428)">
          <g id="Grupo_15949" data-name="Grupo 15949" transform="translate(105.035)">
            <g id="Grupo_15941" data-name="Grupo 15941" transform="translate(11.944 82.404)">
              <path id="Trazado_26208" data-name="Trazado 26208" d="M326.712,386.236l8.536-1.151a17.085,17.085,0,0,0,2.118,7.316c4.337,7.569,13.81,8.681,13.5,10.472-.121.7-1.381,1.559-5.835,1.075-1.445-.157-5.778-.519-7.039-2.121S334.2,400.6,334.2,400.6l.223,3.082-6.768-.484C327.515,401.208,326.857,389.829,326.712,386.236Z" transform="translate(-320.005 -306.188)" fill="#aee6e6"/>
              <path id="Trazado_26209" data-name="Trazado 26209" d="M336.516,288.387c1.043,19.638.208,32.114-.845,40.079a176.475,176.475,0,0,0-1.648,28.794c.041,1.666.5,7.565.539,8.487-2.976.2-8.607,1.249-11.583,1.452-2.693-8.623-1.228-21.1-1.434-26.122-.194-4.7.215-5.453.012-14.831-.2-9.011-.293-13.516-1.131-16.4a37.754,37.754,0,0,1-2.194-10.439,24.472,24.472,0,0,1,.287-5.287,20.832,20.832,0,0,1,4.1-9.1c1.558.2,3.2.46,4.911.813A64.087,64.087,0,0,1,336.516,288.387Z" transform="translate(-318.206 -285.026)" fill="#12263f"/>
            </g>
            <g id="Grupo_15942" data-name="Grupo 15942" transform="translate(4.028 81.394)">
              <path id="Trazado_26210" data-name="Trazado 26210" d="M317.062,386.236l8.536-1.151a17.073,17.073,0,0,0,2.117,7.316c4.338,7.569,13.811,8.681,13.5,10.472-.121.7-1.381,1.559-5.834,1.075-1.445-.157-5.778-.519-7.04-2.121s-3.793-1.228-3.793-1.228l.223,3.082-6.768-.484C317.865,401.208,317.207,389.829,317.062,386.236Z" transform="translate(-310.048 -305.178)" fill="#aee6e6"/>
              <path id="Trazado_26211" data-name="Trazado 26211" d="M327.766,288.116c1.043,19.638.207,32.114-.845,40.079a176.375,176.375,0,0,0-1.648,28.794c.041,1.666.5,7.565.539,8.487-2.975.2-8.607,1.249-11.582,1.452-2.694-8.623-1.228-21.1-1.434-26.122-.194-4.7.215-5.452.012-14.831-.169-7.786-.207-11.681-1.131-16.4-1.078-5.5-2.025-5.55-2.891-10.66A44.849,44.849,0,0,1,308.393,287q.325-1.618.652-3.235l3.9-.02a55.177,55.177,0,0,0,5.836,1.823A64.113,64.113,0,0,1,327.766,288.116Z" transform="translate(-308.167 -283.745)" fill="#12263f"/>
            </g>
            <g id="Grupo_15946" data-name="Grupo 15946">
              <path id="Trazado_26212" data-name="Trazado 26212" d="M306.153,192.739s-1.356-2.275-1-3.531a6.559,6.559,0,0,1,4.865-3.76c2.6-.467,8.373.877,9.528-1.067s.7-3.526-.162-3.112c.234-1.175,3.686-1.213,4.807,1.672a9.8,9.8,0,0,1-.568,8.7c-1.516,2.812-7.472,4.57-9.91,5.094-.02.684-.506,7.163-.506,7.163l.2,7.081a3.426,3.426,0,0,1-3.227,2.567c-2.759.217-6.743-8.957-7.087-14.885S304.67,192.632,306.153,192.739Z" transform="translate(-303.058 -180.519)" fill="#12263f"/>
              <g id="Grupo_15945" data-name="Grupo 15945" transform="translate(5.289 9.808)">
                <path id="Trazado_26213" data-name="Trazado 26213" d="M325.975,200.584c.573.727,2.836,1.995,3.413,3.5s-1.36,1.9-1.36,1.9c.285,2.378.587,5.235-.893,7.29-1.094,1.518-3.163,2.814-4.942,1.618.479,1.545,1.057,3.189,1.757,4.906a60.51,60.51,0,0,0,3.03,6.348,26.043,26.043,0,0,1-2.886.52,26.334,26.334,0,0,1-7.132-.109c-3.467-2.054-4.231-3.8-4.263-5.031-.054-2.049,1.905-2.948,2.455-5.438.571-2.586-.774-5.088-2-6.8a2.125,2.125,0,0,1-2.178.02c-.847-.658-1.675-2.194-.892-3.12a2.239,2.239,0,0,1,2.654-.628c.759-1.211,2.416-3.153,1.581-6.433,2.461-.5,8.849-3.481,9.979-6.162C324.4,193.384,325.4,199.856,325.975,200.584Z" transform="translate(-309.766 -192.958)" fill="#d08b73"/>
                <g id="Grupo_15944" data-name="Grupo 15944" clip-path="url(#clip-path-4)">
                  <g id="Grupo_15943" data-name="Grupo 15943" transform="translate(5.23 15.88)" opacity="0.5" style="mix-blend-mode: multiply;isolation: isolate">
                    <path id="Trazado_26214" data-name="Trazado 26214" d="M316.412,213.1a3.723,3.723,0,0,0,.756,1.691,14.431,14.431,0,0,0,2.987,3.316,11.845,11.845,0,0,0,3.9,2.194,3.277,3.277,0,0,0,1.845.217,13.1,13.1,0,0,0-1.685-.656,15.387,15.387,0,0,1-3.641-2.265,20.578,20.578,0,0,1-3.025-3.077C316.859,213.652,316.5,213.055,316.412,213.1Z" transform="translate(-316.398 -213.097)" fill="#bc6c56"/>
                  </g>
                </g>
              </g>
              <path id="Trazado_26216" data-name="Trazado 26216" d="M312.91,211.584c-.017-.092-.186-.136-.4-.225a2.159,2.159,0,0,1-.347-.177c-.139-.091-.183-.144-.183-.194a2.663,2.663,0,0,1-.006-.422.228.228,0,0,1,.113-.188c.171-.12.36-.2.346-.293s-.164-.189-.506-.146a.7.7,0,0,0-.534.446,1.272,1.272,0,0,0-.07.353,1.425,1.425,0,0,0,.008.371.748.748,0,0,0,.247.433,1.1,1.1,0,0,0,.319.188,1.325,1.325,0,0,0,.551.093C312.767,211.8,312.929,211.668,312.91,211.584Z" transform="translate(-304.804 -186.739)" fill="#bc6c56"/>
            </g>
            <path id="Trazado_26217" data-name="Trazado 26217" d="M314.368,220.258a62.242,62.242,0,0,0-4.483,9.531c-3.447,9.3-3.828,17.208-4.263,27.967-.173,4.278-.263,10.107.076,17.064.011.225,2.41.737,2.67.8l4.17,1.02a13.613,13.613,0,0,1,2.843.7l3.009.736a20.561,20.561,0,0,0,5.3.486,35.163,35.163,0,0,0,11.644-2.12c-.371,0-.726-10.183-.738-10.978-.019-1.277,0-1.665-.024-2.731a75.59,75.59,0,0,0-1.325-12.15c-1.293-7.136-1.939-10.7-3.921-14.828a36.672,36.672,0,0,0-5.465-8.26,6.776,6.776,0,0,1-4.232.255C316.762,226.919,314.637,223.94,314.368,220.258Z" transform="translate(-303.568 -188.924)" fill="#aee6e6"/>
            <path id="Trazado_26218" data-name="Trazado 26218" d="M337.434,268.555v4.46l-11.166-5.894-2.8,1.4h-4.543v-4.835L322.794,266l3.094-1.329Z" transform="translate(-306.414 -198.108)" fill="#344966"/>
            <path id="Trazado_26219" data-name="Trazado 26219" d="M323.429,252.937l-4.506,3.379.844,3.8h4.365l1.69-1.971,10.843,4.224c1.392.337,3.435.432,4.623-1.126,1.324-1.737.553-4.714-.539-6.619-2.959-5.162-1.75-15.131-7.04-25.769-.845,1.69-1.083,3.567-1.928,5.257,2.3,5.773-1.076,14.176,1.224,19.949Z" transform="translate(-306.414 -190.742)" fill="#d08b73"/>
            <path id="Trazado_26220" data-name="Trazado 26220" d="M337.61,263.492a5.826,5.826,0,0,1-3.5.98,7.05,7.05,0,0,1-2.624-.413,4.747,4.747,0,0,1-1.932-1.551c-.538-.625-1.167-1.2-1.733-1.81l-2.329-2.522c-.665.648-1.465,1.148-2.138,1.794.355-.34,3.47,2.264,3.829,2.529l2.609,1.928a5.531,5.531,0,0,0,2.3,1.348,8.053,8.053,0,0,0,5.427-.639c.89-.5,1.388-2.031,1.658-2.958a8.757,8.757,0,0,0,.246-3.864,11.307,11.307,0,0,1-.272,2.67,4.635,4.635,0,0,1-1.3,2.31C337.771,263.364,337.692,263.43,337.61,263.492Z" transform="translate(-307.351 -196.943)" fill="#bc6c56"/>
            <path id="Trazado_26221" data-name="Trazado 26221" d="M320.419,256.036s-6.713-3.683-8.7-6.074-2.633-9.5-2.01-10.34,11.546,9.82,11.546,9.82l2.64,4.051Z" transform="translate(-304.416 -193.009)" fill="#344966"/>
            <path id="Trazado_26222" data-name="Trazado 26222" d="M325.778,236.473c1.807,1.613,3.951,3.026,5.53,4.866a5.4,5.4,0,0,1,1.1,3.352c.073,1.284.181,2.553.286,3.836L324.9,238.6Z" transform="translate(-307.678 -192.353)" fill="#344966"/>
            <g id="Grupo_15948" data-name="Grupo 15948" transform="translate(6.838 29.222)">
              <path id="Trazado_26223" data-name="Trazado 26223" d="M319.819,231.457a30.078,30.078,0,0,1,10.087,12.616q.058-7.481.115-14.963l-3.742-5.438,1.81-6.092,5.686.913,2.885,4.874q-.666,3-1.331,5.994c.351,3.461.826,8.332,1.34,14.241.446,5.113.827,10.078-1.511,11.624a6.931,6.931,0,0,1-3.092,1.018,7.079,7.079,0,0,1-2.52-.416c-2.124-.78-9.1-7.134-17.817-16.48Z" transform="translate(-311.73 -217.579)" fill="#d08b73"/>
              <g id="Grupo_15947" data-name="Grupo 15947" clip-path="url(#clip-path-5)">
                <path id="Trazado_26224" data-name="Trazado 26224" d="M331.365,246.208l-8.292,8.365,1.232,1.248,7.623-7.712Z" transform="translate(-314.129 -223.634)" fill="#bc6c56"/>
              </g>
            </g>
            <path id="Trazado_26226" data-name="Trazado 26226" d="M320.209,252.9l8.689-9.058c-1.974-4.538-13.884-19.407-18.533-9.11C305.856,244.716,318.144,251.4,320.209,252.9Z" transform="translate(-304.395 -191.232)" fill="#aee6e6"/>
          </g>
          <g id="Grupo_15960" data-name="Grupo 15960" transform="translate(13.044 32.346)">
            <path id="Trazado_26227" data-name="Trazado 26227" d="M257.1,288.43c-.215-.1-.443-.185-.662-.281a15.634,15.634,0,0,0-2.313-.935c-.923-.233-1.807-.545-2.723-.792.4-.079.809-.128,1.2-.224.341-.084.68-.237,1.023-.343a2.482,2.482,0,0,0,.929-.458.919.919,0,0,0,.343-.9,8.134,8.134,0,0,0-1.594.475c-.565.173-4.013,1.183-5.176,1.5q-2.975.822-5.833,1.52l-.616.063-.162-.45-9.106.048L220,285.718a82.34,82.34,0,0,0-5.993-16.723c-4.317-8.858-6.823-9.859-8.329-10.08a7.138,7.138,0,0,0-6.709,3c-2.257,3.532.29,8.614,4.1,15.982,4.7,9.076,7.046,13.615,11,15.811,7.475,4.154,16.657,1.887,22.4.468A46.606,46.606,0,0,0,243.1,292l-.14-.387,2.972-.087a14.109,14.109,0,0,1,2.2,1.322c.8.591,1.851,1.5,1.851,1.5a1.485,1.485,0,0,0,1.261.084c.143-.062.482-.243.526-.414s-.111-.36-.27-.53a8.2,8.2,0,0,0-1.195-1.045,7.492,7.492,0,0,1-1.111-.99,4.115,4.115,0,0,1,1.9-.075,5.092,5.092,0,0,1,1.587.662c.517.307.92.788,1.46,1.084a2.734,2.734,0,0,0,1.187.355,1.283,1.283,0,0,0,1.018-.469,18.713,18.713,0,0,0-3.63-2.424c-.56-.285-1.1-.527-1.621-.731-.192-.215-.208-.31-.181-.356.136-.227,1.488.315,1.56.345.212.086.451.2.93.439.662.325,1.3.67,1.946,1.02a1.391,1.391,0,0,0,1.823-.279c-.082.059-1.016-.651-1.118-.719a15.2,15.2,0,0,0-1.872-1.038,19.408,19.408,0,0,0-2.439-.961c-.076-.139-.092-.243-.051-.312q.19-.323,2.044.334A9.2,9.2,0,0,0,255.9,289a1.972,1.972,0,0,0,1.277-.235C257.408,288.6,257.335,288.545,257.1,288.43Z" transform="translate(-188.873 -229.432)" fill="#718aa7"/>
            <path id="Trazado_26228" data-name="Trazado 26228" d="M229.387,383.221c.941-.337,2.222-.809,2.057-2.12s-3.355-2.859-4.4-3.733c-.08-3.3-.4-6.418-2.315-9.2-.006-.009-.086.042-.088,0-.017-.416-.212-.425-.124-.983a6.649,6.649,0,0,1,1.584-2.123,17.555,17.555,0,0,1,1.821.131c7.785-8.994,14.09-18.388,14.251-30.617a6.284,6.284,0,0,0-.646-3.484c-1.231-2.214-3.828-3.909-5.886-5.491a56.41,56.41,0,0,0-8.4-5.327c-.322-.167-.742-.36-1-.5a32.465,32.465,0,0,0-5.544-2.241c-2.591-.8-3.6-1.519-6.6-2.146s-13.668-2.11-15.518-2.074-.747,4.488-.832,4.781c-.8,2.78,0,4.52.284,6.971.023.195-.047.208.055.508.021.064-.128-.356.2.129,1.4,2.045.971,3.525,3.844,5.512,4.386,3.033,12.249,1.277,18.2,2.141,2.4.349,6.4,2.262,8.663,3.705-.878,4.524-2.108,5.653-4.14,10.741-1.055,2.643-7.13,13.662-7.756,16.1s1.7-.539,1.645.8c-.39.872-.938,2.13-1.471,3.108a18.422,18.422,0,0,0-4.659,5.97c.774.364,2.46,1.148,3.019,1.417s.065.065.375.217c.05.024,0-.039.017-.033.341.156.639.323.979.487.142-.648.86-.44,1.246-.233a8.564,8.564,0,0,1,3.171,2.757c.775,1.165.694,2.609,1.709,3.527a6.154,6.154,0,0,0,3.349,1.615A5.992,5.992,0,0,0,229.387,383.221Z" transform="translate(-188.719 -240.949)" fill="#727997"/>
            <g id="Grupo_15950" data-name="Grupo 15950" transform="translate(0.756 74.802)">
              <path id="Trazado_26229" data-name="Trazado 26229" d="M188.023,329.062s13.073,5.144,20.468,6.129,12.382-.924,13.794-.567,5.611,11.73,10.124,16.184,17.323,14.042,18.772,15.4,3.683,7.025,3.683,7.025l3.168-1.125-.655-1.618s10.845-4.818,11.894-6.393,2.145-7.154.533-8.979-2.909,4.732-4.867,5.527-9.058.474-11.121-.195-20.989-31.643-23.508-33.25-19.163-7.434-23.008-7.372-18.6-2.2-18.6-2.2Z" transform="translate(-187.493 -316.667)" fill="#b0c0d2"/>
              <path id="Trazado_26230" data-name="Trazado 26230" d="M211.248,336.4c4.459-.013,8.162.213,10.749.427,1.914,3.643,3.786,7.651,6.2,10.97,1.253,1.724,17.957,17.432,18.33,16.955l6.2-7.946c-6.98-9.789-13.856-19.66-21.04-29.3a11.98,11.98,0,0,0-2.387-2.615c-1.739-1.273-5.034-1.384-7.173-1.927-2.746-.7-5.5-1.366-8.253-2.033-3.648-.882-7.468-1.526-11.034-2.711-1.821-.6-14.851-1.807-14.942-1.815.289.027-.308,4.8-.355,5.158a15.209,15.209,0,0,0,.514,7.253,13.422,13.422,0,0,0,3.76,5.857C195.65,337.895,200.2,336.43,211.248,336.4Z" transform="translate(-187.351 -316.407)" fill="#12263f"/>
              <path id="Trazado_26231" data-name="Trazado 26231" d="M268.122,375.979c1.269-.859,3.843-5.568,3.843-5.568l10.112-1.346s2.622-5.574,3.678-5.229c1.3.425,1.582,1.023,1.849,2.327a10.621,10.621,0,0,1,.138,3.351,10.741,10.741,0,0,1-1.835,4.893c-1.03,1.474-2.82,1.7-4.323,2.579-1.643.96-3.287,1.956-4.964,2.882-.494.273-1.171.811-.594,1.38l-4.247,2.328Z" transform="translate(-204.434 -326.435)" fill="#00223d"/>
            </g>
            <g id="Grupo_15953" data-name="Grupo 15953" transform="translate(13.991 18.902)">
              <path id="Trazado_26232" data-name="Trazado 26232" d="M209.5,245.513l-5.368,9.909,8.832,7.192a11.127,11.127,0,0,1-.583-5.318,11.5,11.5,0,0,1,3.726-6.88Z" transform="translate(-204.136 -245.513)" fill="#d08b73"/>
              <g id="Grupo_15952" data-name="Grupo 15952" clip-path="url(#clip-path-6)">
                <g id="Grupo_15951" data-name="Grupo 15951" transform="translate(7.262 1.608)" opacity="0.5" style="mix-blend-mode: multiply;isolation: isolate">
                  <path id="Trazado_26233" data-name="Trazado 26233" d="M213.569,247.56c-.471.126-.237,2.408,1.074,4.848a10.738,10.738,0,0,0,2.117,2.854c.756.669,1.47.728,1.555.5.1-.233-.227-.615-.579-1.31s-.908-1.774-1.512-2.89C215.013,249.314,214.052,247.42,213.569,247.56Z" transform="translate(-213.345 -247.553)" fill="#ee5f43"/>
                </g>
              </g>
            </g>
            <g id="Grupo_15955" data-name="Grupo 15955" transform="translate(0 25.824)">
              <path id="Trazado_26235" data-name="Trazado 26235" d="M209.058,263.2c-.761-1.126-1.586-2.283-2.483-3.459-1.536-2.017-3.078-3.828-4.573-5.445-6.463.267-9.745,2.542-11.417,4.17-3.525,3.432-4.422,8.291-4.147,27.911.1,7.326.253,13.4.375,17.663a16.717,16.717,0,0,0,25.224-1.315c-.222-5.6-.5-10.146-.718-13.238-.48-6.936-.658-10.906-1.157-16.208C209.766,269.048,209.356,265.567,209.058,263.2Z" transform="translate(-186.392 -254.291)" fill="#b0c0d2"/>
              <g id="Grupo_15954" data-name="Grupo 15954" clip-path="url(#clip-path-7)">
                <path id="Trazado_26236" data-name="Trazado 26236" d="M192.37,265.344a15.6,15.6,0,0,0-.163,1.635c.012,1.495-.03,2.991-.007,4.485a32.411,32.411,0,0,0,1.282,7.126,23.04,23.04,0,0,0,2.429,6,53.531,53.531,0,0,0,3.056,4.86,29.667,29.667,0,0,0,2.818,3.414,20.4,20.4,0,0,0,5.877,4.061c2.414,1.135,5.2,1.309,7.82,1.557a18.15,18.15,0,0,1,3.364.192" transform="translate(-187.619 -256.629)" fill="#00223d" stroke="#031d31" stroke-miterlimit="10" stroke-width="1.464"/>
                <path id="Trazado_26237" data-name="Trazado 26237" d="M199.751,261.6a16.077,16.077,0,0,0,2.781,2.245A9.975,9.975,0,0,1,204.366,266a61.91,61.91,0,0,1,8.359,17.759c.213.738.412,1.484.632,2.216a14.436,14.436,0,0,0,.509,2.037,1.152,1.152,0,0,1,.2.785" transform="translate(-189.218 -255.837)" fill="#00223d" stroke="#031d31" stroke-miterlimit="10" stroke-width="1.772"/>
              </g>
            </g>
            <g id="Grupo_15958" data-name="Grupo 15958" transform="translate(16.758)">
              <g id="Grupo_15956" data-name="Grupo 15956">
                <path id="Trazado_26239" data-name="Trazado 26239" d="M211.54,242.468c-.46.1-1.318-1.375-1.624-1.678-1.047-1.041-1.993-1.656-2.22-3.266a15.979,15.979,0,0,1,.3-3.823,25.7,25.7,0,0,1,.652-4.084,10.7,10.7,0,0,1,5.04-6.973c4.712-2.578,15.024-.547,14.529,5.141-.246,2.837-.3,5.579-1.722,8.586,0,0-6.77,5.3-8.562,5.2A38.844,38.844,0,0,0,211.54,242.468Z" transform="translate(-207.645 -221.541)" fill="#12263f"/>
                <path id="Trazado_26240" data-name="Trazado 26240" d="M227.945,231.893a48.207,48.207,0,0,1-1.14,8.249,3.053,3.053,0,0,0-.175,2.206c.3.65,1.285,2.621,1.191,3.083s-1.335.861-1.738.559-1.442-1.012-1.442-1.012a66.511,66.511,0,0,1-3.413,6.061c-.784.905-2.822.766-3.728-.018s-4.8-4.247-5.409-7.127a11.065,11.065,0,0,1-.285-4.292s-1.678-2.7-.419-4.218a2.571,2.571,0,0,1,3.327-.859c.726.357,1.364,1.817,1.364,1.817s3.758-2.818,4-4.2-.088-1.278-.088-1.278,2.3,1.606,3.976,1.531A36.1,36.1,0,0,0,227.945,231.893Z" transform="translate(-208.338 -223.511)" fill="#d08b73"/>
              </g>
              <g id="Grupo_15957" data-name="Grupo 15957" transform="translate(3.643 12.182)" opacity="0.5" style="mix-blend-mode: multiply;isolation: isolate">
                <path id="Trazado_26241" data-name="Trazado 26241" d="M213.118,239.352c.034-.089-.272-.2-.333-.472a1.269,1.269,0,0,1,1.774-1.2c.32.216.644.337.673.239.018-.082-.1-.243-.405-.591a1.511,1.511,0,0,0-1.857-.037,1.481,1.481,0,0,0-.587,1.777.707.707,0,0,0,.515.348C213.038,239.418,213.11,239.394,213.118,239.352Z" transform="translate(-212.266 -236.99)" fill="#ee5f43"/>
              </g>
            </g>
            <g id="Grupo_15959" data-name="Grupo 15959" transform="translate(2.723 30.337)">
              <path id="Trazado_26242" data-name="Trazado 26242" d="M242.013,299.766l6.657-.195a14.04,14.04,0,0,1,2.2,1.322c.805.591,1.851,1.5,1.851,1.5a1.481,1.481,0,0,0,1.26.084c.143-.062.482-.243.527-.414s-.111-.36-.271-.53a8.216,8.216,0,0,0-1.194-1.045,7.481,7.481,0,0,1-1.111-.991,4.115,4.115,0,0,1,1.9-.075,5.093,5.093,0,0,1,1.587.662c.517.307.919.789,1.46,1.085a2.735,2.735,0,0,0,1.187.354,1.284,1.284,0,0,0,1.018-.469,18.733,18.733,0,0,0-3.63-2.424c-.561-.286-1.1-.527-1.621-.731-.192-.215-.208-.31-.181-.356.136-.227,1.488.315,1.561.345.212.086.451.2.93.439.661.325,1.3.67,1.946,1.02a1.391,1.391,0,0,0,1.823-.279c-.082.059-1.016-.651-1.118-.719a15.188,15.188,0,0,0-1.872-1.039,19.506,19.506,0,0,0-2.439-.961c-.076-.139-.092-.243-.051-.312q.191-.323,2.044.334a9.2,9.2,0,0,0,2.161.676,1.975,1.975,0,0,0,1.277-.235c.229-.174.156-.225-.082-.339-.215-.1-.444-.185-.662-.28a15.637,15.637,0,0,0-2.313-.936c-.922-.233-1.807-.545-2.723-.792.4-.079.809-.128,1.2-.224.341-.084.68-.237,1.023-.343a2.472,2.472,0,0,0,.929-.458.919.919,0,0,0,.343-.9,8.133,8.133,0,0,0-1.594.475c-.565.173-4.013,1.183-5.176,1.5q-2.975.823-5.833,1.52l-3.119.318Z" transform="translate(-200.857 -266.893)" fill="#d08b73"/>
              <path id="Trazado_26243" data-name="Trazado 26243" d="M190.694,263.081c-2.257,3.532.29,8.614,4.1,15.982,4.7,9.076,7.045,13.615,11,15.811,7.476,4.154,16.658,1.887,22.4.468a46.535,46.535,0,0,0,6.628-2.175l-1.587-4.4-9.106.049-12.407-1.939a82.333,82.333,0,0,0-5.993-16.724c-4.317-8.858-6.823-9.859-8.329-10.081A7.142,7.142,0,0,0,190.694,263.081Z" transform="translate(-189.846 -260.014)" fill="#b0c0d2"/>
            </g>
          </g>
          <g id="Grupo_15961" data-name="Grupo 15961" transform="translate(0 68.359)">
            <rect id="Rectángulo_4018" data-name="Rectángulo 4018" width="35.885" height="6.854" rx="2.085" transform="translate(11.871 58.699)" fill="#f6c343"/>
            <path id="Trazado_26244" data-name="Trazado 26244" d="M173.961,304.2c0-5.832.149-11.59-.073-17.4a62.589,62.589,0,0,1,.443-11.522c.247-1.676,1.369-9.331,4.693-7.888.642.278.929,1.187,1.038,1.615l-.442,35.191a2.565,2.565,0,0,1-2.287,2.771h-1.083A2.564,2.564,0,0,1,173.961,304.2Z" transform="translate(-170.688 -267.214)" fill="#f6c343"/>
            <path id="Trazado_26245" data-name="Trazado 26245" d="M173.812,289.081V325.9A11.184,11.184,0,0,0,185,337.089h27.55" transform="translate(-170.688 -271.839)" fill="none" stroke="#00223d" stroke-linecap="round" stroke-linejoin="round" stroke-width="1.5"/>
            <rect id="Rectángulo_4019" data-name="Rectángulo 4019" width="2.791" height="39.993" transform="translate(26.16 65.553)" fill="#00223d" stroke="#00223d" stroke-linecap="round" stroke-linejoin="round" stroke-width="1"/>
            <rect id="Rectángulo_4020" data-name="Rectángulo 4020" width="7.257" height="13.677" transform="translate(23.927 83.828)" fill="#00223d" stroke="#00223d" stroke-linecap="round" stroke-linejoin="round" stroke-width="1"/>
            <path id="Trazado_26246" data-name="Trazado 26246" d="M222.675,400.254a44.067,44.067,0,0,0-48.863,0v-2.266a45.478,45.478,0,0,1,48.863,0Z" transform="translate(-170.688 -293.366)" fill="#00223d" stroke="#00223d" stroke-linecap="round" stroke-linejoin="round" stroke-width="1"/>
            <path id="Trazado_26247" data-name="Trazado 26247" d="M176.1,401.934a3.124,3.124,0,1,0-3.125,3.125A3.125,3.125,0,0,0,176.1,401.934Z" transform="translate(-169.85 -295.046)" fill="#00223d" stroke="#00223d" stroke-linecap="round" stroke-linejoin="round" stroke-width="1"/>
            <circle id="Elipse_1069" data-name="Elipse 1069" cx="3.125" cy="3.125" r="3.125" transform="translate(48.863 103.763)" fill="#00223d" stroke="#00223d" stroke-linecap="round" stroke-linejoin="round" stroke-width="1"/>
            <circle id="Elipse_1070" data-name="Elipse 1070" cx="2.951" cy="2.951" r="2.951" transform="translate(24.605 103.937)" fill="#00223d" stroke="#00223d" stroke-linecap="round" stroke-linejoin="round" stroke-width="1"/>
          </g>
          <g id="Grupo_15962" data-name="Grupo 15962" transform="translate(60.436 100.09)">
            <line id="Línea_492" data-name="Línea 492" y1="74.181" x2="51.374" transform="translate(17.624 4.1)" fill="none" stroke="#b0c0d2" stroke-linecap="round" stroke-linejoin="round" stroke-width="2.916"/>
            <line id="Línea_493" data-name="Línea 493" x2="49.787" y2="74.181" transform="translate(18.417 4.1)" fill="none" stroke="#b0c0d2" stroke-linecap="round" stroke-linejoin="round" stroke-width="2.916"/>
            <rect id="Rectángulo_4021" data-name="Rectángulo 4021" width="86.621" height="8.199" rx="2.838" transform="translate(0)" fill="#eff4ef"/>
            <path id="Trazado_26248" data-name="Trazado 26248" d="M329.346,314.53H250.267a3.765,3.765,0,0,1-3.705-3.119,3.8,3.8,0,0,0-.066.653v.657a3.771,3.771,0,0,0,3.771,3.771h79.079a3.771,3.771,0,0,0,3.771-3.771v-.657a3.72,3.72,0,0,0-.066-.653A3.765,3.765,0,0,1,329.346,314.53Z" transform="translate(-246.496 -308.293)" fill="#b0c0d2"/>
          </g>
          <rect id="Rectángulo_4022" data-name="Rectángulo 4022" width="4.067" height="38.059" rx="1.306" transform="translate(98.978 45.509) rotate(8.154)" fill="#12263f"/>
          <rect id="Rectángulo_4023" data-name="Rectángulo 4023" width="2.435" height="33.283" rx="0.916" transform="matrix(0.966, -0.259, 0.259, 0.966, 98.019, 66.848)" fill="#12263f"/>
          <rect id="Rectángulo_4024" data-name="Rectángulo 4024" width="13.218" height="3.924" rx="1.476" transform="translate(99.926 95.992)" fill="#12263f"/>
          <rect id="Rectángulo_4025" data-name="Rectángulo 4025" width="22.058" height="1.962" rx="0.738" transform="translate(66.504 97.954)" fill="#12263f"/>
        </g>
        <line id="Línea_498" data-name="Línea 498" x2="371.424" transform="translate(0 235.733)" fill="none" stroke="#00223d" stroke-linecap="round" stroke-linejoin="round" stroke-width="5.023"/>
      </g>
    </g>
    <g id="Grupo_142387" data-name="Grupo 142387" transform="translate(355.336 211.731)">
      <path id="Trazado_97725" data-name="Trazado 97725" d="M1956.488,547.342l-3.122,5.408h26.478l-3.122-5.408a5.439,5.439,0,0,0-4.823-2.784h-10.588A5.439,5.439,0,0,0,1956.488,547.342Z" transform="translate(-1924.441 -544.557)" fill-rule="evenodd" fill="url(#linear-gradient-3)"/>
      <rect id="Rectángulo_28316" data-name="Rectángulo 28316" width="84.327" height="118.544" rx="8" transform="translate(0 6.167)" fill="#afafaf"/>
      <rect id="Rectángulo_28317" data-name="Rectángulo 28317" width="70.405" height="104.621" transform="translate(6.961 13.128)" fill="#fdfdfd"/>
      <path id="Trazado_97726" data-name="Trazado 97726" d="M1941.591,601.412v7.012a4.872,4.872,0,0,1-4.857,4.857h-24.617a4.872,4.872,0,0,1-4.857-4.857v-7.012a1.4,1.4,0,0,1,1.392-1.392H1940.2A1.4,1.4,0,0,1,1941.591,601.412Z" transform="translate(-1882.262 -595.296)" fill-rule="evenodd" fill="url(#linear-gradient-3)"/>
      <path id="Trazado_97727" data-name="Trazado 97727" d="M1966.113,632.278a.943.943,0,0,1,0-1.886h22.581a.943.943,0,1,1,0,1.886Z" transform="translate(-1935.24 -623.082)" fill="#dbdada" fill-rule="evenodd"/>
      <path id="Trazado_97728" data-name="Trazado 97728" d="M1966.113,684.612a.943.943,0,0,1,0-1.886h22.581a.943.943,0,1,1,0,1.886Z" transform="translate(-1935.24 -670.958)" fill="#dbdada" fill-rule="evenodd"/>
      <g id="Grupo_47018" data-name="Grupo 47018" transform="translate(20.556 27.922)">
        <g id="Grupo_47014" data-name="Grupo 47014" transform="translate(0 65.398)">
          <path id="Trazado_97729" data-name="Trazado 97729" d="M1855.991,1640.216h41.445a.885.885,0,0,1,0,1.771h-41.445a.885.885,0,1,1,0-1.771Z" transform="translate(-1855.105 -1640.216)" fill="#dbdada" fill-rule="evenodd"/>
          <path id="Trazado_97730" data-name="Trazado 97730" d="M1855.991,1689.287h41.445a.885.885,0,1,1,0,1.771h-41.445a.885.885,0,1,1,0-1.771Z" transform="translate(-1855.105 -1685.107)" fill="#dbdada" fill-rule="evenodd"/>
          <path id="Trazado_97731" data-name="Trazado 97731" d="M1855.991,1738.353h24.965a.886.886,0,0,1,0,1.771h-24.965a.886.886,0,0,1,0-1.771Z" transform="translate(-1855.105 -1729.994)" fill="#dbdada" fill-rule="evenodd"/>
        </g>
        <g id="Grupo_47015" data-name="Grupo 47015" transform="translate(0 39.784)">
          <path id="Trazado_97732" data-name="Trazado 97732" d="M1857.425,1344.4l.81-.81a.269.269,0,0,1,.382,0l1.351,1.35,2.431-2.431a.27.27,0,0,1,.382,0l.81.81a.27.27,0,0,1,0,.382l-3.432,3.432a.27.27,0,0,1-.382,0l-2.351-2.352a.269.269,0,0,1,0-.382Zm-1.239-4.916a1.083,1.083,0,0,0-1.08,1.08v8.643a1.083,1.083,0,0,0,1.08,1.08h8.643a1.083,1.083,0,0,0,1.08-1.08v-8.643a1.083,1.083,0,0,0-1.08-1.08Z" transform="translate(-1855.106 -1339.482)" fill="#1565c0" fill-rule="evenodd"/>
          <rect id="Rectángulo_28318" data-name="Rectángulo 28318" width="28.09" height="2.849" rx="1.424" transform="translate(15.126)" fill="#dbdada"/>
          <path id="Trazado_97733" data-name="Trazado 97733" d="M2033.579,1398.833h26.32a.885.885,0,1,1,0,1.771H2033.58a.885.885,0,1,1,0-1.771Z" transform="translate(-2017.568 -1393.778)" fill="#dbdada" fill-rule="evenodd"/>
          <path id="Trazado_97734" data-name="Trazado 97734" d="M2033.579,1445.535h19.137a.885.885,0,1,1,0,1.771H2033.58a.885.885,0,1,1,0-1.771Z" transform="translate(-2017.568 -1436.502)" fill="#dbdada" fill-rule="evenodd"/>
        </g>
        <g id="Grupo_47016" data-name="Grupo 47016" transform="translate(0 19.892)">
          <path id="Trazado_97735" data-name="Trazado 97735" d="M1857.425,1110.848l.81-.811a.27.27,0,0,1,.382,0l1.351,1.351,2.431-2.431a.271.271,0,0,1,.382,0l.81.81a.27.27,0,0,1,0,.382l-3.432,3.432a.271.271,0,0,1-.382,0l-2.351-2.352a.269.269,0,0,1,0-.382Zm-1.239-4.916a1.083,1.083,0,0,0-1.08,1.08v8.643a1.083,1.083,0,0,0,1.08,1.08h8.643a1.083,1.083,0,0,0,1.08-1.08v-8.643a1.083,1.083,0,0,0-1.08-1.08Z" transform="translate(-1855.106 -1105.932)" fill="#1565c0" fill-rule="evenodd"/>
          <rect id="Rectángulo_28319" data-name="Rectángulo 28319" width="28.09" height="2.849" rx="1.424" transform="translate(15.126)" fill="#dbdada"/>
          <path id="Trazado_97736" data-name="Trazado 97736" d="M2033.579,1165.284h26.32a.885.885,0,1,1,0,1.771H2033.58a.885.885,0,1,1,0-1.771Z" transform="translate(-2017.568 -1160.229)" fill="#dbdada" fill-rule="evenodd"/>
          <path id="Trazado_97737" data-name="Trazado 97737" d="M2033.579,1211.985h19.137a.886.886,0,0,1,0,1.771H2033.58a.886.886,0,0,1,0-1.771Z" transform="translate(-2017.568 -1202.952)" fill="#dbdada" fill-rule="evenodd"/>
        </g>
        <g id="Grupo_47017" data-name="Grupo 47017" transform="translate(0)">
          <path id="Trazado_97738" data-name="Trazado 97738" d="M1857.425,877.3l.81-.81a.27.27,0,0,1,.382,0l1.351,1.35,2.431-2.431a.271.271,0,0,1,.382,0l.81.81a.27.27,0,0,1,0,.382l-3.432,3.432a.27.27,0,0,1-.382,0l-2.351-2.352a.269.269,0,0,1,0-.382Zm-1.239-4.916a1.083,1.083,0,0,0-1.08,1.081v8.643a1.083,1.083,0,0,0,1.08,1.08h8.643a1.083,1.083,0,0,0,1.08-1.08v-8.643a1.083,1.083,0,0,0-1.08-1.081Z" transform="translate(-1855.106 -872.383)" fill="#1565c0" fill-rule="evenodd"/>
          <rect id="Rectángulo_28320" data-name="Rectángulo 28320" width="28.09" height="2.849" rx="1.424" transform="translate(15.126)" fill="#dbdada"/>
          <path id="Trazado_97739" data-name="Trazado 97739" d="M2033.579,931.734h26.32a.886.886,0,1,1,0,1.771H2033.58a.886.886,0,0,1,0-1.771Z" transform="translate(-2017.568 -926.679)" fill="#dbdada" fill-rule="evenodd"/>
          <path id="Trazado_97740" data-name="Trazado 97740" d="M2033.579,978.436h19.137a.885.885,0,1,1,0,1.771H2033.58a.885.885,0,1,1,0-1.771Z" transform="translate(-2017.568 -969.403)" fill="#dbdada" fill-rule="evenodd"/>
        </g>
      </g>
      <path id="Trazado_97741" data-name="Trazado 97741" d="M1795.2,1924.559h-63.825a.256.256,0,0,1,0-.511H1795.2a.256.256,0,0,1,0,.511Z" transform="translate(-1721.126 -1806.554)" fill="#8673c6"/>
    </g>
    <g id="Grupo_142388" data-name="Grupo 142388" transform="translate(384.274 107.376)">
      <g id="Grupo_18423" data-name="Grupo 18423" transform="translate(0 0)">
        <g id="Grupo_18421" data-name="Grupo 18421">
          <g id="Grupo_18420" data-name="Grupo 18420">
            <g id="Grupo_18419" data-name="Grupo 18419">
              <path id="Trazado_40936" data-name="Trazado 40936" d="M235.611,2166.215a20.494,20.494,0,1,1-20.494-20.494A20.494,20.494,0,0,1,235.611,2166.215Z" transform="translate(-194.623 -2145.721)" fill="#fff"/>
            </g>
          </g>
        </g>
        <path id="Trazado_40937" data-name="Trazado 40937" d="M235.942,2166.575a20.494,20.494,0,1,0-20.494,20.494A20.412,20.412,0,0,0,235.942,2166.575Z" transform="translate(-194.953 -2146.082)" fill="url(#radial-gradient)"/>
        <path id="Trazado_40938" data-name="Trazado 40938" d="M234.175,2169.662a15.643,15.643,0,1,0-15.643,15.643A15.589,15.589,0,0,0,234.175,2169.662Z" transform="translate(-197.976 -2149.1)" fill="none" stroke="#00223d" stroke-miterlimit="10" stroke-width="2"/>
        <g id="Grupo_18422" data-name="Grupo 18422" transform="translate(3.631 11.506)">
          <path id="Trazado_40939" data-name="Trazado 40939" d="M235.83,2164.489a20.5,20.5,0,0,1-35.285,20.409,20.431,20.431,0,0,0,35.285-20.409Z" transform="translate(-200.545 -2164.489)" fill="#eceef0"/>
        </g>
      </g>
      <g id="Grupo_53219" data-name="Grupo 53219" transform="translate(10.55 10.7)">
        <path id="Trazado_100971" data-name="Trazado 100971" d="M-1392.216,960.146h.331q3.751,0,7.5,0a1.367,1.367,0,0,1,1.271.656,1.352,1.352,0,0,1-1.242,2.055c-.871.007-1.743,0-2.614,0h-4.833c-.138,0-.276,0-.413,0a1.274,1.274,0,0,1-.98-.438q-1.24-1.362-2.489-2.718c-.026-.028-.05-.056-.077-.083-.128-.128-.264-.15-.361-.051-.127.13-.073.248.032.362q1.289,1.407,2.578,2.814a1.589,1.589,0,0,0,1.141.539c.043,0,.085.011.14.019v3.682h-6.529v-.2q0-4.193,0-8.387a3.092,3.092,0,0,1,3.336-3.172,3.265,3.265,0,0,1,3.2,3.318c.007.457,0,.915.006,1.372Z" transform="translate(1398.758 -948.44)" fill="#12263f"/>
        <path id="Trazado_100972" data-name="Trazado 100972" d="M-1316.833,778.273a3.384,3.384,0,0,1-3.392,3.394,3.393,3.393,0,0,1-3.391-3.381,3.4,3.4,0,0,1,3.378-3.4A3.394,3.394,0,0,1-1316.833,778.273Z" transform="translate(1326.442 -774.886)" fill="#12263f"/>
        <path id="Trazado_100973" data-name="Trazado 100973" d="M-1201.121,1211.724v1.591c-.073,0-.14.009-.207.009h-13.705c-.533,0-.749-.219-.75-.756,0-.088,0-.176,0-.263a.6.6,0,0,1,.565-.575,2.01,2.01,0,0,1,.207-.006h13.886Z" transform="translate(1222.667 -1195.292)" fill="#12263f"/>
        <path id="Trazado_100974" data-name="Trazado 100974" d="M-1143.306,966.937q-2.322,0-4.645,0a1.257,1.257,0,0,1-.334-.036.591.591,0,0,1-.424-.633.6.6,0,0,1,.521-.535,2.146,2.146,0,0,1,.263-.009q4.391,0,8.782,0a.263.263,0,0,0,.3-.217q1.226-3.609,2.468-7.214a.623.623,0,0,1,.62-.479.573.573,0,0,1,.556.45.9.9,0,0,1-.038.437c-.388,1.157-.787,2.311-1.182,3.466q-.719,2.1-1.438,4.192a.691.691,0,0,1-.8.575Z" transform="translate(1158.116 -950.934)" fill="#12263f"/>
      </g>
    </g>
    <g id="Grupo_142389" data-name="Grupo 142389" transform="translate(466.251 107.376)">
      <g id="Grupo_18423-2" data-name="Grupo 18423" transform="translate(0 0)">
        <g id="Grupo_18421-2" data-name="Grupo 18421">
          <g id="Grupo_18420-2" data-name="Grupo 18420">
            <g id="Grupo_18419-2" data-name="Grupo 18419">
              <path id="Trazado_40936-2" data-name="Trazado 40936" d="M235.611,2166.215a20.494,20.494,0,1,1-20.494-20.494A20.494,20.494,0,0,1,235.611,2166.215Z" transform="translate(-194.623 -2145.721)" fill="#fff"/>
            </g>
          </g>
        </g>
        <path id="Trazado_40937-2" data-name="Trazado 40937" d="M235.942,2166.575a20.494,20.494,0,1,0-20.494,20.494A20.412,20.412,0,0,0,235.942,2166.575Z" transform="translate(-194.953 -2146.082)" fill="url(#radial-gradient)"/>
        <path id="Trazado_40938-2" data-name="Trazado 40938" d="M234.175,2169.662a15.643,15.643,0,1,0-15.643,15.643A15.589,15.589,0,0,0,234.175,2169.662Z" transform="translate(-197.976 -2149.1)" fill="none" stroke="#00223d" stroke-miterlimit="10" stroke-width="2"/>
        <g id="Grupo_18422-2" data-name="Grupo 18422" transform="translate(3.631 11.506)">
          <path id="Trazado_40939-2" data-name="Trazado 40939" d="M235.83,2164.489a20.5,20.5,0,0,1-35.285,20.409,20.431,20.431,0,0,0,35.285-20.409Z" transform="translate(-200.545 -2164.489)" fill="#eceef0"/>
        </g>
      </g>
      <g id="Grupo_53221" data-name="Grupo 53221" transform="translate(10.748 11.178)">
        <path id="Trazado_100983" data-name="Trazado 100983" d="M-2667.248,722.93h-1.719a.4.4,0,0,1-.176-.008c-.055-.031-.128-.1-.126-.15s.077-.121.135-.144a.648.648,0,0,1,.222-.008q7.2,0,14.4-.007a.44.44,0,0,1,.462.312h-1.627v.643h-.668c-.313,0-.628,0-.943,0a.825.825,0,0,0-.876.824.812.812,0,0,0,.872.8c.523,0,1.046,0,1.591,0,0,.1.011.177.011.255q0,2.841,0,5.682c0,.452-.152.6-.61.6h-10.331c-.464,0-.614-.15-.614-.62V722.93Zm1.928,4.4a3.852,3.852,0,0,0,3.854,3.857,3.855,3.855,0,0,0,3.846-3.865,3.856,3.856,0,0,0-3.866-3.847A3.854,3.854,0,0,0-2665.319,727.332Z" transform="translate(2671.072 -720.645)" fill="#12263f"/>
        <path id="Trazado_100984" data-name="Trazado 100984" d="M-2408.359,762.44h-1.575v-4.072a.462.462,0,0,0,0-.178,1.262,1.262,0,0,0-.15-.211,1.491,1.491,0,0,0-.166.221.432.432,0,0,0,0,.177v4.057h-.9l-.073-.067a.694.694,0,0,0,.194-.1,1.658,1.658,0,0,0-.569-2.733.282.282,0,0,1-.217-.321q.019-3.469.024-6.938c0-.316-.024-.341-.348-.341h-2.4a.473.473,0,0,1-.486-.324.434.434,0,0,1,.142-.524.567.567,0,0,1,.326-.124c1.6,0,3.2-.04,4.8.03a2.877,2.877,0,0,1,2.706,2.884c.008.756,0,1.512,0,2.268a.488.488,0,0,1-.428.54.479.479,0,0,1-.543-.511c0-.688,0-1.377,0-2.066,0-.136.061-.347-.172-.34-.213.007-.149.209-.149.337q0,4.031,0,8.061Z" transform="translate(2428.293 -747.716)" fill="#12263f"/>
        <path id="Trazado_100985" data-name="Trazado 100985" d="M-2703.259,1027.29h-6.16a2.76,2.76,0,0,1,1.2-2.3,3.058,3.058,0,0,1,3.371-.236A2.85,2.85,0,0,1-2703.259,1027.29Z" transform="translate(2709.419 -1008.836)" fill="#12263f"/>
        <path id="Trazado_100986" data-name="Trazado 100986" d="M-2420.07,1027.276a2.835,2.835,0,0,1,1.466-2.467,3.061,3.061,0,0,1,3.377.088,2.791,2.791,0,0,1,1.319,2.38Z" transform="translate(2433.066 -1008.823)" fill="#12263f"/>
        <path id="Trazado_100987" data-name="Trazado 100987" d="M-2563.855,1027.719a2.963,2.963,0,0,1,3.024-2.9,2.982,2.982,0,0,1,3.1,2.9Z" transform="translate(2570.395 -1009.273)" fill="#12263f"/>
        <path id="Trazado_100988" data-name="Trazado 100988" d="M-2381.331,947.954a1.331,1.331,0,0,1,1.353-1.347,1.346,1.346,0,0,1,1.341,1.344,1.356,1.356,0,0,1-1.338,1.351A1.34,1.34,0,0,1-2381.331,947.954Z" transform="translate(2396.068 -934.58)" fill="#12263f"/>
        <path id="Trazado_100989" data-name="Trazado 100989" d="M-2668.327,947.941a1.344,1.344,0,0,1-1.345,1.361,1.352,1.352,0,0,1-1.349-1.338,1.341,1.341,0,0,1,1.349-1.357A1.335,1.335,0,0,1-2668.327,947.941Z" transform="translate(2672.747 -934.579)" fill="#12263f"/>
        <path id="Trazado_100990" data-name="Trazado 100990" d="M-2524.375,946.6a1.338,1.338,0,0,1,1.347,1.357,1.347,1.347,0,0,1-1.347,1.339,1.354,1.354,0,0,1-1.35-1.338A1.346,1.346,0,0,1-2524.375,946.6Z" transform="translate(2533.975 -934.576)" fill="#12263f"/>
        <path id="Trazado_100991" data-name="Trazado 100991" d="M-2329.21,680.061a1.219,1.219,0,0,1-1.231,1.219,1.231,1.231,0,0,1-1.228-1.229,1.237,1.237,0,0,1,1.248-1.234A1.227,1.227,0,0,1-2329.21,680.061Z" transform="translate(2348.637 -678.817)" fill="#12263f"/>
        <path id="Trazado_100992" data-name="Trazado 100992" d="M-2654.44,702.613v.312h-.252q-7.12,0-14.239,0c-.126,0-.333.073-.339-.142-.007-.235.208-.164.343-.164q7.1,0,14.193,0Z" transform="translate(2671.073 -701.537)" fill="#12263f"/>
        <path id="Trazado_100994" data-name="Trazado 100994" d="M-2570.782,749.746V750q0,1.605,0,3.211c0,.333.012.346.337.346h3.318a3.477,3.477,0,0,1-3.558,3.218,3.506,3.506,0,0,1-3.458-3.745A3.458,3.458,0,0,1-2570.782,749.746Z" transform="translate(2580.224 -746.559)" fill="#12263f"/>
      </g>
    </g>
    <g id="Grupo_142390" data-name="Grupo 142390" transform="translate(425.263 107.376)">
      <g id="Grupo_18423-3" data-name="Grupo 18423" transform="translate(0 0)">
        <g id="Grupo_18421-3" data-name="Grupo 18421">
          <g id="Grupo_18420-3" data-name="Grupo 18420">
            <g id="Grupo_18419-3" data-name="Grupo 18419">
              <path id="Trazado_40936-3" data-name="Trazado 40936" d="M235.611,2166.215a20.494,20.494,0,1,1-20.494-20.494A20.494,20.494,0,0,1,235.611,2166.215Z" transform="translate(-194.623 -2145.721)" fill="#fff"/>
            </g>
          </g>
        </g>
        <path id="Trazado_40937-3" data-name="Trazado 40937" d="M235.942,2166.575a20.494,20.494,0,1,0-20.494,20.494A20.412,20.412,0,0,0,235.942,2166.575Z" transform="translate(-194.953 -2146.082)" fill="url(#radial-gradient)"/>
        <path id="Trazado_40938-3" data-name="Trazado 40938" d="M234.175,2169.662a15.643,15.643,0,1,0-15.643,15.643A15.589,15.589,0,0,0,234.175,2169.662Z" transform="translate(-197.976 -2149.1)" fill="none" stroke="#00223d" stroke-miterlimit="10" stroke-width="2"/>
        <g id="Grupo_18422-3" data-name="Grupo 18422" transform="translate(3.631 11.506)">
          <path id="Trazado_40939-3" data-name="Trazado 40939" d="M235.83,2164.489a20.5,20.5,0,0,1-35.285,20.409,20.431,20.431,0,0,0,35.285-20.409Z" transform="translate(-200.545 -2164.489)" fill="#eceef0"/>
        </g>
      </g>
      <path id="Trazado_101000" data-name="Trazado 101000" d="M-3763.781,590.5v.044h-3.146c-.209-1.006-.414-2-.621-2.987h-.022q-.089,1.49-.178,2.977h-10.511c.128-1.59.256-3.169.384-4.749a.1.1,0,0,0-.058.047q-1.086,1.808-2.173,3.616a1.926,1.926,0,0,1-1.255.9,1.789,1.789,0,0,1-1.9-1,2.15,2.15,0,0,1-.095-1.414c.068-.282.178-.554.272-.829q1.023-3,2.049-6c.011-.033.019-.067.036-.123-.05.031-.081.049-.109.068-.313.207-.625.414-.94.62a.493.493,0,0,1-.573.006.488.488,0,0,1,.01-.808c.2-.139.4-.266.6-.4a.126.126,0,0,0,.05-.1.838.838,0,0,1,.045-.525,2.066,2.066,0,0,1,.693-.883,2.459,2.459,0,0,1,1.33-.562.933.933,0,0,1,.674.163.112.112,0,0,0,.1-.008c.186-.117.364-.243.551-.357.077-.047.088-.089.062-.175a2.407,2.407,0,0,1,.963-2.692,2.321,2.321,0,0,1,2.62-.075,2.3,2.3,0,0,1,1.168,2.345,2.3,2.3,0,0,1-1.518,2,2.336,2.336,0,0,1-2.453-.389c-.088-.07-.167-.15-.253-.228l-.829.549a3.729,3.729,0,0,0,.714.591.108.108,0,0,1,.051.157q-.619,1.629-1.231,3.261c-.014.034-.023.069-.033.1a7.005,7.005,0,0,1,2.5-1.538,7.755,7.755,0,0,1,2.9-.442c0-.141,0-.265,0-.388,0-.076-.025-.1-.095-.129q-.461-.17-.914-.357a2.372,2.372,0,0,1-.278-.159,3.246,3.246,0,0,0,2.354-3.126,3.317,3.317,0,0,0-2.545-3.394,4.586,4.586,0,0,1,.885-.516,4.726,4.726,0,0,1,5.129.891,3.856,3.856,0,0,1,.734,4.6,4.443,4.443,0,0,1-1.412,1.534,6.159,6.159,0,0,1-.943.451c-.032.015-.079.045-.081.07-.007.162,0,.325,0,.489l.057.009c.429.052.865.076,1.287.162a6.219,6.219,0,0,1,3.948,2.515,4.673,4.673,0,0,1,.767,1.512c.338,1.263.662,2.53.993,3.8C-3763.942,589.92-3763.859,590.21-3763.781,590.5Zm-13.843-13.165a1.457,1.457,0,0,0,1.45,1.459,1.459,1.459,0,0,0,1.455-1.455,1.449,1.449,0,0,0-1.445-1.45A1.448,1.448,0,0,0-3777.624,577.336Z" transform="translate(3794.358 -562.18)" fill="#12263f"/>
    </g>
    <g id="Grupo_142391" data-name="Grupo 142391" transform="translate(419.167 178.515)">
      <path id="Trazado_26249" data-name="Trazado 26249" d="M485.127,288s-7.369,33.605-8.573,38.6-6.391,31.4-6.391,31.4l7.165,2.367s6.294-13.5,6.977-16.764-.356-10.608,1.423-13.572,9.591-19.445,9.591-19.445l-.527-22.9Z" transform="translate(-447.245 -225.563)" fill="#b0c0d2"/>
      <g id="Grupo_15969" data-name="Grupo 15969" transform="translate(44.467 62.126)">
        <path id="Trazado_26250" data-name="Trazado 26250" d="M498.429,295.382s.023,26.419.971,31.125,13.339,28.541,13.339,28.541l2.415,3.493,5.981-3.493a113.736,113.736,0,0,0-3.789-16.6c-2.444-7.319-6.2-10.491-5.588-13.333s1.765-14.269.982-21.6-2.651-15.827-2.651-15.827l-12.6.239Z" transform="translate(-497.492 -287.689)" fill="#b0c0d2"/>
        <g id="Grupo_15968" data-name="Grupo 15968" clip-path="url(#clip-path-8)">
          <path id="Trazado_26251" data-name="Trazado 26251" d="M522.688,352.859s-2.9-10.985-3.938-13.266-6.219-11.194-6.219-13.059,1.658-9.949,1.658-14.095-3.793-18.453-3.793-18.453" transform="translate(-500.221 -289.021)" fill="none" stroke="#12263f" stroke-miterlimit="10" stroke-width="0.516"/>
          <g id="Grupo_15963" data-name="Grupo 15963" transform="translate(5.654 5.255)">
            <path id="Trazado_26252" data-name="Trazado 26252" d="M504.79,294.354a1.515,1.515,0,0,0-.09.521,4.438,4.438,0,0,0,.048,1.446c.113.587.177,1.3.377,2.094a9.107,9.107,0,0,0,.982,2.443,6.734,6.734,0,0,0,3.645,3,5.939,5.939,0,0,0,1.416.3,1.312,1.312,0,0,0,.53-.013,17.927,17.927,0,0,1-1.861-.517,6.9,6.9,0,0,1-3.43-2.943,9.522,9.522,0,0,1-.971-2.347c-.211-.753-.3-1.47-.447-2.061a5.3,5.3,0,0,1-.154-1.392A1.6,1.6,0,0,0,504.79,294.354Z" transform="translate(-504.662 -294.354)" fill="#12263f"/>
          </g>
          <g id="Grupo_15964" data-name="Grupo 15964" transform="translate(-2.494 4.812)">
            <path id="Trazado_26253" data-name="Trazado 26253" d="M494.333,293.828c-.017-.009.014.261.381.444a3.541,3.541,0,0,0,1.574.168c1.318-.019,3.141-.069,5.154-.145s3.833-.166,5.15-.248a12.9,12.9,0,0,0,2.126-.2,13,13,0,0,0-2.14-.042c-1.318.018-3.139.068-5.148.145s-3.828.165-5.145.247a3.941,3.941,0,0,1-1.516-.046C494.435,294.029,494.361,293.809,494.333,293.828Z" transform="translate(-494.329 -293.792)" fill="#12263f"/>
          </g>
          <g id="Grupo_15965" data-name="Grupo 15965" transform="translate(-4.325 2.527)">
            <path id="Trazado_26254" data-name="Trazado 26254" d="M492.007,291.5a17.419,17.419,0,0,0,2.417-.014l5.824-.185,5.825-.151a17.4,17.4,0,0,0,2.414-.126,2.381,2.381,0,0,0-.647-.069c-.417-.022-1.021-.04-1.768-.052-1.493-.024-3.556-.017-5.833.049s-4.338.177-5.826.288c-.744.055-1.346.108-1.761.155A2.321,2.321,0,0,0,492.007,291.5Z" transform="translate(-492.007 -290.893)" fill="#12263f"/>
          </g>
          <g id="Grupo_15966" data-name="Grupo 15966" transform="translate(7.544 2.378)">
            <path id="Trazado_26255" data-name="Trazado 26255" d="M507.177,290.7a6.006,6.006,0,0,0,.142,2.877,3.066,3.066,0,0,0,.1-1.448C507.383,291.333,507.274,290.693,507.177,290.7Z" transform="translate(-507.06 -290.705)" fill="#12263f"/>
          </g>
          <g id="Grupo_15967" data-name="Grupo 15967" transform="translate(3.402 1.681)">
            <path id="Trazado_26256" data-name="Trazado 26256" d="M501.911,289.821a10.063,10.063,0,0,0,.188,3.73,10.059,10.059,0,0,0-.188-3.73Z" transform="translate(-501.807 -289.821)" fill="#12263f"/>
          </g>
        </g>
      </g>
      <path id="Trazado_26258" data-name="Trazado 26258" d="M522.845,363.655l-11.563,6.6s4.532,12.073,4.453,16.041c-.124,6.228-11.033,6.351-10.1,11.559.137.766,4.939.095,8.548.415s6.359-1.239,6.687-3.369,3.192-3.264,3.192-3.264l1.005,4.042,3.707-1.922Z" transform="translate(-454.735 -241.63)" fill="#12263f"/>
      <path id="Trazado_26259" data-name="Trazado 26259" d="M474.789,372.622,461.714,368.2s-2.009,16.033-5.111,18.508c-6.736,5.375-16.375,6.515-15.442,10.35.184.755,1.732,1.747,7,1.5,1.707-.08,6.836-.2,8.242-1.834s4.437-1.079,4.437-1.079l-.088,3.275,8.015-.1C468.524,391.754,471.758,382.572,474.789,372.622Z" transform="translate(-441.098 -242.591)" fill="#12263f"/>
      <g id="Grupo_15974" data-name="Grupo 15974" transform="translate(49.215 0.658)">
        <path id="Trazado_26260" data-name="Trazado 26260" d="M512.94,220.3c-1.277-.591-5.591-1.878-5.839-3.352a2.293,2.293,0,0,1,.17-1.13c2.617-7.34,13.043-7.318,18.6-3.751a7,7,0,0,0,5.448,1.27c2.1-.362,4.088-1.276,6.2-1.526,4.753-.562,9.755,2.733,11.452,7.139,2.164,5.619-1.862,10.122-2.313,15.592a10.776,10.776,0,0,0,.527,5.106c.477,1.1.755,1.377-.657,1.7a9.342,9.342,0,0,1-2.908.039,9.658,9.658,0,0,1-4.331-1.172c-2.381-1.508-2.283-3.96-2.635-6.411-.491-3.432-.849-6.881-1.349-10.313-.252-1.728-1.943-6.3-3.907-6.545-2.31-.234-2.093.356-2.093.356.547,1.46.1,4.509-.2,6a13.153,13.153,0,0,1-11.3,10.483c-2.136.244-4.659-1.251-6.687-1.97l3.007-7.828Z" transform="translate(-504.269 -209.734)" fill="#12263f"/>
        <g id="Grupo_15971" data-name="Grupo 15971" transform="translate(0 4.042)">
          <path id="Trazado_26261" data-name="Trazado 26261" d="M507.171,218.45c-.262.7-.633,1.773-.787,2.034s-2.44,1.722-2.81,2.351,1.1,1.1,1.1,1.1c-.04-.017-.9,3.07-.92,3.377a4.239,4.239,0,0,0,2.046,3.541,4.355,4.355,0,0,0,4.423,0c-.344,1.255-.708,2.5-1.069,3.755l6.191,2.249s.281-4.479.914-5.956,2.044-5.322,2.044-5.322a1.6,1.6,0,0,0,1.273-.405c.67-.542,1.012-2.3-.075-2.713a1.493,1.493,0,0,0-1.993.748c-.806-.107-1.488-2.03-1.745-2.639-.807-1.914-.322-3.777.072-5.716-.042.209-1.229.617-1.425.776a5.012,5.012,0,0,0-1.31,2.377,12.685,12.685,0,0,0-.325,1.33c-.186.951.052,1.472-1.12,1.116A23.7,23.7,0,0,1,507.171,218.45Z" transform="translate(-503.514 -214.86)" fill="#d08b73"/>
          <g id="Grupo_15970" data-name="Grupo 15970" clip-path="url(#clip-path-9)">
            <path id="Trazado_26262" data-name="Trazado 26262" d="M516.654,231.336c-.126-.138-1.58,1.034-3.534,2.214s-3.656,1.945-3.591,2.12c.05.159,1.913-.341,3.925-1.571S516.773,231.455,516.654,231.336Z" transform="translate(-504.786 -218.342)" fill="#bc6c56"/>
            <path id="Trazado_26263" data-name="Trazado 26263" d="M522.289,226.538c-.056,0-.033.255.279.362a.648.648,0,0,0,.54-.068.963.963,0,0,0,.335-1.168.466.466,0,0,0-.274-.233.486.486,0,0,0-.276.007c-.256.115-.371.226-.344.273s.189.047.389.021c.114.009.128.028.154.1a.677.677,0,0,1-.016.364.486.486,0,0,1-.454.412C522.442,226.615,522.343,226.513,522.289,226.538Z" transform="translate(-507.48 -217.092)" fill="#bc6c56"/>
            <path id="Trazado_26264" data-name="Trazado 26264" d="M518.344,212.948a6.247,6.247,0,0,0-1.893,1.215,6.4,6.4,0,0,0-.829.8c-.14.156-.289.313-.433.486a4.544,4.544,0,0,0-.348.6c-.208.424-.375.87-.552,1.342-.088.236-.177.475-.269.717a4.6,4.6,0,0,0-.18.788c-.079.517-.213.975-.6,1.109a1.776,1.776,0,0,1-1.244-.146,7.528,7.528,0,0,1-2.041-1.19,4.094,4.094,0,0,0-1.441-.833c-.4-.1-.621-.023-.616,0,0,.038.22.023.566.16a4.7,4.7,0,0,1,1.3.908,7.192,7.192,0,0,0,2.086,1.32,2.114,2.114,0,0,0,1.535.17,1.174,1.174,0,0,0,.646-.618,3.222,3.222,0,0,0,.217-.8,4.266,4.266,0,0,1,.165-.732l.257-.7c.166-.46.33-.915.514-1.316a4.305,4.305,0,0,1,.305-.561l.389-.464a6.717,6.717,0,0,1,.761-.8C517.652,213.46,518.38,213,518.344,212.948Z" transform="translate(-504.443 -214.455)" fill="#bc6c56"/>
          </g>
        </g>
        <g id="Grupo_15972" data-name="Grupo 15972" transform="translate(40.988 5.906)">
          <path id="Trazado_26266" data-name="Trazado 26266" d="M563.929,241.616a6.688,6.688,0,0,0-.983-.526,7.678,7.678,0,0,1-2.251-1.912,8.489,8.489,0,0,1-1.749-3.959,12.338,12.338,0,0,1,.351-5.337c.258-.926.6-1.836.8-2.777a9,9,0,0,0,.142-2.765,9.612,9.612,0,0,0-1.571-4.35,8.629,8.629,0,0,0-2.162-2.231,2.608,2.608,0,0,0-1-.531,14.183,14.183,0,0,1,2.742,3.032,9.609,9.609,0,0,1,1.341,4.14,8.678,8.678,0,0,1-.17,2.555c-.2.874-.534,1.767-.805,2.736a12.451,12.451,0,0,0-.311,5.646,8.63,8.63,0,0,0,2.012,4.166,6.98,6.98,0,0,0,2.515,1.836A2.373,2.373,0,0,0,563.929,241.616Z" transform="translate(-555.497 -217.225)" fill="#282e5b"/>
        </g>
        <g id="Grupo_15973" data-name="Grupo 15973" transform="translate(9.722 15.038)">
          <path id="Trazado_26267" data-name="Trazado 26267" d="M515.845,234.245c.014.065.476.045,1.172-.209a6.663,6.663,0,0,0,3.893-4.049c.225-.706.229-1.168.162-1.18a9.662,9.662,0,0,1-5.228,5.438Z" transform="translate(-515.843 -228.806)" fill="#282e5b"/>
        </g>
      </g>
      <g id="Grupo_15975" data-name="Grupo 15975" transform="translate(14.677)">
        <path id="Trazado_26268" data-name="Trazado 26268" d="M535.524,291.472s-6.709,18.8-6.4,22.638,4.1,6.094,4.251,7.17c.1.695-1.165,1.462-1.767,1.247a1.645,1.645,0,0,1-.572-.421c-.833-.826-1.631-1.735-2.522-2.5-.524-.449-.743-.489-.688.2.032.39.252,2.591-.085,2.828-.256.179-.83.639-.876-.051s-.661-6.787-.507-8.323a41.086,41.086,0,0,0,0-4.5c-.021-1.989.043-3.966.217-5.953a70.935,70.935,0,0,1,1.083-7.589c.456-2.3.819-4.87,2.216-6.82C532.247,286.094,535.524,291.472,535.524,291.472Z" transform="translate(-473.802 -225.698)" fill="#d08b73"/>
        <path id="Trazado_26269" data-name="Trazado 26269" d="M518.846,254.245a90.951,90.951,0,0,1,.648,13.461c-.062,2.4-.217,4.672-.435,6.817a16.181,16.181,0,0,1,4.869,1.981c2.379,1.472,3.14,2.851,5.577,3.95a11.9,11.9,0,0,0,3.784.986,65.891,65.891,0,0,0-3-22.55c-2.45-7.624-5.211-11.045-6.7-12.678a28.054,28.054,0,0,0-6.612-5.314q-.1.124-.192.254C514.324,244.637,516.843,250.546,518.846,254.245Z" transform="translate(-471.566 -215.667)" fill="#f5ca56"/>
        <path id="Trazado_26270" data-name="Trazado 26270" d="M470.355,232.28s-5.649-7.3-5.956-9.139a24.149,24.149,0,0,1-.359-4.353c.051-.538.678-2.1.852-3.227a5.007,5.007,0,0,0-.864-2.791c-.115-.18.09-3.432-.3-3.739s-1.152-.41-.973,3.662c-2.022-.358-3.021-.179-3.047,1.281s1.383,5.2,1.383,5.2a27.4,27.4,0,0,0,.589,4.148c.435,1.691,2.237,10.957,6.458,14.582C471.287,237.02,470.355,232.28,470.355,232.28Z" transform="translate(-459.712 -208.899)" fill="#d08b73"/>
        <path id="Trazado_26271" data-name="Trazado 26271" d="M505.035,238.95a19.622,19.622,0,0,0-2.207-.447,34.1,34.1,0,0,0-7.309-.12c-2.042.146-3.909.026-5.948-.02-2.6-.061-5.2-.134-7.794-.278a23.227,23.227,0,0,1-4.6-.47c-3.428-.908-3.964-1.939-5.429-1.639-1.957.4-2.524,2.769-4.632,6.532a43.525,43.525,0,0,1-5.213,7.361,98.6,98.6,0,0,0,16.006,2.3c3.927.326,6.515.233,7.958-.211h0s.389,1.075.79,2.561a34.618,34.618,0,0,1,.867,5.019c.243,2.823-.885,10.052-4.975,18.669a17.893,17.893,0,0,1,5.092-.762c3.958-.009,5.816,1.268,10.254,1.594a26.51,26.51,0,0,0,5.7-.207c.076-1.189.836-2.008.778-3.083-.061-1.143-.423-2.447.161-3.446.235-.4-.4-1.639-.039-2.651a44.356,44.356,0,0,1,4.951-9.293,30.88,30.88,0,0,0,3.641-6.712c1.3-3.181,1.62-6.741-.388-9.711A13.067,13.067,0,0,0,505.035,238.95Z" transform="translate(-460.176 -214.615)" fill="#f5ca56"/>
      </g>
      <path id="Trazado_26272" data-name="Trazado 26272" d="M492.3,255.693a30.976,30.976,0,0,0,5.931-2.1c-4.079,4.286-3.9,9.537-4.366,12.491C493.11,257.394,492.3,255.693,492.3,255.693Z" transform="translate(-451.927 -218.353)" fill="#dbb348"/>
    </g>
  </g>
</svg>
