<svg xmlns="http://www.w3.org/2000/svg" xmlns:xlink="http://www.w3.org/1999/xlink" width="457" height="247" viewBox="0 0 457 247">
  <defs>
    <linearGradient id="linear-gradient" x1="-78.476" y1="0.5" x2="-77.475" y2="0.5" gradientUnits="objectBoundingBox">
      <stop offset="0" stop-color="#ff928e"/>
      <stop offset="1" stop-color="#feb3b1"/>
    </linearGradient>
    <linearGradient id="linear-gradient-2" x1="-85.22" y1="0.5" x2="-84.22" y2="0.5" xlink:href="#linear-gradient"/>
  </defs>
  <g id="img1" transform="translate(-866 -409)">
    <rect id="Rectángulo_33784" data-name="Rectángulo 33784" width="457" height="247" transform="translate(866 409)" fill="#f6f6f6"/>
    <g id="Grupo_79894" data-name="Grupo 79894" transform="translate(971.63 347.119)">
      <g id="Grupo_79882" data-name="Grupo 79882" transform="translate(-46.321 123.854)">
        <g id="Grupo_79869" data-name="Grupo 79869" transform="translate(67.427 57.589)">
          <path id="Trazado_116537" data-name="Trazado 116537" d="M1938.185,765.4l-98.747-8.763a7.79,7.79,0,0,1-7.1-7.716l-.364-66.58a7.789,7.789,0,0,1,8.33-7.813l105.148,7.317a7.79,7.79,0,0,1,7.218,8.459l-6.037,68.025A7.79,7.79,0,0,1,1938.185,765.4Z" transform="translate(-1831.974 -674.511)" fill="#1565c0"/>
          <path id="Trazado_116538" data-name="Trazado 116538" d="M1851.194,713.669l-.653,57.486a4.818,4.818,0,0,0,4.341,4.849l94.687,9.4a4.817,4.817,0,0,0,5.275-4.368l5.455-61.468a4.818,4.818,0,0,0-4.536-5.236l-99.489-5.422A4.818,4.818,0,0,0,1851.194,713.669Z" transform="translate(-1845.405 -699.391)" fill="#e8f0f1"/>
          <path id="Trazado_116539" data-name="Trazado 116539" d="M2012.474,907.69l53.587,3.144a.975.975,0,0,1,.914,1.06l-.076.86a.976.976,0,0,1-1.045.887l-53.51-4.005a.976.976,0,0,1-.9-1.059h0A.976.976,0,0,1,2012.474,907.69Z" transform="translate(-1961.797 -843.187)" fill="#1565c0"/>
          <path id="Trazado_116540" data-name="Trazado 116540" d="M2009.922,924.776l-.032.366a.975.975,0,0,0,.885,1.058l53.445,4.743a.975.975,0,0,0,1.058-.885l.033-.367a.976.976,0,0,0-.885-1.058l-53.445-4.743A.976.976,0,0,0,2009.922,924.776Z" transform="translate(-1960.672 -854.904)" fill="#1565c0"/>
          <path id="Trazado_116541" data-name="Trazado 116541" d="M2067.075,947.3l-.014.161a.975.975,0,0,0,.885,1.058l37.224,3.3a.976.976,0,0,0,1.058-.885l.067-.757a.975.975,0,0,0-.9-1.06l-37.277-2.708A.975.975,0,0,0,2067.075,947.3Z" transform="translate(-2002.029 -871.199)" fill="#1565c0"/>
        </g>
        <g id="Grupo_79870" data-name="Grupo 79870" transform="translate(34.093 25.937)">
          <path id="Trazado_116542" data-name="Trazado 116542" d="M1842.737,658.846,1726.2,656.474a9.158,9.158,0,0,1-8.947-8.483l-5.759-78.071a9.159,9.159,0,0,1,9.146-9.832l123.928.163a9.159,9.159,0,0,1,9.145,9.345l-1.634,80.28A9.159,9.159,0,0,1,1842.737,658.846Z" transform="translate(-1711.47 -560.087)" fill="#1565c0"/>
          <path id="Trazado_116543" data-name="Trazado 116543" d="M1737.953,601.431l3.837,67.486a5.665,5.665,0,0,0,5.481,5.34L1859.1,677.7a5.665,5.665,0,0,0,5.838-5.547l1.477-72.541a5.665,5.665,0,0,0-5.741-5.779l-117.138,1.607A5.664,5.664,0,0,0,1737.953,601.431Z" transform="translate(-1730.621 -584.502)" fill="#e8f0f1"/>
          <path id="Trazado_116544" data-name="Trazado 116544" d="M1939.9,819.7l63.111-.6a1.148,1.148,0,0,1,1.158,1.17l-.021,1.016a1.147,1.147,0,0,1-1.154,1.124L1939.9,822a1.147,1.147,0,0,1-1.14-1.17h0A1.148,1.148,0,0,1,1939.9,819.7Z" transform="translate(-1875.888 -747.452)" fill="#039be5"/>
          <path id="Rectángulo_34374" data-name="Rectángulo 34374" d="M1.364,0h0A1.364,1.364,0,0,1,2.727,1.364V64.017A1.363,1.363,0,0,1,1.364,65.38h0A1.364,1.364,0,0,1,0,64.016V1.364A1.364,1.364,0,0,1,1.364,0Z" transform="translate(62.733 80.243) rotate(-88.836)" fill="#039be5"/>
          <path id="Trazado_116545" data-name="Trazado 116545" d="M2007.153,863.368l0,.19a1.147,1.147,0,0,0,1.123,1.17l43.929.894a1.147,1.147,0,0,0,1.17-1.123l.018-.893a1.146,1.146,0,0,0-1.141-1.17l-43.944-.191A1.147,1.147,0,0,0,2007.153,863.368Z" transform="translate(-1925.359 -778.663)" fill="#039be5"/>
        </g>
        <g id="Grupo_79881" data-name="Grupo 79881" transform="translate(0)">
          <path id="Trazado_116546" data-name="Trazado 116546" d="M1735.811,575.7H1606.527a10.158,10.158,0,0,1-10.113-9.205l-8.148-86.446a10.158,10.158,0,0,1,9.92-11.11l137.432-2.617a10.159,10.159,0,0,1,10.352,10.157v89.062A10.159,10.159,0,0,1,1735.811,575.7Z" transform="translate(-1588.22 -466.322)" fill="#12263f"/>
          <path id="Trazado_116547" data-name="Trazado 116547" d="M1618.208,514.535l5.778,74.751a6.283,6.283,0,0,0,6.2,5.8l124.084,1.3a6.283,6.283,0,0,0,6.349-6.282V509.624a6.282,6.282,0,0,0-6.5-6.279l-129.863,4.426A6.282,6.282,0,0,0,1618.208,514.535Z" transform="translate(-1609.899 -493.101)" fill="#e8f0f1"/>
          <path id="Trazado_116548" data-name="Trazado 116548" d="M1854.509,535.859l69.973-2.093a1.272,1.272,0,0,1,1.31,1.272v1.127a1.273,1.273,0,0,1-1.255,1.273l-69.973.966a1.272,1.272,0,0,1-1.29-1.272h0A1.272,1.272,0,0,1,1854.509,535.859Z" transform="translate(-1779.956 -515.11)" fill="#12263f"/>
          <path id="Rectángulo_34375" data-name="Rectángulo 34375" d="M1.512,0H71.005a1.512,1.512,0,0,1,1.512,1.512v0a1.512,1.512,0,0,1-1.512,1.512H1.512A1.512,1.512,0,0,1,0,1.512v0A1.512,1.512,0,0,1,1.512,0Z" transform="translate(73.319 26.615)" fill="#12263f"/>
          <g id="Grupo_79871" data-name="Grupo 79871" transform="translate(55.611 70.83)">
            <path id="Trazado_116549" data-name="Trazado 116549" d="M1789.876,742.36a.571.571,0,0,1-.571-.569l0-1.713a.571.571,0,0,1,.57-.573h0a.571.571,0,0,1,.571.569l0,1.712a.57.57,0,0,1-.569.573Zm-.015-5.709a.571.571,0,0,1-.571-.569l0-1.713a.571.571,0,0,1,.569-.573h0a.571.571,0,0,1,.571.569l0,1.713a.571.571,0,0,1-.57.573Zm-.014-5.709a.571.571,0,0,1-.571-.569l0-1.713a.571.571,0,0,1,.569-.573h0a.572.572,0,0,1,.571.569l0,1.713a.571.571,0,0,1-.569.573Zm-.015-5.709a.572.572,0,0,1-.571-.569l0-1.713a.571.571,0,0,1,.569-.573h0a.571.571,0,0,1,.571.569l0,1.712a.57.57,0,0,1-.569.573Z" transform="translate(-1789.257 -722.379)" fill="#12263f"/>
          </g>
          <g id="Grupo_79872" data-name="Grupo 79872" transform="translate(84.332 63.494)">
            <path id="Trazado_116550" data-name="Trazado 116550" d="M1893.657,721.55a.571.571,0,0,1-.571-.571v-1.713a.571.571,0,0,1,1.142,0v1.713A.571.571,0,0,1,1893.657,721.55Zm0-5.709a.571.571,0,0,1-.571-.571v-1.713a.571.571,0,0,1,1.142,0v1.713A.571.571,0,0,1,1893.657,715.841Zm0-5.709a.571.571,0,0,1-.571-.571v-1.713a.571.571,0,0,1,1.142,0v1.713A.571.571,0,0,1,1893.657,710.132Zm0-5.709a.571.571,0,0,1-.571-.571V702.14a.571.571,0,0,1,1.142,0v1.713A.571.571,0,0,1,1893.657,704.423Zm0-5.709a.571.571,0,0,1-.571-.571v-1.713a.571.571,0,0,1,1.142,0v1.713A.571.571,0,0,1,1893.657,698.714Z" transform="translate(-1893.086 -695.86)" fill="#12263f"/>
          </g>
          <g id="Grupo_79873" data-name="Grupo 79873" transform="translate(105.107 57.501)">
            <path id="Trazado_116551" data-name="Trazado 116551" d="M1969.855,710.594a.571.571,0,0,1-.57-.553l-.032-1.022a.571.571,0,0,1,.553-.589.56.56,0,0,1,.589.553l.031,1.022a.571.571,0,0,1-.553.589Zm-.156-5.016a.571.571,0,0,1-.57-.553l-.053-1.712a.571.571,0,1,1,1.141-.036l.053,1.712a.572.572,0,0,1-.553.589Zm-.177-5.706a.571.571,0,0,1-.57-.553l-.053-1.712a.571.571,0,0,1,.553-.589.587.587,0,0,1,.588.553l.053,1.712a.571.571,0,0,1-.553.589Zm-.177-5.706a.57.57,0,0,1-.57-.553l-.053-1.712a.571.571,0,1,1,1.141-.036l.053,1.712a.571.571,0,0,1-.553.589Zm-.176-5.706a.571.571,0,0,1-.571-.553l-.053-1.712a.571.571,0,1,1,1.141-.035l.053,1.712a.571.571,0,0,1-.553.589Zm-.177-5.706a.57.57,0,0,1-.57-.553l-.054-1.712a.572.572,0,0,1,.553-.589.564.564,0,0,1,.588.553l.053,1.712a.571.571,0,0,1-.553.589Zm-.177-5.706a.571.571,0,0,1-.57-.553l-.054-1.712a.572.572,0,0,1,.553-.589.563.563,0,0,1,.588.553l.053,1.712a.571.571,0,0,1-.553.589Z" transform="translate(-1968.19 -674.193)" fill="#12263f"/>
          </g>
          <g id="Grupo_79874" data-name="Grupo 79874" transform="translate(126.988 42.181)">
            <path id="Trazado_116552" data-name="Trazado 116552" d="M2047.865,667.335a.571.571,0,0,1-.571-.571v-1.713a.571.571,0,1,1,1.142,0v1.713A.571.571,0,0,1,2047.865,667.335Zm0-5.709a.571.571,0,0,1-.571-.571v-1.713a.571.571,0,1,1,1.142,0v1.713A.571.571,0,0,1,2047.865,661.627Zm0-5.709a.571.571,0,0,1-.571-.571v-1.713a.571.571,0,0,1,1.142,0v1.713A.571.571,0,0,1,2047.865,655.918Zm0-5.709a.571.571,0,0,1-.571-.571v-1.713a.571.571,0,0,1,1.142,0v1.713A.571.571,0,0,1,2047.865,650.209Zm0-5.709a.571.571,0,0,1-.571-.571v-1.713a.571.571,0,1,1,1.142,0v1.713A.571.571,0,0,1,2047.865,644.5Zm0-5.709a.571.571,0,0,1-.571-.571v-1.712a.571.571,0,1,1,1.142,0v1.712A.571.571,0,0,1,2047.865,638.791Zm0-5.709a.571.571,0,0,1-.571-.571V630.8a.571.571,0,1,1,1.142,0v1.713A.571.571,0,0,1,2047.865,633.082Zm0-5.709a.571.571,0,0,1-.571-.571V625.09a.571.571,0,1,1,1.142,0V626.8A.571.571,0,0,1,2047.865,627.373Zm0-5.709a.571.571,0,0,1-.571-.571v-1.713a.571.571,0,1,1,1.142,0v1.713A.571.571,0,0,1,2047.865,621.664Z" transform="translate(-2047.294 -618.81)" fill="#12263f"/>
          </g>
          <g id="Grupo_79876" data-name="Grupo 79876" transform="translate(16.872 25.524)">
            <path id="Trazado_116553" data-name="Trazado 116553" d="M1663,633.38a.857.857,0,0,1-.852-.784l-5.852-69.115a.856.856,0,1,1,1.706-.145l5.852,69.115a.856.856,0,0,1-.781.926C1663.045,633.379,1663.02,633.38,1663,633.38Z" transform="translate(-1654.332 -561.458)" fill="#12263f"/>
            <g id="Grupo_79875" data-name="Grupo 79875">
              <path id="Trazado_116554" data-name="Trazado 116554" d="M1649.421,564.188l2.648-3.14,3.138,2.65-.208-2.456-3.138-2.648-2.648,3.138Z" transform="translate(-1649.213 -558.594)" fill="#12263f"/>
            </g>
          </g>
          <g id="Grupo_79878" data-name="Grupo 79878" transform="translate(20.241 90.427)">
            <path id="Trazado_116555" data-name="Trazado 116555" d="M1782.672,802.339H1662.248a.856.856,0,0,1,0-1.713h120.424a.856.856,0,1,1,0,1.713Z" transform="translate(-1661.392 -798.579)" fill="#12263f"/>
            <g id="Grupo_79877" data-name="Grupo 79877" transform="translate(117.869)">
              <path id="Trazado_116556" data-name="Trazado 116556" d="M2087.5,799.032l2.905-2.9-2.905-2.9h2.465l2.9,2.9-2.9,2.9Z" transform="translate(-2087.499 -793.225)" fill="#12263f"/>
            </g>
          </g>
          <g id="Grupo_79879" data-name="Grupo 79879" transform="translate(29.692 38.287)">
            <path id="Trazado_116557" data-name="Trazado 116557" d="M1696.413,640.774a.856.856,0,0,1-.112-1.705c.632-.084,63.684-8.718,98.2-34.169a.856.856,0,1,1,1.016,1.378c-34.872,25.714-98.352,34.4-98.99,34.489A.865.865,0,0,1,1696.413,640.774Z" transform="translate(-1695.557 -604.733)" fill="#12263f"/>
          </g>
          <g id="Grupo_79880" data-name="Grupo 79880" transform="translate(123.27 37.418)">
            <path id="Trazado_116558" data-name="Trazado 116558" d="M2039.989,607.872l-.068,0a.856.856,0,0,1-.787-.92l.265-3.364-4.742-.282a.856.856,0,0,1-.8-.905.848.848,0,0,1,.906-.8l5.614.333a.855.855,0,0,1,.8.922l-.333,4.234A.856.856,0,0,1,2039.989,607.872Z" transform="translate(-2033.85 -601.591)" fill="#7d97f4" stroke="#12263f" stroke-width="1"/>
          </g>
        </g>
      </g>
      <g id="Grupo_79889" data-name="Grupo 79889" transform="translate(104.897 90.38)">
        <g id="Grupo_79883" data-name="Grupo 79883" transform="translate(90.091 114.071)">
          <rect id="Rectángulo_34376" data-name="Rectángulo 34376" width="5.276" height="57.06" transform="translate(27.266 13.587)" fill="#12263f"/>
          <path id="Trazado_116559" data-name="Trazado 116559" d="M1951.98,1477.272h-46.213v-2.631a.8.8,0,0,1,.8-.8h44.543a.866.866,0,0,1,.866.866Z" transform="translate(-1898.969 -1405.525)" fill="#12263f"/>
          <rect id="Rectángulo_34377" data-name="Rectángulo 34377" width="61.75" height="17.513" rx="8.756" fill="#745d60"/>
        </g>
        <g id="Grupo_79885" data-name="Grupo 79885" transform="translate(45.201)">
          <path id="Trazado_116560" data-name="Trazado 116560" d="M1854.767,1441.609s-15.066,10.86-12.451,18.156c0,0,16.485-7.113,18.477-12.715s-.337-8.077-.337-8.077Z" transform="translate(-1809.361 -1267)" fill="#12263f"/>
          <path id="Trazado_116561" data-name="Trazado 116561" d="M1876.638,1417.321l2.463,7.122a2.477,2.477,0,0,1-.961,2.906,6.466,6.466,0,0,1-2.039.789,2.883,2.883,0,0,1-3.19-1.448l-2.947-5.55Z" transform="translate(-1828.967 -1251.813)" fill="url(#linear-gradient)"/>
          <path id="Trazado_116562" data-name="Trazado 116562" d="M1859.723,1202.634s-30.946,5.363-44.221,17.626,12.185,51.381,12.185,51.381,4.171-.026,9.226-4.359c0,0-15.1-29.42-2.086-38,14.626-9.646,31.481-11.818,31.481-11.818l-6.285-13.886Z" transform="translate(-1788.078 -1101.231)" fill="#12263f"/>
          <path id="Trazado_116563" data-name="Trazado 116563" d="M1839.04,1475.312c3.314-1.534,12.7-8.1,14.277-8.39s4.324,1.569,4.324,1.569a4.277,4.277,0,0,1-.046,3.293c-2.2,2.664-7.092,7.744-13.665,9.636-4.835,1.392-8.217.094-10.323-1.425A13.968,13.968,0,0,1,1839.04,1475.312Z" transform="translate(-1803.467 -1286.582)" fill="#727997"/>
          <path id="Trazado_116565" data-name="Trazado 116565" d="M1903.053,1450.466c-.037.913-1.9,4.044-2.994,5.8a2.844,2.844,0,0,1-2.409,1.348,7.312,7.312,0,0,1-1.99-.239,1.845,1.845,0,0,1-1.24-2.3l2.131-7.277Z" transform="translate(-1846.068 -1273.193)" fill="url(#linear-gradient-2)"/>
          <path id="Trazado_116566" data-name="Trazado 116566" d="M1947.5,1171.525s6.873,18.377,0,23.965-23.268,11.881-26.93,23.012-9.878,32.763-18.2,40.425c0,0-5.844-.566-8.031-2.895,0,0,4.737-32.294,7.861-40.58,2.706-7.176,6.692-17.534,14.332-23.323,2.187-1.657,1.806-4.282.792-6.832l-1.846-4.643Z" transform="translate(-1846.068 -1079.412)" fill="#12263f"/>
          <path id="Trazado_116567" data-name="Trazado 116567" d="M1831.692,1079.956c11.524.695,7.932-17.715,7.725-18.447l17.49,12.353s-.926,9.845-15.467,15.01a18.069,18.069,0,0,1-10.014.725A15.914,15.914,0,0,0,1831.692,1079.956Z" transform="translate(-1801.935 -1002.246)" fill="#4dd0e1"/>
          <path id="Trazado_116568" data-name="Trazado 116568" d="M1740.139,1101.614c4.294-2.987,9.159,0,9.159,0,5.741,3.755,9.989,5.352,13.123,5.541a15.912,15.912,0,0,1-.267,9.64c-6.432-1.382-11.034-6.038-13.034-8.426a2.077,2.077,0,0,0-2.875-.314c-.894.706-1.762,1.673-1.605,2.69.311,2.007-2.018,2.645-2.193,1.917s.8-5.042.8-5.042-4.657,4.683-6.475,6.482-4.1,0-4.1,0S1735.845,1104.6,1740.139,1101.614Z" transform="translate(-1732.665 -1029.444)" fill="#edbea1"/>
          <path id="Trazado_116569" data-name="Trazado 116569" d="M1897.036,964.442s-16.765-6.713-47.964,19.045c0,0-2.606,5.395.237,10.2s29.931,28.2,33.655,41.17c0,0,16.138,5.244,32.828-7.191C1915.792,1027.662,1914.319,991.554,1897.036,964.442Z" transform="translate(-1813.548 -933.61)" fill="#4dd0e1"/>
          <path id="Trazado_116570" data-name="Trazado 116570" d="M1875.106,946.232l8.253,10a3.284,3.284,0,0,1,.433,3.531c-1.145,2.337-3.863,5.738-9.891,5.268a5.065,5.065,0,0,1-4.164-2.841l-5.771-11.929Z" transform="translate(-1824.76 -921.391)" fill="#edbea1"/>
          <path id="Trazado_116571" data-name="Trazado 116571" d="M2014,1009.142c1.946-7.926-17.767-25.6-17.767-25.6l4.788-17.252s42.567,28.337,31.719,51.125a16.6,16.6,0,0,1-6.015,7.085C2023.3,1015.277,2017.835,1011.046,2014,1009.142Z" transform="translate(-1917.532 -935.461)" fill="#4dd0e1"/>
          <path id="Trazado_116572" data-name="Trazado 116572" d="M2012.951,1043.616a.465.465,0,0,0,.452-.355c1.99-8.1-17.1-25.325-17.908-26.054a.466.466,0,1,0-.622.694c.2.174,19.484,17.573,17.626,25.138a.467.467,0,0,0,.342.564A.491.491,0,0,0,2012.951,1043.616Z" transform="translate(-1916.469 -971.089)" fill="#1565c0"/>
          <path id="Trazado_116573" data-name="Trazado 116573" d="M1909.518,1106.635s23.372,9.074,29.077,2.249a3.834,3.834,0,0,0,.781-1.567c3.835,1.9,9.3,6.135,12.725,15.362-12.292,7.855-33.3-4.37-38.985-7.973a4.24,4.24,0,0,0-3.14-.576c-2.191.454-5.977,1.122-8.018.808-2.987-.46-7.277,10.076-12.117,6.826C1889.841,1121.763,1893.986,1103.45,1909.518,1106.635Z" transform="translate(-1842.908 -1033.637)" fill="#edbea1"/>
          <g id="Grupo_79884" data-name="Grupo 79884" transform="translate(27.297)">
            <path id="Trazado_116574" data-name="Trazado 116574" d="M1841.129,891.246c-.083.322,1.935,22.192,1.935,22.192l12.463-1.417,1.167-21.013S1842.519,885.861,1841.129,891.246Z" transform="translate(-1836.037 -881.1)" fill="#edbea1"/>
            <path id="Trazado_116575" data-name="Trazado 116575" d="M1841.493,877.3l.252,11.109a1.533,1.533,0,0,1-.048.419c-.217.845-1.176,3.7-4.034,2.537-2.593-1.052-4.976-1.973-6.728-1.641a1.551,1.551,0,0,0-1.257,1.667,67.042,67.042,0,0,0,1.705,10.274,1.548,1.548,0,0,0,1.769,1.115,50.012,50.012,0,0,0,11.2-3.21,1.552,1.552,0,0,0,.9-1.306c.187-2.777.786-11.216,1.316-13.541.5-2.183,3.357-3.21,4.588-3.555a1.525,1.525,0,0,0,.937-.755c.7-1.308,1.8-4.391-2.051-6.126a1.554,1.554,0,0,1-.759-2.105c.772-1.58,1.3-4.064-1.639-5.785a5.686,5.686,0,0,0-6.923.885,1.553,1.553,0,0,1-1.992.016,1.228,1.228,0,0,0-1.394-.105,1.529,1.529,0,0,1-2.081-.889,4.635,4.635,0,0,0-5.06-3.255c-5.552.335-6.832,6.306-5.783,10s7.048,2.991,10.179,1.529c2.38-1.111,5.119.628,6.3,1.526A1.54,1.54,0,0,1,1841.493,877.3Z" transform="translate(-1824.082 -863.039)" fill="#12263f"/>
            <path id="Trazado_116576" data-name="Trazado 116576" d="M1898.449,929.74s-1.552-6.52.919-7.8,5.792-.112,4.542,4.35C1902.356,931.837,1898.449,929.74,1898.449,929.74Z" transform="translate(-1875.906 -904.006)" fill="#edbea1"/>
          </g>
        </g>
        <g id="Grupo_79886" data-name="Grupo 79886" transform="translate(3.338 46.369)">
          <path id="Trazado_116577" data-name="Trazado 116577" d="M1795.035,1157c-.038,0-.075,0-.113,0l-49.039-.053a2.2,2.2,0,1,1,0-4.39l49.038.054a2.195,2.195,0,0,1,.108,4.387Z" transform="translate(-1698.535 -1112.48)" fill="#12263f"/>
          <path id="Trazado_116578" data-name="Trazado 116578" d="M1595.73,1018.327h40.839a7.784,7.784,0,0,1,7.04,4.463l18.88,40.034h-50.753a4.73,4.73,0,0,1-4.4-2.992l-14.641-37.046A3.262,3.262,0,0,1,1595.73,1018.327Z" transform="translate(-1592.466 -1018.327)" fill="#12263f"/>
        </g>
        <g id="Grupo_79888" data-name="Grupo 79888" transform="translate(0 90.426)">
          <g id="Grupo_79887" data-name="Grupo 79887" transform="translate(11.163 4.386)">
            <path id="Trazado_116579" data-name="Trazado 116579" d="M1620.733,1281.823a2.118,2.118,0,0,1-.813-.163,1.971,1.971,0,0,1-1.078-2.621l43.218-97.266a2.088,2.088,0,0,1,2.708-1.045,1.972,1.972,0,0,1,1.079,2.621l-43.219,97.267A2.064,2.064,0,0,1,1620.733,1281.823Z" transform="translate(-1618.673 -1180.565)" fill="#745d60"/>
            <path id="Trazado_116580" data-name="Trazado 116580" d="M1682.263,1281.822a2.065,2.065,0,0,1-1.894-1.207l-43.218-97.267a1.972,1.972,0,0,1,1.078-2.621,2.087,2.087,0,0,1,2.707,1.045l43.218,97.266a1.971,1.971,0,0,1-1.078,2.621A2.114,2.114,0,0,1,1682.263,1281.822Z" transform="translate(-1631.515 -1180.564)" fill="#745d60"/>
            <path id="Trazado_116581" data-name="Trazado 116581" d="M2068.759,1281.823a2.119,2.119,0,0,1-.813-.163,1.972,1.972,0,0,1-1.079-2.621l43.219-97.266a2.087,2.087,0,0,1,2.707-1.045,1.972,1.972,0,0,1,1.079,2.621l-43.219,97.267A2.064,2.064,0,0,1,2068.759,1281.823Z" transform="translate(-1932.919 -1180.565)" fill="#745d60"/>
            <path id="Trazado_116582" data-name="Trazado 116582" d="M2130.287,1281.822a2.064,2.064,0,0,1-1.894-1.207l-43.219-97.267a1.972,1.972,0,0,1,1.079-2.621,2.088,2.088,0,0,1,2.708,1.045l43.218,97.266a1.972,1.972,0,0,1-1.078,2.621A2.118,2.118,0,0,1,2130.287,1281.822Z" transform="translate(-1945.76 -1180.564)" fill="#745d60"/>
          </g>
          <path id="Trazado_116583" data-name="Trazado 116583" d="M1782.047,1168.466a2.372,2.372,0,0,0-.409-1.8,1.872,1.872,0,0,0-1.5-.791H1583.526a2.191,2.191,0,0,0-1.885,1.155,2.768,2.768,0,0,0-.147,2.4l2.131,5.162a2.983,2.983,0,0,0,2.708,1.939h192.455a2.341,2.341,0,0,0,2.218-2.048Z" transform="translate(-1581.288 -1165.875)" fill="#745d60"/>
        </g>
      </g>
      <path id="Trazado_116585" data-name="Trazado 116585" d="M12.536,0A12.536,12.536,0,1,1,0,12.536,12.536,12.536,0,0,1,12.536,0Z" transform="translate(-60.804 152.021)" fill="#039be5"/>
      <circle id="Elipse_4803" data-name="Elipse 4803" cx="5.804" cy="5.804" r="5.804" transform="translate(277.009 157.842)" fill="#26a69a"/>
      <circle id="Elipse_4804" data-name="Elipse 4804" cx="6.958" cy="6.958" r="6.958" transform="translate(-78 123.854)" fill="#1565c0"/>
      <path id="Trazado_116586" data-name="Trazado 116586" d="M6.958,0A6.958,6.958,0,1,1,0,6.958,6.958,6.958,0,0,1,6.958,0Z" transform="translate(237.731 76.464)" fill="#ffca28"/>
    </g>
  </g>
</svg>
