<svg xmlns="http://www.w3.org/2000/svg" width="490" height="434" viewBox="0 0 490 434">
  <g id="img2" transform="translate(-874.951 -6420)">
    <g id="Grupo_79400" data-name="Grupo 79400" transform="translate(874.952 6420)">
      <rect id="Rectángulo_34073" data-name="Rectángulo 34073" width="490" height="434" transform="translate(0)" fill="#f6f6f6"/>
    </g>
    <g id="Grupo_79854" data-name="Grupo 79854" transform="translate(902.967 6436.657)">
      <g id="Background_Complete" data-name="Background Complete" transform="translate(21.482 51.827)">
        <g id="Grupo_79839" data-name="Grupo 79839" transform="translate(0 0)">
          <g id="Grupo_79832" data-name="Grupo 79832" transform="translate(0 124.863)">
            <g id="Grupo_79828" data-name="Grupo 79828" transform="translate(32.069 24.704)">
              <rect id="Rectángulo_34330" data-name="Rectángulo 34330" width="10.649" height="50.569" fill="#f0f0f0"/>
              <rect id="Rectángulo_34331" data-name="Rectángulo 34331" width="7.22" height="34.284" transform="translate(1.715 3.889)" fill="#fafafa"/>
              <rect id="Rectángulo_34332" data-name="Rectángulo 34332" width="22.743" height="50.569" transform="translate(33.392 50.569) rotate(180)" fill="#e0e0e0"/>
            </g>
            <g id="Grupo_79829" data-name="Grupo 79829" transform="translate(44.944 24.704)">
              <rect id="Rectángulo_34333" data-name="Rectángulo 34333" width="10.649" height="50.569" fill="#f0f0f0"/>
              <rect id="Rectángulo_34334" data-name="Rectángulo 34334" width="7.22" height="34.284" transform="translate(1.715 3.889)" fill="#fafafa"/>
              <rect id="Rectángulo_34335" data-name="Rectángulo 34335" width="22.743" height="50.569" transform="translate(33.392 50.569) rotate(180)" fill="#e0e0e0"/>
            </g>
            <rect id="Rectángulo_34336" data-name="Rectángulo 34336" width="3.851" height="180.049" transform="translate(66.664 5.017)" fill="#ebebeb"/>
            <rect id="Rectángulo_34337" data-name="Rectángulo 34337" width="3.851" height="180.049" transform="translate(2.046 5.017)" fill="#ebebeb"/>
            <rect id="Rectángulo_34338" data-name="Rectángulo 34338" width="3.851" height="180.049" transform="translate(83.27 5.017)" fill="#ebebeb"/>
            <rect id="Rectángulo_34339" data-name="Rectángulo 34339" width="3.851" height="180.049" transform="translate(18.652 5.017)" fill="#ebebeb"/>
            <g id="Grupo_79830" data-name="Grupo 79830" transform="translate(14.259 99.976)">
              <rect id="Rectángulo_34340" data-name="Rectángulo 34340" width="10.649" height="50.569" transform="translate(0 0)" fill="#f0f0f0"/>
              <rect id="Rectángulo_34341" data-name="Rectángulo 34341" width="7.22" height="34.284" transform="translate(1.715 3.889)" fill="#fafafa"/>
              <rect id="Rectángulo_34342" data-name="Rectángulo 34342" width="22.743" height="50.569" transform="translate(33.392 50.569) rotate(180)" fill="#e0e0e0"/>
            </g>
            <g id="Grupo_79831" data-name="Grupo 79831" transform="translate(27.135 99.976)">
              <rect id="Rectángulo_34343" data-name="Rectángulo 34343" width="10.649" height="50.569" transform="translate(0 0)" fill="#f0f0f0"/>
              <rect id="Rectángulo_34344" data-name="Rectángulo 34344" width="7.22" height="34.284" transform="translate(1.715 3.889)" fill="#fafafa"/>
              <rect id="Rectángulo_34345" data-name="Rectángulo 34345" width="22.743" height="50.569" transform="translate(33.392 50.569) rotate(180)" fill="#e0e0e0"/>
            </g>
            <rect id="Rectángulo_34346" data-name="Rectángulo 34346" width="87.121" height="5.017" fill="#f0f0f0"/>
            <rect id="Rectángulo_34347" data-name="Rectángulo 34347" width="87.121" height="5.017" transform="translate(0 75.273)" fill="#f0f0f0"/>
            <rect id="Rectángulo_34348" data-name="Rectángulo 34348" width="87.121" height="5.017" transform="translate(0 150.545)" fill="#f0f0f0"/>
          </g>
          <g id="Grupo_79833" data-name="Grupo 79833" transform="translate(15.696 11.163)">
            <rect id="Rectángulo_34349" data-name="Rectángulo 34349" width="59.538" height="74.841" transform="translate(72.682 74.841) rotate(180)" fill="#f0f0f0"/>
            <rect id="Rectángulo_34350" data-name="Rectángulo 34350" width="70.401" height="74.841" transform="translate(70.401 74.841) rotate(180)" fill="#f5f5f5"/>
            <rect id="Rectángulo_34351" data-name="Rectángulo 34351" width="63.045" height="58.605" transform="translate(5.898 68.943) rotate(-90)" fill="#fff"/>
            <circle id="Elipse_4798" data-name="Elipse 4798" cx="13.231" cy="13.231" r="13.231" transform="translate(21.97 24.19)" fill="#f0f0f0"/>
          </g>
          <g id="Grupo_79834" data-name="Grupo 79834" transform="translate(136.661)">
            <rect id="Rectángulo_34352" data-name="Rectángulo 34352" width="225.382" height="131.14" transform="translate(258.031 131.14) rotate(180)" fill="#f0f0f0"/>
            <rect id="Rectángulo_34353" data-name="Rectángulo 34353" width="251.779" height="131.14" transform="translate(251.779 131.14) rotate(180)" fill="#f5f5f5"/>
            <rect id="Rectángulo_34354" data-name="Rectángulo 34354" width="110.471" height="222.478" transform="translate(14.651 120.806) rotate(-90)" fill="#fff"/>
            <rect id="Rectángulo_34355" data-name="Rectángulo 34355" width="35.232" height="222.478" transform="translate(14.651 45.566) rotate(-90)" fill="#fafafa"/>
            <rect id="Rectángulo_34356" data-name="Rectángulo 34356" width="46.594" height="222.478" transform="translate(14.651 120.806) rotate(-90)" fill="#f0f0f0"/>
          </g>
          <g id="Grupo_79835" data-name="Grupo 79835" transform="translate(169.88 209.705)">
            <rect id="Rectángulo_34357" data-name="Rectángulo 34357" width="6.644" height="100.222" transform="translate(216.878 0)" fill="#e6e6e6"/>
            <rect id="Rectángulo_34358" data-name="Rectángulo 34358" width="4.614" height="100.222" transform="translate(221.005 0)" fill="#f0f0f0"/>
            <rect id="Rectángulo_34359" data-name="Rectángulo 34359" width="175.381" height="11.298" transform="translate(227.048 11.298) rotate(180)" fill="#f0f0f0"/>
            <rect id="Rectángulo_34360" data-name="Rectángulo 34360" width="6.644" height="88.925" transform="translate(42.048 11.298)" fill="#e6e6e6"/>
            <rect id="Rectángulo_34361" data-name="Rectángulo 34361" width="4.614" height="88.925" transform="translate(46.175 11.298)" fill="#f0f0f0"/>
            <rect id="Rectángulo_34362" data-name="Rectángulo 34362" width="6.644" height="88.925" transform="translate(0 11.298)" fill="#e6e6e6"/>
            <rect id="Rectángulo_34363" data-name="Rectángulo 34363" width="4.614" height="88.925" transform="translate(4.127 11.298)" fill="#e6e6e6"/>
            <rect id="Rectángulo_34364" data-name="Rectángulo 34364" width="6.645" height="88.925" transform="translate(174.83 11.298)" fill="#e6e6e6"/>
            <rect id="Rectángulo_34365" data-name="Rectángulo 34365" width="4.614" height="88.925" transform="translate(178.957 11.298)" fill="#e6e6e6"/>
            <rect id="Rectángulo_34366" data-name="Rectángulo 34366" width="51.667" height="11.298" transform="translate(0 0)" fill="#e6e6e6"/>
          </g>
          <g id="Grupo_79838" data-name="Grupo 79838" transform="translate(286.56 109.425)">
            <g id="Grupo_79836" data-name="Grupo 79836">
              <path id="Trazado_116436" data-name="Trazado 116436" d="M399.195,261.05c-5.66,6.323-25.925,12.91-31.92-6.957-4.359-14.445,20.014-25.126,34.6-25.741,15.715-.664,25,4.871,25,4.871A347.99,347.99,0,0,0,399.195,261.05Z" transform="translate(-332.15 -183.7)" fill="#e6e6e6"/>
              <path id="Trazado_116437" data-name="Trazado 116437" d="M367.669,265.32c7.959.847,21.493-5.24,16.138-21.953S367.495,225.1,360.249,223.7c-9.236-1.78-27.7,5.763-27.7,5.763S359.71,264.472,367.669,265.32Z" transform="translate(-332.551 -183.757)" fill="#e6e6e6"/>
              <path id="Trazado_116438" data-name="Trazado 116438" d="M388.019,235.028c-10.025,4.554-18.432,6.1-13.686-8.086s10.525-21,19.94-23.882c12-3.679,26.244,4.225,26.244,4.225S398.045,230.475,388.019,235.028Z" transform="translate(-332.077 -184.007)" fill="#e6e6e6"/>
              <path id="Trazado_116439" data-name="Trazado 116439" d="M374.747,234.066c7.658,2.266,13.686,1.787,7.976-11.882s-9.514-15.378-16.055-18c-12.1-4.844-22.238,3.851-22.238,3.851S367.089,231.8,374.747,234.066Z" transform="translate(-332.412 -184)" fill="#e6e6e6"/>
              <path id="Trazado_116440" data-name="Trazado 116440" d="M391.042,211.727c-8.318,7.282-15.974,11.9-15.633.577s6.223-21.475,15.171-26.043c6.161-3.145,19.78-1.723,19.78-1.723S399.362,204.443,391.042,211.727Z" transform="translate(-332.049 -184.217)" fill="#e6e6e6"/>
              <path id="Trazado_116441" data-name="Trazado 116441" d="M369.847,209.773c5.439,4.336,10.163,6.623,8.448-2.576s-4.751-11.681-9.958-14.928a18.966,18.966,0,0,0-13.888-2.13S364.408,205.437,369.847,209.773Z" transform="translate(-332.294 -184.153)" fill="#e6e6e6"/>
            </g>
            <g id="Grupo_79837" data-name="Grupo 79837" transform="translate(20.366 77.125)">
              <path id="Trazado_116442" data-name="Trazado 116442" d="M407.329,260.449H352.681l7.193,23.153h40.262Z" transform="translate(-352.681 -260.449)" fill="#f0f0f0"/>
            </g>
          </g>
        </g>
      </g>
      <g id="Shadow" transform="translate(0 383.181)">
        <ellipse id="_Path_" data-name="&lt;Path&gt;" cx="219.946" cy="12.752" rx="219.946" ry="12.752" fill="#f5f5f5"/>
      </g>
      <g id="Character_2" data-name="Character 2" transform="translate(192.734 66.529)">
        <g id="Grupo_79844" data-name="Grupo 79844" transform="translate(0 0)">
          <g id="Grupo_79843" data-name="Grupo 79843">
            <path id="Trazado_116443" data-name="Trazado 116443" d="M294.285,186.754l-1.393,1.842c-.452.579-.916,1.141-1.378,1.7-.921,1.127-1.893,2.205-2.87,3.287a85.08,85.08,0,0,1-6.293,6.218c-1.128,1-2.284,1.978-3.5,2.938-1.235.944-2.519,1.868-3.889,2.761a31.167,31.167,0,0,1-10.14,4.5l-.39.09a6.237,6.237,0,0,1-1.152.15,13.469,13.469,0,0,1-5.374-.947,17.112,17.112,0,0,1-3.425-1.822,29.416,29.416,0,0,1-4.551-3.9,57.181,57.181,0,0,1-6.256-7.962c-1.775-2.7-3.37-5.426-4.826-8.206a90.636,90.636,0,0,1-3.963-8.566,4.52,4.52,0,0,1,7.583-4.66l.1.113,5.809,6.56c1.947,2.164,3.894,4.291,5.874,6.276a57.971,57.971,0,0,0,5.88,5.323,13.073,13.073,0,0,0,2.555,1.6,1.269,1.269,0,0,0,.607.162c.035-.021-.258-.214-.962-.211l-1.542.24a23.03,23.03,0,0,0,4.26-2.788,68.4,68.4,0,0,0,5.081-4.653c1.68-1.724,3.382-3.519,5.027-5.4l2.465-2.824,2.339-2.755.284-.333a9,9,0,0,1,14.043,11.261Z" transform="translate(-224.155 -117.611)" fill="#263238"/>
            <path id="Trazado_116444" data-name="Trazado 116444" d="M237.873,177.775c-4.344.676-8.481-6.372-8.481-6.372l-3.251-3.877a3.5,3.5,0,0,1,.026-4.532l2.808-3.268a3.5,3.5,0,0,1,4.995-.325l3.731,3.345a6.213,6.213,0,0,1,1.551,2.151l1.452,3.34a8.068,8.068,0,0,1-1.331,8.533l-.27.307A2.073,2.073,0,0,1,237.873,177.775Z" transform="translate(-225.321 -119.354)" fill="#ffc3bd"/>
            <path id="Trazado_116445" data-name="Trazado 116445" d="M335.75,328.449c-5.517-40.791-7.691-64.984-11.226-85.27l-34.693-.523s15.528,65.053,22.941,91.553c7.444,26.6,49.309,92.564,49.309,92.564L371.3,421.3S345.65,359.339,335.75,328.449Z" transform="translate(-217.182 -108.736)" fill="#263238"/>
            <path id="Trazado_116446" data-name="Trazado 116446" d="M348.55,417.023s6.926-8.487,6.816-11.352L363,401.136l4.207,8.4-3.685,2.188-1.115-.341-.8,1.479c-3.808,2.261-9.939,5.7-12.784,6.231A2.21,2.21,0,0,1,348.55,417.023Z" transform="translate(-209.79 -88.74)" fill="#263238"/>
            <path id="Trazado_116447" data-name="Trazado 116447" d="M325.339,170.317c-12.267-1.523-29.8-1.383-41.556.645a14.242,14.242,0,0,0-11.546,11.975c-2.474,17.747-.347,48.777,1.232,80.007,26.846,9.185,55.177-.124,55.177-.124.976-6.3-1.222-26.945-2.7-37.968,2.214-11.38,6.915-24.41,10.018-39.523A12.381,12.381,0,0,0,325.339,170.317Z" transform="translate(-219.544 -117.993)" fill="#263238"/>
            <path id="Trazado_116448" data-name="Trazado 116448" d="M291.56,169.882c-1.475,1.485-2.458,3.817-2.98,6.817-1.259,7.21.168,18.315,3.964,31.053,3.639-10.259,11.469-23.833,16.279-31.722,2.273-3.738,3.866-6.206,4.014-6.423a.031.031,0,0,0,.01-.02A44.265,44.265,0,0,0,291.56,169.882Z" transform="translate(-217.396 -118.102)" fill="#407bff"/>
            <g id="Grupo_79840" data-name="Grupo 79840" transform="translate(71.824 28.88)">
              <path id="Trazado_116449" data-name="Trazado 116449" d="M310.728,149.385l-13.97,11.459c1.808,4.808,2.381,9.814-5.509,11.739-1.975,2.607,1.506,5.594,4.768,6.959,5.267-.655,12.694-2.409,15.906-6.822C310.91,169.256,309.374,156.5,310.728,149.385Z" transform="translate(-288.899 -149.385)" fill="#ffc3bd"/>
              <path id="Trazado_116450" data-name="Trazado 116450" d="M292.458,173.826a10.588,10.588,0,0,0,2.9,4.372c2.132,0,5.247-2.4,5.247-2.4s-1.205-3.377-2.9-4.066C293.387,172.788,292.458,173.826,292.458,173.826Z" transform="translate(-288.674 -146.566)" fill="#fff"/>
              <path id="Trazado_116451" data-name="Trazado 116451" d="M297.744,176.237a3.084,3.084,0,0,0-2.35-.6c-2.794,3.974-4.575,10.141-6.3,17.253a119.448,119.448,0,0,0,3.324,13.958,109.939,109.939,0,0,1,5.429-12.344A74.031,74.031,0,0,1,297.744,176.237Z" transform="translate(-289.098 -146.078)" fill="#fff"/>
              <path id="Trazado_116452" data-name="Trazado 116452" d="M304.221,153.631l-8.14,6.671a17.858,17.858,0,0,1,.979,3.444c3.156.225,7.543-2.97,7.744-5.848A11.939,11.939,0,0,0,304.221,153.631Z" transform="translate(-288.217 -148.849)" opacity="0.2"/>
            </g>
            <path id="Trazado_116453" data-name="Trazado 116453" d="M290.219,132.565c-4.534,2.6-2.17,5.207-2.17,5.207s-1.926,5.183.63,8.75C300.662,132.174,290.219,132.565,290.219,132.565Z" transform="translate(-217.494 -122.627)" fill="#263238"/>
            <path id="Trazado_116454" data-name="Trazado 116454" d="M313.163,144.025c-1.274,8.765-1.573,13.962-6.4,18.076-7.265,6.188-17.815,1.149-19.188-7.843-1.237-8.094,1.054-21.066,9.978-23.778A12.2,12.2,0,0,1,313.163,144.025Z" transform="translate(-217.506 -122.96)" fill="#ffc3bd"/>
            <path id="Trazado_116455" data-name="Trazado 116455" d="M313.828,150.288c-5.643.579-4.577-8.691-2.653-10.508-5.5.092-4.436-3.572-3.761-4.923-9.163,1.929-15.637,2.323-19.771-2.219-3.056-3.357-6.318.4-7.282-3.134,2.217,1.205,6.317-4.822,9.066-2.315s5.479-6.242,9.645-2.507c5.594,5.015,20.4-8.632,19.048,6.414,7.715,6.494-2.652,10.609-1.978,17.505C314.019,151.736,313.828,150.288,313.828,150.288Z" transform="translate(-218.377 -123.741)" fill="#263238"/>
            <path id="Trazado_116456" data-name="Trazado 116456" d="M311.32,132.817a.563.563,0,0,1-.077-1.121,8,8,0,0,0,4.527-3.13,3.773,3.773,0,0,0,.555-3.2.563.563,0,1,1,1.083-.306,4.913,4.913,0,0,1-.7,4.121,9.024,9.024,0,0,1-5.314,3.631A.627.627,0,0,1,311.32,132.817Z" transform="translate(-214.541 -123.626)" fill="#263238"/>
            <path id="Trazado_116457" data-name="Trazado 116457" d="M313.781,149.058a7.615,7.615,0,0,1-4.254,4.031c-2.528.94-4.04-1.265-3.545-3.767.445-2.252,2.3-5.456,4.935-5.322A3.478,3.478,0,0,1,313.781,149.058Z" transform="translate(-215.155 -121.185)" fill="#ffc3bd"/>
            <path id="Trazado_116458" data-name="Trazado 116458" d="M298.778,142.889c-.06.717-.489,1.264-.958,1.221s-.8-.66-.742-1.377.489-1.265.958-1.222S298.838,142.17,298.778,142.889Z" transform="translate(-216.268 -121.499)" fill="#263238"/>
            <path id="Trazado_116459" data-name="Trazado 116459" d="M291.158,142.7c-.06.717-.489,1.265-.958,1.221s-.8-.66-.742-1.377.489-1.265.958-1.221S291.217,141.985,291.158,142.7Z" transform="translate(-217.23 -121.522)" fill="#263238"/>
            <path id="Trazado_116460" data-name="Trazado 116460" d="M293.7,143.4a25.5,25.5,0,0,1-3.94,5.822c1.171,1.3,3.376.959,3.376.959Z" transform="translate(-217.19 -121.259)" fill="#ed847e"/>
            <path id="Trazado_116461" data-name="Trazado 116461" d="M301.52,141.181a.41.41,0,0,0,.213-.026.42.42,0,0,0,.233-.55,4.238,4.238,0,0,0-2.864-2.614.418.418,0,0,0-.5.33.428.428,0,0,0,.331.5h0a3.39,3.39,0,0,1,2.247,2.095A.425.425,0,0,0,301.52,141.181Z" transform="translate(-216.075 -121.943)" fill="#263238"/>
            <path id="Trazado_116462" data-name="Trazado 116462" d="M288.2,140.3a.418.418,0,0,0,.4-.057,3.317,3.317,0,0,1,2.989-.592.42.42,0,0,0,.538-.253.426.426,0,0,0-.252-.543,4.161,4.161,0,0,0-3.783.706.427.427,0,0,0,.113.74Z" transform="translate(-217.423 -121.857)" fill="#263238"/>
            <g id="Grupo_79841" data-name="Grupo 79841" transform="translate(80.883 51.485)">
              <path id="Trazado_116463" data-name="Trazado 116463" d="M311.71,169.457a.031.031,0,0,1-.01.02c-.147.216-1.741,2.685-4.014,6.423a17.726,17.726,0,0,1-8.155,4.278c.453-1.5-.894-6.6-2.39-8.164C300.664,172.191,305.513,171.591,311.71,169.457Z" transform="translate(-297.142 -169.457)" fill="#407bff"/>
              <path id="Trazado_116464" data-name="Trazado 116464" d="M311.71,169.457a.031.031,0,0,1-.01.02c-.147.216-1.741,2.685-4.014,6.423a17.726,17.726,0,0,1-8.155,4.278c.453-1.5-.894-6.6-2.39-8.164C300.664,172.191,305.513,171.591,311.71,169.457Z" transform="translate(-297.142 -169.457)" fill="#fff" opacity="0.3"/>
            </g>
            <g id="Grupo_79842" data-name="Grupo 79842" transform="translate(71.184 51.78)">
              <path id="Trazado_116465" data-name="Trazado 116465" d="M298.2,171.981a13.016,13.016,0,0,0-7.014,7.465,4.837,4.837,0,0,1-2.655-2.911c.521-3,1.5-5.331,2.98-6.817C292.326,170.762,294.549,171.784,298.2,171.981Z" transform="translate(-288.53 -169.719)" fill="#407bff"/>
              <path id="Trazado_116466" data-name="Trazado 116466" d="M298.2,171.981a13.016,13.016,0,0,0-7.014,7.465,4.837,4.837,0,0,1-2.655-2.911c.521-3,1.5-5.331,2.98-6.817C292.326,170.762,294.549,171.784,298.2,171.981Z" transform="translate(-288.53 -169.719)" fill="#fff" opacity="0.3"/>
            </g>
            <path id="Trazado_116467" data-name="Trazado 116467" d="M328.615,175.184c2.251,2.562,4.184,5.028,6.145,7.651,1.923,2.615,3.808,5.274,5.566,8.079a89,89,0,0,1,5.018,8.845,52.793,52.793,0,0,1,2.2,5.019A32.052,32.052,0,0,1,349.216,211l.087.557a6.758,6.758,0,0,1-.323,3.322,32.707,32.707,0,0,1-5.45,9.363,40.953,40.953,0,0,1-3.255,3.63c-1.124,1.126-2.256,2.205-3.43,3.207a72.389,72.389,0,0,1-7.276,5.47,66.609,66.609,0,0,1-7.861,4.477,4.516,4.516,0,0,1-5.268-7.131l.2-.217c1.747-1.89,3.674-3.92,5.412-5.915,1.762-2.008,3.469-4.024,5.01-6.072a52.9,52.9,0,0,0,4.1-6.1,20.36,20.36,0,0,0,2.281-5.552l-.237,3.88a20.745,20.745,0,0,0-1.139-2.644c-.548-1.056-1.169-2.211-1.868-3.362s-1.454-2.33-2.252-3.5c-.778-1.182-1.6-2.369-2.447-3.551-1.7-2.356-3.454-4.738-5.264-7.089l-5.407-6.977-.11-.142a9.01,9.01,0,0,1,13.89-11.467Z" transform="translate(-214.279 -117.635)" fill="#263238"/>
            <path id="Trazado_116468" data-name="Trazado 116468" d="M322.307,232.34a2.071,2.071,0,0,0-.409-1.348l-2.463-3.389a2.109,2.109,0,0,0-2.1-.831l-3.482.657a23.934,23.934,0,0,0-9.4,3.992l-.93.659a3.5,3.5,0,0,0-.789,4.942l2.564,3.462a3.5,3.5,0,0,0,4.415,1.03l4.5-2.312S322.007,236.729,322.307,232.34Z" transform="translate(-215.64 -110.745)" fill="#ffc3bd"/>
            <path id="Trazado_116469" data-name="Trazado 116469" d="M318.858,225.75a16.314,16.314,0,0,0-4.917.1c-1.007,2.578,3.247,10.335,5.434,11.683,1.393-.322,4.577-3.052,4.577-3.052C322.082,231.991,320.139,227.652,318.858,225.75Z" transform="translate(-214.159 -110.888)" fill="#407bff"/>
            <path id="Trazado_116470" data-name="Trazado 116470" d="M243.089,174.546a16.35,16.35,0,0,0-.641-4.875c-2.672-.717-9.915,4.364-11.014,6.686.474,1.349,3.537,4.213,3.537,4.213C237.239,178.437,241.339,176.029,243.089,174.546Z" transform="translate(-224.55 -117.954)" fill="#407bff"/>
            <path id="Trazado_116471" data-name="Trazado 116471" d="M354.036,408.032l10.41-5.8-2.386-6.45L350.5,403.622Z" transform="translate(-209.526 -89.415)" fill="#407bff"/>
            <path id="Trazado_116472" data-name="Trazado 116472" d="M303.628,332.127c2.471-41.158,7.224-68.662,5.241-88.948l-34.654-.523s3.523,65.3,5.686,92.487c2.172,27.3,13.835,94.327,13.835,94.327h10.723S307.389,363.967,303.628,332.127Z" transform="translate(-219.152 -108.736)" fill="#263238"/>
            <path id="Trazado_116473" data-name="Trazado 116473" d="M276.128,414.283s17.423-3.759,18.532-6.278h8.88l.289,9.369h-7.247l-.873-.863-1.354.863c-4.428,0-16.033-.171-18.852-1.171A1.988,1.988,0,0,1,276.128,414.283Z" transform="translate(-218.991 -87.873)" fill="#263238"/>
            <path id="Trazado_116474" data-name="Trazado 116474" d="M291.168,409.527l11.944.334.549-6.764-13.852.835Z" transform="translate(-217.184 -88.492)" fill="#407bff"/>
            <path id="Trazado_116475" data-name="Trazado 116475" d="M295.875,151.992a7.731,7.731,0,0,1-1.374-.073.222.222,0,0,1-.185-.273.262.262,0,0,1,.287-.207,6.935,6.935,0,0,0,5.73-1.794.233.233,0,1,1,.34.316A7.3,7.3,0,0,1,295.875,151.992Z" transform="translate(-216.616 -120.483)" fill="#263238"/>
          </g>
        </g>
      </g>
      <g id="Product_iteration" data-name="Product iteration" transform="translate(52.805 0)">
        <g id="Grupo_79849" data-name="Grupo 79849">
          <rect id="Rectángulo_34367" data-name="Rectángulo 34367" width="9.325" height="1.126" transform="translate(279.615 277.161)" fill="#4dd0e1"/>
          <rect id="Rectángulo_34368" data-name="Rectángulo 34368" width="20.944" height="1.126" transform="translate(295.85 277.161)" fill="#4dd0e1"/>
          <path id="Trazado_116476" data-name="Trazado 116476" d="M404.546,270.25H273.88l-21.026,38.907a2.588,2.588,0,0,0,2.277,3.819H404.546l10.682-21.362Z" transform="translate(-80.946 -38.725)" fill="#4dd0e1"/>
          <g id="Grupo_79845" data-name="Grupo 79845" transform="translate(166.269 0.137)">
            <path id="Trazado_116477" data-name="Trazado 116477" d="M258.693,107.64a94.6,94.6,0,0,1,85.789,88.894,2.582,2.582,0,0,0,3.732,2.179l15.869-7.928a4.193,4.193,0,0,1,3.817,0l15.584,7.786a2.6,2.6,0,0,0,3.75-2.435A137.328,137.328,0,0,0,258.365,64.787L247.812,85.894Z" transform="translate(-247.812 -64.787)" fill="#1565c0"/>
            <path id="Trazado_116478" data-name="Trazado 116478" d="M258.693,107.64a94.6,94.6,0,0,1,85.789,88.894,2.582,2.582,0,0,0,3.732,2.179l15.869-7.928a4.193,4.193,0,0,1,3.817,0l15.584,7.786a2.6,2.6,0,0,0,3.75-2.435A137.328,137.328,0,0,0,258.365,64.787L247.812,85.894Z" transform="translate(-247.812 -64.787)" fill="#1565c0" opacity="0.6"/>
          </g>
          <g id="Grupo_79846" data-name="Grupo 79846" transform="translate(28.483)">
            <path id="Trazado_116479" data-name="Trazado 116479" d="M171.146,193.207a94.6,94.6,0,0,1,88.9-85.788,2.583,2.583,0,0,0,2.179-3.734l-7.94-15.868a4.315,4.315,0,0,1,0-3.831l7.784-15.567a2.6,2.6,0,0,0-2.435-3.751A137.359,137.359,0,0,0,128.292,193.521L149.4,204.073Z" transform="translate(-128.292 -64.665)" fill="#148cc6"/>
            <path id="Trazado_116480" data-name="Trazado 116480" d="M171.146,193.207a94.6,94.6,0,0,1,88.9-85.788,2.583,2.583,0,0,0,2.179-3.734l-7.94-15.868a4.315,4.315,0,0,1,0-3.831l7.784-15.567a2.6,2.6,0,0,0-2.435-3.751A137.359,137.359,0,0,0,128.292,193.521L149.4,204.073Z" transform="translate(-128.292 -64.665)" fill="#148cc6" opacity="0.4"/>
          </g>
          <g id="Grupo_79847" data-name="Grupo 79847" transform="translate(0 139.808)">
            <path id="Trazado_116481" data-name="Trazado 116481" d="M259.9,280.156h-.015A94.629,94.629,0,0,1,174.1,191.264a2.584,2.584,0,0,0-3.734-2.179l-15.853,7.927a4.393,4.393,0,0,1-1.924.455,4.33,4.33,0,0,1-1.908-.455L135.1,189.226a2.6,2.6,0,0,0-3.751,2.435,136.668,136.668,0,0,0,37.671,88.865H103l10.81,21.634-10.425,20.85H260.217L270.77,301.9Z" transform="translate(-103 -188.809)" fill="#039be5"/>
            <path id="Trazado_116482" data-name="Trazado 116482" d="M259.9,280.156h-.015A94.629,94.629,0,0,1,174.1,191.264a2.584,2.584,0,0,0-3.734-2.179l-15.853,7.927a4.393,4.393,0,0,1-1.924.455,4.33,4.33,0,0,1-1.908-.455L135.1,189.226a2.6,2.6,0,0,0-3.751,2.435,136.668,136.668,0,0,0,37.671,88.865H103l10.81,21.634-10.425,20.85H260.217L270.77,301.9Z" transform="translate(-103 -188.809)" fill="#039be5" opacity="0.2"/>
          </g>
          <g id="Grupo_79848" data-name="Grupo 79848" transform="translate(171.353 134.723)">
            <path id="Trazado_116483" data-name="Trazado 116483" d="M343.675,195.16v.015a94.618,94.618,0,0,1-88.894,85.788A2.583,2.583,0,0,0,252.6,284.7l7.928,15.869a4.27,4.27,0,0,1,0,3.817l-7.785,15.583a2.6,2.6,0,0,0,2.434,3.751A137.331,137.331,0,0,0,386.529,194.847l-21.107-10.553Z" transform="translate(-252.326 -184.294)" fill="#407bff"/>
            <path id="Trazado_116484" data-name="Trazado 116484" d="M343.675,195.16v.015a94.618,94.618,0,0,1-88.894,85.788A2.583,2.583,0,0,0,252.6,284.7l7.928,15.869a4.27,4.27,0,0,1,0,3.817l-7.785,15.583a2.6,2.6,0,0,0,2.434,3.751A137.331,137.331,0,0,0,386.529,194.847l-21.107-10.553Z" transform="translate(-252.326 -184.294)" fill="#4dd0e1" opacity="0.8"/>
          </g>
        </g>
      </g>
      <g id="Character_1" data-name="Character 1" transform="translate(61.894 80.069)">
        <g id="Grupo_79853" data-name="Grupo 79853" transform="translate(0 0)">
          <path id="Trazado_116485" data-name="Trazado 116485" d="M260.876,189.307l-6.162-17.629-9.365.873a44.728,44.728,0,0,0-7.907-8.843l1.924-9.218-16.823-8.108-6.009,7.245a44.721,44.721,0,0,0-11.847-.678l-5.15-7.866-17.629,6.162.873,9.363a44.775,44.775,0,0,0-8.843,7.909l-9.217-1.924-8.108,16.823,7.246,6.01a44.759,44.759,0,0,0-.679,11.846l-7.867,5.15,6.162,17.629,9.359-.872a44.719,44.719,0,0,0,7.914,8.847l-1.924,9.212,16.823,8.108,6.01-7.245a44.805,44.805,0,0,0,11.846.676l5.15,7.869,17.629-6.162-.872-9.361a44.738,44.738,0,0,0,8.847-7.91l9.212,1.922,8.108-16.823-7.244-6.008a44.724,44.724,0,0,0,.676-11.848Zm-45.993,27.97a20.565,20.565,0,1,1,12.624-26.191A20.569,20.569,0,0,1,214.883,217.277Z" transform="translate(-105.488 -134.587)" fill="#0e529f"/>
          <g id="Grupo_79852" data-name="Grupo 79852">
            <path id="Trazado_116486" data-name="Trazado 116486" d="M150.562,195.132c-.539.834-1.19,1.919-1.79,2.9q-.905,1.527-1.769,3.095-1.735,3.127-3.32,6.356a129.692,129.692,0,0,0-5.632,13.2c-.714,1.774.021.718-.831-.4-.375-.455-.626-.441-.491-.369a2.713,2.713,0,0,0,.807.286,25.4,25.4,0,0,0,6.342.226c4.678-.286,9.616-1,14.42-1.768l.08-.013a2.522,2.522,0,0,1,1.351,4.826,80.67,80.67,0,0,1-14.867,4.59c-1.313.245-2.651.455-4.057.591a21.675,21.675,0,0,1-4.549.015,11.933,11.933,0,0,1-2.815-.644,7.541,7.541,0,0,1-3.485-2.538A6.772,6.772,0,0,1,128.812,223a7.608,7.608,0,0,1-.16-2.366,10.125,10.125,0,0,1,.338-1.788l.267-.94a102.016,102.016,0,0,1,5.322-14.7q1.591-3.569,3.476-7.009.946-1.716,1.96-3.411c.694-1.154,1.356-2.2,2.219-3.434A5.067,5.067,0,0,1,150.65,195Z" transform="translate(-108.856 -129.275)" fill="#7f3e3b"/>
            <path id="Trazado_116487" data-name="Trazado 116487" d="M166.852,220.686,164.5,222.64a3.556,3.556,0,0,1-3.177.705l-5.191-1.367a6.621,6.621,0,0,1-4.513-4.071l-.469-1.243c3.671-3.506,10.223-4.589,10.223-4.589l1.832-.516a2.955,2.955,0,0,1,3.714,1.971l1.07,3.62A3.4,3.4,0,0,1,166.852,220.686Z" transform="translate(-106.013 -126.215)" fill="#7f3e3b"/>
            <path id="Trazado_116488" data-name="Trazado 116488" d="M153.923,161.066c1.617,5.98,3.6,16.937-.283,20.927,0,0-2.983,5.606,14.652,4.7,12.346-.634,3.934-4.7,3.934-4.7-6.786-1.592-6.983-6.54-6.168-11.186Z" transform="translate(-105.723 -132.57)" fill="#7f3e3b"/>
            <g id="Grupo_79850" data-name="Grupo 79850" transform="translate(0 112.829)">
              <path id="Trazado_116489" data-name="Trazado 116489" d="M132.588,383.616l-11.434-4.207c-1,8.835-4.588,22.307-4.588,22.307l8.018,3.437S129.927,389,132.588,383.616Z" transform="translate(-110.377 -217.85)" fill="#7f3e3b"/>
              <path id="Trazado_116490" data-name="Trazado 116490" d="M127.153,416.176c-6.119-4.479-5.615-4.255-8.977-6.893-2.874-2.265-3.821-2.393-6.151-4.18-1.949-1.491-.628-3.43,1.416-5.277.784-.708,1.758-1.5,2.881-2.519a1.813,1.813,0,0,1,2.317-.118l7.158,5.24a2.092,2.092,0,0,1,.854,1.674,12.769,12.769,0,0,0,4.187,9.2C133.836,416.176,129.592,417.962,127.153,416.176Z" transform="translate(-111.07 -215.652)" fill="#263238"/>
              <path id="Trazado_116491" data-name="Trazado 116491" d="M181.774,235.951s-12.042,62-21.376,90.887c-9.8,30.34-24.122,64.1-30.622,83.877-2.012.26-7.773-2.142-10.586-4.539,0,0,4.3-51.838,18.973-78.607-1.488-78.113,13.379-91.618,13.379-91.618Z" transform="translate(-110.046 -235.951)" fill="#407bff"/>
              <path id="Trazado_116492" data-name="Trazado 116492" d="M181.774,235.951s-12.042,62-21.376,90.887c-9.8,30.34-24.122,64.1-30.622,83.877-2.012.26-7.773-2.142-10.586-4.539,0,0,4.3-51.838,18.973-78.607-1.488-78.113,13.379-91.618,13.379-91.618Z" transform="translate(-110.046 -235.951)" opacity="0.3"/>
              <path id="Trazado_116493" data-name="Trazado 116493" d="M155.094,256.6l12.44,23.65c-2.839,12.44-5.986,25.3-8.986,35.8C149.489,290.876,155.094,256.6,155.094,256.6Z" transform="translate(-105.732 -233.345)" opacity="0.2"/>
              <path id="Trazado_116494" data-name="Trazado 116494" d="M132.379,388.589a26.965,26.965,0,0,0-.811,4.125.788.788,0,0,1-1.041.668c-4.391-1.1-10.191-4.519-12.021-5.639a1.019,1.019,0,0,1-.5-.974l.507-3.963a.806.806,0,0,1,1.18-.586l12.062,5.22A1.018,1.018,0,0,1,132.379,388.589Z" transform="translate(-110.196 -217.506)" fill="#263238"/>
            </g>
            <g id="Grupo_79851" data-name="Grupo 79851" transform="translate(45.415 112.829)">
              <path id="Trazado_116495" data-name="Trazado 116495" d="M184.882,387.865l-10.98.806c1.8,8.761,3.676,22.592,3.676,22.592H186.3S184.748,393.858,184.882,387.865Z" transform="translate(-148.558 -216.783)" fill="#7f3e3b"/>
              <path id="Trazado_116496" data-name="Trazado 116496" d="M195.435,417.478c-7.583,0-7.035-.117-11.3-.26-3.648-.131-4.522.325-7.453.26-2.449-.052-2.355-2.4-1.6-5.095.289-1.034.7-2.244,1.114-3.733a1.987,1.987,0,0,1,1.908-1.465h8.871a1.921,1.921,0,0,1,1.614.847,11.659,11.659,0,0,0,8.446,4.952C201.119,413.531,198.457,417.478,195.435,417.478Z" transform="translate(-148.468 -214.345)" fill="#263238"/>
              <path id="Trazado_116497" data-name="Trazado 116497" d="M187.051,235.951s1.374,54.024,2.606,87.668-1.407,93.11-1.407,93.11c-.246,1.633-8.82.982-10.275,0,0,0-16.385-48.2-10.124-89.891-21.931-54.078-15.607-89.561-15.607-89.561Z" transform="translate(-151.398 -235.951)" fill="#407bff"/>
              <path id="Trazado_116498" data-name="Trazado 116498" d="M187.051,235.951s1.374,54.024,2.606,87.668-1.407,93.11-1.407,93.11c-.246,1.633-8.82.982-10.275,0,0,0-16.385-48.2-10.124-89.891-21.931-54.078-15.607-89.561-15.607-89.561Z" transform="translate(-151.398 -235.951)" opacity="0.3"/>
              <path id="Trazado_116499" data-name="Trazado 116499" d="M186.671,392.566c.033,1.11.1,3.089.2,4.551a.931.931,0,0,1-.811.976,61.215,61.215,0,0,1-11.338-.125.831.831,0,0,1-.747-.677l-.769-3.981a.932.932,0,0,1,.876-1.091l11.7-.466A.833.833,0,0,1,186.671,392.566Z" transform="translate(-148.647 -216.292)" fill="#263238"/>
            </g>
            <path id="Trazado_116500" data-name="Trazado 116500" d="M149.929,227.683a79.206,79.206,0,0,1-1.161,9.432h38.211l.4-9.72S157.932,225.722,149.929,227.683Z" transform="translate(-106.314 -124.285)" fill="#7f3e3b"/>
            <path id="Trazado_116501" data-name="Trazado 116501" d="M192.092,193.985a163.494,163.494,0,0,1-.268,17.613c-.318,7.648,1.14,9.524-.035,22.063-4.185,2.453-31.748,2.357-45.3.606.823-10.846,1.835-18.162-5.515-42.565-1.7-5.658,2.1-11.093,8.164-11.672,1.622-.154,3.342-.284,5.107-.364a138.562,138.562,0,0,1,18.585,0c2.02.172,4.114.412,6.115.673C186.168,181.282,191.87,187.2,192.092,193.985Z" transform="translate(-107.349 -130.263)" fill="#263238"/>
            <path id="Trazado_116502" data-name="Trazado 116502" d="M237.651,218.14l-1.53-2.642a3.555,3.555,0,0,0-2.74-1.757l-5.343-.506a6.625,6.625,0,0,0-5.64,2.267l-.868,1.006c2.239,4.557,8.016,7.83,8.016,7.83l1.543,1.116a2.956,2.956,0,0,0,4.166-.57l2.251-3.029A3.408,3.408,0,0,0,237.651,218.14Z" transform="translate(-97.133 -125.992)" fill="#7f3e3b"/>
            <path id="Trazado_116503" data-name="Trazado 116503" d="M190.495,195.089l.488.771c.217.323.425.664.672,1,.466.676,1,1.347,1.543,2.006a52.321,52.321,0,0,0,3.55,3.856c1.282,1.226,2.616,2.421,4.024,3.554s2.881,2.2,4.389,3.247l-.88-.408a64.007,64.007,0,0,0,6.32,1.934c2.235.577,4.507,1.163,6.8,1.694l6.907,1.637c2.3.571,4.635,1.095,6.929,1.679l.022.006a2.529,2.529,0,0,1-.624,4.98c-2.439,0-4.836-.119-7.255-.227-2.411-.131-4.82-.324-7.236-.553-2.411-.246-4.834-.52-7.271-.9a56.778,56.778,0,0,1-7.544-1.582,3.168,3.168,0,0,1-.645-.274l-.234-.135c-.918-.524-1.845-1.034-2.757-1.578-.9-.569-1.806-1.121-2.677-1.741a51.665,51.665,0,0,1-5.09-3.961,45.2,45.2,0,0,1-4.593-4.7c-.708-.859-1.4-1.738-2.05-2.684-.33-.463-.65-.954-.962-1.461-.154-.265-.305-.509-.461-.8s-.278-.5-.518-1a5.048,5.048,0,0,1,8.81-4.9Z" transform="translate(-102.267 -128.642)" fill="#7f3e3b"/>
            <path id="Trazado_116504" data-name="Trazado 116504" d="M176.612,180.722c7.429,1.97,13.8,8.339,22.547,20.918-1.219,5.142-12.413,11.07-12.413,11.07S163.48,189.543,176.612,180.722Z" transform="translate(-103.308 -130.09)" fill="#263238"/>
            <path id="Trazado_116505" data-name="Trazado 116505" d="M171.161,151.4c.278.777.913,1.292,1.418,1.149s.688-.889.41-1.666-.913-1.291-1.419-1.148S170.881,150.62,171.161,151.4Z" transform="translate(-103.505 -134.004)" fill="#263238"/>
            <path id="Trazado_116506" data-name="Trazado 116506" d="M171.325,149.943l1.662-1.062S172.558,150.607,171.325,149.943Z" transform="translate(-103.468 -134.108)" fill="#263238"/>
            <path id="Trazado_116507" data-name="Trazado 116507" d="M171.667,152.5a24.224,24.224,0,0,0,4.532,4.18c-.677,1.246-2.567,1.3-2.567,1.3Z" transform="translate(-103.425 -133.651)" fill="#630f0f"/>
            <path id="Trazado_116508" data-name="Trazado 116508" d="M170.618,145.67a.448.448,0,0,0,.283-.2.476.476,0,0,0-.188-.648,5.042,5.042,0,0,0-4.444-.506.439.439,0,0,0-.206.618.522.522,0,0,0,.658.238,4.029,4.029,0,0,1,3.516.437A.521.521,0,0,0,170.618,145.67Z" transform="translate(-104.139 -134.721)" fill="#263238"/>
            <path id="Trazado_116509" data-name="Trazado 116509" d="M147.574,157.1c3.713,9.1,5.09,13.014,11.416,16.447,9.516,5.164,19.933-.73,19.027-10.592-.816-8.878-6.751-22.261-17.139-23.391A12.585,12.585,0,0,0,147.574,157.1Z" transform="translate(-106.594 -135.295)" fill="#7f3e3b"/>
            <path id="Trazado_116510" data-name="Trazado 116510" d="M169.463,157.35c3.046,6.693,2.652,25.65-14.382,19.772S139.234,162,143.834,154.611c-9.246-8.273,2.7-14.843,13.679-17.831S178.12,136.467,169.463,157.35Z" transform="translate(-107.354 -135.763)" fill="#263238"/>
            <path id="Trazado_116511" data-name="Trazado 116511" d="M153.01,155.065a7.276,7.276,0,1,1-8.576-5.686A7.277,7.277,0,0,1,153.01,155.065Z" transform="translate(-107.597 -134.064)" fill="#407bff"/>
            <path id="Trazado_116512" data-name="Trazado 116512" d="M150.487,167.765c3.333-6.756.623-15.166-4.606-20.59-9.918-10.288-23.593-3.528-19.821,6.642,4.5,12.132-19.238,24.592-5.4,31.784,13.539,7.035,36.007-5.377,29.706-17.594C150.407,167.926,150.448,167.845,150.487,167.765Z" transform="translate(-110.414 -134.969)" fill="#263238"/>
            <path id="Trazado_116513" data-name="Trazado 116513" d="M162.951,156.049a6.752,6.752,0,0,0,4.452,3.158c2.3.364,3-2.3,2-4.782-.907-2.234-3.195-5.116-5.321-4.336C161.981,150.859,161.594,153.913,162.951,156.049Z" transform="translate(-104.625 -133.972)" fill="#7f3e3b"/>
            <path id="Trazado_116514" data-name="Trazado 116514" d="M149.495,180.036c-6.662,1.029-9.334,3.056-14.779,16.447,2.472,4.995,14.041,9.772,14.041,9.772S156.419,188.91,149.495,180.036Z" transform="translate(-108.087 -130.177)" fill="#263238"/>
            <path id="Trazado_116515" data-name="Trazado 116515" d="M187.816,239.029a183.956,183.956,0,0,1-41.1-.084.933.933,0,0,1-.713-1.305q.5-1.181,1-2.364a.86.86,0,0,1,.883-.546,180.206,180.206,0,0,0,39.512,0,.886.886,0,0,1,.956.825l.247,2.451A.923.923,0,0,1,187.816,239.029Z" transform="translate(-106.672 -123.277)" fill="#263238"/>
          </g>
        </g>
      </g>
    </g>
  </g>
</svg>
