<svg xmlns="http://www.w3.org/2000/svg" xmlns:xlink="http://www.w3.org/1999/xlink" width="283.982" height="223.999" viewBox="0 0 283.982 223.999">
  <defs>
    <linearGradient id="linear-gradient" x1="-9.821" y1="37.787" x2="-10.121" y2="42.527" gradientUnits="objectBoundingBox">
      <stop offset="0" stop-color="#fff"/>
      <stop offset="1" stop-color="#d3d3d3"/>
    </linearGradient>
    <linearGradient id="linear-gradient-2" x1="-15.559" y1="26.047" x2="-16.001" y2="29.266" xlink:href="#linear-gradient"/>
    <linearGradient id="linear-gradient-3" x1="0.5" x2="0.5" y2="1" gradientUnits="objectBoundingBox">
      <stop offset="0" stop-color="#4dd0e1"/>
      <stop offset="1" stop-color="#039be5"/>
    </linearGradient>
    <linearGradient id="linear-gradient-7" x1="0.5" y1="0" x2="0.5" y2="1" xlink:href="#linear-gradient"/>
    <linearGradient id="linear-gradient-20" y1="0.5" x2="1" y2="0.5" gradientUnits="objectBoundingBox">
      <stop offset="0" stop-color="#ff928e"/>
      <stop offset="1" stop-color="#feb3b1"/>
    </linearGradient>
    <linearGradient id="linear-gradient-22" x1="-0.326" y1="-0.124" x2="1.85" y2="1.295" xlink:href="#linear-gradient-20"/>
    <linearGradient id="linear-gradient-23" x1="-0.947" y1="-1.256" x2="0.878" y2="1.192" xlink:href="#linear-gradient-20"/>
    <linearGradient id="linear-gradient-24" x1="0.307" y1="-0.628" x2="0.574" y2="0.921" xlink:href="#linear-gradient-20"/>
    <linearGradient id="linear-gradient-25" x1="-0.056" y1="-1.268" x2="0.49" y2="0.682" xlink:href="#linear-gradient-20"/>
    <linearGradient id="linear-gradient-26" x1="0.008" y1="-0.063" x2="0.866" y2="0.877" xlink:href="#linear-gradient-20"/>
    <linearGradient id="linear-gradient-27" x1="2.695" y1="-7.847" x2="3.743" y2="-7.847" gradientUnits="objectBoundingBox">
      <stop offset="0" stop-color="#020039"/>
      <stop offset="1" stop-color="#090056"/>
    </linearGradient>
    <linearGradient id="linear-gradient-28" x1="0.203" y1="-0.879" x2="1.071" y2="2.854" xlink:href="#linear-gradient-20"/>
    <linearGradient id="linear-gradient-29" x1="0.5" x2="0.5" y2="1" gradientUnits="objectBoundingBox">
      <stop offset="0" stop-color="#f5f5f5"/>
      <stop offset="0.25" stop-color="#f5f5f5"/>
      <stop offset="1" stop-color="#a7b3cf"/>
    </linearGradient>
    <linearGradient id="linear-gradient-30" x1="24.395" y1="0.5" x2="25.395" y2="0.5" xlink:href="#linear-gradient-20"/>
    <linearGradient id="linear-gradient-31" x1="19.747" y1="0.5" x2="20.747" y2="0.5" xlink:href="#linear-gradient-20"/>
    <linearGradient id="linear-gradient-32" x1="0.196" y1="-0.419" x2="0.467" y2="0.28" xlink:href="#linear-gradient-20"/>
    <linearGradient id="linear-gradient-33" x1="0.291" y1="0.086" x2="1.1" y2="1.572" xlink:href="#linear-gradient-20"/>
    <linearGradient id="linear-gradient-34" x1="1.523" y1="1.716" x2="-0.353" y2="-0.451" xlink:href="#linear-gradient-20"/>
    <linearGradient id="linear-gradient-35" x1="2.433" y1="0.5" x2="3.433" y2="0.5" xlink:href="#linear-gradient-20"/>
    <linearGradient id="linear-gradient-36" x1="11.544" y1="0.5" x2="12.544" y2="0.5" xlink:href="#linear-gradient-20"/>
    <linearGradient id="linear-gradient-37" x1="0.401" y1="0.177" x2="0.592" y2="0.993" xlink:href="#linear-gradient-20"/>
    <linearGradient id="linear-gradient-38" x1="-0.006" y1="-0.626" x2="0.554" y2="0.648" xlink:href="#linear-gradient-20"/>
    <linearGradient id="linear-gradient-39" x1="-358.804" y1="-135.006" x2="-359.748" y2="-139.653" xlink:href="#linear-gradient-20"/>
    <linearGradient id="linear-gradient-40" x1="0" y1="0.5" x2="1" y2="0.5" xlink:href="#linear-gradient"/>
  </defs>
  <g id="img3" transform="translate(-224.149 -110.105)">
    <g id="Grupo_54423" data-name="Grupo 54423" transform="translate(248.235 110.105)">
      <g id="Grupo_54421" data-name="Grupo 54421" transform="translate(0 16.463)">
        <circle id="Elipse_4092" data-name="Elipse 4092" cx="46.751" cy="46.751" r="46.751" fill="#ffa726"/>
        <g id="Grupo_54418" data-name="Grupo 54418" transform="translate(4.852 4.852)">
          <circle id="Elipse_4093" data-name="Elipse 4093" cx="39.9" cy="39.9" r="39.9" transform="translate(1.998 1.998)" fill="#ffa726"/>
          <path id="Trazado_116689" data-name="Trazado 116689" d="M488.473,329.2a41.9,41.9,0,1,1,41.9-41.9A41.946,41.946,0,0,1,488.473,329.2Zm0-79.8a37.9,37.9,0,1,0,37.9,37.9A37.945,37.945,0,0,0,488.473,249.4Z" transform="translate(-446.574 -245.403)" fill="#fff"/>
        </g>
        <g id="Grupo_54419" data-name="Grupo 54419" transform="translate(12.35 12.35)">
          <circle id="Elipse_4094" data-name="Elipse 4094" cx="24.325" cy="24.325" r="24.325" transform="translate(0 34.401) rotate(-45)" fill="#ffa726"/>
          <path id="Trazado_116690" data-name="Trazado 116690" d="M571.758,396.908a26.323,26.323,0,1,1,26.323-26.323A26.353,26.353,0,0,1,571.758,396.908Zm0-48.65a22.327,22.327,0,1,0,22.326,22.326A22.352,22.352,0,0,0,571.758,348.258Z" transform="translate(-537.358 -336.184)" fill="#fff"/>
        </g>
        <g id="Grupo_54420" data-name="Grupo 54420" transform="translate(35.328 35.328)">
          <circle id="Elipse_4095" data-name="Elipse 4095" cx="9.424" cy="9.424" r="9.424" transform="matrix(0.23, -0.973, 0.973, 0.23, 0.085, 18.429)" fill="#ffa726"/>
          <path id="Trazado_116691" data-name="Trazado 116691" d="M651.436,461.686a11.423,11.423,0,1,1,11.422-11.422A11.436,11.436,0,0,1,651.436,461.686Zm0-18.848a7.426,7.426,0,1,0,7.426,7.426A7.434,7.434,0,0,0,651.436,442.838Z" transform="translate(-640.013 -438.841)" fill="#fff"/>
        </g>
      </g>
      <g id="Grupo_54422" data-name="Grupo 54422" transform="translate(46.557 0)">
        <rect id="Rectángulo_29389" data-name="Rectángulo 29389" width="1.782" height="67.476" transform="translate(10.417 55.364) rotate(-135.001)" fill="#3c4973"/>
        <path id="Trazado_116692" data-name="Trazado 116692" d="M721.334,433.688c.723-.723,4.131,2.685,3.408,3.408L712.1,447.032a.5.5,0,0,1-.705-.7Z" transform="translate(-711.285 -382.624)" fill="#00223d"/>
        <path id="Trazado_116693" data-name="Trazado 116693" d="M1008.569,158.845l6.419.638-8.812,8.812a13.623,13.623,0,0,1-10.98,3.923h0Z" transform="translate(-950.467 -151.166)" fill="url(#linear-gradient)"/>
        <path id="Trazado_116694" data-name="Trazado 116694" d="M1000.213,116.524l-.638-6.419-8.812,8.812a13.622,13.622,0,0,0-3.923,10.98h0Z" transform="translate(-943.371 -110.105)" fill="url(#linear-gradient-2)"/>
      </g>
    </g>
    <g id="Grupo_54434" data-name="Grupo 54434" transform="translate(247.26 146.309)">
      <path id="Trazado_116727" data-name="Trazado 116727" d="M1455.364,502.521l49.046-93.962h-10.049a2.195,2.195,0,0,1-1.7-3.587l52.273-63.711a3.687,3.687,0,0,1,6.531,2.556l-3.675,62.3a6.225,6.225,0,0,1-6.922,5.818l-7.006-.8L1485.2,516.523a7.749,7.749,0,0,1-7.035,4.5H1461.3Z" transform="translate(-1290.605 -339.905)" fill="url(#linear-gradient-3)"/>
      <path id="Trazado_116728" data-name="Trazado 116728" d="M1197.978,882.809l34.625,76.916a12.7,12.7,0,0,0,11.579,7.486h17.85a6.518,6.518,0,0,0,5.7-3.356l.635-1.144h0a5.1,5.1,0,0,1-4.546-2.784l-46.134-90.393Z" transform="translate(-1073.769 -786.092)" fill="url(#linear-gradient-3)"/>
      <path id="Trazado_116729" data-name="Trazado 116729" d="M854.247,830.888h0a7.573,7.573,0,0,0-11,1.747l-50.909,76.487a21.992,21.992,0,0,1-18.307,9.807H766.87l-5.83-16.794s47.328-72.569,59.526-83.547c0,0,12.148-10.949,24.126-2.671a19.99,19.99,0,0,1,7.034,8.864Z" transform="translate(-705.669 -738.316)" fill="url(#linear-gradient-3)"/>
      <path id="Trazado_116730" data-name="Trazado 116730" d="M409.586,1027.2s8.522-10.652,25.035-12.309c0,0,7.843,2.672,23.468,30.671s26,40.767,38.168,33.793l-1.008,1.673a18.354,18.354,0,0,1-15.723,8.885H472.8a23.027,23.027,0,0,1-18.7-9.579C441.938,1063.43,417.057,1029.828,409.586,1027.2Z" transform="translate(-409.586 -908.551)" fill="url(#linear-gradient-3)"/>
      <path id="Trazado_116731" data-name="Trazado 116731" d="M2025.014,468.061a.545.545,0,0,1-.542-.606l.344-3.042a.545.545,0,0,1,1.083.123l-.345,3.042A.544.544,0,0,1,2025.014,468.061Z" transform="translate(-1770.048 -444.389)" fill="#fff" opacity="0.3"/>
      <path id="Trazado_116732" data-name="Trazado 116732" d="M1748.045,425.371a.545.545,0,0,1-.431-.878l43.165-56.087a1.869,1.869,0,0,1,3.339,1.351l-.761,6.723a.545.545,0,1,1-1.083-.123l.762-6.723a.78.78,0,0,0-1.393-.563l-43.165,56.087A.544.544,0,0,1,1748.045,425.371Z" transform="translate(-1536.716 -363.299)" fill="#fff" opacity="0.3"/>
      <path id="Trazado_116733" data-name="Trazado 116733" d="M1126.492,916.2a.545.545,0,0,1-.451-.85l22.324-33.09a3.994,3.994,0,0,1,6.921.525.545.545,0,1,1-.985.466,2.9,2.9,0,0,0-5.032-.382l-22.324,33.09A.544.544,0,0,1,1126.492,916.2Z" transform="translate(-1013.087 -795.329)" fill="#fff" opacity="0.3"/>
      <path id="Trazado_116734" data-name="Trazado 116734" d="M1089.67,1144.506a.545.545,0,0,1-.451-.85l1.432-2.122a.545.545,0,0,1,.9.61l-1.431,2.122A.545.545,0,0,1,1089.67,1144.506Z" transform="translate(-982.066 -1015.038)" fill="#fff" opacity="0.3"/>
    </g>
    <g id="Grupo_54435" data-name="Grupo 54435" transform="translate(389.703 129.748)">
      <path id="Trazado_116735" data-name="Trazado 116735" d="M1314.027,238.42a1.365,1.365,0,0,1,1.142-.451l44.675,4.1v-6.306a.943.943,0,0,1,1.289-.916l29.663,11.388a.982.982,0,0,1-.005,1.832l-29.671,11.388a.926.926,0,0,1-.879-.107.956.956,0,0,1-.4-.808v-3.984l-39.581,1.84a2.814,2.814,0,0,1-2.86-2.122l-3.647-14.683A1.306,1.306,0,0,1,1314.027,238.42Z" transform="translate(-1313.717 -234.782)" fill="#707070"/>
      <path id="Trazado_116736" data-name="Trazado 116736" d="M1643.2,261.453a.542.542,0,0,1-.19-.035l-23.243-8.658a.507.507,0,0,0-.427.081.522.522,0,0,0-.212.39v4.475a.545.545,0,1,1-1.09,0v-4.475a1.611,1.611,0,0,1,.682-1.286,1.579,1.579,0,0,1,1.429-.206l23.241,8.658a.545.545,0,0,1-.19,1.056Z" transform="translate(-1570.09 -248.993)" fill="#fff" opacity="0.5"/>
      <path id="Trazado_116737" data-name="Trazado 116737" d="M1582.38,288.9a.577.577,0,0,1-.089-.007l-2.4-.392a.545.545,0,0,1,.176-1.076l2.4.392a.545.545,0,0,1-.087,1.083Z" transform="translate(-1537.573 -279.128)" fill="#fff" opacity="0.5"/>
    </g>
    <g id="Grupo_54436" data-name="Grupo 54436" transform="translate(347.692 161.359)">
      <path id="Trazado_116738" data-name="Trazado 116738" d="M1130.716,439.361a1.467,1.467,0,0,0-1.23-.487L1081.2,443.3v-6.816a1.024,1.024,0,0,0-1.4-.99l-32.063,12.309a1.061,1.061,0,0,0,.005,1.98l32.07,12.309a1.008,1.008,0,0,0,.954-.116,1.036,1.036,0,0,0,.433-.874V456.8l42.777,1.988a3.04,3.04,0,0,0,3.09-2.294l3.941-15.87A1.412,1.412,0,0,0,1130.716,439.361Z" transform="translate(-1047.062 -435.428)" fill="#12263f"/>
      <path id="Trazado_116739" data-name="Trazado 116739" d="M1075.18,464.48a.545.545,0,0,1-.19-1.056l25.163-9.364a1.535,1.535,0,0,1,1.442.216,1.624,1.624,0,0,1,.656,1.351v4.859a.545.545,0,1,1-1.09,0v-4.859a.561.561,0,0,0-.187-.455.441.441,0,0,0-.44-.091l-25.164,9.364A.543.543,0,0,1,1075.18,464.48Z" transform="translate(-1070.29 -451.046)" fill="#fff" opacity="0.5"/>
      <path id="Trazado_116740" data-name="Trazado 116740" d="M1269.856,494.117a.545.545,0,0,1-.087-1.083l2.591-.424a.545.545,0,0,1,.176,1.076l-2.591.424A.54.54,0,0,1,1269.856,494.117Z" transform="translate(-1234.297 -483.595)" fill="#fff" opacity="0.5"/>
    </g>
    <g id="Grupo_54440" data-name="Grupo 54440" transform="translate(382.775 214.54)">
      <path id="Trazado_116741" data-name="Trazado 116741" d="M1271.578,773.352l84.209-.368a1.444,1.444,0,0,1,1.456,1.452l-.18,29.476a1.442,1.442,0,0,1-1.485,1.435c-7.425-.221-83.533-1.2-84.989-1.137-1.438.06-.657-23.217-.442-29.463A1.443,1.443,0,0,1,1271.578,773.352Z" transform="translate(-1269.744 -772.984)" fill="#00223d"/>
      <path id="Trazado_116742" data-name="Trazado 116742" d="M1361.47,810.109h-.011c-4.748-.142-50.257-.71-72.128-.982-6.365-.08-10.883-.136-12.089-.153l-.15,0-.026-.148c-.517-2.917-.509-12.662.025-28.183a.347.347,0,0,1,.345-.335l84.21-.368a.348.348,0,0,1,.249.1.34.34,0,0,1,.1.247l-.179,29.475A.347.347,0,0,1,1361.47,810.109Zm-84.072-1.5c1.4.019,5.813.074,11.938.151,21.871.273,67.382.841,72.134.983h.006l.156-29.461-84.195.384C1276.93,795.895,1276.911,805.548,1277.4,808.612Z" transform="translate(-1275.591 -778.842)" fill="#56f"/>
      <path id="Trazado_116743" data-name="Trazado 116743" d="M1304.257,815.92h0c0,.8.266,1.443.594,1.443h32.257c.328,0,.594-.646.594-1.443h0c0-.8-.266-1.443-.594-1.443h-32.257C1304.523,814.477,1304.257,815.123,1304.257,815.92Z" transform="translate(-1298.82 -807.94)" fill="url(#linear-gradient-7)"/>
      <path id="Trazado_116744" data-name="Trazado 116744" d="M1304.257,847.149h0c0,.8.266,1.443.594,1.443h32.257c.328,0,.594-.646.594-1.443h0c0-.8-.266-1.443-.594-1.443h-32.257C1304.523,845.706,1304.257,846.352,1304.257,847.149Z" transform="translate(-1298.82 -834.249)" fill="url(#linear-gradient-7)"/>
      <path id="Trazado_116745" data-name="Trazado 116745" d="M1304.257,878.379h0c0,.8.266,1.443.594,1.443h32.257c.328,0,.594-.646.594-1.443h0c0-.8-.266-1.443-.594-1.443h-32.257C1304.523,876.936,1304.257,877.582,1304.257,878.379Z" transform="translate(-1298.82 -860.559)" fill="url(#linear-gradient-7)"/>
      <path id="Trazado_116746" data-name="Trazado 116746" d="M1304.257,909.608h0c0,.8.266,1.443.594,1.443h32.257c.328,0,.594-.646.594-1.443h0c0-.8-.266-1.443-.594-1.443h-32.257C1304.523,908.165,1304.257,908.811,1304.257,909.608Z" transform="translate(-1298.82 -886.868)" fill="url(#linear-gradient-7)"/>
      <g id="Grupo_54439" data-name="Grupo 54439" transform="translate(39.723 1.129)">
        <circle id="Elipse_4096" data-name="Elipse 4096" cx="5.611" cy="5.611" r="5.611" transform="translate(0 10.905) rotate(-67.5)" fill="url(#linear-gradient-7)"/>
        <circle id="Elipse_4097" data-name="Elipse 4097" cx="5.611" cy="5.611" r="5.611" transform="translate(13.408 6.837) rotate(-37.534)" fill="url(#linear-gradient-7)"/>
        <circle id="Elipse_4098" data-name="Elipse 4098" cx="5.611" cy="5.611" r="5.611" transform="translate(28.708 3.519) rotate(-10.162)" fill="url(#linear-gradient-7)"/>
        <g id="Grupo_54437" data-name="Grupo 54437" transform="translate(2.814 3.535)">
          <path id="Trazado_116747" data-name="Trazado 116747" d="M1547.592,805.733a3.6,3.6,0,1,1-3.334-2.235q.091,0,.182,0v-.914c-.061,0-.121,0-.182,0a4.515,4.515,0,1,0,4.172,2.783Z" transform="translate(-1539.741 -802.586)" fill="#00223d"/>
          <path id="Trazado_116748" data-name="Trazado 116748" d="M1634.3,810.152a3.6,3.6,0,1,1-1.92-6.653c.061,0,.122,0,.182,0v-.914c-.061,0-.121,0-.182,0a4.517,4.517,0,1,0,2.373,8.361Z" transform="translate(-1613.983 -802.586)" fill="#00223d"/>
          <path id="Trazado_116749" data-name="Trazado 116749" d="M1724.438,809.129a3.6,3.6,0,1,1-2.981-5.63q.092,0,.182,0v-.914c-.061,0-.121,0-.182,0a4.517,4.517,0,1,0,3.72,7.079Z" transform="translate(-1689.023 -802.586)" fill="#00223d"/>
        </g>
        <g id="Grupo_54438" data-name="Grupo 54438" transform="translate(1.72 15.856)">
          <path id="Trazado_116750" data-name="Trazado 116750" d="M1542.98,880.793h-9.144a1.039,1.039,0,0,0,0,2.078h9.144a1.039,1.039,0,1,0,0-2.078Z" transform="translate(-1532.797 -880.793)" fill="url(#linear-gradient-7)"/>
          <path id="Trazado_116751" data-name="Trazado 116751" d="M1631.494,880.793h-9.144a1.039,1.039,0,1,0,0,2.078h9.144a1.039,1.039,0,1,0,0-2.078Z" transform="translate(-1607.366 -880.793)" fill="url(#linear-gradient-7)"/>
          <path id="Trazado_116752" data-name="Trazado 116752" d="M1710.864,882.871h9.144a1.039,1.039,0,0,0,0-2.078h-9.144a1.039,1.039,0,1,0,0,2.078Z" transform="translate(-1681.935 -880.793)" fill="url(#linear-gradient-7)"/>
          <rect id="Rectángulo_29390" data-name="Rectángulo 29390" width="11.222" height="8.198" rx="2" transform="translate(0 3.233)" fill="url(#linear-gradient-7)"/>
          <rect id="Rectángulo_29391" data-name="Rectángulo 29391" width="11.222" height="8.198" rx="2" transform="translate(13.945 3.233)" fill="url(#linear-gradient-7)"/>
          <rect id="Rectángulo_29392" data-name="Rectángulo 29392" width="11.222" height="8.198" rx="2" transform="translate(27.89 3.233)" fill="url(#linear-gradient-7)"/>
        </g>
      </g>
    </g>
    <g id="Grupo_54441" data-name="Grupo 54441" transform="translate(323.13 174.546)">
      <path id="Trazado_116753" data-name="Trazado 116753" d="M1581.563,519.136q1.081.2,2.153.446a.363.363,0,0,1-.166.707q-1.051-.247-2.117-.439a.363.363,0,0,1,.13-.715Z" transform="translate(-1472.43 -519.13)" fill="#fff"/>
      <path id="Trazado_116754" data-name="Trazado 116754" d="M1621.25,529.94a16.981,16.981,0,0,1,3.862,2.072.363.363,0,0,1-.431.584h0a16.253,16.253,0,0,0-3.7-1.979.363.363,0,0,1,.265-.676Z" transform="translate(-1505.807 -528.216)" fill="#fff"/>
      <path id="Trazado_116755" data-name="Trazado 116755" d="M1662.776,563.659a6.5,6.5,0,0,1,.525,2.2,7.394,7.394,0,0,1-.224,2.241.363.363,0,0,1-.7-.177,6.651,6.651,0,0,0,.2-2.02,5.771,5.771,0,0,0-.467-1.958.363.363,0,1,1,.666-.288Z" transform="translate(-1540.622 -556.459)" fill="#fff"/>
      <path id="Trazado_116756" data-name="Trazado 116756" d="M1636.445,614.977a19.15,19.15,0,0,1-3.034,3.15.363.363,0,1,1-.466-.556h0a18.448,18.448,0,0,0,2.918-3.029.363.363,0,0,1,.582.434Z" transform="translate(-1515.969 -599.387)" fill="#fff"/>
      <path id="Trazado_116757" data-name="Trazado 116757" d="M1590.4,650.3a30,30,0,0,1-3.9,1.912.362.362,0,0,1-.271-.672,29.323,29.323,0,0,0,3.811-1.867.362.362,0,0,1,.366.626Z" transform="translate(-1476.523 -629.065)" fill="#fff"/>
      <path id="Trazado_116758" data-name="Trazado 116758" d="M1538.747,671.592q-2.055.668-4.146,1.212a.362.362,0,0,1-.184-.7q2.07-.542,4.106-1.2a.362.362,0,0,1,.224.689Z" transform="translate(-1432.846 -646.977)" fill="#fff"/>
      <path id="Trazado_116759" data-name="Trazado 116759" d="M1485.437,685.5q-2.112.443-4.239.8a.362.362,0,1,1-.12-.714q2.114-.355,4.21-.792a.362.362,0,0,1,.149.709Z" transform="translate(-1387.882 -658.685)" fill="#fff"/>
      <path id="Trazado_116760" data-name="Trazado 116760" d="M1431.367,694.617l-4.276.521a.362.362,0,1,1-.088-.718h.009l4.258-.519h.009a.362.362,0,0,1,.088.719Z" transform="translate(-1342.314 -666.362)" fill="#fff"/>
      <path id="Trazado_116761" data-name="Trazado 116761" d="M1377.054,700.667l-4.286.377a.362.362,0,0,1-.063-.72h0l4.279-.377h0a.362.362,0,1,1,.064.72Z" transform="translate(-1296.56 -671.458)" fill="#fff"/>
      <path id="Trazado_116762" data-name="Trazado 116762" d="M1322.663,705.314c-1.43.109-2.847.266-4.27.4h-.012a.361.361,0,1,1-.067-.72c1.429-.132,2.862-.291,4.29-.4h0a.362.362,0,0,1,.055.721Z" transform="translate(-1250.739 -675.373)" fill="#fff"/>
      <path id="Trazado_116763" data-name="Trazado 116763" d="M1268.711,711.329q-2.119.313-4.224.711a.361.361,0,0,1-.135-.71q2.119-.4,4.253-.716a.361.361,0,1,1,.106.715Z" transform="translate(-1205.308 -680.443)" fill="#fff"/>
      <path id="Trazado_116764" data-name="Trazado 116764" d="M1215.567,721.516q-2.084.49-4.143,1.078a.361.361,0,1,1-.2-.694q2.075-.593,4.177-1.087a.361.361,0,1,1,.165.7Z" transform="translate(-1160.578 -689.03)" fill="#fff"/>
      <path id="Trazado_116765" data-name="Trazado 116765" d="M1163.866,736.535q-2.025.692-4.01,1.493a.361.361,0,1,1-.271-.669q2-.809,4.047-1.507a.361.361,0,0,1,.234.683Z" transform="translate(-1117.105 -701.692)" fill="#fff"/>
      <path id="Trazado_116766" data-name="Trazado 116766" d="M1114.427,756.989q-1.933.915-3.807,1.948a.361.361,0,0,1-.348-.631q1.892-1.044,3.846-1.968a.361.361,0,0,1,.309.652Z" transform="translate(-1075.594 -718.936)" fill="#fff"/>
      <path id="Trazado_116767" data-name="Trazado 116767" d="M1068.248,783.333q-1.8,1.151-3.522,2.421a.36.36,0,0,1-.428-.58q1.739-1.284,3.562-2.449a.36.36,0,1,1,.388.607Z" transform="translate(-1036.896 -741.149)" fill="#fff"/>
      <path id="Trazado_116768" data-name="Trazado 116768" d="M1026.384,815.7q-1.628,1.384-3.157,2.879a.36.36,0,1,1-.5-.515q1.545-1.511,3.194-2.913a.36.36,0,0,1,.467.549Z" transform="translate(-1001.904 -768.446)" fill="#fff"/>
      <path id="Trazado_116769" data-name="Trazado 116769" d="M989.721,853.791q-1.421,1.6-2.731,3.287a.36.36,0,0,1-.569-.441q1.325-1.708,2.763-3.325a.36.36,0,0,1,.538.479Z" transform="translate(-971.348 -800.561)" fill="#fff"/>
      <path id="Trazado_116770" data-name="Trazado 116770" d="M958.768,896.839q-1.2,1.772-2.278,3.618a.36.36,0,0,1-.62-.364q1.093-1.863,2.3-3.656a.36.36,0,0,1,.6.4Z" transform="translate(-945.632 -836.859)" fill="#fff"/>
      <path id="Trazado_116771" data-name="Trazado 116771" d="M933.573,943.826q-.97,1.906-1.832,3.866a.359.359,0,0,1-.658-.289q.87-1.977,1.848-3.9a.36.36,0,1,1,.641.326Z" transform="translate(-924.768 -876.476)" fill="#fff"/>
      <path id="Trazado_116772" data-name="Trazado 116772" d="M913.072,993.689l-.78,2.007-.785,2.008a.359.359,0,0,1-.669-.261l0-.01.78-2,.777-2,0-.006a.359.359,0,1,1,.67.26Z" transform="translate(-907.716 -918.511)" fill="#fff"/>
      <path id="Trazado_116773" data-name="Trazado 116773" d="M895.583,1044.313a14.447,14.447,0,0,0-.646,2,17.511,17.511,0,0,0-.346,2.076.359.359,0,1,1-.713-.081,18.275,18.275,0,0,1,.361-2.162,15.2,15.2,0,0,1,.676-2.091.359.359,0,1,1,.668.263Z" transform="translate(-893.447 -961.158)" fill="#fff"/>
      <path id="Trazado_116774" data-name="Trazado 116774" d="M891.983,1097.838l-.112,2.176a.358.358,0,1,1-.716-.036l.112-2.179a.359.359,0,1,1,.716.037h0Z" transform="translate(-891.154 -1006.345)" fill="#fff"/>
    </g>
    <g id="Grupo_54448" data-name="Grupo 54448" transform="translate(224.149 204.394)">
      <g id="Grupo_54442" data-name="Grupo 54442" transform="translate(32.158 74.934)">
        <rect id="Rectángulo_29393" data-name="Rectángulo 29393" width="3.466" height="37.483" transform="translate(22.652 46.409) rotate(180)" fill="#167377"/>
        <path id="Rectángulo_29394" data-name="Rectángulo 29394" d="M0,0H30.357a0,0,0,0,1,0,0V0A2.256,2.256,0,0,1,28.1,2.256H2.093A2.093,2.093,0,0,1,0,.163V0A0,0,0,0,1,0,0Z" transform="translate(36.098 47.131) rotate(180)" fill="#167377"/>
        <path id="Rectángulo_29395" data-name="Rectángulo 29395" d="M5.752,0h29.06a5.752,5.752,0,0,1,5.752,5.752v0A5.752,5.752,0,0,1,34.812,11.5H5.752A5.752,5.752,0,0,1,0,5.752v0A5.752,5.752,0,0,1,5.752,0Z" fill="#167377"/>
      </g>
      <g id="Grupo_54444" data-name="Grupo 54444" transform="translate(25.367)">
        <path id="Trazado_116775" data-name="Trazado 116775" d="M698.331,1427.375s9.9,7.134,8.179,11.927c0,0-10.829-4.672-12.137-8.353s.221-5.306.221-5.306Z" transform="translate(-651.316 -1312.673)" fill="#1565c0"/>
        <path id="Trazado_116776" data-name="Trazado 116776" d="M703.735,1398.686l-1.619,4.679a1.626,1.626,0,0,0,.632,1.909,4.244,4.244,0,0,0,1.339.519,1.894,1.894,0,0,0,2.1-.951l1.936-3.645Z" transform="translate(-658.207 -1289.963)" fill="url(#linear-gradient-20)"/>
        <path id="Trazado_116777" data-name="Trazado 116777" d="M589.792,1131.394s20.329,3.523,29.049,11.579-8,33.753-8,33.753-2.74-.017-6.061-2.863c0,0,9.916-19.326,1.37-24.962a55.046,55.046,0,0,0-20.68-7.763l4.129-9.122Z" transform="translate(-560.013 -1064.782)" fill="#00223d"/>
        <path id="Trazado_116778" data-name="Trazado 116778" d="M696.99,1465.933c-2.177-1.007-8.34-5.321-9.379-5.511s-2.841,1.03-2.841,1.03a2.808,2.808,0,0,0,.03,2.163c1.446,1.75,4.658,5.087,8.976,6.33a7.522,7.522,0,0,0,6.781-.936A9.183,9.183,0,0,0,696.99,1465.933Z" transform="translate(-643.515 -1341.955)" fill="#1565c0"/>
        <path id="Trazado_116779" data-name="Trazado 116779" d="M694.934,1487.131c-4.318-1.243-7.53-4.58-8.976-6.33a8.748,8.748,0,0,0,2.608,3.529c3.871,3.479,11.265,4.733,12.839,4.492,1.261-.194,1.142-1.358.31-2.626A7.524,7.524,0,0,1,694.934,1487.131Z" transform="translate(-644.672 -1359.141)" fill="#00223d"/>
        <path id="Trazado_116780" data-name="Trazado 116780" d="M674.048,1438.385a16.728,16.728,0,0,0,1.967,3.811,1.87,1.87,0,0,0,1.583.885,4.817,4.817,0,0,0,1.307-.158,1.211,1.211,0,0,0,.814-1.508l-1.4-4.781Z" transform="translate(-634.639 -1321.933)" fill="url(#linear-gradient-20)"/>
        <path id="Trazado_116781" data-name="Trazado 116781" d="M477.986,1092.662s-4.515,12.072,0,15.743,15.285,7.8,17.691,15.116,6.489,21.523,11.953,26.555c0,0,3.839-.372,5.275-1.9,0,0-3.112-21.215-5.164-26.658-1.777-4.714-4.4-11.518-9.414-15.321-1.437-1.088-1.186-2.813-.52-4.488l1.213-3.05Z" transform="translate(-467.775 -1032.152)" fill="#00223d"/>
        <path id="Trazado_116782" data-name="Trazado 116782" d="M699.012,967.805c-7.57.456-5.211-11.637-5.075-12.118L682.448,963.8s.608,6.467,10.161,9.86a11.872,11.872,0,0,0,6.578.476A10.454,10.454,0,0,1,699.012,967.805Z" transform="translate(-641.715 -916.757)" fill="url(#linear-gradient-22)"/>
        <path id="Trazado_116783" data-name="Trazado 116783" d="M800.04,1004.839c-2.821-1.962-6.017,0-6.017,0-3.772,2.467-6.562,3.516-8.62,3.64a10.451,10.451,0,0,0,.175,6.333,16.262,16.262,0,0,0,8.562-5.535,1.364,1.364,0,0,1,1.888-.207c.588.464,1.158,1.1,1.055,1.767-.2,1.318,1.325,1.737,1.441,1.259a19.694,19.694,0,0,0-.523-3.312s3.059,3.076,4.254,4.258,2.7,0,2.7,0S802.86,1006.8,800.04,1004.839Z" transform="translate(-728.106 -957.43)" fill="url(#linear-gradient-23)"/>
        <path id="Trazado_116784" data-name="Trazado 116784" d="M497.66,834.373s11.013-4.41,31.508,12.511c0,0,1.712,3.543-.156,6.7S509.351,872.1,506.9,880.626c0,0-10.6,3.445-21.565-4.724C485.34,875.9,486.307,852.183,497.66,834.373Z" transform="translate(-475.661 -814.12)" fill="#1565c0"/>
        <path id="Trazado_116785" data-name="Trazado 116785" d="M670.685,803.527l-6.043,7.933a2.158,2.158,0,0,0-.284,2.32,6.163,6.163,0,0,0,6.5,3.461,3.327,3.327,0,0,0,2.736-1.866l3.791-7.836Z" transform="translate(-626.294 -788.569)" fill="url(#linear-gradient-24)"/>
        <path id="Trazado_116786" data-name="Trazado 116786" d="M437.379,865.289c-1.278-5.207,11.671-16.815,11.671-16.815L445.9,837.141s-27.963,18.615-20.837,33.585a10.9,10.9,0,0,0,3.951,4.654C431.271,869.319,434.86,866.54,437.379,865.289Z" transform="translate(-423.906 -816.887)" fill="#1565c0"/>
        <path id="Trazado_116787" data-name="Trazado 116787" d="M507.266,917.809a.306.306,0,0,1-.3-.233c-1.307-5.323,11.23-16.636,11.764-17.115a.306.306,0,0,1,.409.456c-.128.115-12.8,11.544-11.579,16.513a.306.306,0,0,1-.3.379Z" transform="translate(-493.802 -870.166)" fill="#00223d"/>
        <path id="Trazado_116788" data-name="Trazado 116788" d="M484.338,1011.652s-15.354,5.961-19.1,1.477a2.514,2.514,0,0,1-.513-1.029c-2.519,1.251-6.107,4.03-8.359,10.091,8.075,5.16,21.878-2.87,25.61-5.238a2.786,2.786,0,0,1,2.063-.378,19.038,19.038,0,0,0,5.267.531c1.962-.3,4.78,6.619,7.96,4.484C497.264,1021.59,494.541,1009.56,484.338,1011.652Z" transform="translate(-451.251 -963.699)" fill="url(#linear-gradient-25)"/>
        <g id="Grupo_54443" data-name="Grupo 54443" transform="translate(40.049)">
          <path id="Trazado_116789" data-name="Trazado 116789" d="M721.93,742.261c.055.211-1.271,14.578-1.271,14.578l-8.187-.931-.767-13.8S721.017,738.723,721.93,742.261Z" transform="translate(-706.412 -735.596)" fill="url(#linear-gradient-26)"/>
          <path id="Trazado_116790" data-name="Trazado 116790" d="M685.535,717.955l-.165,7.3a1,1,0,0,0,.031.276c.142.555.773,2.429,2.65,1.667,1.7-.691,3.269-1.3,4.42-1.078a1.018,1.018,0,0,1,.826,1.1,44.039,44.039,0,0,1-1.12,6.749,1.017,1.017,0,0,1-1.162.733,32.861,32.861,0,0,1-7.358-2.108,1.02,1.02,0,0,1-.594-.858c-.123-1.824-.516-7.368-.865-8.9-.327-1.434-2.205-2.108-3.014-2.336a1,1,0,0,1-.615-.5,2.643,2.643,0,0,1,1.347-4.024,1.021,1.021,0,0,0,.5-1.383,2.648,2.648,0,0,1,1.076-3.8,3.736,3.736,0,0,1,4.548.582,1.021,1.021,0,0,0,1.309.011.807.807,0,0,1,.916-.069,1,1,0,0,0,1.367-.583,3.045,3.045,0,0,1,3.324-2.138c3.647.22,4.488,4.143,3.8,6.571s-4.63,1.965-6.686,1c-1.564-.73-3.363.412-4.135,1A1.011,1.011,0,0,0,685.535,717.955Z" transform="translate(-678.109 -708.585)" fill="url(#linear-gradient-27)"/>
          <path id="Trazado_116791" data-name="Trazado 116791" d="M683.7,786.754s1.019-4.283-.6-5.126-3.8-.074-2.984,2.858C681.137,788.132,683.7,786.754,683.7,786.754Z" transform="translate(-679.649 -769.849)" fill="url(#linear-gradient-28)"/>
        </g>
      </g>
      <g id="Grupo_54445" data-name="Grupo 54445" transform="translate(64.95 30.46)">
        <path id="Trazado_116792" data-name="Trazado 116792" d="M676.521,1071.971l.074,0,32.214-.035a1.442,1.442,0,1,0,0-2.884l-32.214.035a1.442,1.442,0,0,0-.071,2.882Z" transform="translate(-675.152 -1042.723)" fill="url(#linear-gradient-29)"/>
        <path id="Trazado_116793" data-name="Trazado 116793" d="M838.089,901.925H811.261a5.113,5.113,0,0,0-4.625,2.932l-12.4,26.3h33.34a3.108,3.108,0,0,0,2.89-1.965l9.618-24.336A2.142,2.142,0,0,0,838.089,901.925Z" transform="translate(-775.473 -901.925)" fill="#00223d"/>
      </g>
      <g id="Grupo_54447" data-name="Grupo 54447" transform="translate(0 59.402)">
        <g id="Grupo_54446" data-name="Grupo 54446" transform="translate(2 2.881)">
          <path id="Trazado_116794" data-name="Trazado 116794" d="M885.931,1170.435a1.386,1.386,0,0,0,.534-.107,1.3,1.3,0,0,0,.709-1.721l-28.391-63.9a1.37,1.37,0,0,0-1.778-.686,1.3,1.3,0,0,0-.709,1.721l28.39,63.9A1.357,1.357,0,0,0,885.931,1170.435Z" transform="translate(-764.714 -1103.918)" fill="#12263f"/>
          <path id="Trazado_116795" data-name="Trazado 116795" d="M834.744,1170.433a1.356,1.356,0,0,0,1.244-.793l28.391-63.9a1.3,1.3,0,0,0-.708-1.721,1.37,1.37,0,0,0-1.778.686L833.5,1168.6a1.3,1.3,0,0,0,.709,1.722A1.385,1.385,0,0,0,834.744,1170.433Z" transform="translate(-745.51 -1103.916)" fill="#12263f"/>
          <path id="Trazado_116796" data-name="Trazado 116796" d="M328.125,1170.435a1.386,1.386,0,0,0,.534-.107,1.3,1.3,0,0,0,.709-1.721l-28.391-63.9a1.371,1.371,0,0,0-1.779-.686,1.3,1.3,0,0,0-.708,1.721l28.391,63.9A1.356,1.356,0,0,0,328.125,1170.435Z" transform="translate(-294.789 -1103.918)" fill="#12263f"/>
          <path id="Trazado_116797" data-name="Trazado 116797" d="M276.94,1170.433a1.356,1.356,0,0,0,1.244-.793l28.39-63.9a1.3,1.3,0,0,0-.709-1.721,1.371,1.371,0,0,0-1.778.686L275.7,1168.6a1.3,1.3,0,0,0,.709,1.722A1.386,1.386,0,0,0,276.94,1170.433Z" transform="translate(-275.586 -1103.916)" fill="#12263f"/>
        </g>
        <path id="Trazado_116798" data-name="Trazado 116798" d="M262.915,1087.328a1.558,1.558,0,0,1,.269-1.182,1.229,1.229,0,0,1,.985-.52H393.326a1.44,1.44,0,0,1,1.238.759,1.817,1.817,0,0,1,.1,1.577l-1.4,3.391a1.959,1.959,0,0,1-1.779,1.274H265.056a1.538,1.538,0,0,1-1.457-1.346Z" transform="translate(-262.892 -1085.627)" fill="#12263f"/>
      </g>
    </g>
    <g id="Grupo_54453" data-name="Grupo 54453" transform="translate(413.903 233.964)">
      <path id="Trazado_116799" data-name="Trazado 116799" d="M1596.1,1473.515s.335,1.9.5,3.776a1.294,1.294,0,0,1-1.238,1.4c-2.5.1-7.852.307-9.772.221a.421.421,0,0,1-.371-.577h0a.943.943,0,0,1,.482-.508l8.839-4.062Z" transform="translate(-1566.616 -1382.573)" fill="#e8e8e8"/>
      <path id="Trazado_116800" data-name="Trazado 116800" d="M1640.813,1464.564l-.269,2.27a2.816,2.816,0,0,1-2.605-.091l.641-2.529Z" transform="translate(-1611.058 -1374.737)" fill="url(#linear-gradient-30)"/>
      <path id="Trazado_116801" data-name="Trazado 116801" d="M1641.605,1195.583c.117.593.624,29.579-2.474,42.568a.441.441,0,0,0,.259.513,7.663,7.663,0,0,0,2.523.513.759.759,0,0,0,.753-.545c.885-3.013,5.129-18.113,5.683-32.537.618-16.118,0-.549,0-.549l-.363-9.963Z" transform="translate(-1612.053 -1148.428)" fill="#ffa726"/>
      <path id="Trazado_116802" data-name="Trazado 116802" d="M1700.015,1479.8a13.644,13.644,0,0,1,1.05,3.5.789.789,0,0,1-.695.946c-.826.081-2.1.186-3.116.179a.787.787,0,0,1-.779-.878,6.639,6.639,0,0,1,1.55-3.642Z" transform="translate(-1660.368 -1387.866)" fill="#e8e8e8"/>
      <path id="Trazado_116803" data-name="Trazado 116803" d="M1708.677,1460.554l-.629,3.432a2.22,2.22,0,0,1-1.853.127l.3-3.693Z" transform="translate(-1668.561 -1371.542)" fill="url(#linear-gradient-31)"/>
      <path id="Trazado_116804" data-name="Trazado 116804" d="M1665.794,1192.657c2.534,15.293-.55,37.8-1.589,42.2a.687.687,0,0,1-.555.522,4.615,4.615,0,0,1-1.982-.079.631.631,0,0,1-.453-.58c-.139-3.561.112-25.423-2.249-34.063a1.964,1.964,0,0,0-.757-1.083l-4.583-3.258-.351-5.266Z" transform="translate(-1623.979 -1144.612)" fill="#ffa726"/>
      <g id="Grupo_54449" data-name="Grupo 54449" transform="translate(3.238 6.706)">
        <path id="Trazado_116805" data-name="Trazado 116805" d="M1571.632,1010.669a71.382,71.382,0,0,1,15.973,1.994c2.264,13.208.4,28.443.4,28.443-5.879,1.542-12.511-.943-12.511-.943-.977-5.521-5.536-21.058-5.536-21.058a25.009,25.009,0,0,1-9.284-2.946,16.293,16.293,0,0,0,3.218-6.732A25.478,25.478,0,0,0,1571.632,1010.669Z" transform="translate(-1549.201 -998.307)" fill="#fff"/>
        <path id="Trazado_116806" data-name="Trazado 116806" d="M1487.873,940.017a4.021,4.021,0,0,1,1.466-1.177c1.118,4.721,7.2,9.25,13.222,11.121a16.288,16.288,0,0,1-3.219,6.732C1489.351,951.075,1487.873,940.017,1487.873,940.017Z" transform="translate(-1487.873 -938.84)" fill="url(#linear-gradient-32)"/>
      </g>
      <g id="Grupo_54450" data-name="Grupo 54450" transform="translate(0 0)">
        <path id="Trazado_116807" data-name="Trazado 116807" d="M1470.742,904.389c-.078.248.826.626,1.358-.389.019-.486.314-2.57.024-2.966a38.79,38.79,0,0,0-4.549-4.756.714.714,0,0,0-.089.992l1.456,1.517a7.042,7.042,0,0,0-.85,1.681,2.041,2.041,0,0,0,.2,1.5c.256.46.6,1.059.934,1.527A2.015,2.015,0,0,0,1470.742,904.389Z" transform="translate(-1467.323 -896.278)" fill="url(#linear-gradient-33)"/>
        <path id="Trazado_116808" data-name="Trazado 116808" d="M1480.065,918.449l1.327,1.125.417,1.12-1.183,1.312a15.232,15.232,0,0,0-.693-2.7C1479.637,918.822,1479.79,918.59,1480.065,918.449Z" transform="translate(-1477.81 -914.956)" fill="url(#linear-gradient-34)"/>
      </g>
      <path id="Trazado_116809" data-name="Trazado 116809" d="M1713.149,1037.317l2.913-7.353s7.094,4.819,8.26,10.93a16.781,16.781,0,0,0-6.166,1.653C1717.63,1039.661,1713.149,1037.317,1713.149,1037.317Z" transform="translate(-1674.42 -1008.902)" fill="#fff"/>
      <path id="Trazado_116810" data-name="Trazado 116810" d="M1668.169,1102.683s7.964,4.5,10.651.658a3.022,3.022,0,0,0,.554-2.347,16.787,16.787,0,0,1,6.166-1.653,8.432,8.432,0,0,1-.917,5.781c-4.707,8.61-17.509-.476-17.509-.476Z" transform="translate(-1635.638 -1067.349)" fill="url(#linear-gradient-35)"/>
      <g id="Grupo_54451" data-name="Grupo 54451" transform="translate(13.592 23.114)">
        <path id="Trazado_116811" data-name="Trazado 116811" d="M1573.492,1068.788l-4.347-15.179a.442.442,0,0,0-.374-.318c-.787-.092-3.069-.35-5.7-.573a64.741,64.741,0,0,0-9.061-.3.444.444,0,0,0-.363.639c1.252,2.534,6.4,12.84,8.983,16.216a.446.446,0,0,0,.359.176l10.084-.094A.444.444,0,0,0,1573.492,1068.788Z" transform="translate(-1553.596 -1050.874)" fill="#00223d"/>
        <path id="Trazado_116812" data-name="Trazado 116812" d="M1592.587,1043.518l-3.151-.525a.226.226,0,0,0-.252.294l.312.945a.226.226,0,0,0,.185.153l3.032.4a.226.226,0,0,0,.25-.276l-.193-.825A.227.227,0,0,0,1592.587,1043.518Z" transform="translate(-1583.568 -1042.99)" fill="#00223d"/>
        <path id="Trazado_116813" data-name="Trazado 116813" d="M1587.088,1051.234l-.26-1.352a.311.311,0,0,0-.275-.252l-6.365-.646a.313.313,0,0,0-.336.384l.405,1.685a.313.313,0,0,0,.288.24l6.22.313A.313.313,0,0,0,1587.088,1051.234Z" transform="translate(-1575.709 -1048.038)" fill="#aee6e6"/>
        <path id="Trazado_116814" data-name="Trazado 116814" d="M1644.491,1105.746a11.059,11.059,0,0,0,.361-3.373c-.244-.884-.718-2.019-2.295-1.767a23.1,23.1,0,0,0-3.438.917.9.9,0,0,0,1.293.78l-.743.575s.106.921,1.119.429l-.692.763a.806.806,0,0,0,1.18.271C1642.021,1103.856,1642.379,1106.046,1644.491,1105.746Z" transform="translate(-1625.646 -1091.499)" fill="url(#linear-gradient-36)"/>
      </g>
      <path id="Trazado_116815" data-name="Trazado 116815" d="M1652.776,978.175l2.416,6.988a.252.252,0,0,1-.115.3,5.68,5.68,0,0,1-5.891-.4,1.186,1.186,0,0,1-.546-.847l-.782-6.048Z" transform="translate(-1619.415 -965.272)" fill="url(#linear-gradient-37)"/>
      <g id="Grupo_54452" data-name="Grupo 54452" transform="translate(25.76 2.8)">
        <path id="Trazado_116816" data-name="Trazado 116816" d="M1633.173,937.1s-2.653,4.995-2.313,7.012,3.628,1.873,6.5.234l2.006-5.393Z" transform="translate(-1630.83 -933.471)" fill="url(#linear-gradient-38)"/>
        <path id="Trazado_116817" data-name="Trazado 116817" d="M1642.5,922.281a.206.206,0,0,1-.09-.3,5.384,5.384,0,0,0,.739-1.567s.477-.306-1.214-.71-4.213-1.033-4.743-2.472c-.517-1.4.841-4.933,3.007-2.121a.206.206,0,0,0,.326,0,2.122,2.122,0,0,1,2.585-.84,1.948,1.948,0,0,1,1.333,1.881.2.2,0,0,0,.242.209,2.374,2.374,0,0,1,2.772,1.293,1.909,1.909,0,0,1-.137,2.292.205.205,0,0,0,.088.341,1.236,1.236,0,0,1,.872,1.41c-.072,1.305-1.531,1.19-1.947,1.131a.205.205,0,0,0-.183.065,7.017,7.017,0,0,1-3.7,2.27.208.208,0,0,1-.218-.274l.752-2.186a.207.207,0,0,0-.112-.256Z" transform="translate(-1636.097 -914.052)" fill="#3c4973"/>
        <path id="Trazado_116818" data-name="Trazado 116818" d="M1666.427,964.824s1.889-1.3,2.027-.2-1.7,1.581-2.612,1.174Z" transform="translate(-1660.326 -956.284)" fill="url(#linear-gradient-39)"/>
      </g>
    </g>
    <g id="Grupo_54462" data-name="Grupo 54462" transform="translate(350.583 274.432)">
      <g id="Grupo_54457" data-name="Grupo 54457" transform="translate(0 7.947)">
        <g id="Grupo_54454" data-name="Grupo 54454">
          <path id="Trazado_116819" data-name="Trazado 116819" d="M1083.15,1415.431a.324.324,0,0,1-.278-.156c-.228-.373-.447-.758-.652-1.144a.325.325,0,1,1,.573-.3c.2.375.412.748.634,1.111a.325.325,0,0,1-.109.446A.321.321,0,0,1,1083.15,1415.431Z" transform="translate(-1079.54 -1380.557)" fill="#00223d"/>
          <path id="Trazado_116820" data-name="Trazado 116820" d="M1066.735,1233.362a.325.325,0,0,1-.31-.229,23.179,23.179,0,0,1-.587-2.348l-.048-.254a.325.325,0,1,1,.639-.116l.047.246a22.568,22.568,0,0,0,.571,2.282.325.325,0,0,1-.215.406A.331.331,0,0,1,1066.735,1233.362Zm-1-6.835h0a.324.324,0,0,1-.322-.327,22.8,22.8,0,0,1,.18-2.674.325.325,0,0,1,.644.082,22.117,22.117,0,0,0-.175,2.6A.324.324,0,0,1,1065.735,1226.527Zm1.123-6.816a.325.325,0,0,1-.309-.426,22.931,22.931,0,0,1,.986-2.49.325.325,0,0,1,.589.274,22.276,22.276,0,0,0-.958,2.42A.325.325,0,0,1,1066.859,1219.711Zm3.139-6.152a.324.324,0,0,1-.263-.515,23.106,23.106,0,0,1,1.691-2.076.325.325,0,0,1,.479.439,22.336,22.336,0,0,0-1.643,2.017A.325.325,0,0,1,1070,1213.559Zm4.85-4.915a.325.325,0,0,1-.194-.585,22.881,22.881,0,0,1,2.24-1.464.325.325,0,0,1,.323.563,22.227,22.227,0,0,0-2.176,1.423A.324.324,0,0,1,1074.848,1208.644Zm6.113-3.207a.325.325,0,0,1-.1-.632,23.061,23.061,0,0,1,2.58-.714.325.325,0,0,1,.137.635,22.336,22.336,0,0,0-2.508.693A.326.326,0,0,1,1080.961,1205.437Zm9.44-1.111h-.031a22.435,22.435,0,0,0-2.6-.095.318.318,0,0,1-.332-.317.324.324,0,0,1,.317-.332,22.528,22.528,0,0,1,2.677.1.324.324,0,0,1-.031.647Z" transform="translate(-1065.411 -1203.575)" fill="#00223d"/>
          <path id="Trazado_116821" data-name="Trazado 116821" d="M1250.319,1210.484a.325.325,0,0,1-.11-.019c-.4-.144-.807-.278-1.214-.4a.325.325,0,1,1,.184-.623c.42.125.841.263,1.25.411a.325.325,0,0,1-.11.63Z" transform="translate(-1219.875 -1208.508)" fill="#00223d"/>
        </g>
        <g id="Grupo_54455" data-name="Grupo 54455" transform="translate(13.926 12.462)">
          <path id="Trazado_116822" data-name="Trazado 116822" d="M1337.015,1284.5a.324.324,0,0,1-.3-.2c-.167-.39-.347-.78-.537-1.161a.324.324,0,1,1,.581-.289c.2.392.381.794.553,1.195a.325.325,0,0,1-.171.426A.317.317,0,0,1,1337.015,1284.5Z" transform="translate(-1307.418 -1282.676)" fill="url(#linear-gradient-40)"/>
          <path id="Trazado_116823" data-name="Trazado 116823" d="M1190.491,1343.647h-.01a22.776,22.776,0,0,1-2.625-.229.325.325,0,0,1,.094-.642,22.135,22.135,0,0,0,2.55.223.324.324,0,0,1-.009.649Zm4.207-.273a.325.325,0,0,1-.051-.646q.384-.061.768-.136c.583-.114,1.166-.251,1.733-.41a.325.325,0,0,1,.175.626c-.584.163-1.184.3-1.783.422q-.4.077-.79.14A.366.366,0,0,1,1194.7,1343.374Zm6.474-2.062a.324.324,0,0,1-.144-.615,22.071,22.071,0,0,0,2.223-1.268.325.325,0,0,1,.354.544,22.671,22.671,0,0,1-2.289,1.305A.322.322,0,0,1,1201.173,1341.311Zm5.557-3.905a.325.325,0,0,1-.225-.559,22.413,22.413,0,0,0,1.742-1.875.325.325,0,0,1,.5.414,23,23,0,0,1-1.793,1.929A.323.323,0,0,1,1206.73,1337.406Zm4.14-5.386a.33.33,0,0,1-.156-.04.325.325,0,0,1-.127-.441,22.344,22.344,0,0,0,1.107-2.308.324.324,0,1,1,.6.247,22.944,22.944,0,0,1-1.139,2.375A.326.326,0,0,1,1210.87,1332.019Zm2.353-6.376a.328.328,0,0,1-.065-.007.324.324,0,0,1-.253-.383,22.018,22.018,0,0,0,.366-2.534.325.325,0,0,1,.647.055,22.636,22.636,0,0,1-.377,2.609A.324.324,0,0,1,1213.223,1325.644Zm.332-6.787a.325.325,0,0,1-.322-.292c-.069-.665-.169-1.335-.3-1.993q-.053-.269-.111-.534a.325.325,0,0,1,.634-.14q.06.273.114.549c.133.677.235,1.367.306,2.051a.324.324,0,0,1-.289.356Z" transform="translate(-1182.257 -1310.449)" fill="url(#linear-gradient-40)"/>
          <path id="Trazado_116824" data-name="Trazado 116824" d="M1155.339,1479.637a.317.317,0,0,1-.106-.018c-.411-.143-.825-.3-1.23-.468a.325.325,0,1,1,.248-.6c.394.163.8.316,1.2.454a.325.325,0,0,1-.106.631Z" transform="translate(-1153.802 -1447.672)" fill="url(#linear-gradient-40)"/>
        </g>
        <g id="Grupo_54456" data-name="Grupo 54456" transform="translate(5.392 5.249)">
          <path id="Trazado_116825" data-name="Trazado 116825" d="M1108.521,1269.5a.271.271,0,0,0,.314,0l2.687-1.895a14.32,14.32,0,0,0,4.515,1.067l1.555,2.894a.27.27,0,0,0,.281.139l3.893-.631a.27.27,0,0,0,.223-.221l.559-3.237a14.32,14.32,0,0,0,3.946-2.441l3.148.948a.27.27,0,0,0,.3-.1l2.306-3.2a.27.27,0,0,0,0-.313l-1.895-2.687a14.326,14.326,0,0,0,1.067-4.515l2.894-1.555a.269.269,0,0,0,.139-.281l-.632-3.893a.27.27,0,0,0-.221-.223l-3.237-.559a14.318,14.318,0,0,0-2.441-3.946l.948-3.148a.27.27,0,0,0-.1-.3l-3.2-2.305a.27.27,0,0,0-.313,0l-2.686,1.9a14.312,14.312,0,0,0-4.516-1.067l-1.555-2.895a.27.27,0,0,0-.281-.139l-3.892.631a.271.271,0,0,0-.223.221l-.56,3.237a14.329,14.329,0,0,0-3.946,2.441l-3.148-.948a.27.27,0,0,0-.3.1l-2.306,3.2a.269.269,0,0,0,0,.313l1.895,2.687a14.325,14.325,0,0,0-1.067,4.516l-2.895,1.555a.27.27,0,0,0-.139.281l.632,3.892a.27.27,0,0,0,.22.223l3.238.56a14.321,14.321,0,0,0,2.44,3.946l-.947,3.148a.27.27,0,0,0,.1.3Z" transform="translate(-1099.635 -1236.893)" fill="#00223d"/>
          <path id="Trazado_116826" data-name="Trazado 116826" d="M1188.806,1330.068a4,4,0,1,1,1.583-.33h0A3.989,3.989,0,0,1,1188.806,1330.068Zm-.005-7.005a3.015,3.015,0,1,0,1.2,5.782h0a3.015,3.015,0,0,0-1.2-5.782Z" transform="translate(-1171.394 -1308.666)" fill="url(#linear-gradient-7)"/>
          <path id="Trazado_116827" data-name="Trazado 116827" d="M1156.907,1303.451l-.174,0-.222-.006h-.015l-.1,0,.05-.973a9.088,9.088,0,0,0,1.92-.106,8.965,8.965,0,0,0,5.6-3.269q.142-.179.277-.365a8.961,8.961,0,0,0,1.706-5.26,9.153,9.153,0,0,0-.119-1.465,9.03,9.03,0,0,0-17.943,1.428,9.179,9.179,0,0,0,.118,1.465,9.015,9.015,0,0,0,2.005,4.371l-.744.629a9.991,9.991,0,0,1-2.223-4.843,10.143,10.143,0,0,1-.131-1.623,10,10,0,0,1,19.878-1.582,10.118,10.118,0,0,1,.131,1.623,10.008,10.008,0,0,1-8.4,9.853h0l-.179.027A10.079,10.079,0,0,1,1156.907,1303.451Z" transform="translate(-1139.467 -1276.109)" fill="url(#linear-gradient-7)"/>
        </g>
      </g>
      <g id="Grupo_54461" data-name="Grupo 54461" transform="translate(36.887 0)">
        <g id="Grupo_54458" data-name="Grupo 54458">
          <path id="Trazado_116828" data-name="Trazado 116828" d="M1308.367,1270.427a.324.324,0,0,1-.278-.155,13.021,13.021,0,0,1-.633-1.171.325.325,0,1,1,.586-.279,12.52,12.52,0,0,0,.6,1.112.324.324,0,0,1-.276.493Z" transform="translate(-1306.183 -1250.44)" fill="#00223d"/>
          <path id="Trazado_116829" data-name="Trazado 116829" d="M1300,1168.305a.325.325,0,0,1-.321-.278,13.149,13.149,0,0,1-.134-1.87q0-.279.012-.555a.328.328,0,0,1,.338-.31.324.324,0,0,1,.31.338q-.012.263-.011.528a12.439,12.439,0,0,0,.128,1.777.324.324,0,0,1-.275.367A.341.341,0,0,1,1300,1168.305Zm.625-6.131a.318.318,0,0,1-.11-.02.325.325,0,0,1-.195-.416,13.177,13.177,0,0,1,1.034-2.2.325.325,0,1,1,.559.33,12.491,12.491,0,0,0-.983,2.088A.325.325,0,0,1,1300.627,1162.174Zm3.432-5.119a.325.325,0,0,1-.218-.565,13.056,13.056,0,0,1,1.943-1.456.324.324,0,0,1,.339.553,12.423,12.423,0,0,0-1.846,1.384A.323.323,0,0,1,1304.059,1157.055Zm5.433-2.906a.325.325,0,0,1-.079-.639q.341-.086.69-.154a13.194,13.194,0,0,1,1.709-.219.325.325,0,0,1,.04.648,12.621,12.621,0,0,0-1.625.208q-.332.066-.656.147A.343.343,0,0,1,1309.492,1154.149Z" transform="translate(-1299.546 -1153.135)" fill="#00223d"/>
          <path id="Trazado_116830" data-name="Trazado 116830" d="M1401.392,1156.378a.325.325,0,0,1-.11-.02,12.448,12.448,0,0,0-1.21-.367.325.325,0,0,1,.156-.63,13.161,13.161,0,0,1,1.273.387.325.325,0,0,1-.11.63Z" transform="translate(-1384.027 -1155.002)" fill="#00223d"/>
        </g>
        <g id="Grupo_54459" data-name="Grupo 54459" transform="translate(7.879 7.026)">
          <path id="Trazado_116831" data-name="Trazado 116831" d="M1453.559,1199.569a.324.324,0,0,1-.3-.211,12.322,12.322,0,0,0-.505-1.159.325.325,0,0,1,.581-.289,13,13,0,0,1,.531,1.22.325.325,0,0,1-.3.439Z" transform="translate(-1436.464 -1197.73)" fill="#00223d"/>
          <path id="Trazado_116832" data-name="Trazado 116832" d="M1381.431,1242.907a.325.325,0,0,1,0-.649,12.524,12.524,0,0,0,2.258-.23.324.324,0,1,1,.124.637,13.183,13.183,0,0,1-2.375.242Zm5.875-1.494a.325.325,0,0,1-.153-.611,12.409,12.409,0,0,0,1.9-1.246.324.324,0,1,1,.4.507,12.962,12.962,0,0,1-2,1.311A.321.321,0,0,1,1387.306,1241.413Zm4.513-4.043a.324.324,0,0,1-.268-.508,12.473,12.473,0,0,0,1.107-1.981.325.325,0,1,1,.593.264,13.187,13.187,0,0,1-1.165,2.084A.324.324,0,0,1,1391.82,1237.37Zm2.142-5.671-.039,0a.325.325,0,0,1-.283-.361,12.364,12.364,0,0,0,.089-1.473c0-.265-.009-.533-.026-.8a.325.325,0,1,1,.648-.042c.018.276.027.558.027.837a13.008,13.008,0,0,1-.093,1.551A.324.324,0,0,1,1393.961,1231.7Z" transform="translate(-1376.136 -1223.839)" fill="#00223d"/>
          <path id="Trazado_116833" data-name="Trazado 116833" d="M1351.1,1309.617a.315.315,0,0,1-.093-.014,12.988,12.988,0,0,1-1.254-.445.325.325,0,1,1,.248-.6,12.333,12.333,0,0,0,1.191.423.325.325,0,0,1-.093.636Z" transform="translate(-1349.555 -1291.078)" fill="#00223d"/>
        </g>
        <g id="Grupo_54460" data-name="Grupo 54460" transform="translate(3.192 3.086)">
          <path id="Trazado_116834" data-name="Trazado 116834" d="M1324.832,1191.173a.153.153,0,0,0,.177,0l1.52-1.072a8.1,8.1,0,0,0,2.554.6l.88,1.638a.153.153,0,0,0,.159.078l2.2-.357a.154.154,0,0,0,.126-.125l.317-1.831a8.1,8.1,0,0,0,2.232-1.381l1.781.536a.152.152,0,0,0,.168-.057l1.3-1.81a.154.154,0,0,0,0-.177l-1.072-1.52a8.1,8.1,0,0,0,.6-2.555l1.637-.88a.153.153,0,0,0,.079-.159l-.357-2.2a.153.153,0,0,0-.125-.126l-1.832-.316a8.1,8.1,0,0,0-1.381-2.232l.536-1.781a.152.152,0,0,0-.057-.168l-1.81-1.3a.152.152,0,0,0-.177,0l-1.52,1.072a8.107,8.107,0,0,0-2.554-.6l-.88-1.637a.153.153,0,0,0-.159-.078l-2.2.357a.153.153,0,0,0-.126.125l-.316,1.831a8.108,8.108,0,0,0-2.233,1.381l-1.781-.536a.152.152,0,0,0-.168.057l-1.3,1.81a.153.153,0,0,0,0,.177l1.072,1.52a8.105,8.105,0,0,0-.6,2.555l-1.637.88a.152.152,0,0,0-.078.159l.357,2.2a.152.152,0,0,0,.125.126l1.832.317a8.1,8.1,0,0,0,1.381,2.232l-.536,1.781a.152.152,0,0,0,.057.168Z" transform="translate(-1319.805 -1172.724)" fill="#00223d"/>
          <path id="Trazado_116835" data-name="Trazado 116835" d="M1369.132,1224.517a2.468,2.468,0,1,1,.976-.2h0A2.454,2.454,0,0,1,1369.132,1224.517Zm.783-.65h0Zm-.787-3.313a1.494,1.494,0,1,0,.593,2.866h0a1.495,1.495,0,0,0-.593-2.866Z" transform="translate(-1359.279 -1212.199)" fill="url(#linear-gradient-7)"/>
          <path id="Trazado_116836" data-name="Trazado 116836" d="M1351.08,1209.466c-.1,0-.2,0-.3-.008l.05-.973a4.97,4.97,0,0,0,1.041-.057h0a4.9,4.9,0,0,0,4.092-5.283q-.015-.167-.043-.335a4.9,4.9,0,0,0-9.731.783,4.986,4.986,0,0,0,.064.787,4.885,4.885,0,0,0,1.088,2.37l-.744.629a5.871,5.871,0,1,1,5.43,2.011l-.015,0c-.193.031-.388.052-.583.064l-.081,0h-.01C1351.253,1209.464,1351.167,1209.466,1351.08,1209.466Z" transform="translate(-1341.213 -1193.786)" fill="url(#linear-gradient-7)"/>
        </g>
      </g>
    </g>
  </g>
</svg>
