<svg id="img9" xmlns="http://www.w3.org/2000/svg" xmlns:xlink="http://www.w3.org/1999/xlink" width="417.709" height="502.223" viewBox="0 0 417.709 502.223">
  <defs>
    <linearGradient id="linear-gradient" x1="-30.681" y1="-2.445" x2="159.693" y2="15.534" gradientUnits="objectBoundingBox">
      <stop offset="0" stop-color="#a737d5"/>
      <stop offset="1" stop-color="#ef497a"/>
    </linearGradient>
    <linearGradient id="linear-gradient-2" y1="0.5" x2="1" y2="0.5" gradientUnits="objectBoundingBox">
      <stop offset="0" stop-color="#dae3fe"/>
      <stop offset="1" stop-color="#e9effd"/>
    </linearGradient>
    <linearGradient id="linear-gradient-6" x1="-31.909" y1="0.302" x2="-31.237" y2="1.263" gradientUnits="objectBoundingBox">
      <stop offset="0" stop-color="#febbba"/>
      <stop offset="1" stop-color="#ff928e"/>
    </linearGradient>
    <linearGradient id="linear-gradient-7" x1="-71.467" y1="1.602" x2="-70.432" y2="-1.187" xlink:href="#linear-gradient-6"/>
    <linearGradient id="linear-gradient-8" x1="-29.825" y1="1.698" x2="-29.362" y2="-1.193" xlink:href="#linear-gradient-6"/>
    <linearGradient id="linear-gradient-9" x1="-94.169" y1="1.857" x2="-93.914" y2="0.807" xlink:href="#linear-gradient-6"/>
    <linearGradient id="linear-gradient-10" x1="-62.392" y1="1.328" x2="-60.931" y2="-1.033" xlink:href="#linear-gradient-6"/>
    <linearGradient id="linear-gradient-11" x1="-225.703" y1="3.259" x2="-220.387" y2="-4.349" xlink:href="#linear-gradient-6"/>
    <linearGradient id="linear-gradient-12" x1="-114.581" y1="1.592" x2="-112.969" y2="4.225" xlink:href="#linear-gradient-6"/>
    <linearGradient id="linear-gradient-13" x1="0.245" y1="0.738" x2="1.049" y2="-0.129" xlink:href="#linear-gradient-6"/>
    <linearGradient id="linear-gradient-14" x1="0.5" x2="0.5" y2="1" gradientUnits="objectBoundingBox">
      <stop offset="0" stop-color="#f4efe2"/>
      <stop offset="0.697" stop-color="#fff"/>
      <stop offset="1" stop-color="#f4efe2"/>
    </linearGradient>
    <linearGradient id="linear-gradient-15" x1="168.484" y1="-0.207" x2="169.492" y2="-0.207" xlink:href="#linear-gradient-6"/>
    <linearGradient id="linear-gradient-16" x1="187.787" y1="-0.014" x2="188.801" y2="-0.014" xlink:href="#linear-gradient-6"/>
    <linearGradient id="linear-gradient-17" x1="1.116" y1="0.941" x2="-0.257" y2="0.054" xlink:href="#linear-gradient-6"/>
    <linearGradient id="linear-gradient-18" x1="1.434" y1="1.247" x2="-0.053" y2="0.185" xlink:href="#linear-gradient-6"/>
    <linearGradient id="linear-gradient-19" x1="259.481" y1="0.059" x2="261.483" y2="-1.721" xlink:href="#linear-gradient-6"/>
    <linearGradient id="linear-gradient-20" x1="24.605" y1="0.303" x2="25.607" y2="0.303" xlink:href="#linear-gradient-6"/>
    <linearGradient id="linear-gradient-21" x1="63.919" y1="0.247" x2="64.91" y2="0.247" xlink:href="#linear-gradient-6"/>
    <linearGradient id="linear-gradient-22" x1="78.957" y1="0.5" x2="79.957" y2="0.5" xlink:href="#linear-gradient-6"/>
    <linearGradient id="linear-gradient-23" x1="-2.291" y1="7.018" x2="-3.428" y2="8.299" xlink:href="#linear-gradient-6"/>
    <linearGradient id="linear-gradient-24" x1="-13.283" y1="24.541" x2="-10.677" y2="21.894" xlink:href="#linear-gradient-6"/>
  </defs>
  <g id="Grupo_28695" data-name="Grupo 28695" transform="translate(4.965 5.231)">
    <g id="Grupo_28689" data-name="Grupo 28689" transform="translate(0 76.713)">
      <g id="Grupo_28685" data-name="Grupo 28685" opacity="0.3">
        <path id="Trazado_68412" data-name="Trazado 68412" d="M550.642,913.45a1.4,1.4,0,0,1-1.448,1.369c-1.477-.08-2.979-.094-4.465-.042a1.406,1.406,0,0,1-1.422-1.369v-.028a1.419,1.419,0,0,1,1.332-1.494c1.564-.055,3.145-.04,4.7.044a1.413,1.413,0,0,1,1.3,1.366A1.446,1.446,0,0,1,550.642,913.45Zm-13.127,2.1c-1.464.264-2.932.6-4.363.989a1.374,1.374,0,0,1-1.682-1.034,1.454,1.454,0,0,1,.986-1.764c1.505-.412,3.05-.762,4.591-1.041a1.386,1.386,0,0,1,1.592,1.18,1.564,1.564,0,0,1,.018.171A1.433,1.433,0,0,1,537.515,915.553Zm-11.232,3.417c-1.368.6-2.727,1.266-4.042,1.985a1.347,1.347,0,0,1-1.859-.614,1.483,1.483,0,0,1,.585-1.951c1.384-.758,2.816-1.461,4.257-2.09a1.356,1.356,0,0,1,1.8.779,1.516,1.516,0,0,1,.1.48A1.455,1.455,0,0,1,526.283,918.97Zm-10.222,5.967c-1.208.9-2.391,1.875-3.519,2.884a1.334,1.334,0,0,1-1.943-.163,1.5,1.5,0,0,1,.155-2.039c1.188-1.062,2.434-2.083,3.7-3.036a1.337,1.337,0,0,1,1.922.336,1.495,1.495,0,0,1-.32,2.017Zm-8.7,8.208c-.983,1.161-1.933,2.382-2.823,3.631a1.336,1.336,0,0,1-1.929.292,1.492,1.492,0,0,1-.278-2.024c.936-1.313,1.935-2.6,2.97-3.82a1.333,1.333,0,0,1,1.946-.12,1.47,1.47,0,0,1,.461,1A1.487,1.487,0,0,1,507.36,933.145Zm-6.753,10.023c-.716,1.362-1.384,2.773-1.987,4.195a1.353,1.353,0,0,1-1.819.733,1.475,1.475,0,0,1-.7-1.909c.634-1.5,1.338-2.981,2.091-4.415a1.345,1.345,0,0,1,1.872-.568,1.454,1.454,0,0,1,.711,1.192A1.5,1.5,0,0,1,500.607,943.168Zm-1.194,53.686a1.347,1.347,0,0,1-1.858-.616c-.719-1.452-1.387-2.957-1.985-4.472a1.471,1.471,0,0,1,.746-1.889,1.356,1.356,0,0,1,1.8.782c.568,1.439,1.2,2.868,1.885,4.246a1.5,1.5,0,0,1,.154.59A1.46,1.46,0,0,1,499.413,996.854Zm-3.27-42.349c-.409,1.494-.76,3.025-1.045,4.551a1.383,1.383,0,0,1-1.618,1.141,1.447,1.447,0,0,1-1.087-1.7c.3-1.606.67-3.219,1.1-4.792a1.37,1.37,0,0,1,1.705-.991,1.435,1.435,0,0,1,1,1.314A1.523,1.523,0,0,1,496.143,954.505Zm-1.317,30.7a1.374,1.374,0,0,1-1.68-1.038c-.39-1.584-.721-3.206-.983-4.822a1.438,1.438,0,0,1,1.128-1.668,1.387,1.387,0,0,1,1.59,1.183c.249,1.536.563,3.078.934,4.583a1.5,1.5,0,0,1,.042.287A1.44,1.44,0,0,1,494.826,985.206Zm-.62-18.6c-.08,1.551-.1,3.127-.05,4.683a1.379,1.379,0,1,1-2.754.122c0-.01,0-.021,0-.031-.05-1.638-.032-3.3.052-4.929a1.376,1.376,0,0,1,2.753,0C494.208,966.5,494.207,966.551,494.205,966.6Z" transform="translate(-491.373 -911.854)" fill="#00223d"/>
        <path id="Trazado_68413" data-name="Trazado 68413" d="M553.539,1411.087a1.48,1.48,0,0,0-.287-.809c-.436-.589-.867-1.2-1.283-1.808a1.336,1.336,0,0,0-1.922-.338,1.491,1.491,0,0,0-.322,2.017c.437.643.89,1.282,1.349,1.9a1.336,1.336,0,0,0,1.934.255A1.474,1.474,0,0,0,553.539,1411.087Z" transform="translate(-539.538 -1318.897)" fill="#00223d"/>
      </g>
      <g id="Grupo_28686" data-name="Grupo 28686" transform="translate(45.743 19.792)" opacity="0.3">
        <path id="Trazado_68414" data-name="Trazado 68414" d="M763.917,1538.1a1.419,1.419,0,0,0-1.23-1.36c-.706-.079-1.424-.175-2.13-.285a1.39,1.39,0,0,0-1.566,1.218,1.435,1.435,0,0,0,1.161,1.643c.744.116,1.5.217,2.243.3a1.4,1.4,0,0,0,1.516-1.285A1.526,1.526,0,0,0,763.917,1538.1Z" transform="translate(-758.975 -1444.201)" fill="#00223d"/>
        <path id="Trazado_68415" data-name="Trazado 68415" d="M869.436,1097.44a1.38,1.38,0,1,1-2.756.01c0-1.52-.072-3.065-.2-4.606a1.428,1.428,0,0,1,1.255-1.565,1.4,1.4,0,0,1,1.492,1.316q.083,1,.133,2C869.407,1095.542,869.433,1096.5,869.436,1097.44Zm-2.4-10.9a1.378,1.378,0,0,1-1.647-1.092c-.322-1.5-.707-2.993-1.146-4.451a1.46,1.46,0,0,1,.9-1.814,1.367,1.367,0,0,1,1.729.943c.462,1.535.868,3.111,1.206,4.685a1.475,1.475,0,0,1,.032.244A1.438,1.438,0,0,1,867.033,1086.536Zm1.916,18.768c-.2,1.594-.476,3.2-.809,4.777a1.379,1.379,0,0,1-1.644,1.1,1.449,1.449,0,0,1-1.047-1.725c.316-1.5.575-3.022.768-4.536a1.393,1.393,0,0,1,1.55-1.241,1.421,1.421,0,0,1,1.192,1.356A1.529,1.529,0,0,1,868.948,1105.3Zm-5.482-30.593a1.35,1.35,0,0,1-1.836-.686c-.626-1.383-1.316-2.755-2.05-4.076a1.485,1.485,0,0,1,.5-1.977,1.343,1.343,0,0,1,1.885.521c.773,1.392,1.5,2.836,2.158,4.292a1.5,1.5,0,0,1,.132.544A1.458,1.458,0,0,1,863.466,1074.712Zm2.55,42.922c-.533,1.508-1.135,3.012-1.79,4.472a1.351,1.351,0,0,1-1.833.693,1.478,1.478,0,0,1-.661-1.924c.622-1.387,1.194-2.816,1.7-4.247a1.361,1.361,0,0,1,1.771-.853,1.443,1.443,0,0,1,.9,1.281A1.514,1.514,0,0,1,866.016,1117.634Zm-5.438,11.356c-.836,1.352-1.737,2.682-2.676,3.955a1.336,1.336,0,0,1-1.934.258,1.493,1.493,0,0,1-.245-2.029c.893-1.21,1.748-2.474,2.543-3.759a1.34,1.34,0,0,1,1.906-.426,1.461,1.461,0,0,1,.626,1.139A1.491,1.491,0,0,1,860.578,1128.99Zm-7.668,9.843c-1.1,1.129-2.253,2.223-3.433,3.25a1.334,1.334,0,0,1-1.94-.19,1.5,1.5,0,0,1,.181-2.036c1.122-.975,2.219-2.015,3.262-3.088a1.333,1.333,0,0,1,1.949.02,1.5,1.5,0,0,1-.019,2.045Zm-9.531,7.854c-1.306.85-2.662,1.652-4.03,2.382a1.347,1.347,0,0,1-1.853-.633,1.482,1.482,0,0,1,.6-1.945c1.3-.694,2.586-1.455,3.827-2.262a1.34,1.34,0,0,1,1.9.466,1.491,1.491,0,0,1,.205.685A1.468,1.468,0,0,1,843.378,1146.688Zm-10.949,5.466c-1.449.526-2.939.994-4.428,1.391a1.375,1.375,0,0,1-1.675-1.046,1.455,1.455,0,0,1,1-1.757c1.415-.377,2.83-.821,4.206-1.321a1.363,1.363,0,0,1,1.753.894,1.506,1.506,0,0,1,.075.4A1.449,1.449,0,0,1,832.429,1152.154Zm-11.813,2.808c-1.122.135-2.263.234-3.39.3q-.612.034-1.221.053a1.393,1.393,0,0,1-1.42-1.4,1.419,1.419,0,0,1,1.335-1.49q.579-.018,1.161-.05c1.071-.059,2.155-.154,3.222-.282a1.4,1.4,0,0,1,1.525,1.273c0,.029.006.06.007.089A1.427,1.427,0,0,1,820.616,1154.962Z" transform="translate(-805.079 -1059.6)" fill="#00223d"/>
        <path id="Trazado_68416" data-name="Trazado 68416" d="M1048.506,1025.355a1.486,1.486,0,0,0-.292-.816c-.46-.616-.943-1.233-1.432-1.835a1.333,1.333,0,0,0-1.943-.161,1.5,1.5,0,0,0-.154,2.039c.465.571.922,1.158,1.36,1.743a1.335,1.335,0,0,0,1.935.245A1.478,1.478,0,0,0,1048.506,1025.355Z" transform="translate(-995.574 -1022.197)" fill="#00223d"/>
      </g>
      <g id="Grupo_28688" data-name="Grupo 28688" transform="translate(13.099 14.249)">
        <path id="Trazado_68417" data-name="Trazado 68417" d="M630.128,997a.62.62,0,0,0-.748-.009l-6.44,4.691a32.845,32.845,0,0,0-10.748-2.754l-3.657-7.271a.636.636,0,0,0-.668-.353l-9.293,1.509a.659.659,0,0,0-.535.548l-1.391,8.09a33.9,33.9,0,0,0-9.452,6.035l-7.49-2.429a.628.628,0,0,0-.71.247l-5.554,7.962a.7.7,0,0,0-.009.785l4.471,6.757a37.284,37.284,0,0,0-2.624,11.279l-6.929,3.837a.686.686,0,0,0-.336.7l1.438,9.751a.662.662,0,0,0,.522.562l7.71,1.46a36.2,36.2,0,0,0,5.751,9.919l-2.315,7.859a.7.7,0,0,0,.235.745l7.588,5.828a.62.62,0,0,0,.748.01l6.44-4.692a32.842,32.842,0,0,0,10.748,2.754l3.657,7.271a.636.636,0,0,0,.668.352l9.293-1.509a.659.659,0,0,0,.535-.548l1.391-8.091a33.9,33.9,0,0,0,9.452-6.034l7.49,2.429a.627.627,0,0,0,.71-.247l5.554-7.962a.7.7,0,0,0,.009-.784l-4.471-6.757a37.287,37.287,0,0,0,2.625-11.279l6.929-3.837a.686.686,0,0,0,.336-.7l-1.438-9.751a.662.662,0,0,0-.522-.562l-7.71-1.46a36.209,36.209,0,0,0-5.751-9.919l2.315-7.859a.7.7,0,0,0-.235-.745Z" transform="translate(-568.006 -991.294)" fill="#e2dfdf"/>
        <g id="Grupo_28687" data-name="Grupo 28687" transform="translate(32.076 33.658)">
          <path id="Trazado_68418" data-name="Trazado 68418" d="M774.519,1189.794a9.6,9.6,0,0,1-10.3,8.946,9.265,9.265,0,0,1-6.4-3.549,10.182,10.182,0,0,1-2.13-7.255,9.6,9.6,0,0,1,10.3-8.947,9.735,9.735,0,0,1,8.555,9.347A10.476,10.476,0,0,1,774.519,1189.794Zm-14.992,3.922a7.1,7.1,0,0,0,4.9,2.721,7.361,7.361,0,0,0,7.894-6.859,7.52,7.52,0,0,0-6.537-8.283,7.36,7.36,0,0,0-7.894,6.859,8.074,8.074,0,0,0-.022,1.128A7.763,7.763,0,0,0,759.526,1193.716Z" transform="translate(-755.655 -1178.947)" fill="#00223d"/>
        </g>
        <path id="Trazado_68419" data-name="Trazado 68419" d="M720.669,1122.308q-.063-1.244-.246-2.493h0q-.058-.393-.128-.784a25.509,25.509,0,0,0-.976-3.769l-.017-.05c-.016-.047-.033-.095-.05-.142-.032-.092-.065-.183-.1-.275a.551.551,0,0,0-.543-.371.546.546,0,0,0-.169.038.588.588,0,0,0-.317.747,24.258,24.258,0,0,1,1.208,4.782,23.87,23.87,0,0,1-7.293,21.022,21.571,21.571,0,0,1-11.2,5.489,21.188,21.188,0,0,1-16.462-4.211,23.281,23.281,0,0,1-8.8-15.193c-1.867-12.665,6.429-24.552,18.493-26.511a21.154,21.154,0,0,1,11.714,1.429.519.519,0,0,0,.237.042.552.552,0,0,0,.481-.36.588.588,0,0,0-.3-.754,22.221,22.221,0,0,0-12.3-1.5c-12.665,2.057-21.373,14.546-19.414,27.831a24.439,24.439,0,0,0,9.241,15.949,22.306,22.306,0,0,0,14.9,4.68,22.6,22.6,0,0,0,2.379-.258,22.949,22.949,0,0,0,15.2-9.7A25.055,25.055,0,0,0,720.669,1122.308Z" transform="translate(-656.057 -1079.809)" fill="#00223d"/>
      </g>
    </g>
    <g id="Grupo_28694" data-name="Grupo 28694" transform="translate(25.156 0)">
      <g id="Grupo_28690" data-name="Grupo 28690" opacity="0.3">
        <path id="Trazado_68420" data-name="Trazado 68420" d="M888.708,488.584a.883.883,0,0,0-.654-.822c-.7-.175-1.421-.33-2.133-.461a.856.856,0,0,0-.985.726.889.889,0,0,0,.692,1.034c.679.124,1.363.272,2.034.439a.851.851,0,0,0,1.025-.663A.949.949,0,0,0,888.708,488.584Z" transform="translate(-842.807 -486.727)" fill="#00223d"/>
        <path id="Trazado_68421" data-name="Trazado 68421" d="M677.958,485.146a.868.868,0,0,1-.892.848,33.789,33.789,0,0,0-3.571.007q-.375.021-.752.05a.866.866,0,0,1-.911-.825.912.912,0,0,1,.787-.957q.394-.03.787-.052a35.231,35.231,0,0,1,3.745-.007.873.873,0,0,1,.808.844C677.959,485.085,677.959,485.115,677.958,485.146Zm-9.5,1.513a33.968,33.968,0,0,0-4.18,1.152.843.843,0,0,1-1.075-.569.905.905,0,0,1,.542-1.128,35.519,35.519,0,0,1,4.382-1.208.854.854,0,0,1,1,.7.971.971,0,0,1,.015.128A.886.886,0,0,1,668.459,486.66Zm-8.193,2.838a34.523,34.523,0,0,0-3.783,2.2.828.828,0,0,1-1.175-.273.918.918,0,0,1,.26-1.233,36.282,36.282,0,0,1,3.968-2.3.835.835,0,0,1,1.134.424.936.936,0,0,1,.081.336A.9.9,0,0,1,660.265,489.5Zm-7.279,4.864a35.938,35.938,0,0,0-3.155,3.1.823.823,0,0,1-1.2.036.925.925,0,0,1-.035-1.262,37.722,37.722,0,0,1,3.309-3.25.825.825,0,0,1,1.2.119.925.925,0,0,1-.114,1.258Zm-5.926,6.581a37.472,37.472,0,0,0-2.344,3.81.83.83,0,0,1-1.159.341.915.915,0,0,1-.325-1.216,39.394,39.394,0,0,1,2.456-3.994.826.826,0,0,1,1.19-.19.9.9,0,0,1,.346.673A.921.921,0,0,1,647.061,500.943Zm-4.224,7.891a37.872,37.872,0,0,0-1.385,4.291.848.848,0,0,1-1.044.629.9.9,0,0,1-.6-1.1,39.734,39.734,0,0,1,1.453-4.5.838.838,0,0,1,1.11-.488.893.893,0,0,1,.528.78A.928.928,0,0,1,642.837,508.835Zm-2.256,8.732a38.472,38.472,0,0,0-.339,4.521.852.852,0,1,1-1.7-.031,40.623,40.623,0,0,1,.356-4.74.86.86,0,0,1,.963-.759.878.878,0,0,1,.73.837A.983.983,0,0,1,640.581,517.566Zm-.064,14.6a.85.85,0,0,1-1.022-.668,40.583,40.583,0,0,1-.684-4.068c-.026-.208-.048-.415-.069-.623a.875.875,0,0,1,.758-.981.863.863,0,0,1,.936.8c.019.195.04.389.064.588a38.754,38.754,0,0,0,.653,3.884.928.928,0,0,1,.021.156A.888.888,0,0,1,640.518,532.164Z" transform="translate(-638.539 -484.164)" fill="#00223d"/>
      </g>
      <g id="Grupo_28691" data-name="Grupo 28691" transform="translate(53.689 13.244)" opacity="0.3">
        <path id="Trazado_68422" data-name="Trazado 68422" d="M972.437,607.383a40.828,40.828,0,0,1-.093,4.674.865.865,0,0,1-.918.818.886.886,0,0,1-.779-.963,38.79,38.79,0,0,0,.088-4.459.852.852,0,1,1,1.7-.083Zm-1.15-3.632a.857.857,0,0,1-.975-.74,38.966,38.966,0,0,0-.927-4.356.9.9,0,0,1,.584-1.1.846.846,0,0,1,1.052.612,40.666,40.666,0,0,1,.971,4.565.95.95,0,0,1,.01.1A.884.884,0,0,1,971.288,603.752Zm.423,12.938a40.364,40.364,0,0,1-1.167,4.514.843.843,0,0,1-1.079.56.9.9,0,0,1-.534-1.132,38.529,38.529,0,0,0,1.114-4.305.853.853,0,0,1,1.006-.693.882.882,0,0,1,.678.827A.957.957,0,0,1,971.711,616.689Zm-2.63-21.765a.837.837,0,0,1-1.117-.472,37.52,37.52,0,0,0-1.9-3.991.92.92,0,0,1,.31-1.22.83.83,0,0,1,1.164.326,39.13,39.13,0,0,1,1.994,4.186.926.926,0,0,1,.067.3A.9.9,0,0,1,969.08,594.924Zm-.218,30.608a39.427,39.427,0,0,1-2.167,4.086.828.828,0,0,1-1.176.272.919.919,0,0,1-.259-1.234,37.379,37.379,0,0,0,2.067-3.9.834.834,0,0,1,1.136-.419.9.9,0,0,1,.482.759A.928.928,0,0,1,968.863,625.532Zm-4.787,7.869a38.4,38.4,0,0,1-3.036,3.424.823.823,0,0,1-1.2-.031.925.925,0,0,1,.029-1.263,36.68,36.68,0,0,0,2.9-3.267.824.824,0,0,1,1.2-.121.908.908,0,0,1,.309.643A.918.918,0,0,1,964.076,633.4Zm-6.445,6.44A36.67,36.67,0,0,1,953.9,642.4a.83.83,0,0,1-1.161-.334.918.918,0,0,1,.317-1.218,34.69,34.69,0,0,0,3.559-2.442.825.825,0,0,1,1.191.183.923.923,0,0,1-.174,1.25Z" transform="translate(-952.626 -583.539)" fill="#00223d"/>
        <path id="Trazado_68423" data-name="Trazado 68423" d="M1011.6,560.585a.918.918,0,0,0-.171-.491c-.439-.61-.9-1.209-1.363-1.78a.824.824,0,0,0-1.2-.1.927.927,0,0,0-.095,1.259c.444.545.881,1.117,1.3,1.7a.825.825,0,0,0,1.192.173A.912.912,0,0,0,1011.6,560.585Z" transform="translate(-999.001 -558)" fill="#00223d"/>
      </g>
      <g id="Grupo_28693" data-name="Grupo 28693" transform="translate(8.692 9.46)">
        <path id="Trazado_68424" data-name="Trazado 68424" d="M730.958,540.723a.416.416,0,0,0-.5-.007l-4.309,3.139a21.977,21.977,0,0,0-7.192-1.842l-2.447-4.865a.426.426,0,0,0-.447-.236l-6.218,1.01a.441.441,0,0,0-.358.367l-.931,5.414a22.675,22.675,0,0,0-6.325,4.038l-5.012-1.626a.42.42,0,0,0-.475.165l-3.716,5.328a.47.47,0,0,0-.006.525l2.992,4.521a24.954,24.954,0,0,0-1.756,7.547l-4.636,2.568a.459.459,0,0,0-.225.469l.962,6.525a.442.442,0,0,0,.349.376l5.159.977a24.215,24.215,0,0,0,3.848,6.637l-1.55,5.259a.465.465,0,0,0,.157.5l5.077,3.9a.415.415,0,0,0,.5.006l4.309-3.139a21.974,21.974,0,0,0,7.192,1.843l2.447,4.865a.425.425,0,0,0,.447.236l6.219-1.01a.441.441,0,0,0,.358-.367l.931-5.414a22.681,22.681,0,0,0,6.325-4.038l5.012,1.626a.42.42,0,0,0,.475-.165l3.716-5.328a.471.471,0,0,0,.006-.525l-2.992-4.522a24.949,24.949,0,0,0,1.756-7.547l4.636-2.568a.459.459,0,0,0,.225-.469L744,558.37a.443.443,0,0,0-.35-.376l-5.159-.977a24.225,24.225,0,0,0-3.848-6.637l1.549-5.259a.465.465,0,0,0-.157-.5Z" transform="translate(-689.389 -536.906)" fill="#e2dfdf"/>
        <g id="Grupo_28692" data-name="Grupo 28692" transform="translate(21.351 22.404)">
          <path id="Trazado_68425" data-name="Trazado 68425" d="M827.146,669.2a6.813,6.813,0,0,1-2.3,4.572,6.192,6.192,0,0,1-4.709,1.523,6.684,6.684,0,0,1-5.808-7.359,6.54,6.54,0,0,1,7.013-6.093,6.313,6.313,0,0,1,4.357,2.417,6.9,6.9,0,0,1,1.471,3.94A7.233,7.233,0,0,1,827.146,669.2Zm-6.854,4.316a4.558,4.558,0,0,0,3.465-1.12,5.016,5.016,0,0,0,1.694-3.362h0a5.112,5.112,0,0,0-1.068-3.635,4.642,4.642,0,0,0-3.2-1.778,4.811,4.811,0,0,0-5.159,4.483,5.313,5.313,0,0,0-.014.73A4.878,4.878,0,0,0,820.292,673.516Z" transform="translate(-814.297 -661.811)" fill="#00223d"/>
        </g>
        <path id="Trazado_68426" data-name="Trazado 68426" d="M789.67,622.214q-.042-.847-.168-1.7a17.6,17.6,0,0,0-.823-3.318l-.052-.144a.851.851,0,0,0-.839-.573.812.812,0,0,0-.261.058.909.909,0,0,0-.49,1.154,15.685,15.685,0,0,1,.782,3.095h0c.009.058.017.116.025.174a15.581,15.581,0,0,1-.732,7.325,15.383,15.383,0,0,1-1.814,3.574l-.019.027-.057.083a14.152,14.152,0,0,1-9.373,5.979,13.92,13.92,0,0,1-1.467.16,13.758,13.758,0,0,1-9.19-2.886,15.072,15.072,0,0,1-5.7-9.835,15.522,15.522,0,0,1,2.6-11.183,14.153,14.153,0,0,1,9.373-5.979,13.7,13.7,0,0,1,7.583.925.81.81,0,0,0,.365.065.854.854,0,0,0,.744-.555.91.91,0,0,0-.468-1.164,15.326,15.326,0,0,0-8.484-1.036,15.832,15.832,0,0,0-10.487,6.69,17.335,17.335,0,0,0-2.907,12.511,16.856,16.856,0,0,0,6.375,11,15.389,15.389,0,0,0,10.282,3.229,15.689,15.689,0,0,0,1.641-.178C784.3,638.382,790.1,630.723,789.67,622.214Z" transform="translate(-745.954 -593.82)" fill="#00223d"/>
      </g>
    </g>
  </g>
  <g id="Grupo_28702" data-name="Grupo 28702" transform="translate(67.318)">
    <path id="Trazado_68431" data-name="Trazado 68431" d="M856.149,804.573c0-16.92,13.072-30.636,29.2-30.636H1133.63c13.7,0,24.992,11.264,25.689,25.618l18.327,377.718c.545,11.233-7.882,20.708-18.6,20.912l-284.565,5.427c-10.07.192-18.332-8.322-18.332-18.89Z" transform="translate(-856.149 -716.731)" fill="#00223d"/>
    <path id="Trazado_68432" data-name="Trazado 68432" d="M958.573,2803.728h-.009l-31.841-.432c-10.647-.145-19.309-9.353-19.309-20.525v-50.445a.681.681,0,1,1,1.36,0v50.445c0,10.4,8.06,18.963,17.967,19.1l31.841.431a.715.715,0,0,1-.008,1.427Z" transform="translate(-898.651 -2323.266)" fill="#91b3fa"/>
    <path id="Trazado_68433" data-name="Trazado 68433" d="M908.094,2608.545a.7.7,0,0,1-.68-.714v-8.169a.681.681,0,1,1,1.36,0v8.169A.7.7,0,0,1,908.094,2608.545Z" transform="translate(-898.651 -2214.399)" fill="url(#linear-gradient)"/>
    <g id="Grupo_28700" data-name="Grupo 28700" transform="translate(20.341 54.062)">
      <path id="Trazado_68434" data-name="Trazado 68434" d="M975.145,765.366a8.635,8.635,0,0,1,9.619-8.875c33.906,4.825,150.5,19.747,246.895,11.982a7.981,7.981,0,0,1,8.445,7.761l19.217,379.4a9.316,9.316,0,0,1-8.478,9.958c-40.543,2.518-207.511,12.25-267.066,5.7a7.377,7.377,0,0,1-6.4-7.425Z" transform="translate(-975.145 -756.408)" fill="#dbdada"/>
      <path id="Trazado_68435" data-name="Trazado 68435" d="M998.509,819.916a8.31,8.31,0,0,1,9.257-8.542c32.629,4.643,144.831,19,237.6,11.531a7.681,7.681,0,0,1,8.127,7.469l18.493,365.115a8.965,8.965,0,0,1-8.159,9.584c-39.017,2.423-199.7,11.789-257.009,5.49a7.1,7.1,0,0,1-6.157-7.145Z" transform="translate(-994.515 -801.451)" fill="#fff"/>
      <path id="Trazado_68436" data-name="Trazado 68436" d="M1175.188,990.967l3.465,78.278a4.858,4.858,0,0,0,4.6,4.747c13.816.409,56.866,1.51,81.174.181a5.439,5.439,0,0,0,5.016-5.372c.464-14.68,1.478-57.407-1.71-75.268a6.073,6.073,0,0,0-5.674-5.1l-81.66-3A5.174,5.174,0,0,0,1175.188,990.967Z" transform="translate(-1140.989 -944.352)" fill="#dbdada"/>
      <path id="Trazado_68437" data-name="Trazado 68437" d="M1925.115,1022.324a2.552,2.552,0,0,0,2.563-2.626,2.792,2.792,0,0,0-2.708-2.675l-90.093-1.685a1.782,1.782,0,0,0-1.76,2.559l.61,1.818a4.013,4.013,0,0,0,3.511,2.609Z" transform="translate(-1686.342 -968.895)" fill="#dbdada"/>
      <path id="Trazado_68438" data-name="Trazado 68438" d="M1834.876,1096.695a1.782,1.782,0,0,0-1.76,2.559l.61,1.818a4.013,4.013,0,0,0,3.511,2.608h87.877a2.552,2.552,0,0,0,2.563-2.626,2.792,2.792,0,0,0-2.708-2.675Z" transform="translate(-1686.342 -1035.659)" fill="#dbdada"/>
      <path id="Trazado_68439" data-name="Trazado 68439" d="M1834.876,1179.235a1.782,1.782,0,0,0-1.76,2.559l.61,1.818a4.013,4.013,0,0,0,3.511,2.609h87.877a2.552,2.552,0,0,0,2.563-2.626,2.792,2.792,0,0,0-2.708-2.675Z" transform="translate(-1686.342 -1103.394)" fill="#dbdada"/>
      <path id="Trazado_68440" data-name="Trazado 68440" d="M1834.876,1273.177a1.782,1.782,0,0,0-1.76,2.559l.61,1.818a4.013,4.013,0,0,0,3.511,2.608h87.877a2.552,2.552,0,0,0,2.563-2.626,2.791,2.791,0,0,0-2.708-2.675Z" transform="translate(-1686.342 -1180.486)" fill="#dbdada"/>
      <path id="Trazado_68441" data-name="Trazado 68441" d="M1834.876,1365.859a1.782,1.782,0,0,0-1.76,2.559l.61,1.818a4.012,4.012,0,0,0,3.511,2.609h87.877a2.552,2.552,0,0,0,2.563-2.626,2.792,2.792,0,0,0-2.708-2.675Z" transform="translate(-1686.342 -1256.544)" fill="#dbdada"/>
      <path id="Trazado_68442" data-name="Trazado 68442" d="M1394.068,1584.146a2.447,2.447,0,0,0,2.47-2.626,2.879,2.879,0,0,0-2.8-2.648l-210.331-1.739c-1.45-.012-1.9.952-.994,2.142l2.055,2.708a6.1,6.1,0,0,0,4.277,2.163Z" transform="translate(-1146.597 -1429.923)" fill="#dbdada"/>
      <path id="Trazado_68443" data-name="Trazado 68443" d="M1183.407,1658.49c-1.45-.012-1.9.951-.994,2.142l2.055,2.708a6.1,6.1,0,0,0,4.277,2.163h205.323a2.448,2.448,0,0,0,2.47-2.626,2.878,2.878,0,0,0-2.8-2.648Z" transform="translate(-1146.597 -1496.688)" fill="#dbdada"/>
      <path id="Trazado_68444" data-name="Trazado 68444" d="M1171.542,1791.274c5.044-.406,14.49-.594,19.689-.67a4.759,4.759,0,0,1,4.652,3.781,84.364,84.364,0,0,1,2.214,19.976,4.284,4.284,0,0,1-4.222,4.3l-19.188-.217a4.7,4.7,0,0,1-4.538-4.385l-1.687-18.941A3.477,3.477,0,0,1,1171.542,1791.274Z" transform="translate(-1135.405 -1605.105)" fill="#fff" opacity="0.6"/>
      <path id="Trazado_68445" data-name="Trazado 68445" d="M1381.521,1837.625a2.163,2.163,0,0,0-2.242,2.62l.546,3.814a3.218,3.218,0,0,0,3.027,2.735H1430a2.672,2.672,0,0,0,2.6-2.765l-.017-1.4a2.9,2.9,0,0,0-2.666-2.881Z" transform="translate(-1310.175 -1643.689)" fill="#dbdada"/>
      <path id="Trazado_68446" data-name="Trazado 68446" d="M1783.066,1791.274c5.044-.406,14.49-.594,19.689-.67a4.759,4.759,0,0,1,4.652,3.781,84.344,84.344,0,0,1,2.213,19.976,4.283,4.283,0,0,1-4.222,4.3l-19.187-.217a4.7,4.7,0,0,1-4.538-4.385l-1.687-18.941A3.477,3.477,0,0,1,1783.066,1791.274Z" transform="translate(-1642.398 -1605.105)" fill="#dbdada"/>
      <path id="Trazado_68447" data-name="Trazado 68447" d="M1993.044,1837.625a2.163,2.163,0,0,0-2.242,2.62l.546,3.814a3.218,3.218,0,0,0,3.027,2.735h47.147a2.672,2.672,0,0,0,2.6-2.765l-.016-1.4a2.9,2.9,0,0,0-2.666-2.881Z" transform="translate(-1817.167 -1643.689)" fill="#dbdada"/>
      <g id="Grupo_28699" data-name="Grupo 28699" transform="translate(39.025 229.563)">
        <path id="Trazado_68448" data-name="Trazado 68448" d="M1227.631,2096.917h-.048l-17.706-.178a4.833,4.833,0,0,1-4.857-4.248l-1.557-15.589a3.5,3.5,0,0,1,.763-2.547,3.824,3.824,0,0,1,2.709-1.4h0c1.492-.107,3.593-.3,5.816-.493,4.683-.419,10.511-.939,13.79-.982a4.972,4.972,0,0,1,4.958,3.639c.922,3.578.842,10.353.666,17.568A4.46,4.46,0,0,1,1227.631,2096.917Zm-20.6-22.541a2.476,2.476,0,0,0-1.761.9,2.032,2.032,0,0,0-.451,1.48l1.556,15.588a3.453,3.453,0,0,0,3.518,2.97l17.705.178h.035a3.069,3.069,0,0,0,3.175-2.843c.173-7.106.255-13.765-.62-17.159a3.666,3.666,0,0,0-3.628-2.585c-3.23.043-9.031.562-13.692.978-2.23.2-4.336.387-5.839.495Z" transform="translate(-1203.447 -2065.162)" fill="#fff"/>
        <path id="Trazado_68449" data-name="Trazado 68449" d="M1224.475,2091.218c3.72-.267,11.8-1.128,15.638-1.178a3.442,3.442,0,0,1,3.431,2.487c.74,2.87.642,8.593.514,13.875a3,3,0,0,1-3.114,2.827l-14.149-.142a3.318,3.318,0,0,1-3.347-2.884l-1.244-12.457A2.367,2.367,0,0,1,1224.475,2091.218Z" transform="translate(-1218.988 -2080.395)" fill="url(#linear-gradient-2)"/>
        <path id="Trazado_68450" data-name="Trazado 68450" d="M1435.192,2129.114a4.436,4.436,0,0,0,4.288,3.437l163.819-1.466a3.493,3.493,0,0,0-.013-6.976l-163.823-.784A4.568,4.568,0,0,0,1435.192,2129.114Z" transform="translate(-1395.456 -2107.71)" fill="#dbdada"/>
        <path id="Trazado_68451" data-name="Trazado 68451" d="M1233.152,2049.537h0a2.65,2.65,0,0,1,3.748,1.07l3.492,6.569a.855.855,0,0,0,1.558-.071l8.662-20.235a.962.962,0,0,1,1.849.438,41.045,41.045,0,0,1-11.079,27.8s-5.194-2.118-9.376-11.756A3.069,3.069,0,0,1,1233.152,2049.537Z" transform="translate(-1226.911 -2036.269)" fill="#00223d"/>
        <path id="Trazado_68452" data-name="Trazado 68452" d="M1227.631,2318.91h-.048l-17.706-.178a4.833,4.833,0,0,1-4.857-4.248l-1.557-15.588a3.5,3.5,0,0,1,.763-2.547,3.823,3.823,0,0,1,2.709-1.4h0c1.492-.107,3.593-.295,5.816-.493,4.683-.419,10.511-.939,13.79-.982h.071a4.964,4.964,0,0,1,4.887,3.639c.922,3.579.842,10.353.666,17.568A4.46,4.46,0,0,1,1227.631,2318.91Zm-20.6-22.54a2.474,2.474,0,0,0-1.761.9,2.033,2.033,0,0,0-.451,1.48l1.556,15.588a3.452,3.452,0,0,0,3.518,2.97l17.705.179h.035a3.069,3.069,0,0,0,3.175-2.843c.173-7.106.255-13.766-.62-17.159a3.644,3.644,0,0,0-3.628-2.584c-3.23.042-9.03.56-13.691.977-2.23.2-4.336.387-5.839.5Z" transform="translate(-1203.447 -2247.337)" fill="#fff"/>
        <path id="Trazado_68453" data-name="Trazado 68453" d="M1224.475,2313.216c3.72-.267,11.8-1.128,15.638-1.178a3.439,3.439,0,0,1,3.431,2.487c.74,2.871.642,8.593.514,13.875a3,3,0,0,1-3.114,2.828l-14.149-.143a3.318,3.318,0,0,1-3.347-2.884l-1.244-12.457A2.367,2.367,0,0,1,1224.475,2313.216Z" transform="translate(-1218.988 -2262.574)" fill="url(#linear-gradient-2)"/>
        <path id="Trazado_68454" data-name="Trazado 68454" d="M1435.192,2351.111a4.435,4.435,0,0,0,4.288,3.437l163.819-1.466a3.493,3.493,0,0,0-.013-6.976l-163.823-.784A4.568,4.568,0,0,0,1435.192,2351.111Z" transform="translate(-1395.456 -2289.889)" fill="#dbdada"/>
        <path id="Trazado_68455" data-name="Trazado 68455" d="M1233.152,2271.534h0a2.65,2.65,0,0,1,3.748,1.07l3.492,6.569a.855.855,0,0,0,1.558-.071l8.662-20.235a.962.962,0,0,1,1.849.438,41.044,41.044,0,0,1-11.079,27.8s-5.194-2.118-9.376-11.755A3.069,3.069,0,0,1,1233.152,2271.534Z" transform="translate(-1226.911 -2218.448)" fill="#00223d"/>
        <path id="Trazado_68456" data-name="Trazado 68456" d="M1227.631,2540.908h-.048l-17.706-.178a4.832,4.832,0,0,1-4.857-4.247l-1.557-15.588a3.5,3.5,0,0,1,.763-2.549,3.825,3.825,0,0,1,2.709-1.4h0c1.492-.107,3.593-.294,5.816-.493,4.683-.418,10.511-.939,13.79-.982h.071a4.965,4.965,0,0,1,4.887,3.639c.922,3.579.842,10.352.666,17.568A4.461,4.461,0,0,1,1227.631,2540.908Zm-20.6-22.541a2.478,2.478,0,0,0-1.761.9,2.034,2.034,0,0,0-.451,1.481l1.556,15.588a3.451,3.451,0,0,0,3.518,2.969l17.706.178h.035a3.069,3.069,0,0,0,3.175-2.842c.173-7.107.255-13.766-.62-17.159a3.639,3.639,0,0,0-3.628-2.584c-3.23.043-9.03.561-13.691.977-2.23.2-4.336.388-5.839.5Z" transform="translate(-1203.447 -2429.515)" fill="#fff"/>
        <path id="Trazado_68457" data-name="Trazado 68457" d="M1224.475,2535.213c3.72-.267,11.8-1.128,15.638-1.178a3.443,3.443,0,0,1,3.431,2.487c.74,2.872.642,8.594.514,13.876a3,3,0,0,1-3.114,2.828l-14.149-.143a3.317,3.317,0,0,1-3.347-2.884l-1.244-12.457A2.367,2.367,0,0,1,1224.475,2535.213Z" transform="translate(-1218.988 -2444.752)" fill="url(#linear-gradient-2)"/>
        <path id="Trazado_68458" data-name="Trazado 68458" d="M1435.192,2573.109a4.436,4.436,0,0,0,4.288,3.437l163.819-1.465a3.494,3.494,0,0,0-.013-6.977l-163.823-.784A4.568,4.568,0,0,0,1435.192,2573.109Z" transform="translate(-1395.456 -2472.067)" fill="#dbdada"/>
        <path id="Trazado_68459" data-name="Trazado 68459" d="M1233.152,2493.532h0a2.65,2.65,0,0,1,3.748,1.07l3.492,6.569a.855.855,0,0,0,1.558-.071l8.662-20.235a.962.962,0,0,1,1.849.438,41.047,41.047,0,0,1-11.079,27.8s-5.194-2.118-9.376-11.756A3.069,3.069,0,0,1,1233.152,2493.532Z" transform="translate(-1226.911 -2400.626)" fill="#00223d"/>
        <path id="Trazado_68460" data-name="Trazado 68460" d="M1227.631,2762.906h-.048l-17.706-.178a4.831,4.831,0,0,1-4.857-4.248l-1.557-15.588a3.5,3.5,0,0,1,.763-2.548,3.823,3.823,0,0,1,2.709-1.4h0c1.492-.107,3.593-.295,5.816-.494,4.683-.419,10.511-.939,13.79-.981h.071a4.964,4.964,0,0,1,4.887,3.64c.922,3.578.842,10.352.666,17.567A4.461,4.461,0,0,1,1227.631,2762.906Zm-20.6-22.541a2.474,2.474,0,0,0-1.761.9,2.035,2.035,0,0,0-.451,1.481l1.556,15.588a3.453,3.453,0,0,0,3.518,2.97l17.706.178h.035a3.069,3.069,0,0,0,3.175-2.842c.173-7.107.255-13.767-.62-17.161a3.635,3.635,0,0,0-3.628-2.584c-3.23.042-9.03.562-13.691.978-2.23.2-4.336.388-5.839.5Z" transform="translate(-1203.447 -2611.694)" fill="#fff"/>
        <path id="Trazado_68461" data-name="Trazado 68461" d="M1224.475,2757.211c3.72-.267,11.8-1.128,15.638-1.178a3.441,3.441,0,0,1,3.431,2.487c.74,2.871.642,8.594.514,13.876a3,3,0,0,1-3.114,2.827l-14.149-.143a3.317,3.317,0,0,1-3.347-2.883l-1.244-12.458A2.368,2.368,0,0,1,1224.475,2757.211Z" transform="translate(-1218.988 -2626.931)" fill="url(#linear-gradient-2)"/>
        <path id="Trazado_68462" data-name="Trazado 68462" d="M1435.192,2795.107h0a4.436,4.436,0,0,0,4.288,3.437l163.819-1.466a3.493,3.493,0,0,0-.013-6.976l-163.823-.784A4.569,4.569,0,0,0,1435.192,2795.107Z" transform="translate(-1395.456 -2654.246)" fill="#dbdada"/>
        <path id="Trazado_68463" data-name="Trazado 68463" d="M1233.152,2715.53h0a2.65,2.65,0,0,1,3.748,1.07l3.492,6.569a.855.855,0,0,0,1.558-.071l8.662-20.234a.962.962,0,0,1,1.849.438,41.044,41.044,0,0,1-11.079,27.8s-5.194-2.118-9.376-11.755A3.069,3.069,0,0,1,1233.152,2715.53Z" transform="translate(-1226.911 -2582.806)" fill="#00223d"/>
      </g>
    </g>
    <path id="Trazado_68464" data-name="Trazado 68464" d="M1697.4,460.706c-8.968-6.547-16.766-6.417-22.256-4.717a11.488,11.488,0,0,0-7.777,12.08l2.367,27.114,28.171,2.623S1714.987,473.546,1697.4,460.706Zm-12.388,21.875a7.379,7.379,0,1,1,7.024-7.371A7.2,7.2,0,0,1,1685.01,482.581Z" transform="translate(-1528.661 -455)" fill="#00223d"/>
    <g id="Grupo_28701" data-name="Grupo 28701" transform="translate(142.14 3.97)">
      <path id="Trazado_68465" data-name="Trazado 68465" d="M1689.437,501.942a.693.693,0,0,1-.676-.649l-.377-4.318a.7.7,0,0,1,.615-.775.684.684,0,0,1,.739.646l.377,4.318a.7.7,0,0,1-.615.775A.622.622,0,0,1,1689.437,501.942Zm-.739-8.462a.693.693,0,0,1-.677-.649l-.287-3.278a10.966,10.966,0,0,1,7.411-11.507,20.1,20.1,0,0,1,10.3-.444.713.713,0,0,1,.529.842.681.681,0,0,1-.8.555,18.839,18.839,0,0,0-9.638.414,9.537,9.537,0,0,0-6.441,10.009l.286,3.278a.7.7,0,0,1-.615.775C1688.74,493.479,1688.719,493.479,1688.7,493.479Z" transform="translate(-1687.691 -477.135)" fill="#bdd0fb"/>
    </g>
    <path id="Trazado_68466" data-name="Trazado 68466" d="M1456.511,676.288V662.656a8.114,8.114,0,0,1,8.2-8.314l89.571,3.22a7.9,7.9,0,0,1,7.432,7.6l.749,13.1Z" transform="translate(-1353.888 -618.583)" fill="#00223d"/>
    <path id="Trazado_68467" data-name="Trazado 68467" d="M1629.919,676.476h-3.852a.714.714,0,0,1,0-1.427h3.852a.714.714,0,0,1,0,1.427Z" transform="translate(-1493.897 -635.58)" fill="#bdd0fb"/>
    <path id="Trazado_68468" data-name="Trazado 68468" d="M1481.577,689a.7.7,0,0,1-.68-.713v-5.515a7.561,7.561,0,0,1,7.364-7.727h14.162a.714.714,0,0,1,0,1.427h-14.162a6.165,6.165,0,0,0-6,6.3v5.515A.7.7,0,0,1,1481.577,689Z" transform="translate(-1374.105 -635.58)" fill="#bdd0fb"/>
    <path id="Trazado_68469" data-name="Trazado 68469" d="M1241.289,757.313a8.632,8.632,0,0,1,8.431-8.432l156.631,0a11.751,11.751,0,0,1,11.408,10.076l.133.8c1.052,6.378-3.628,12.212-9.8,12.212H1247.4a6.647,6.647,0,0,1-6.457-7.108Z" transform="translate(-1175.162 -696.166)" fill="#dbdada"/>
  </g>
  <g id="Grupo_28708" data-name="Grupo 28708" transform="translate(0 115.068)">
    <g id="Grupo_28705" data-name="Grupo 28705" transform="translate(0 93.034)">
      <path id="Trazado_68470" data-name="Trazado 68470" d="M663.1,1789.063s-5.583,2.85-6.609,6.123c-.824,2.627-7,2.965-7.607,8.131a5.811,5.811,0,0,1-4.727,5.21c-6.3,1.014-16.021,4.449-17.576,15.937-1.187,8.767,3.073,12.092,7.543,13.243a6.648,6.648,0,0,1,4.8,7.675c-.637,3.336.313,7.193,5.821,10.242,12.343,6.834,24.67-16.191,24.67-16.191l2.526-40.2Z" transform="translate(-598.333 -1757.88)" fill="#00223d"/>
      <path id="Trazado_68471" data-name="Trazado 68471" d="M972.814,1670.858s-15.883,45.433-42.945,59.632c0,0,9.007,15.421,13.708,16.357,0,0,28.91-38.827,31.857-70.636Z" transform="translate(-849.95 -1660.877)" fill="url(#linear-gradient-6)"/>
      <path id="Trazado_68472" data-name="Trazado 68472" d="M476.356,3182.441l-.8,6.89a2.782,2.782,0,0,1-2.379,2.49,39.988,39.988,0,0,1-8.788.144,2.435,2.435,0,0,1-1.951-3.16c.806-2.66,2.28-6.653,4.405-9h7.284A2.317,2.317,0,0,1,476.356,3182.441Z" transform="translate(-462.33 -2899.167)" fill="#26a69a"/>
      <path id="Trazado_68473" data-name="Trazado 68473" d="M809.972,2744.522l1.23,7.588s-4.117,43.76-4.849,61.264a14.239,14.239,0,0,0,1.934,7.8l7.159,12.2L797.25,2822.1l-.362-2.33,2.979-4.3-3.9-49.022a15.664,15.664,0,0,1,1.631-8.319l3.763-7.419Z" transform="translate(-738.894 -2541.963)" fill="url(#linear-gradient-7)"/>
      <path id="Trazado_68474" data-name="Trazado 68474" d="M814.414,3166.839h-5.807a3.441,3.441,0,0,1-2.774-1.428c-1.81-2.468-5.561-7.283-7.354-7.409-2.414-.169-2.105,8.836-2.105,8.836h-1.353l-1.714-11.191a6.721,6.721,0,0,1,3.312-6.923s.552,4.282,3.544,6.176,12.176,8.677,12.176,8.677a7.922,7.922,0,0,1,2.36.066A1.62,1.62,0,0,1,814.414,3166.839Z" transform="translate(-736.665 -2873.665)" fill="#26a69a"/>
      <path id="Trazado_68475" data-name="Trazado 68475" d="M520.86,2750.187s-24.119,48.009-27.953,58.969a109.591,109.591,0,0,0-5.229,20.971c-.081,1.354-1.684,2.651-6.105,2.651-2.281,0-3.4-.96-3.946-1.889a2.82,2.82,0,0,1-.1-2.619c1.4-2.962,5.823-12.432,7.463-16.725,1.958-5.128,6.169-28.364,8.479-36.443s4.92-16.843,14.978-24.915C508.449,2750.187,515.353,2743.09,520.86,2750.187Z" transform="translate(-474.703 -2544.023)" fill="url(#linear-gradient-8)"/>
      <path id="Trazado_68476" data-name="Trazado 68476" d="M775.223,2061.206c6.222-27.665-9.54-43.311-9.54-43.311,9.945-10.017,28.065-14.576,28.065-14.576s17.291,13.265,15.239,23.647c-1.2,6.085-12.153,36.448-12.153,36.448S786.707,2068.444,775.223,2061.206Z" transform="translate(-713.829 -1933.707)" fill="#26a69a"/>
      <path id="Trazado_68477" data-name="Trazado 68477" d="M669.889,2339.741c2.532-8,13.794-13.7,13.794-13.7,11.485,7.238,21.611,2.209,21.611,2.209s2.271,9.109.7,17.574-11.4,62.866-11.4,62.866c-15.5,3.295-39.327-3.314-39.327-3.314C665.14,2386.992,667.357,2347.745,669.889,2339.741Z" transform="translate(-622.29 -2198.546)" fill="#26a69a"/>
      <path id="Trazado_68478" data-name="Trazado 68478" d="M838.825,1891l-5.058,23.842c-.484,2.1,1.34,1.757,3.363,1.357,3.314-.656,7.585-2.006,9.012-4.712a2.663,2.663,0,0,0,.259-.9l2.173-16.533a3,3,0,0,0-1.657-3.121l-4.193-1.951A2.807,2.807,0,0,0,838.825,1891Z" transform="translate(-770.21 -1839.665)" fill="url(#linear-gradient-9)"/>
      <g id="Grupo_28703" data-name="Grupo 28703" transform="translate(57.288 20.159)">
        <path id="Trazado_68479" data-name="Trazado 68479" d="M846.721,1773.119s5.991,2.654,10.064,11.738,1.032,13.278-2.789,13.854-9.535.489-15.579-5.38S838.934,1769.972,846.721,1773.119Z" transform="translate(-829.458 -1764.647)" fill="url(#linear-gradient-10)"/>
        <path id="Trazado_68480" data-name="Trazado 68480" d="M810.493,1751.436s-4.52-13.29,6.71-13.447l2.642,1.938s4.12-7.368-2.642-10.886-14.677-.612-17.555,8.948-3.369,15.959,1.418,20.533,6.761-.612,6.761-.612-2.607-4.278-1.546-6.567,3.51.473,3.51.473Z" transform="translate(-797.472 -1727.601)" fill="#00223d"/>
        <path id="Trazado_68481" data-name="Trazado 68481" d="M836.062,1846.955s-2.285-6.846-5.334-4.119,2.478,6.323,4.641,7.489Z" transform="translate(-824.3 -1821.641)" fill="url(#linear-gradient-11)"/>
      </g>
      <g id="Grupo_28704" data-name="Grupo 28704" transform="translate(119.704)">
        <path id="Trazado_68482" data-name="Trazado 68482" d="M1167.3,1633.464c.242.808-2.563,2.039-4.216-1.267-.058-1.584-.976-8.372-.074-9.663,4.806-6.875,9.88-7.32,9.88-7.32.945,1.792,2.1,3.306,2.639,5.474a6.934,6.934,0,0,1-.631,4.891c-.793,1.5-1.876,3.449-2.9,4.975A6.168,6.168,0,0,1,1167.3,1633.464Z" transform="translate(-1162.619 -1615.213)" fill="url(#linear-gradient-12)"/>
      </g>
      <path id="Trazado_68483" data-name="Trazado 68483" d="M747.434,2025.259s46.27,59.286,80.839-8.218a8.732,8.732,0,0,0,.249-4.217c-.209-1.258.583-5.72,1.019-8a1.248,1.248,0,0,0-1.065-1.5,1.6,1.6,0,0,0-1.445.65l-6.314,8.437a3.6,3.6,0,0,0,1.788,4.2,1.789,1.789,0,0,1,.616,2.635c-26.29,36.162-70.262-3.52-71.067-3.053C749.2,2017.849,745.9,2019.676,747.434,2025.259Z" transform="translate(-698.377 -1933.707)" fill="url(#linear-gradient-13)"/>
    </g>
    <g id="Grupo_28707" data-name="Grupo 28707" transform="translate(79.162)">
      <path id="Trazado_68484" data-name="Trazado 68484" d="M1126.423,1869.358c.073-.951,1-1.774,2.567-2.434-1.7-.986-2.646-2.042-2.567-3.078.241-3.136,9.7-4.894,21.137-3.927s20.5,4.293,20.264,7.429c-.073.951-1,1.774-2.567,2.434,1.7.985,2.646,2.042,2.567,3.079-.073.95-1,1.774-2.567,2.434,1.7.985,2.646,2.042,2.567,3.078-.073.951-1,1.774-2.567,2.434,1.7.986,2.646,2.042,2.567,3.079-.106,1.386-2.019,2.5-5.106,3.234a29.129,29.129,0,0,1-.078,3.388c-.447,5.778-6.641,10.308-14.833,10.308s-15.282-6.177-15.363-11.973a30.581,30.581,0,0,1,.16-3.782c-3.92-1.374-6.307-3.051-6.182-4.678.073-.951,1-1.775,2.567-2.435-1.7-.986-2.646-2.042-2.567-3.078.073-.951,1-1.774,2.567-2.434C1127.286,1871.451,1126.344,1870.394,1126.423,1869.358Z" transform="translate(-1092.064 -1722.776)" fill="url(#linear-gradient-14)"/>
      <g id="Grupo_28706" data-name="Grupo 28706" transform="translate(37.661 144.437)">
        <path id="Trazado_68485" data-name="Trazado 68485" d="M1188.114,2005.344a47.12,47.12,0,0,0,9.069-.778.287.287,0,0,0,.218-.337.276.276,0,0,0-.321-.229,56.389,56.389,0,0,1-15.106.5,62.191,62.191,0,0,1-12.669-2.293.274.274,0,0,0-.34.2.291.291,0,0,0,.187.357,62.715,62.715,0,0,0,12.779,2.314C1184.055,2005.255,1186.133,2005.344,1188.114,2005.344Z" transform="translate(-1164.988 -1984.188)" fill="#91b3fa"/>
        <path id="Trazado_68486" data-name="Trazado 68486" d="M1168.828,1967.691a41.2,41.2,0,0,0,11.134-1.266.29.29,0,0,0,.189-.356.273.273,0,0,0-.339-.2c-3.963,1.184-10.343,1.552-17.068.982-6.652-.563-12.856-1.979-16.6-3.789a.27.27,0,0,0-.365.141.3.3,0,0,0,.134.382c3.795,1.836,10.068,3.272,16.781,3.84C1164.8,1967.6,1166.859,1967.691,1168.828,1967.691Z" transform="translate(-1145.76 -1952.053)" fill="#91b3fa"/>
        <path id="Trazado_68487" data-name="Trazado 68487" d="M1168.885,1936.96a38.326,38.326,0,0,0,11.737-1.482.292.292,0,0,0,.175-.364.272.272,0,0,0-.347-.184c-3.9,1.351-10.523,1.794-17.7,1.187-6.651-.563-12.855-1.979-16.6-3.79a.27.27,0,0,0-.365.141.3.3,0,0,0,.134.383c3.8,1.836,10.069,3.272,16.781,3.84C1164.828,1936.872,1166.908,1936.96,1168.885,1936.96Z" transform="translate(-1145.76 -1926.831)" fill="#91b3fa"/>
        <path id="Trazado_68488" data-name="Trazado 68488" d="M1169.265,1906.411a45.188,45.188,0,0,0,9.887-.944.288.288,0,0,0,.208-.344.275.275,0,0,0-.327-.219,54.6,54.6,0,0,1-15.871.666c-6.592-.557-12.764-1.959-16.51-3.748a.269.269,0,0,0-.363.143.294.294,0,0,0,.136.382c3.8,1.815,10.042,3.235,16.693,3.8C1165.22,1906.323,1167.29,1906.411,1169.265,1906.411Z" transform="translate(-1146.177 -1901.797)" fill="#91b3fa"/>
      </g>
      <path id="Trazado_68489" data-name="Trazado 68489" d="M1008.871,1215.285a41.34,41.34,0,0,1,6.923-14.184,96.454,96.454,0,0,0,19.276-52.288c1.988-36.338-28.725-54.531-56.751-52.061s-55.681,24.367-52.654,58.172c1.863,20.8,12.958,36.578,21.219,45.639a48.8,48.8,0,0,1,11.013,20.474c2.479,9.393,8.379,21.1,22.4,21.811C998.445,1243.773,1005.981,1226.025,1008.871,1215.285Z" transform="translate(-925.437 -1096.531)" fill="#ffa726"/>
      <path id="Trazado_68490" data-name="Trazado 68490" d="M1160.924,1556.025l-9.806-66.927c-.2-1.383-.851-2.311-1.448-2.074s-.917,1.55-.715,2.933c.006.037.013.082.019.118l11.17,66.305c.084.5.325.813.539.7S1160.994,1556.508,1160.924,1556.025Z" transform="translate(-1110.697 -1416.952)" fill="#00223d"/>
      <path id="Trazado_68491" data-name="Trazado 68491" d="M1278.717,1558.988l9.807-66.927c.2-1.382.851-2.311,1.449-2.074s.917,1.55.715,2.933c-.005.036-.013.082-.019.118l-11.17,66.305c-.084.5-.325.814-.539.7S1278.646,1559.471,1278.717,1558.988Z" transform="translate(-1218.31 -1419.384)" fill="#00223d"/>
      <path id="Trazado_68492" data-name="Trazado 68492" d="M1161.762,1429.682a1,1,0,0,1,1.287-.351l5.46,2.677,1.9-5.667a1.189,1.189,0,0,1,.664-.7,1.317,1.317,0,0,1,1.678.543l.01.018,4.49,8.592,4.167-12.231.007-.02a1.378,1.378,0,0,1,.631-.746,1.585,1.585,0,0,1,2.062.426l6.278,9.069a.818.818,0,0,1-.221,1.144,1.016,1.016,0,0,1-1.335-.152l-5.527-6.47-4.977,11.635,0,.009a.9.9,0,0,1-.438.451,1.012,1.012,0,0,1-1.3-.354l-4.8-8.086-1.807,4.09-.016.036a.915.915,0,0,1-.045.087,1,1,0,0,1-1.286.351l-6.482-3.178A.825.825,0,0,1,1161.762,1429.682Z" transform="translate(-1121.271 -1363.283)" fill="#00223d" opacity="0.79"/>
      <path id="Trazado_68493" data-name="Trazado 68493" d="M1018.685,1580.816a1.7,1.7,0,0,0,1.046-.363,1.9,1.9,0,0,0,.364-2.58,75.937,75.937,0,0,1-4.517-7.2,1.712,1.712,0,0,0-2.4-.674,1.893,1.893,0,0,0-.643,2.518,79.606,79.606,0,0,0,4.738,7.553A1.729,1.729,0,0,0,1018.685,1580.816Z" transform="translate(-997.451 -1484.873)" fill="#fff" opacity="0.79"/>
      <path id="Trazado_68494" data-name="Trazado 68494" d="M968.907,1317.006a1.685,1.685,0,0,0,.7-.153,1.88,1.88,0,0,0,.911-2.426c-10.272-24.823-1.428-45.623-1.337-45.831a1.883,1.883,0,0,0-.865-2.444,1.725,1.725,0,0,0-2.329.908c-.4.907-9.581,22.518,1.309,48.836A1.757,1.757,0,0,0,968.907,1317.006Z" transform="translate(-955.741 -1235.591)" fill="#fff" opacity="0.79"/>
    </g>
  </g>
  <g id="Grupo_28714" data-name="Grupo 28714" transform="translate(253.349 224.302)">
    <path id="Trazado_68495" data-name="Trazado 68495" d="M2288.075,3165.665s.973,5.472,1.474,10.894a3.683,3.683,0,0,1-3.371,4.084c-6.884.37-21.608,1.1-26.9.908a1.213,1.213,0,0,1-1.035-1.656,2.671,2.671,0,0,1,1.314-1.48l24.225-11.977Z" transform="translate(-2204.544 -2903.767)" fill="#4dd0e1"/>
    <path id="Trazado_68496" data-name="Trazado 68496" d="M2399.275,3143.316l-.682,6.564s-4.244,2.125-7.176-.19l1.7-7.325Z" transform="translate(-2315.016 -2884.646)" fill="url(#linear-gradient-15)"/>
    <path id="Trazado_68497" data-name="Trazado 68497" d="M2399.8,2459.652c.336,1.709,2.5,85.426-5.693,123.034a1.29,1.29,0,0,0,.726,1.474,20.3,20.3,0,0,0,6.96,1.412,2.107,2.107,0,0,0,2.06-1.6c2.358-8.73,13.645-52.465,14.79-94.148,1.28-46.577-.014-1.584-.014-1.584l-1.26-28.771Z" transform="translate(-2317.223 -2324.24)" fill="#1565c0"/>
    <path id="Trazado_68498" data-name="Trazado 68498" d="M2550.167,3180.046s1.494,2.753,2.983,10.092a2.269,2.269,0,0,1-1.888,2.75,85.786,85.786,0,0,1-8.574.6,2.235,2.235,0,0,1-2.169-2.515,19.707,19.707,0,0,1,4.172-10.562Z" transform="translate(-2438.621 -2915.568)" fill="#4dd0e1"/>
    <path id="Trazado_68499" data-name="Trazado 68499" d="M2571.433,3131.47l-1.642,9.933s-1.7,1.354-5.1.418l.729-10.676Z" transform="translate(-2458.674 -2875.438)" fill="url(#linear-gradient-16)"/>
    <path id="Trazado_68500" data-name="Trazado 68500" d="M2457.837,2453.29c7.378,44.107-.52,109.2-3.269,121.955a1.935,1.935,0,0,1-1.513,1.522,12.121,12.121,0,0,1-5.458-.175,1.8,1.8,0,0,1-1.261-1.662c-.478-10.283-.361-73.442-7.088-98.335a5.675,5.675,0,0,0-2.113-3.107l-12.7-9.284-1.105-15.2Z" transform="translate(-2341.474 -2315.647)" fill="#1565c0"/>
    <g id="Grupo_28709" data-name="Grupo 28709" transform="translate(9.106 20.993)">
      <path id="Trazado_68501" data-name="Trazado 68501" d="M2215.034,1993.282c20.9-.572,44.025,5.32,44.025,5.32,6.578,38.092,1.836,82.152,1.836,82.152-16.144,4.615-34.466-2.378-34.466-2.378-2.835-15.921-15.794-60.677-15.794-60.677a66.563,66.563,0,0,1-25.635-8.255c5.227-6.482,7.644-14.687,8.683-19.534A67.114,67.114,0,0,0,2215.034,1993.282Z" transform="translate(-2152.988 -1959.894)" fill="#4dd0e1"/>
      <path id="Trazado_68502" data-name="Trazado 68502" d="M1997.729,1824.262a3.874,3.874,0,0,1,4.64-1.418c3.2,13.605,19.432,24.5,36.054,29.739-1.038,4.846-3.456,13.052-8.683,19.534C2002.089,1856.166,1997.729,1824.262,1997.729,1824.262Z" transform="translate(-1997.729 -1822.568)" fill="url(#linear-gradient-17)"/>
    </g>
    <g id="Grupo_28710" data-name="Grupo 28710" transform="translate(0 0)">
      <path id="Trazado_68503" data-name="Trazado 68503" d="M1954.069,1728.873c-.208.719,2.29,1.786,3.729-1.161.039-1.405.8-7.433-.012-8.57-4.317-6.053-12.648-13.613-12.648-13.613a2.135,2.135,0,0,0-.22,2.869l4.048,4.341a20.783,20.783,0,0,0-2.3,4.878,6.144,6.144,0,0,0,.6,4.332c.715,1.323,1.691,3.042,2.611,4.386A5.463,5.463,0,0,0,1954.069,1728.873Z" transform="translate(-1944.46 -1705.529)" fill="url(#linear-gradient-18)"/>
      <path id="Trazado_68504" data-name="Trazado 68504" d="M1977.357,1761.476l3.682,3.212,1.176,3.223-3.222,3.823s-1.153-6.407-1.979-7.789S1976.6,1761.89,1977.357,1761.476Z" transform="translate(-1971.073 -1751.441)" fill="url(#linear-gradient-19)"/>
    </g>
    <path id="Trazado_68505" data-name="Trazado 68505" d="M2572.48,2059.693l7.825-21.322s19.654,13.727,23.025,31.346a44.536,44.536,0,0,0-16.932,4.944C2584.879,2066.341,2572.48,2059.693,2572.48,2059.693Z" transform="translate(-2465.129 -1978.67)" fill="#4dd0e1"/>
    <path id="Trazado_68506" data-name="Trazado 68506" d="M2459.89,2223.266s22.042,12.782,29.339,1.607a9.068,9.068,0,0,0,1.463-6.8,44.513,44.513,0,0,1,16.932-4.944,25.424,25.424,0,0,1-2.371,16.726c-12.732,25-48.212-.891-48.212-.891Z" transform="translate(-2369.422 -2122.086)" fill="url(#linear-gradient-20)"/>
    <path id="Trazado_68507" data-name="Trazado 68507" d="M2417.971,1908.24l6.835,20.119a.745.745,0,0,1-.308.879c-1.8,1.07-8.309,4.176-16.229-.982a3.439,3.439,0,0,1-1.525-2.431l-2.313-17.449Z" transform="translate(-2325.806 -1871.881)" fill="url(#linear-gradient-21)"/>
    <g id="Grupo_28712" data-name="Grupo 28712" transform="translate(40.01 73.724)">
      <g id="Grupo_28711" data-name="Grupo 28711">
        <path id="Trazado_68508" data-name="Trazado 68508" d="M2233.488,2164.213l-12.007-44a1.241,1.241,0,0,0-1.034-.924c-2.175-.266-8.479-1.015-15.758-1.66-8.767-.778-18.949-1.409-25.032-.873a1.291,1.291,0,0,0-1,1.853c3.46,7.345,17.691,37.221,24.817,47.007a1.21,1.21,0,0,0,.99.511l27.859-.272A1.277,1.277,0,0,0,2233.488,2164.213Z" transform="translate(-2178.525 -2116.557)" fill="#12263f"/>
        <path id="Trazado_68509" data-name="Trazado 68509" d="M2411.125,2254.346s1.673-7.217,1-9.777-1.982-5.853-6.339-5.121a61.445,61.445,0,0,0-9.5,2.658,2.52,2.52,0,0,0,3.572,2.259l-2.054,1.667s.293,2.67,3.091,1.244l-1.91,2.211a2.182,2.182,0,0,0,3.26.787C2404.3,2248.866,2405.288,2255.215,2411.125,2254.346Z" transform="translate(-2359.063 -2217.32)" fill="url(#linear-gradient-22)"/>
      </g>
      <path id="Trazado_68510" data-name="Trazado 68510" d="M2302.078,2178.842a3.529,3.529,0,1,1-3.525-3.7A3.615,3.615,0,0,1,2302.078,2178.842Z" transform="translate(-2275.114 -2164.635)" fill="#91b3fa"/>
      <path id="Trazado_68511" data-name="Trazado 68511" d="M2259.747,2146.145l-2.445-8.7a2.905,2.905,0,0,0-2.136-2.094c-7.663-1.677-28.635-2.033-28.845-2.037l.014-.983c.865.014,21.274.361,29.022,2.057a3.86,3.86,0,0,1,2.845,2.778l2.445,8.7Z" transform="translate(-2218.15 -2129.5)" fill="#91b3fa"/>
    </g>
    <g id="Grupo_28713" data-name="Grupo 28713" transform="translate(68.319 6.155)">
      <path id="Trazado_68512" data-name="Trazado 68512" d="M2372.3,1790.212c-.238.25-10.064,21.729-10.064,21.729l11.137,5.985,12.029-18.818S2376.289,1786.029,2372.3,1790.212Z" transform="translate(-2359.139 -1780.5)" fill="url(#linear-gradient-23)"/>
      <path id="Trazado_68513" data-name="Trazado 68513" d="M2365.467,1758.972a2.176,2.176,0,0,1-.133,1.736l-5.554,10.307a1.948,1.948,0,0,1-.3.422c-.661.685-2.924,2.677-4.673-.035-1.49-2.313-2.889-4.415-4.388-5.282a1.7,1.7,0,0,0-2.4.878,78.662,78.662,0,0,0-3.8,10.038,2.038,2.038,0,0,0,1.029,2.413,45.57,45.57,0,0,0,10.666,3.464,1.7,1.7,0,0,0,1.68-.795c1.7-2.6,6.5-9.847,8.134-11.662,1.521-1.687,4.328-1.051,5.592-.646a1.63,1.63,0,0,0,1.418-.208c1.283-.86,3.522-3,1.474-6.63a2.119,2.119,0,0,1,.55-2.689,4.622,4.622,0,0,0,1.506-6.206,5.368,5.368,0,0,0-6-3.27,1.819,1.819,0,0,1-1.935-1.2,1.21,1.21,0,0,0-.916-.8,1.915,1.915,0,0,1-1.4-2.254,5.277,5.277,0,0,0-2.54-5.8c-4.8-2.941-9.014,1.851-10.084,5.9s4.3,6.9,7.68,7.381C2363.559,1754.379,2364.92,1757.4,2365.467,1758.972Z" transform="translate(-2344.135 -1739.842)" fill="#00223d"/>
      <path id="Trazado_68514" data-name="Trazado 68514" d="M2458.242,1900.93s2.136-6.96,4.871-6.7,4.888,3.289,1.5,6.7C2460.4,1905.165,2458.242,1900.93,2458.242,1900.93Z" transform="translate(-2438.737 -1866.529)" fill="url(#linear-gradient-24)"/>
    </g>
  </g>
  <g id="Grupo_142315" data-name="Grupo 142315" transform="translate(302.528 109.109)">
    <g id="Grupo_47020" data-name="Grupo 47020" transform="translate(6.536 6.561)">
      <path id="Trazado_97743" data-name="Trazado 97743" d="M1425.845,218.546a50.219,50.219,0,0,1-65.593,75.722l-17.792,7.663,7.663-17.792a50.219,50.219,0,0,1,75.722-65.593Z" transform="translate(-1339.279 -203.021)" fill="#fdfdfd" fill-rule="evenodd"/>
      <path id="Trazado_97744" data-name="Trazado 97744" d="M1388.184,303.014a51.006,51.006,0,0,1-30.2-9.88l-17.347,7.471a.84.84,0,0,1-1.1-1.1l7.47-17.347a51.065,51.065,0,1,1,44.612,20.745Q1389.9,303.014,1388.184,303.014Zm-30.092-11.684a.842.842,0,0,1,.5.168,49.379,49.379,0,1,0-5.336-74.456,49.585,49.585,0,0,0-4.625,64.5.84.84,0,0,1,.1.837l-6.827,15.852,15.852-6.827A.838.838,0,0,1,1358.092,291.33Z" transform="translate(-1337.12 -200.923)" fill="#00223d"/>
    </g>
    <circle id="Elipse_3890" data-name="Elipse 3890" cx="42.683" cy="42.683" r="42.683" transform="translate(14.909 14.913)" fill="#00223d"/>
    <path id="Trazado_97745" data-name="Trazado 97745" d="M1371.354,292.691a57.4,57.4,0,0,1-31.273-9.237.84.84,0,0,1,.915-1.41,55.934,55.934,0,0,0,60.653.065.84.84,0,1,1,.91,1.413A57.584,57.584,0,0,1,1371.354,292.691Zm40.941-17.432a.84.84,0,0,1-.606-1.423,55.77,55.77,0,0,0,7.025-68.523.84.84,0,1,1,1.422-.9,57.859,57.859,0,0,1,8.564,36.247A56.967,56.967,0,0,1,1412.9,275,.837.837,0,0,1,1412.295,275.259Zm-88.572-8.487a.84.84,0,0,1-.706-.383,57.649,57.649,0,0,1-8.922-37.268.84.84,0,1,1,1.671.175,55.962,55.962,0,0,0,8.661,36.179.84.84,0,0,1-.7,1.3Zm-5.857-49.747a.841.841,0,0,1-.792-1.12,57.6,57.6,0,0,1,70.473-36.1.84.84,0,0,1-.47,1.613,55.923,55.923,0,0,0-68.418,35.042A.839.839,0,0,1,1317.865,217.024Zm93.339-21.518a.837.837,0,0,1-.59-.242,56.005,56.005,0,0,0-11.633-8.8.84.84,0,1,1,.831-1.461,57.7,57.7,0,0,1,11.982,9.067.84.84,0,0,1-.59,1.439Z" transform="translate(-1313.784 -177.498)" fill="#00223d"/>
  </g>
  <path id="Trazado_173857" data-name="Trazado 173857" d="M1447.13,282.747a28.1,28.1,0,1,0,26.47,18.617l-4.236,4.236a22.858,22.858,0,1,1-7.6-12.279l3.741-3.741a28.007,28.007,0,0,0-18.373-6.833Zm-14.787,25.331a3.514,3.514,0,0,1,4.97-4.97l9.817,9.816,22.117-22.118a3.514,3.514,0,0,1,4.97,4.97l-24.6,24.6a3.515,3.515,0,0,1-4.97,0Z" transform="translate(-1087.01 -144.16)" fill="#fff" fill-rule="evenodd"/>
</svg>
