<svg xmlns="http://www.w3.org/2000/svg" xmlns:xlink="http://www.w3.org/1999/xlink" width="347.5" height="58.399" viewBox="0 0 347.5 58.399">
  <defs>
    <linearGradient id="linear-gradient" x1="0.5" x2="0.5" y2="1" gradientUnits="objectBoundingBox">
      <stop offset="0" stop-color="#4dd0e1"/>
      <stop offset="1" stop-color="#039be5"/>
    </linearGradient>
  </defs>
  <g id="link1" transform="translate(3584 10889.399)">
    <rect id="Rectángulo_37311" data-name="Rectángulo 37311" width="346.377" height="58.399" rx="10" transform="translate(-3582.877 -10889.399)" fill="url(#linear-gradient)"/>
    <g id="Rectángulo_37312" data-name="Rectángulo 37312" transform="translate(-3584 -10889.399)" fill="#fff" stroke="#afafaf" stroke-width="1">
      <rect width="55.03" height="58.399" rx="10" stroke="none"/>
      <rect x="0.5" y="0.5" width="54.03" height="57.399" rx="9.5" fill="none"/>
    </g>
    <path id="Trazado_183587" data-name="Trazado 183587" d="M3-1.3H8.732V0H1.4V-12.086H3ZM11.978,0H10.442V-8.981h1.536Zm-1.66-11.364a.917.917,0,0,1,.228-.631.857.857,0,0,1,.677-.257.87.87,0,0,1,.681.257.907.907,0,0,1,.232.631.877.877,0,0,1-.232.623.886.886,0,0,1-.681.249.872.872,0,0,1-.677-.249A.886.886,0,0,1,10.318-11.364Zm9.347,8.981a1.131,1.131,0,0,0-.469-.967,4.514,4.514,0,0,0-1.635-.594,7.731,7.731,0,0,1-1.851-.6,2.633,2.633,0,0,1-1.013-.83,1.986,1.986,0,0,1-.328-1.146A2.33,2.33,0,0,1,15.3-8.384a3.647,3.647,0,0,1,2.386-.764,3.753,3.753,0,0,1,2.478.789,2.5,2.5,0,0,1,.95,2.017H19.573a1.386,1.386,0,0,0-.535-1.087,2.006,2.006,0,0,0-1.349-.457,2.1,2.1,0,0,0-1.312.365,1.15,1.15,0,0,0-.473.955.932.932,0,0,0,.44.838,5.413,5.413,0,0,0,1.59.54,8.283,8.283,0,0,1,1.864.614,2.718,2.718,0,0,1,1.058.859A2.112,2.112,0,0,1,21.2-2.49a2.3,2.3,0,0,1-.963,1.93,4.039,4.039,0,0,1-2.5.726A4.523,4.523,0,0,1,15.83-.216a3.105,3.105,0,0,1-1.3-1.067,2.571,2.571,0,0,1-.469-1.482H15.6a1.59,1.59,0,0,0,.618,1.224,2.4,2.4,0,0,0,1.523.452,2.476,2.476,0,0,0,1.4-.353A1.084,1.084,0,0,0,19.665-2.382Zm5.62-8.774v2.175h1.677v1.187H25.284v5.577a1.247,1.247,0,0,0,.224.81.943.943,0,0,0,.764.27,3.718,3.718,0,0,0,.73-.1V0a4.478,4.478,0,0,1-1.179.165,1.912,1.912,0,0,1-1.552-.623,2.675,2.675,0,0,1-.523-1.768v-5.57H22.113V-8.981h1.635v-2.175ZM34.3,0a3.226,3.226,0,0,1-.216-.946A3.426,3.426,0,0,1,31.526.166a3.17,3.17,0,0,1-2.179-.751A2.43,2.43,0,0,1,28.5-2.49a2.539,2.539,0,0,1,1.067-2.179,5.029,5.029,0,0,1,3-.776h1.494v-.706a1.725,1.725,0,0,0-.481-1.282,1.935,1.935,0,0,0-1.419-.477,2.239,2.239,0,0,0-1.378.415,1.223,1.223,0,0,0-.556,1H28.679a2.119,2.119,0,0,1,.477-1.3,3.258,3.258,0,0,1,1.295-.992,4.356,4.356,0,0,1,1.8-.365,3.551,3.551,0,0,1,2.432.776,2.8,2.8,0,0,1,.913,2.137V-2.1a5.054,5.054,0,0,0,.315,1.967V0ZM31.75-1.17a2.7,2.7,0,0,0,1.37-.374,2.259,2.259,0,0,0,.938-.971V-4.358h-1.2q-2.822,0-2.822,1.652a1.4,1.4,0,0,0,.481,1.129A1.85,1.85,0,0,0,31.75-1.17Zm10.085-3.4a5.261,5.261,0,0,1,.979-3.324A3.1,3.1,0,0,1,45.38-9.147a3.115,3.115,0,0,1,2.5,1.079V-12.75h1.536V0H48l-.075-.963A3.127,3.127,0,0,1,45.364.166,3.068,3.068,0,0,1,42.82-1.112a5.321,5.321,0,0,1-.984-3.337Zm1.536.174A3.984,3.984,0,0,0,44-2a2.039,2.039,0,0,0,1.743.863,2.24,2.24,0,0,0,2.133-1.312V-6.574a2.257,2.257,0,0,0-2.117-1.27A2.049,2.049,0,0,0,44-6.973,4.386,4.386,0,0,0,43.372-4.391ZM55.524.166a3.924,3.924,0,0,1-2.972-1.2,4.452,4.452,0,0,1-1.146-3.208v-.282a5.39,5.39,0,0,1,.51-2.386,3.982,3.982,0,0,1,1.428-1.644,3.59,3.59,0,0,1,1.988-.594,3.364,3.364,0,0,1,2.723,1.154,5,5,0,0,1,.971,3.3v.639H52.942a3.193,3.193,0,0,0,.776,2.146,2.44,2.44,0,0,0,1.888.818,2.675,2.675,0,0,0,1.378-.332,3.462,3.462,0,0,0,.988-.88l.938.73A3.772,3.772,0,0,1,55.524.166Zm-.191-8.052a2.048,2.048,0,0,0-1.561.677,3.288,3.288,0,0,0-.78,1.9h4.5v-.116a2.925,2.925,0,0,0-.631-1.814A1.928,1.928,0,0,0,55.333-7.886Zm13.281,6.8a2.212,2.212,0,0,0,1.436-.5,1.752,1.752,0,0,0,.681-1.245h1.453a2.785,2.785,0,0,1-.531,1.469A3.5,3.5,0,0,1,70.345-.249a3.772,3.772,0,0,1-1.731.415A3.7,3.7,0,0,1,65.7-1.058a4.877,4.877,0,0,1-1.083-3.349v-.257A5.407,5.407,0,0,1,65.095-7a3.667,3.667,0,0,1,1.382-1.585,3.926,3.926,0,0,1,2.129-.564,3.6,3.6,0,0,1,2.511.9,3.234,3.234,0,0,1,1.067,2.349H70.731a2.116,2.116,0,0,0-.66-1.432,2.053,2.053,0,0,0-1.465-.56,2.149,2.149,0,0,0-1.814.843,3.957,3.957,0,0,0-.643,2.436v.291a3.878,3.878,0,0,0,.639,2.391A2.16,2.16,0,0,0,68.614-1.087Zm6.832-6.807A3.265,3.265,0,0,1,78.1-9.147q2.847,0,2.872,3.212V0H79.438V-5.943a2.068,2.068,0,0,0-.444-1.436,1.78,1.78,0,0,0-1.357-.465,2.216,2.216,0,0,0-1.312.4,2.706,2.706,0,0,0-.88,1.046V0H73.91V-12.75h1.536ZM87,.166a3.924,3.924,0,0,1-2.972-1.2,4.452,4.452,0,0,1-1.146-3.208v-.282a5.39,5.39,0,0,1,.51-2.386,3.982,3.982,0,0,1,1.428-1.644,3.59,3.59,0,0,1,1.988-.594,3.364,3.364,0,0,1,2.723,1.154,5,5,0,0,1,.971,3.3v.639H84.419A3.193,3.193,0,0,0,85.2-1.905a2.44,2.44,0,0,0,1.888.818,2.675,2.675,0,0,0,1.378-.332,3.462,3.462,0,0,0,.988-.88l.938.73A3.772,3.772,0,0,1,87,.166ZM86.81-7.886a2.048,2.048,0,0,0-1.561.677,3.288,3.288,0,0,0-.78,1.9h4.5v-.116a2.925,2.925,0,0,0-.631-1.814A1.928,1.928,0,0,0,86.81-7.886Zm5.1,3.32a5.272,5.272,0,0,1,.971-3.349,3.147,3.147,0,0,1,2.606-1.233A3.145,3.145,0,0,1,98-8.077l.066-.9h1.411V3.453H97.941V-.83a3.223,3.223,0,0,1-2.474,1A3.1,3.1,0,0,1,92.873-1.1a5.389,5.389,0,0,1-.967-3.358Zm1.536.174a4,4,0,0,0,.652,2.424,2.073,2.073,0,0,0,1.756.88A2.3,2.3,0,0,0,97.941-2.3V-6.7a2.307,2.307,0,0,0-2.075-1.187A2.088,2.088,0,0,0,94.1-7,4.35,4.35,0,0,0,93.442-4.391Zm14.045,3.5A3.262,3.262,0,0,1,104.855.166a2.792,2.792,0,0,1-2.187-.834,3.611,3.611,0,0,1-.76-2.469V-8.981h1.536v5.8q0,2.042,1.66,2.042a2.3,2.3,0,0,0,2.341-1.312V-8.981h1.536V0H107.52ZM115.041.166a3.924,3.924,0,0,1-2.972-1.2,4.452,4.452,0,0,1-1.146-3.208v-.282a5.39,5.39,0,0,1,.51-2.386,3.982,3.982,0,0,1,1.428-1.644,3.59,3.59,0,0,1,1.988-.594,3.364,3.364,0,0,1,2.723,1.154,5,5,0,0,1,.971,3.3v.639h-6.084a3.193,3.193,0,0,0,.776,2.146,2.44,2.44,0,0,0,1.888.818,2.675,2.675,0,0,0,1.378-.332,3.462,3.462,0,0,0,.988-.88l.938.73A3.772,3.772,0,0,1,115.041.166Zm-.191-8.052a2.048,2.048,0,0,0-1.561.677,3.288,3.288,0,0,0-.78,1.9h4.5v-.116a2.925,2.925,0,0,0-.631-1.814A1.928,1.928,0,0,0,114.85-7.886Zm5.063,3.312a5.3,5.3,0,0,1,.519-2.374,3.87,3.87,0,0,1,1.444-1.627,3.932,3.932,0,0,1,2.113-.573,3.788,3.788,0,0,1,2.968,1.27A4.886,4.886,0,0,1,128.089-4.5v.108a5.351,5.351,0,0,1-.5,2.353,3.813,3.813,0,0,1-1.436,1.623,3.977,3.977,0,0,1-2.146.581,3.778,3.778,0,0,1-2.959-1.27,4.861,4.861,0,0,1-1.133-3.362Zm1.544.183a3.842,3.842,0,0,0,.693,2.4,2.218,2.218,0,0,0,1.855.9A2.2,2.2,0,0,0,125.865-2a4.2,4.2,0,0,0,.689-2.569,3.836,3.836,0,0,0-.7-2.395,2.23,2.23,0,0,0-1.864-.917,2.205,2.205,0,0,0-1.834.9A4.17,4.17,0,0,0,121.457-4.391Z" transform="translate(-3464.37 -10854.308)" fill="#fff"/>
    <g id="jS21yb.tif" transform="translate(-3439.7 -13503.924)">
      <g id="Grupo_142300" data-name="Grupo 142300" transform="translate(-132.259 2625.498)">
        <path id="Trazado_118083" data-name="Trazado 118083" d="M-105.98,2637.39c1.214-1.441,2.268-2.7,3.328-3.949a2.138,2.138,0,0,1,3.418-.306c2.108,1.742,2.169,2.416.406,4.515-2.257,2.687-4.522,5.366-6.757,8.071a1.8,1.8,0,0,0-.379,1.055c-.026,4.132-.015,8.264-.018,12.4,0,1.525-.652,2.174-2.182,2.174q-10.975,0-21.949,0c-1.484,0-2.145-.658-2.146-2.135q0-15.792,0-31.584a1.838,1.838,0,0,1,2.089-2.117c6,0,12,0,17.992-.01a2.344,2.344,0,0,1,1.8.731q1.825,1.869,3.695,3.7a2.251,2.251,0,0,1,.71,1.732C-105.993,2633.491-105.98,2635.325-105.98,2637.39Zm-1.194-5.912c-1.313,0-2.55,0-3.787,0-.869,0-.987-.123-.99-1,0-1.236,0-2.472,0-3.726a3.244,3.244,0,0,0-.362-.048q-8.956,0-17.912-.01c-.736,0-.846.4-.845,1.008q.012,15.712.007,31.424c0,.917.111,1.025,1.039,1.026q10.9,0,21.792,0c.965,0,1.058-.1,1.058-1.081q0-5.3,0-10.6v-.862c-1.085,1.285-2.019,2.4-2.964,3.506a2.148,2.148,0,0,1-.643.605q-2.2,1-4.443,1.933a.588.588,0,0,1-.848-.713c.352-1.577.734-3.147,1.136-4.712a1.932,1.932,0,0,1,.439-.677c2.053-2.466,4.068-4.966,6.193-7.369a4.139,4.139,0,0,0,1.155-3.2C-107.249,2635.177-107.173,2633.364-107.173,2631.478Zm3.846,4.606-10.193,12.153,2.494,2.093,10.194-12.15Z" transform="translate(132.259 -2625.498)" fill="#12263f"/>
        <path id="Trazado_118084" data-name="Trazado 118084" d="M-102,2753.825h-1.637a.646.646,0,0,1-.732-.731c0-1.117,0-2.233,0-3.35a.62.62,0,0,1,.691-.692c1.116,0,2.233,0,3.349,0a.646.646,0,0,1,.733.731c0,1.116,0,2.233,0,3.35a.621.621,0,0,1-.691.693C-100.856,2753.828-101.427,2753.824-102,2753.825Zm1.2-3.532h-2.315v2.277h2.315Z" transform="translate(108.549 -2730.524)" fill="#12263f"/>
        <path id="Trazado_118085" data-name="Trazado 118085" d="M-101.975,2796.821c.521,0,1.042.007,1.563,0s.793.216.791.75q0,1.638,0,3.275c0,.533-.268.759-.786.755-1.067-.008-2.134-.009-3.2,0-.571.006-.8-.272-.794-.826.012-1.042.016-2.084,0-3.126-.01-.61.275-.852.864-.831C-103.018,2796.835-102.5,2796.821-101.975,2796.821Zm1.112,3.568v-2.319h-2.28v2.319Z" transform="translate(108.579 -2771.127)" fill="#12263f"/>
        <path id="Trazado_118086" data-name="Trazado 118086" d="M-58.439,2713.176c1.689,0,3.378,0,5.067,0,.461,0,.906.058.883.634-.021.523-.452.565-.879.564q-5.067-.007-10.133,0c-.46,0-.906-.057-.883-.634.021-.524.452-.566.879-.564C-61.817,2713.18-60.128,2713.176-58.439,2713.176Z" transform="translate(74.563 -2700.027)" fill="#12263f"/>
        <path id="Trazado_118087" data-name="Trazado 118087" d="M-56.5,2666.56c-1.017,0-2.037.041-3.05-.027a1,1,0,0,1-.753-.57c-.087-.448.311-.6.736-.6,2.059,0,4.119-.02,6.177.027.268.007.528.367.791.563-.259.2-.507.559-.777.576C-54.413,2666.6-55.458,2666.56-56.5,2666.56Z" transform="translate(71.103 -2659.385)" fill="#12263f"/>
        <path id="Trazado_118088" data-name="Trazado 118088" d="M-101.1,2656.517c.488-.967.916-1.8,1.329-2.637.2-.406.435-.806.948-.541s.313.7.112,1.093c-.515,1.016-1.015,2.04-1.535,3.054-.361.7-.692.761-1.25.225a16.623,16.623,0,0,1-1.505-1.54c-.157-.2-.065-.593-.087-.9.305.026.686-.053.9.1A8.373,8.373,0,0,1-101.1,2656.517Z" transform="translate(107.466 -2649.092)" fill="#12263f"/>
        <path id="Trazado_118089" data-name="Trazado 118089" d="M-102.131,2704.306c.48-.954.893-1.769,1.3-2.587.2-.394.407-.824.936-.577s.355.676.151,1.078c-.527,1.038-1.036,2.085-1.57,3.119-.338.654-.676.708-1.206.2-.5-.478-.984-.979-1.478-1.467-.291-.288-.488-.609-.149-.965.373-.392.714-.18,1.017.136S-102.521,2703.894-102.131,2704.306Z" transform="translate(108.517 -2689.739)" fill="#12263f"/>
        <path id="Trazado_118090" data-name="Trazado 118090" d="M-61.079,2762.163c-.843,0-1.686,0-2.529,0-.432,0-.8-.179-.711-.626a.94.94,0,0,1,.709-.542c1.685-.048,3.372-.024,5.058-.026.432,0,.8.179.711.626a.957.957,0,0,1-.711.542C-59.389,2762.207-60.236,2762.163-61.079,2762.163Z" transform="translate(74.519 -2740.653)" fill="#12263f"/>
        <path id="Trazado_118091" data-name="Trazado 118091" d="M-62.127,2809.89a9.909,9.909,0,0,1-1.63-.026c-.263-.044-.48-.367-.717-.563.233-.2.458-.56.7-.574a30.2,30.2,0,0,1,3.341,0c.248.014.477.366.714.563-.233.2-.446.532-.7.574A11.014,11.014,0,0,1-62.127,2809.89Z" transform="translate(74.638 -2781.212)" fill="#12263f"/>
      </g>
    </g>
  </g>
</svg>
