<svg xmlns="http://www.w3.org/2000/svg" xmlns:xlink="http://www.w3.org/1999/xlink" width="347.5" height="58.399" viewBox="0 0 347.5 58.399">
  <defs>
    <linearGradient id="linear-gradient" x1="0.5" x2="0.5" y2="1" gradientUnits="objectBoundingBox">
      <stop offset="0" stop-color="#4dd0e1"/>
      <stop offset="1" stop-color="#039be5"/>
    </linearGradient>
  </defs>
  <g id="link2" transform="translate(-1033.123 -894.471)">
    <rect id="Rectángulo_37209" data-name="Rectángulo 37209" width="346.377" height="58.399" rx="10" transform="translate(1034.246 894.471)" fill="url(#linear-gradient)"/>
    <g id="Rectángulo_37210" data-name="Rectángulo 37210" transform="translate(1033.123 894.471)" fill="#fff" stroke="#afafaf" stroke-width="1">
      <rect width="55.03" height="58.399" rx="10" stroke="none"/>
      <rect x="0.5" y="0.5" width="54.03" height="57.399" rx="9.5" fill="none"/>
    </g>
    <path id="Trazado_183588" data-name="Trazado 183588" d="M10.293-3.835A4.447,4.447,0,0,1,8.878-.876,4.638,4.638,0,0,1,5.711.166,4.259,4.259,0,0,1,2.279-1.37,6.178,6.178,0,0,1,.988-5.479V-6.641A6.886,6.886,0,0,1,1.59-9.6,4.5,4.5,0,0,1,3.3-11.567a4.75,4.75,0,0,1,2.557-.685A4.367,4.367,0,0,1,8.94-11.177,4.5,4.5,0,0,1,10.293-8.2h-1.6a3.472,3.472,0,0,0-.9-2.1,2.725,2.725,0,0,0-1.938-.649,2.851,2.851,0,0,0-2.395,1.13A5.187,5.187,0,0,0,2.59-6.6v1.171A5.332,5.332,0,0,0,3.412-2.3a2.655,2.655,0,0,0,2.3,1.163,3.067,3.067,0,0,0,2.038-.6,3.34,3.34,0,0,0,.942-2.1ZM17.772,0a3.226,3.226,0,0,1-.216-.946A3.426,3.426,0,0,1,15,.166a3.17,3.17,0,0,1-2.179-.751A2.43,2.43,0,0,1,11.97-2.49a2.539,2.539,0,0,1,1.067-2.179,5.029,5.029,0,0,1,3-.776h1.494v-.706a1.725,1.725,0,0,0-.481-1.282,1.935,1.935,0,0,0-1.419-.477,2.239,2.239,0,0,0-1.378.415,1.223,1.223,0,0,0-.556,1H12.152a2.119,2.119,0,0,1,.477-1.3,3.258,3.258,0,0,1,1.295-.992,4.356,4.356,0,0,1,1.8-.365,3.551,3.551,0,0,1,2.432.776,2.8,2.8,0,0,1,.913,2.137V-2.1a5.054,5.054,0,0,0,.315,1.967V0ZM15.224-1.17a2.7,2.7,0,0,0,1.37-.374,2.259,2.259,0,0,0,.938-.971V-4.358h-1.2q-2.822,0-2.822,1.652a1.4,1.4,0,0,0,.481,1.129A1.85,1.85,0,0,0,15.224-1.17Zm1.419-11.58H18.5l-2.225,2.44-1.237,0ZM23.143,0H21.607V-12.75h1.536ZM29.2-1.087a2.212,2.212,0,0,0,1.436-.5,1.752,1.752,0,0,0,.681-1.245h1.453a2.785,2.785,0,0,1-.531,1.469A3.5,3.5,0,0,1,30.933-.249,3.772,3.772,0,0,1,29.2.166a3.7,3.7,0,0,1-2.918-1.224A4.877,4.877,0,0,1,25.2-4.408v-.257A5.407,5.407,0,0,1,25.683-7a3.667,3.667,0,0,1,1.382-1.585,3.926,3.926,0,0,1,2.129-.564,3.6,3.6,0,0,1,2.511.9,3.234,3.234,0,0,1,1.067,2.349H31.319a2.116,2.116,0,0,0-.66-1.432,2.053,2.053,0,0,0-1.465-.56,2.149,2.149,0,0,0-1.814.843,3.957,3.957,0,0,0-.643,2.436v.291a3.878,3.878,0,0,0,.639,2.391A2.16,2.16,0,0,0,29.2-1.087Zm10.841.2A3.262,3.262,0,0,1,37.412.166a2.792,2.792,0,0,1-2.187-.834,3.611,3.611,0,0,1-.76-2.469V-8.981H36v5.8q0,2.042,1.66,2.042A2.3,2.3,0,0,0,40-2.449V-8.981h1.536V0H40.076Zm5.5.888H44V-12.75h1.536Zm2.05-4.574a5.3,5.3,0,0,1,.519-2.374,3.87,3.87,0,0,1,1.444-1.627,3.932,3.932,0,0,1,2.113-.573,3.788,3.788,0,0,1,2.968,1.27A4.886,4.886,0,0,1,55.765-4.5v.108a5.351,5.351,0,0,1-.5,2.353A3.813,3.813,0,0,1,53.826-.415a3.977,3.977,0,0,1-2.146.581A3.778,3.778,0,0,1,48.721-1.1a4.861,4.861,0,0,1-1.133-3.362Zm1.544.183a3.842,3.842,0,0,0,.693,2.4,2.218,2.218,0,0,0,1.855.9A2.2,2.2,0,0,0,53.54-2a4.2,4.2,0,0,0,.689-2.569,3.836,3.836,0,0,0-.7-2.395,2.23,2.23,0,0,0-1.864-.917,2.205,2.205,0,0,0-1.834.9A4.17,4.17,0,0,0,49.132-4.391Zm12.393-.174A5.261,5.261,0,0,1,62.5-7.89,3.1,3.1,0,0,1,65.07-9.147a3.115,3.115,0,0,1,2.5,1.079V-12.75H69.1V0H67.693l-.075-.963A3.127,3.127,0,0,1,65.053.166a3.068,3.068,0,0,1-2.544-1.278,5.321,5.321,0,0,1-.984-3.337Zm1.536.174A3.984,3.984,0,0,0,63.692-2a2.039,2.039,0,0,0,1.743.863,2.24,2.24,0,0,0,2.133-1.312V-6.574a2.257,2.257,0,0,0-2.117-1.27,2.049,2.049,0,0,0-1.76.872A4.386,4.386,0,0,0,63.061-4.391ZM75.213.166a3.924,3.924,0,0,1-2.972-1.2A4.452,4.452,0,0,1,71.1-4.242v-.282a5.39,5.39,0,0,1,.51-2.386,3.982,3.982,0,0,1,1.428-1.644,3.59,3.59,0,0,1,1.988-.594,3.364,3.364,0,0,1,2.723,1.154,5,5,0,0,1,.971,3.3v.639H72.632a3.193,3.193,0,0,0,.776,2.146,2.44,2.44,0,0,0,1.888.818,2.675,2.675,0,0,0,1.378-.332,3.462,3.462,0,0,0,.988-.88l.938.73A3.772,3.772,0,0,1,75.213.166Zm-.191-8.052a2.048,2.048,0,0,0-1.561.677,3.288,3.288,0,0,0-.78,1.9h4.5v-.116a2.925,2.925,0,0,0-.631-1.814A1.928,1.928,0,0,0,75.022-7.886Zm11.123-1.1.042,1a3.317,3.317,0,0,1,2.665-1.162A2.568,2.568,0,0,1,91.417-7.7a3.4,3.4,0,0,1,1.166-1.046,3.445,3.445,0,0,1,1.7-.4q2.955,0,3,3.129V0H95.75V-5.927a2.062,2.062,0,0,0-.44-1.44,1.937,1.937,0,0,0-1.478-.477,2.036,2.036,0,0,0-1.419.51,2.071,2.071,0,0,0-.656,1.374V0H90.213V-5.885A1.713,1.713,0,0,0,88.3-7.844a2.055,2.055,0,0,0-2.067,1.287V0H84.693V-8.981ZM103.328.166a3.924,3.924,0,0,1-2.972-1.2,4.452,4.452,0,0,1-1.146-3.208v-.282a5.39,5.39,0,0,1,.51-2.386,3.982,3.982,0,0,1,1.428-1.644,3.59,3.59,0,0,1,1.988-.594,3.364,3.364,0,0,1,2.723,1.154,5,5,0,0,1,.971,3.3v.639h-6.084a3.193,3.193,0,0,0,.776,2.146,2.44,2.44,0,0,0,1.888.818,2.675,2.675,0,0,0,1.378-.332,3.462,3.462,0,0,0,.988-.88l.938.73A3.772,3.772,0,0,1,103.328.166Zm-.191-8.052a2.048,2.048,0,0,0-1.561.677,3.288,3.288,0,0,0-.78,1.9h4.5v-.116a2.925,2.925,0,0,0-.631-1.814A1.928,1.928,0,0,0,103.137-7.886Zm.747-4.864h1.859l-2.225,2.44-1.237,0Zm6.807,1.594v2.175h1.677v1.187h-1.677v5.577a1.247,1.247,0,0,0,.224.81.943.943,0,0,0,.764.27,3.718,3.718,0,0,0,.73-.1V0a4.478,4.478,0,0,1-1.179.165,1.912,1.912,0,0,1-1.552-.623,2.675,2.675,0,0,1-.523-1.768v-5.57H107.52V-8.981h1.635v-2.175ZM118.5-7.6a4.6,4.6,0,0,0-.755-.058,2.024,2.024,0,0,0-2.05,1.287V0h-1.536V-8.981h1.494l.025,1.038a2.391,2.391,0,0,1,2.142-1.2,1.569,1.569,0,0,1,.681.116Zm3.08,7.6h-1.536V-8.981h1.536Zm-1.66-11.364a.917.917,0,0,1,.228-.631.857.857,0,0,1,.677-.257.87.87,0,0,1,.681.257.907.907,0,0,1,.232.631.877.877,0,0,1-.232.623.886.886,0,0,1-.681.249.872.872,0,0,1-.677-.249A.886.886,0,0,1,119.921-11.364Zm7.72,10.276a2.212,2.212,0,0,0,1.436-.5,1.752,1.752,0,0,0,.681-1.245h1.453a2.785,2.785,0,0,1-.531,1.469,3.5,3.5,0,0,1-1.307,1.112,3.772,3.772,0,0,1-1.731.415,3.7,3.7,0,0,1-2.918-1.224,4.877,4.877,0,0,1-1.083-3.349v-.257A5.407,5.407,0,0,1,124.122-7,3.667,3.667,0,0,1,125.5-8.583a3.926,3.926,0,0,1,2.129-.564,3.6,3.6,0,0,1,2.511.9,3.234,3.234,0,0,1,1.067,2.349h-1.453a2.116,2.116,0,0,0-.66-1.432,2.053,2.053,0,0,0-1.465-.56,2.149,2.149,0,0,0-1.814.843,3.957,3.957,0,0,0-.643,2.436v.291a3.878,3.878,0,0,0,.639,2.391A2.16,2.16,0,0,0,127.641-1.087ZM138.482,0a3.226,3.226,0,0,1-.216-.946A3.426,3.426,0,0,1,135.709.166a3.17,3.17,0,0,1-2.179-.751,2.43,2.43,0,0,1-.851-1.905,2.539,2.539,0,0,1,1.067-2.179,5.029,5.029,0,0,1,3-.776h1.494v-.706a1.725,1.725,0,0,0-.481-1.282,1.935,1.935,0,0,0-1.419-.477,2.239,2.239,0,0,0-1.378.415,1.223,1.223,0,0,0-.556,1h-1.544a2.119,2.119,0,0,1,.477-1.3,3.258,3.258,0,0,1,1.295-.992,4.356,4.356,0,0,1,1.8-.365,3.551,3.551,0,0,1,2.432.776,2.8,2.8,0,0,1,.913,2.137V-2.1a5.054,5.054,0,0,0,.315,1.967V0Zm-2.548-1.17a2.7,2.7,0,0,0,1.37-.374,2.259,2.259,0,0,0,.938-.971V-4.358h-1.2q-2.822,0-2.822,1.652a1.4,1.4,0,0,0,.481,1.129A1.85,1.85,0,0,0,135.934-1.17Zm11.48-1.212a1.13,1.13,0,0,0-.469-.967,4.514,4.514,0,0,0-1.635-.594,7.731,7.731,0,0,1-1.851-.6,2.633,2.633,0,0,1-1.013-.83,1.986,1.986,0,0,1-.328-1.146,2.33,2.33,0,0,1,.934-1.868,3.647,3.647,0,0,1,2.386-.764,3.753,3.753,0,0,1,2.478.789,2.5,2.5,0,0,1,.95,2.017h-1.544a1.386,1.386,0,0,0-.535-1.087,2.006,2.006,0,0,0-1.349-.457,2.1,2.1,0,0,0-1.312.365,1.15,1.15,0,0,0-.473.955.932.932,0,0,0,.44.838,5.413,5.413,0,0,0,1.59.54,8.283,8.283,0,0,1,1.864.614,2.718,2.718,0,0,1,1.058.859,2.112,2.112,0,0,1,.344,1.224,2.3,2.3,0,0,1-.963,1.93,4.039,4.039,0,0,1-2.5.726,4.523,4.523,0,0,1-1.909-.382,3.105,3.105,0,0,1-1.3-1.067,2.571,2.571,0,0,1-.469-1.482h1.536a1.59,1.59,0,0,0,.618,1.224,2.4,2.4,0,0,0,1.523.452,2.476,2.476,0,0,0,1.4-.353A1.084,1.084,0,0,0,147.414-2.382Zm7.371-2.183a5.261,5.261,0,0,1,.979-3.324,3.1,3.1,0,0,1,2.565-1.258,3.115,3.115,0,0,1,2.5,1.079V-12.75h1.536V0h-1.411l-.075-.963A3.127,3.127,0,0,1,158.313.166a3.068,3.068,0,0,1-2.544-1.278,5.321,5.321,0,0,1-.984-3.337Zm1.536.174A3.984,3.984,0,0,0,156.951-2a2.039,2.039,0,0,0,1.743.863,2.24,2.24,0,0,0,2.133-1.312V-6.574a2.257,2.257,0,0,0-2.117-1.27,2.049,2.049,0,0,0-1.76.872A4.386,4.386,0,0,0,156.32-4.391ZM168.473.166a3.924,3.924,0,0,1-2.972-1.2,4.452,4.452,0,0,1-1.146-3.208v-.282a5.39,5.39,0,0,1,.51-2.386,3.982,3.982,0,0,1,1.428-1.644,3.59,3.59,0,0,1,1.988-.594A3.364,3.364,0,0,1,171-7.994a5,5,0,0,1,.971,3.3v.639h-6.084a3.193,3.193,0,0,0,.776,2.146,2.44,2.44,0,0,0,1.888.818,2.675,2.675,0,0,0,1.378-.332,3.462,3.462,0,0,0,.988-.88l.938.73A3.772,3.772,0,0,1,168.473.166Zm-.191-8.052a2.048,2.048,0,0,0-1.561.677,3.288,3.288,0,0,0-.78,1.9h4.5v-.116a2.925,2.925,0,0,0-.631-1.814A1.928,1.928,0,0,0,168.282-7.886Zm14.335,5.454q.125-.93-1.021-1.312L180.036-4.2q-1.976-.681-1.909-2.258A2.487,2.487,0,0,1,179.21-8.4a3.858,3.858,0,0,1,2.411-.743,3.216,3.216,0,0,1,2.212.793,2.511,2.511,0,0,1,.818,2.021l-1.494-.008a1.4,1.4,0,0,0-.423-1.1,1.675,1.675,0,0,0-1.17-.44,2.187,2.187,0,0,0-1.345.382,1.4,1.4,0,0,0-.606.979q-.108.78.955,1.137l.755.208a4.864,4.864,0,0,1,2.191,1.038,1.982,1.982,0,0,1,.6,1.585,2.518,2.518,0,0,1-.548,1.461,3.132,3.132,0,0,1-1.328.95,4.442,4.442,0,0,1-1.768.3,3.5,3.5,0,0,1-2.357-.834,2.579,2.579,0,0,1-.9-2.1l1.5.008a1.592,1.592,0,0,0,.481,1.212,1.84,1.84,0,0,0,1.32.457,2.588,2.588,0,0,0,1.419-.344A1.325,1.325,0,0,0,182.617-2.432Zm8.01-6.715a3.237,3.237,0,0,1,1.934.614,3.49,3.49,0,0,1,1.191,1.648,5.1,5.1,0,0,1,.261,2.3L194-4.408a6.041,6.041,0,0,1-.78,2.37,4.578,4.578,0,0,1-1.61,1.648,3.927,3.927,0,0,1-2.167.556,3.243,3.243,0,0,1-1.93-.614,3.411,3.411,0,0,1-1.183-1.627,5.239,5.239,0,0,1-.266-2.266,6.12,6.12,0,0,1,.755-2.507,4.685,4.685,0,0,1,1.623-1.722A3.881,3.881,0,0,1,190.627-9.147Zm-3.055,4.814a5.1,5.1,0,0,0,0,1.087,2.664,2.664,0,0,0,.585,1.561,1.757,1.757,0,0,0,1.341.606,2.394,2.394,0,0,0,1.378-.369,3.1,3.1,0,0,0,1.063-1.191,5.016,5.016,0,0,0,.556-1.768,7.964,7.964,0,0,0,.025-1.287,2.765,2.765,0,0,0-.606-1.585,1.8,1.8,0,0,0-1.345-.614,2.448,2.448,0,0,0-1.976.913,4.511,4.511,0,0,0-1,2.457ZM195.857,0l1.361-7.794h-1.386l.208-1.187h1.378l.149-1.062a3.525,3.525,0,0,1,1.046-2.117,3.109,3.109,0,0,1,2.225-.78,5.19,5.19,0,0,1,1.071.142l-.183,1.261a4.926,4.926,0,0,0-.805-.1,1.715,1.715,0,0,0-1.266.484,2.2,2.2,0,0,0-.6,1.287l-.133.885h1.859l-.208,1.187h-1.859L197.359,0ZM204.9-11.156l-.382,2.175h1.635l-.208,1.187h-1.627l-.938,5.586a1.948,1.948,0,0,0-.008.4.633.633,0,0,0,.706.647,4.3,4.3,0,0,0,.73-.083L204.7.008a4.087,4.087,0,0,1-1.1.149,1.569,1.569,0,0,1-1.345-.66,2.552,2.552,0,0,1-.349-1.731l.913-5.562h-1.585l.208-1.187h1.585l.382-2.175Zm9.563,9.031,2.864-6.856h1.552L214.791,0h-1.22l-.93-6.79L209.4,0h-1.22l-.971-8.981h1.436l.548,6.69,3.188-6.69H213.6ZM224.378,0a2.012,2.012,0,0,1-.058-.473l.025-.473A3.682,3.682,0,0,1,221.722.166a2.684,2.684,0,0,1-1.93-.751,2.274,2.274,0,0,1-.677-1.839,2.765,2.765,0,0,1,1.249-2.229,5.318,5.318,0,0,1,3.067-.8L225-5.445l.1-.714a1.641,1.641,0,0,0-.311-1.274,1.5,1.5,0,0,0-1.183-.486,2.317,2.317,0,0,0-1.365.378,1.607,1.607,0,0,0-.726,1.042L220-6.491a2.408,2.408,0,0,1,.614-1.4A3.574,3.574,0,0,1,222-8.836a4.478,4.478,0,0,1,1.751-.32,2.978,2.978,0,0,1,2.183.851,2.639,2.639,0,0,1,.656,2.171l-.73,4.449-.042.639a3.134,3.134,0,0,0,.1.9L225.906,0Zm-2.357-1.162a2.62,2.62,0,0,0,1.365-.344,3.457,3.457,0,0,0,1.108-1l.324-1.851-1.137-.008a4.308,4.308,0,0,0-2.175.448,1.651,1.651,0,0,0-.855,1.27,1.286,1.286,0,0,0,.295,1.05A1.4,1.4,0,0,0,222.021-1.162Zm11.5-6.45-.706-.075a2.571,2.571,0,0,0-2.274,1.3L229.442,0h-1.5L229.5-8.981l1.453-.008-.224,1.046a2.685,2.685,0,0,1,2.25-1.22,2.756,2.756,0,0,1,.714.125ZM237.485.166a3.238,3.238,0,0,1-2.623-1.237,4.256,4.256,0,0,1-.8-3.08l.042-.357a5.976,5.976,0,0,1,.793-2.44,4.611,4.611,0,0,1,1.59-1.664,3.709,3.709,0,0,1,2.025-.535,2.856,2.856,0,0,1,2.175.921,3.789,3.789,0,0,1,.863,2.407,7.034,7.034,0,0,1-.033,1.079l-.091.689H235.56a3.034,3.034,0,0,0,.4,2.075,1.907,1.907,0,0,0,1.648.888,3.2,3.2,0,0,0,2.457-1.2l.863.73a3.95,3.95,0,0,1-1.457,1.274A4.129,4.129,0,0,1,237.485.166Zm.955-8.06a2.195,2.195,0,0,0-1.623.631,4.484,4.484,0,0,0-1.1,1.951l4.366.008.033-.133a2.457,2.457,0,0,0-.336-1.739A1.581,1.581,0,0,0,238.44-7.894Z" transform="translate(1102.753 929.563)" fill="#fff"/>
    <g id="tJppI8" transform="translate(469.806 -1638.984)">
      <g id="Grupo_142299" data-name="Grupo 142299" transform="translate(573.505 2545.417)">
        <path id="Trazado_118073" data-name="Trazado 118073" d="M573.967,2566.857a2.579,2.579,0,0,1-.46-1.739q.031-3.41,0-6.82a2.446,2.446,0,0,1,.574-1.762,2.788,2.788,0,0,1-.572-2.126c.016-2.273,0-4.547.006-6.82a2.118,2.118,0,0,1,2.164-2.169q14.142-.006,28.284,0a2.14,2.14,0,0,1,2.171,2.133c.015,2.512.023,5.026-.013,7.538a3.355,3.355,0,0,1-.4,1.222c-.08.18-.113.289.01.454a2.174,2.174,0,0,1,.414,1.382c-.013.665,0,1.329,0,1.994a.671.671,0,1,1-1.333.02c-.008-.691,0-1.382,0-2.073a.814.814,0,0,0-.858-.887c-.146-.006-.292,0-.439,0H576.138a5.379,5.379,0,0,0-.558.013.741.741,0,0,0-.729.785q-.007,3.729,0,7.458c0,.537.33.842.929.859.545.015,1.09,0,1.636,0h9.255c.542,0,.838.218.851.62.014.424-.338.721-.87.721q-5.425,0-10.851,0c-.718,0-.952.232-.952.954q0,3.569,0,7.139c0,.715.3,1.013,1.016,1.013q6.144,0,12.287,0a1.174,1.174,0,0,1,.5.08.583.583,0,0,1,.326.665.683.683,0,0,1-.555.556,1.688,1.688,0,0,1-.436.028q-6.044,0-12.088,0a2.147,2.147,0,0,1-1.99-.94,2.45,2.45,0,0,1-.377-1.181c-.033-2.526-.039-5.052,0-7.577A6.583,6.583,0,0,1,573.967,2566.857Zm15.866-20.1H575.794c-.66,0-.946.284-.946.939q0,3.569,0,7.137c0,.772.257,1.03,1.019,1.03h27.918c.736,0,1.018-.275,1.019-1q0-3.528,0-7.056c0-.782-.269-1.051-1.051-1.051Z" transform="translate(-573.505 -2545.417)" fill="#12263f"/>
        <path id="Trazado_118074" data-name="Trazado 118074" d="M778.878,2761.488a9.623,9.623,0,0,1,19.246-.016,9.623,9.623,0,0,1-19.246.016Zm1.332-.019a8.227,8.227,0,0,0,8.3,8.29,8.282,8.282,0,0,0,.1-16.562A8.276,8.276,0,0,0,780.21,2761.469Z" transform="translate(-762.495 -2735.404)" fill="#12263f"/>
        <path id="Trazado_118075" data-name="Trazado 118075" d="M622.057,2723.267a2.153,2.153,0,1,1-.234,4.3,2.219,2.219,0,0,1-2-2.23A2.166,2.166,0,0,1,622.057,2723.267Zm-.044,2.962a.866.866,0,0,0,.826-.8.841.841,0,0,0-1.683-.01A.864.864,0,0,0,622.013,2726.229Z" transform="translate(-616.128 -2709.076)" fill="#12263f"/>
        <path id="Trazado_118076" data-name="Trazado 118076" d="M622.061,2854.377a2.109,2.109,0,0,1,2.162,2.16,2.17,2.17,0,0,1-4.339-.052A2.125,2.125,0,0,1,622.061,2854.377Zm.835,2.15a.82.82,0,0,0-.8-.816.8.8,0,0,0-.883.771.871.871,0,0,0,.84.848A.886.886,0,0,0,622.9,2856.527Z" transform="translate(-616.184 -2829.728)" fill="#12263f"/>
        <path id="Trazado_118077" data-name="Trazado 118077" d="M716.623,2733.764c-.69,0-1.38,0-2.07,0-.529,0-.818-.238-.825-.655-.007-.437.285-.68.839-.681q2.071-.005,4.141,0c.5,0,.821.272.82.67s-.332.661-.835.664C718,2733.768,717.313,2733.764,716.623,2733.764Z" transform="translate(-702.542 -2717.507)" fill="#12263f"/>
        <path id="Trazado_118078" data-name="Trazado 118078" d="M715.812,2771.463c-.478,0-.957,0-1.435,0a.63.63,0,0,1-.684-.572.565.565,0,0,1,.584-.688c1.056-.031,2.114-.027,3.171,0a.57.57,0,0,1,.536.662.611.611,0,0,1-.617.6c-.518.011-1.036,0-1.555,0Z" transform="translate(-702.506 -2752.249)" fill="#12263f"/>
        <path id="Trazado_118079" data-name="Trazado 118079" d="M721.624,2602.889q-3.647,0-7.294,0a.734.734,0,0,1-.734-.372.644.644,0,0,1,.394-.9,2.247,2.247,0,0,1,.588-.062q7.095,0,14.19,0c.093,0,.186,0,.279,0a.633.633,0,0,1,.684.7c-.011.426-.224.627-.693.628Q725.331,2602.892,721.624,2602.889Z" transform="translate(-702.36 -2597.081)" fill="#12263f"/>
        <path id="Trazado_118080" data-name="Trazado 118080" d="M721.735,2640.534q-3.583,0-7.167,0c-.571,0-.852-.219-.855-.653a.618.618,0,0,1,.578-.637c.119-.01.239,0,.359,0h14.084c.186,0,.372-.012.557-.013a.542.542,0,0,1,.6.5c.061.43-.091.7-.443.768a2.978,2.978,0,0,1-.59.046q-3.564,0-7.127,0Z" transform="translate(-702.528 -2631.742)" fill="#12263f"/>
        <path id="Trazado_118081" data-name="Trazado 118081" d="M622.014,2596.7a2.149,2.149,0,1,1,2.181-2.133A2.195,2.195,0,0,1,622.014,2596.7Zm0-1.338a.814.814,0,1,0-.836-.827A.845.845,0,0,0,622.017,2595.361Z" transform="translate(-616.152 -2588.654)" fill="#12263f"/>
        <path id="Trazado_118082" data-name="Trazado 118082" d="M839.01,2832.3a2.256,2.256,0,0,1,.245-.367q2.434-2.444,4.876-4.88a3.735,3.735,0,0,1,.348-.328.626.626,0,0,1,.865.056.686.686,0,0,1,.038.874c-.154.183-.331.345-.5.514q-2.65,2.651-5.3,5.3c-.547.546-.814.546-1.367,0q-1.286-1.28-2.566-2.566a2.416,2.416,0,0,1-.215-.235.68.68,0,0,1,.055-.932.623.623,0,0,1,.894.044q1.012.984,2,1.994a5.583,5.583,0,0,1,.415.533Z" transform="translate(-814.394 -2804.153)" fill="#12263f"/>
      </g>
    </g>
  </g>
</svg>
